<svg width="48" height="48" viewBox="0 0 48 48" fill="none" xmlns="http://www.w3.org/2000/svg">
<path d="M3.2 48H44.8C45.6484 47.999 46.4618 47.6616 47.0617 47.0617C47.6616 46.4618 47.999 45.6484 48 44.8V3.2C47.999 2.3516 47.6616 1.53822 47.0617 0.938311C46.4618 0.338401 45.6484 0.000952843 44.8 0H3.2C2.3516 0.000952843 1.53822 0.338401 0.938311 0.938311C0.338401 1.53822 0.000952843 2.3516 0 3.2V44.8C0.000952843 45.6484 0.338401 46.4618 0.938311 47.0617C1.53822 47.6616 2.3516 47.999 3.2 48ZM1.6 44.8H4.8V46.4H3.2C2.7758 46.3995 2.36912 46.2308 2.06917 45.9308C1.76921 45.6309 1.60049 45.2242 1.6 44.8ZM14.4 40H6.4V38.4H14.4V40ZM14.4 41.6V43.2H6.4V41.6H14.4ZM14.4 44.8V46.4H6.4V44.8H14.4ZM14.4 36.8H6.4V35.2H14.4V36.8ZM11.2 33.6H1.6V16H11.2V33.6ZM4.8 35.2V36.8H1.6V35.2H4.8ZM4.8 38.4V40H1.6V38.4H4.8ZM4.8 41.6V43.2H1.6V41.6H4.8ZM44.8 46.4H16V35.2H46.4V44.8C46.3995 45.2242 46.2308 45.6309 45.9308 45.9308C45.6309 46.2308 45.2242 46.3995 44.8 46.4ZM46.4 3.2V33.6H12.8V1.6H44.8C45.2242 1.60049 45.6309 1.76921 45.9308 2.06917C46.2308 2.36912 46.3995 2.7758 46.4 3.2V3.2ZM3.2 1.6H11.2V14.4H1.6V3.2C1.60049 2.7758 1.76921 2.36912 2.06917 2.06917C2.36912 1.76921 2.7758 1.60049 3.2 1.6V1.6Z" fill="#010101"/>
<path d="M19.2 36.8H29.6V38.4H19.2V36.8Z" fill="#010101"/>
<path d="M27.2 40H41.6V41.6H27.2V40Z" fill="#010101"/>
<path d="M23.2 43.2H28V44.8H23.2V43.2Z" fill="#010101"/>
<path d="M30.4 43.2H32.8V44.8H30.4V43.2Z" fill="#010101"/>
<path d="M36 36.8H41.6V38.4H36V36.8Z" fill="#010101"/>
<path d="M4 4.80001C4.44182 4.80001 4.8 4.44184 4.8 4.00001C4.8 3.55818 4.44182 3.20001 4 3.20001C3.55817 3.20001 3.2 3.55818 3.2 4.00001C3.2 4.44184 3.55817 4.80001 4 4.80001Z" fill="#010101"/>
<path d="M6.4 4.80001C6.84183 4.80001 7.2 4.44184 7.2 4.00001C7.2 3.55818 6.84183 3.20001 6.4 3.20001C5.95817 3.20001 5.6 3.55818 5.6 4.00001C5.6 4.44184 5.95817 4.80001 6.4 4.80001Z" fill="#010101"/>
<path d="M8.8 4.80001C9.24183 4.80001 9.6 4.44184 9.6 4.00001C9.6 3.55818 9.24183 3.20001 8.8 3.20001C8.35817 3.20001 8 3.55818 8 4.00001C8 4.44184 8.35817 4.80001 8.8 4.80001Z" fill="#010101"/>
<path d="M36.8 29.6H44.8V31.2H36.8V29.6Z" fill="#010101"/>
<path d="M31.6687 31.2L32.2343 31.7657C32.3086 31.84 32.3968 31.8989 32.4939 31.9391C32.5909 31.9793 32.6949 32 32.8 32C32.9051 32 33.0091 31.9793 33.1061 31.9391C33.2032 31.8989 33.2914 31.84 33.3657 31.7657L34.9657 30.1657C35.04 30.0914 35.0989 30.0032 35.1391 29.9061C35.1793 29.8091 35.2 29.7051 35.2 29.6V27.2C35.2 27.0949 35.1793 26.9909 35.1391 26.8938C35.0989 26.7968 35.04 26.7086 34.9657 26.6343C34.8914 26.56 34.8032 26.5011 34.7061 26.4609C34.6091 26.4207 34.5051 26.4 34.4 26.4H31.2C31.0949 26.4 30.9909 26.4207 30.8939 26.4609C30.7968 26.5011 30.7086 26.56 30.6343 26.6343C30.56 26.7086 30.5011 26.7968 30.4609 26.8938C30.4207 26.9909 30.4 27.0949 30.4 27.2V29.6H14.4V31.2H31.6687ZM32 28H33.6V29.2686L32.8 30.0686L32 29.2686V28Z" fill="#010101"/>
<path d="M3.2 17.6H8V19.2H3.2V17.6Z" fill="#010101"/>
<path d="M3.2 20.8H6.4V22.4H3.2V20.8Z" fill="#010101"/>
<path d="M3.2 24H8V25.6H3.2V24Z" fill="#010101"/>
<path d="M6.4 27.2H9.6V28.8H6.4V27.2Z" fill="#010101"/>
<path d="M6.4 30.4H9.6V32H6.4V30.4Z" fill="#010101"/>
<path d="M19.4665 23.7961C19.5503 23.8711 19.649 23.9276 19.7562 23.9619C19.8633 23.9962 19.9765 24.0075 20.0883 23.9951L27.2883 23.1951C27.4689 23.1751 27.6372 23.0942 27.7657 22.9657L30.7313 20H32.6556L32.0109 23.8685C31.9828 24.0372 32.0095 24.2106 32.0871 24.363C32.1647 24.5155 32.2892 24.639 32.4422 24.7155L34.0422 25.5155C34.1397 25.5643 34.2462 25.5926 34.355 25.5987C34.4639 25.6049 34.5728 25.5887 34.6752 25.5512C34.7775 25.5137 34.8711 25.4557 34.9503 25.3807C35.0294 25.3057 35.0924 25.2153 35.1353 25.1151L37.1496 20.4152C37.351 19.9451 37.4431 19.4353 37.4186 18.9244C37.3942 18.4135 37.2541 17.9149 37.0087 17.4661C36.7633 17.0174 36.4191 16.6302 36.0022 16.334C35.5853 16.0377 35.1065 15.8401 34.602 15.756L32.8649 15.4665L33.9314 14.4H37.6C37.7731 14.4 37.9415 14.3439 38.08 14.24L41.28 11.84C41.4299 11.7276 41.5355 11.5662 41.5786 11.3838C41.6216 11.2015 41.5993 11.0098 41.5155 10.8422L40.7155 9.24225C40.6341 9.07943 40.4997 8.94923 40.3343 8.87317C40.1689 8.7971 39.9825 8.77972 39.806 8.82389L36.8569 9.56115L34.3351 8.55243C34.3781 8.37143 34.3999 8.18605 34.4 8.00001V5.29445C34.4 4.93744 34.3088 4.58635 34.1349 4.27452C33.9611 3.9627 33.7104 3.70049 33.4067 3.5128C33.103 3.32511 32.7564 3.21817 32.3997 3.20213C32.0431 3.18609 31.6883 3.26148 31.3689 3.42116L30.0422 4.08449C29.9093 4.15092 29.7976 4.25305 29.7195 4.37943C29.6414 4.50581 29.6 4.65144 29.6 4.80001V7.20001H26.4C26.2982 7.20002 26.1974 7.21944 26.1029 7.25724L22.1029 8.85724C21.9544 8.91662 21.8272 9.01912 21.7375 9.15151C21.6479 9.28391 21.6 9.44013 21.6 9.60001V11.2C21.6 11.3051 21.6207 11.4091 21.6609 11.5062C21.7011 11.6032 21.76 11.6914 21.8343 11.7657C21.9086 11.84 21.9968 11.8989 22.0938 11.9391C22.1909 11.9793 22.2949 12 22.4 12H26.9754L26.4394 14.1439L24.2062 19.3547L19.747 20.8411C19.5877 20.8942 19.4492 20.996 19.351 21.1323C19.2528 21.2685 19.2 21.4321 19.2 21.6V23.2C19.2 23.3125 19.2237 23.4238 19.2697 23.5265C19.3156 23.6292 19.3826 23.7211 19.4665 23.7961V23.7961ZM35.7314 18.5241C35.8691 18.9366 35.8504 19.3853 35.679 19.7849L33.9989 23.705L33.6862 23.5487L34.3891 19.3316C34.4082 19.2169 34.4021 19.0996 34.3713 18.9875C34.3404 18.8755 34.2855 18.7716 34.2104 18.6829C34.1353 18.5943 34.0418 18.523 33.9364 18.4742C33.831 18.4253 33.7162 18.4 33.6 18.4H29.5071C29.1877 18.4 28.8728 18.3241 28.5884 18.1785C28.3041 18.033 28.0584 17.8219 27.8716 17.5627C27.6848 17.3036 27.5623 17.0038 27.5141 16.6879C27.4659 16.3721 27.4935 16.0494 27.5945 15.7464L27.6906 15.4579L30.9029 16.7428C30.9563 16.7639 31.0119 16.7793 31.0686 16.7885L31.0685 16.7891L34.3389 17.3342C34.6574 17.3868 34.9555 17.5255 35.2009 17.7352C35.4463 17.9449 35.6297 18.2177 35.7314 18.5241V18.5241ZM33.6 12.8C33.4949 12.8 33.3909 12.8207 33.2939 12.8609C33.1968 12.9011 33.1086 12.96 33.0343 13.0343L31.0073 15.0613L28.1455 13.9166L28.7761 11.3941C28.8056 11.2761 28.8078 11.153 28.7826 11.0341C28.7574 10.9151 28.7054 10.8035 28.6306 10.7077C28.5558 10.6119 28.4601 10.5343 28.3508 10.481C28.2416 10.4277 28.1216 10.4 28 10.4H27.2V8.80001H29.7376C29.863 9.1553 30.0703 9.47605 30.3428 9.73625C30.6153 9.99646 30.9452 10.1888 31.3059 10.2977C31.6666 10.4066 32.0478 10.4289 32.4188 10.363C32.7897 10.297 33.1399 10.1446 33.4409 9.918L36.1231 10.9909L36.5754 12.8H33.6ZM32.8 8.00001C32.8 8.21219 32.7157 8.41567 32.5657 8.5657C32.4157 8.71573 32.2122 8.80001 32 8.80001C31.7878 8.80001 31.5843 8.71573 31.4343 8.5657C31.2843 8.41567 31.2 8.21219 31.2 8.00001V7.20001H32.8V8.00001ZM39.7859 10.9606L38.0839 12.2371L37.7702 10.9821L39.5714 10.5318L39.7859 10.9606ZM32.0846 4.85221C32.1599 4.81452 32.2437 4.79673 32.3279 4.80052C32.4121 4.80431 32.4939 4.82955 32.5656 4.87386C32.6373 4.91817 32.6964 4.98007 32.7375 5.05369C32.7785 5.1273 32.8 5.21017 32.8 5.29445V5.60001H31.2V5.29445L32.0846 4.85221ZM23.2 10.1417L25.6 9.18164V10.4H23.2V10.1417ZM20.8 22.1766L25.053 20.7589C25.1602 20.7232 25.2585 20.6652 25.3417 20.5887C25.4248 20.5122 25.4908 20.419 25.5353 20.3151L26.4165 18.2591C26.4431 18.3029 26.4697 18.3468 26.4983 18.3898C26.9884 19.1262 27.732 19.6568 28.5877 19.8809L26.8328 21.6359L20.8 22.3062V22.1766Z" fill="#010101"/>
</svg>
