<svg width="35" height="35" viewBox="0 0 35 35" fill="none" xmlns="http://www.w3.org/2000/svg">
<g clip-path="url(#clip0)">
<path d="M9.22504 1H25.775C30.2751 1 34 4.77518 34 9.42011V25.5798C34 30.2248 30.2751 33.9999 25.775 33.9999H9.22504C4.72486 33.9999 1 30.2248 1 25.5798V9.42011C1 4.77518 4.72486 1 9.22504 1Z" stroke="#0056FF" stroke-width="2" stroke-miterlimit="10"/>
<path fill-rule="evenodd" clip-rule="evenodd" d="M16.4578 16.8949C16.8868 16.6805 17.2086 16.4507 17.4232 16.1903C17.8216 15.7308 18.0055 15.1181 18.0055 14.3522C18.0055 13.617 17.8063 12.9737 17.4232 12.4529C16.7796 11.5951 15.6916 11.1509 14.1438 11.1203H8.02956V23.6039H13.7301C14.3737 23.6039 14.9713 23.5426 15.523 23.4354C16.0747 23.3282 16.5497 23.1137 16.9481 22.8074C17.3006 22.547 17.6071 22.21 17.8369 21.8271C18.22 21.245 18.4039 20.571 18.4039 19.8358C18.4039 19.1159 18.2353 18.5032 17.9135 18.0131C17.5917 17.4923 17.1167 17.1247 16.4578 16.8949ZM10.558 13.28H13.3163C13.9293 13.28 14.4197 13.3413 14.8181 13.4792C15.2778 13.663 15.4924 14.0459 15.4924 14.628C15.4924 15.1487 15.3238 15.5164 14.9713 15.7155C14.6342 15.9146 14.1745 16.0218 13.6382 16.0218H10.558V13.28ZM14.91 21.1991C14.6036 21.3522 14.1745 21.4135 13.6228 21.4135H10.5427V18.0896H13.6535C14.1898 18.0896 14.6189 18.1662 14.9254 18.3041C15.4617 18.5492 15.7375 18.9934 15.7375 19.6367C15.7529 20.4026 15.477 20.9233 14.91 21.1991ZM26.5565 11.6871H21.1318V13.2341H26.5565V11.6871ZM26.0813 14.5514C26.7249 14.8424 27.2612 15.2866 27.6903 15.9146C28.0734 16.466 28.3186 17.094 28.4412 17.814C28.5025 18.2428 28.5331 18.8555 28.5178 19.652H21.6986C21.7446 20.5711 22.0664 21.2297 22.6794 21.5973C23.0471 21.8271 23.5068 21.9496 24.0279 21.9496C24.5948 21.9496 25.0392 21.7964 25.3917 21.5207C25.5909 21.3676 25.7595 21.1684 25.8974 20.8927H28.3952C28.3339 21.4441 28.0274 21.9956 27.4911 22.5623C26.6483 23.466 25.4683 23.9102 23.9666 23.9102C22.7253 23.9102 21.622 23.5273 20.6719 22.7767C19.7218 22.0262 19.2468 20.7855 19.2468 19.0853C19.2468 17.4923 19.6758 16.2669 20.534 15.4091C21.3921 14.5514 22.5108 14.1225 23.8746 14.1225C24.7021 14.1225 25.4223 14.2603 26.0813 14.5514ZM22.4188 16.6345C22.0664 16.9868 21.8519 17.4617 21.7599 18.059H25.9893C25.9434 17.4157 25.7135 16.9409 25.3304 16.6039C24.932 16.2822 24.4569 16.1137 23.8746 16.1137C23.2463 16.1137 22.7713 16.2822 22.4188 16.6345Z" fill="#FAFAFA"/>
</g>
<defs>
<clipPath id="clip0">
<rect width="35" height="34.9999" fill="white"/>
</clipPath>
</defs>
</svg>
