<svg width="48" height="48" viewBox="0 0 48 48" fill="none" xmlns="http://www.w3.org/2000/svg">
<path d="M37.6 6.10352e-05H10.4C9.33953 0.00127427 8.32282 0.42309 7.57294 1.17297C6.82306 1.92285 6.40125 2.93956 6.40003 4.00005V21.6H8.00003V4.00005C8.00076 3.36376 8.25385 2.75373 8.70378 2.3038C9.1537 1.85388 9.76373 1.60079 10.4 1.60006H37.6C38.2363 1.60079 38.8463 1.85388 39.2962 2.3038C39.7462 2.75373 39.9992 3.36376 40 4.00005V44C39.9992 44.6363 39.7462 45.2463 39.2962 45.6962C38.8463 46.1462 38.2363 46.3992 37.6 46.4H12.8V48H37.6C38.6605 47.9988 39.6772 47.5769 40.4271 46.8271C41.1769 46.0772 41.5988 45.0605 41.6 44V4.00005C41.5988 2.93956 41.1769 1.92285 40.4271 1.17297C39.6772 0.42309 38.6605 0.00127427 37.6 6.10352e-05V6.10352e-05Z" fill="#010101"/>
<path d="M38.4 39.1999V4.00001C38.4 3.78784 38.3157 3.58436 38.1656 3.43434C38.0156 3.28431 37.8121 3.20002 37.6 3.20001H10.4C10.1879 3.20002 9.98438 3.28431 9.83435 3.43434C9.68433 3.58436 9.60004 3.78784 9.60003 4.00001V21.6H11.2V4.80001H36.8V38.3999H15.2V39.9999H37.6C37.8121 39.9999 38.0156 39.9156 38.1656 39.7656C38.3157 39.6156 38.4 39.4121 38.4 39.1999V39.1999Z" fill="#010101"/>
<path d="M21.6 43.2C21.6 43.6747 21.7408 44.1387 22.0045 44.5334C22.2682 44.928 22.643 45.2356 23.0816 45.4173C23.5201 45.5989 24.0027 45.6465 24.4682 45.5539C24.9338 45.4613 25.3614 45.2327 25.6971 44.897C26.0327 44.5614 26.2613 44.1338 26.3539 43.6682C26.4465 43.2026 26.399 42.7201 26.2173 42.2815C26.0357 41.843 25.728 41.4682 25.3334 41.2045C24.9387 40.9407 24.4747 40.8 24 40.8C23.3637 40.8007 22.7537 41.0538 22.3037 41.5037C21.8538 41.9537 21.6007 42.5637 21.6 43.2V43.2ZM24.8 43.2C24.8 43.3582 24.7531 43.5129 24.6652 43.6444C24.5773 43.776 24.4523 43.8785 24.3061 43.9391C24.16 43.9996 23.9991 44.0155 23.8439 43.9846C23.6887 43.9537 23.5462 43.8776 23.4343 43.7657C23.3224 43.6538 23.2462 43.5112 23.2154 43.3561C23.1845 43.2009 23.2003 43.04 23.2609 42.8938C23.3214 42.7477 23.424 42.6227 23.5555 42.5348C23.6871 42.4469 23.8418 42.4 24 42.4C24.2121 42.4002 24.4154 42.4846 24.5654 42.6346C24.7154 42.7845 24.7998 42.9879 24.8 43.2V43.2Z" fill="#010101"/>
<path d="M45.6 6.40002C44.9637 6.40075 44.3536 6.65384 43.9037 7.10377C43.4538 7.5537 43.2007 8.16372 43.2 8.80002V37.6C43.2 37.7242 43.2289 37.8467 43.2844 37.9578L44.8844 41.1578C44.9509 41.2906 45.053 41.4024 45.1794 41.4805C45.3058 41.5586 45.4514 41.6 45.6 41.6C45.7485 41.6 45.8941 41.5586 46.0205 41.4805C46.1469 41.4024 46.249 41.2906 46.3155 41.1578L47.9155 37.9578C47.971 37.8467 48 37.7242 47.9999 37.6V8.80002C47.9992 8.16372 47.7461 7.5537 47.2962 7.10377C46.8463 6.65384 46.2362 6.40075 45.6 6.40002V6.40002ZM45.6 8.00002C45.8121 8.00026 46.0154 8.08463 46.1654 8.2346C46.3153 8.38458 46.3997 8.58792 46.4 8.80002V11.2H44.8V8.80002C44.8002 8.58792 44.8846 8.38458 45.0345 8.2346C45.1845 8.08463 45.3879 8.00026 45.6 8.00002V8.00002ZM45.6 39.0111L44.8 37.4111V12.8H46.4V37.4111L45.6 39.0111Z" fill="#010101"/>
<path d="M15.5794 25.4806C15.6954 25.5523 15.8278 25.5931 15.9641 25.5992C16.1003 25.6053 16.2359 25.5765 16.3578 25.5155L16.5841 25.4024C17.1554 26.8128 18.1171 28.0312 19.3563 28.9144C20.5955 29.7977 22.061 30.3092 23.5806 30.389C25.1003 30.4688 26.6113 30.1136 27.9362 29.365C29.2611 28.6164 30.3451 27.5055 31.061 26.1626C31.0858 26.1506 31.1108 26.139 31.1355 26.1267L32.3578 25.5155C32.4907 25.4491 32.6024 25.347 32.6805 25.2206C32.7586 25.0942 32.8 24.9486 32.8 24.8V20C32.8 19.8636 32.7651 19.7295 32.6987 19.6104C32.6323 19.4913 32.5366 19.3911 32.4206 19.3194C32.3046 19.2478 32.1722 19.2069 32.0359 19.2008C31.8997 19.1947 31.7641 19.2235 31.6422 19.2845L31.4159 19.3977C30.8446 17.9871 29.8829 16.7688 28.6436 15.8855C27.4043 15.0023 25.9389 14.4908 24.4191 14.411C22.8994 14.3313 21.3885 14.6865 20.0635 15.4352C18.7386 16.1838 17.6546 17.2948 16.9388 18.6378C16.9141 18.6498 16.8891 18.661 16.8645 18.6734L15.6422 19.2845C15.5093 19.3509 15.3976 19.4531 15.3195 19.5795C15.2414 19.7058 15.2 19.8515 15.2 20V24.8C15.2 24.9364 15.2349 25.0705 15.3013 25.1896C15.3677 25.3087 15.4634 25.4089 15.5794 25.4806ZM24 28.8C22.7079 28.7987 21.4463 28.4069 20.3809 27.6759C19.3154 26.945 18.4957 25.909 18.0294 24.704C18.9305 24.3436 19.9094 24.222 20.8714 24.3509C21.8333 24.4799 22.7456 24.855 23.52 25.4401C24.775 26.3867 26.3039 26.8995 27.8759 26.9012C28.1148 26.9012 28.3541 26.8885 28.5928 26.8647C27.9971 27.48 27.2832 27.9686 26.494 28.3012C25.7047 28.6337 24.8564 28.8034 24 28.8V28.8ZM24 16C25.2921 16.0013 26.5537 16.3931 27.6192 17.1241C28.6846 17.8551 29.5043 18.891 29.9706 20.0961C29.0695 20.4565 28.0906 20.5781 27.1286 20.4492C26.1667 20.3202 25.2544 19.945 24.48 19.36C23.0281 18.2644 21.2168 17.7559 19.4068 17.9358C20.0025 17.3203 20.7165 16.8316 21.5058 16.499C22.2951 16.1663 23.1435 15.9966 24 16V16ZM16.8 20.4945L17.5801 20.1044C18.5213 19.6297 19.5767 19.4283 20.6266 19.523C21.6765 19.6176 22.6789 20.0046 23.52 20.6401C24.5985 21.4546 25.8836 21.9507 27.2296 22.0721C28.5757 22.1934 29.9288 21.9352 31.1355 21.3267L31.2 21.2945V24.3056L30.4199 24.6956C29.4787 25.1703 28.4233 25.3717 27.3734 25.277C26.3235 25.1823 25.3211 24.7953 24.48 24.16C23.4015 23.3455 22.1164 22.8494 20.7704 22.7281C19.4243 22.6067 18.0712 22.8649 16.8645 23.4734L16.8 23.5056V20.4945Z" fill="#010101"/>
<path d="M14.4 12.8H18.4V11.2H13.6C13.3878 11.2 13.1844 11.2843 13.0343 11.4343C12.8843 11.5844 12.8 11.7878 12.8 12V16.8H14.4V12.8Z" fill="#010101"/>
<path d="M35.2 12C35.2 11.7878 35.1157 11.5844 34.9657 11.4343C34.8156 11.2843 34.6121 11.2 34.4 11.2H29.6V12.8H33.6V16.8H35.2V12Z" fill="#010101"/>
<path d="M33.6 32H29.6V33.6H34.4C34.6121 33.6 34.8156 33.5157 34.9657 33.3657C35.1157 33.2156 35.2 33.0122 35.2 32.8V28H33.6V32Z" fill="#010101"/>
<path d="M14.4 18.4H12.8V21.6H14.4V18.4Z" fill="#010101"/>
<path d="M23.2 11.2H20V12.8H23.2V11.2Z" fill="#010101"/>
<path d="M28 11.2H24.8V12.8H28V11.2Z" fill="#010101"/>
<path d="M35.2 18.4H33.6V21.6H35.2V18.4Z" fill="#010101"/>
<path d="M35.2 23.2H33.6V26.4H35.2V23.2Z" fill="#010101"/>
<path d="M28 32H24.8V33.6H28V32Z" fill="#010101"/>
<path d="M23.2 32H20V33.6H23.2V32Z" fill="#010101"/>
<path d="M13.6001 42.4C13.6005 41.8092 13.3821 41.2392 12.987 40.8C13.3945 40.3462 13.6136 39.754 13.5994 39.1443C13.5852 38.5345 13.3389 37.9532 12.9107 37.5188C13.983 36.6856 14.8256 35.5931 15.359 34.3443C15.8925 33.0954 16.0993 31.7314 15.9601 30.3806C15.8208 29.0297 15.34 27.7366 14.563 26.6229C13.7859 25.5092 12.7382 24.6116 11.5185 24.0146C10.2987 23.4176 8.94712 23.1409 7.59092 23.2105C6.23471 23.2802 4.91855 23.6938 3.76636 24.4126C2.61418 25.1314 1.6639 26.1315 1.005 27.319C0.346106 28.5064 0.000281543 29.842 9.52286e-05 31.2C-0.0042065 32.4197 0.272194 33.624 0.807905 34.7197C1.34362 35.8154 2.12427 36.7732 3.08944 37.5188C2.66124 37.9532 2.41491 38.5345 2.40074 39.1443C2.38656 39.754 2.60561 40.3462 3.01318 40.8C2.73364 41.1115 2.54053 41.4908 2.45305 41.9001C2.36556 42.3095 2.38675 42.7346 2.5145 43.1332C2.64226 43.5318 2.87213 43.89 3.18125 44.1722C3.49038 44.4544 3.868 44.6508 4.27655 44.7418L5.68456 47.5578C5.75101 47.6906 5.85314 47.8024 5.97952 47.8805C6.1059 47.9586 6.25152 48 6.40008 48H9.60008C9.74864 48 9.89427 47.9586 10.0206 47.8805C10.147 47.8024 10.2492 47.6906 10.3156 47.5578L11.7236 44.7418C12.2556 44.6221 12.7312 44.3252 13.0721 43.8996C13.4131 43.4741 13.5993 42.9453 13.6001 42.4V42.4ZM4.00009 39.2C4.00033 38.9879 4.08469 38.7845 4.23467 38.6346C4.38465 38.4846 4.58799 38.4002 4.80009 38.4H11.2001C11.4122 38.4 11.6157 38.4843 11.7658 38.6343C11.9158 38.7843 12.0001 38.9878 12.0001 39.2C12.0001 39.4122 11.9158 39.6156 11.7658 39.7657C11.6157 39.9157 11.4122 40 11.2001 40H4.80009C4.58799 39.9997 4.38465 39.9154 4.23467 39.7654C4.08469 39.6154 4.00033 39.4121 4.00009 39.2V39.2ZM6.54442 33.6H9.45574L8.92234 36.8H7.07782L6.54442 33.6ZM1.60009 31.2C1.60024 30.0717 1.89866 28.9635 2.4651 27.9878C3.03154 27.012 3.84587 26.2033 4.82556 25.6437C5.80525 25.084 6.91548 24.7933 8.04373 24.801C9.17197 24.8087 10.2781 25.1145 11.2501 25.6875C12.2221 26.2604 13.0253 27.0801 13.5784 28.0636C14.1315 29.047 14.4147 30.1591 14.3995 31.2873C14.3842 32.4155 14.071 33.5195 13.4916 34.4877C12.9121 35.4558 12.0871 36.2535 11.1 36.8H10.5445L11.1892 32.9315C11.2083 32.8169 11.2022 32.6995 11.1714 32.5875C11.1405 32.4755 11.0856 32.3716 11.0105 32.2829C10.9354 32.1942 10.8419 32.123 10.7365 32.0742C10.6311 32.0253 10.5163 32 10.4001 32H5.60009C5.48389 32 5.3691 32.0253 5.26368 32.0742C5.15826 32.123 5.06475 32.1942 4.98964 32.2829C4.91454 32.3716 4.85965 32.4755 4.82878 32.5875C4.79792 32.6995 4.79183 32.8169 4.81093 32.9315L5.45568 36.8H4.90019C3.89764 36.2493 3.06205 35.4385 2.48131 34.4531C1.90057 33.4676 1.59616 32.3438 1.60009 31.2ZM4.80009 41.6H11.2001C11.4122 41.6 11.6157 41.6843 11.7658 41.8343C11.9158 41.9843 12.0001 42.1878 12.0001 42.4C12.0001 42.6121 11.9158 42.8156 11.7658 42.9657C11.6157 43.1157 11.4122 43.2 11.2001 43.2H4.80009C4.58791 43.2 4.38443 43.1157 4.2344 42.9657C4.08437 42.8156 4.00009 42.6121 4.00009 42.4C4.00009 42.1878 4.08437 41.9843 4.2344 41.8343C4.38443 41.6843 4.58791 41.6 4.80009 41.6ZM9.10564 46.4H6.89452L6.09452 44.8H9.90564L9.10564 46.4Z" fill="#010101"/>
</svg>
