<svg width="48" height="48" viewBox="0 0 48 48" fill="none" xmlns="http://www.w3.org/2000/svg">
<path fill-rule="evenodd" clip-rule="evenodd" d="M16.2268 16.2268C16.5291 15.9244 17.0193 15.9244 17.3216 16.2268L24 22.9051L30.6784 16.2268C30.9807 15.9244 31.4709 15.9244 31.7732 16.2268C32.0756 16.5291 32.0756 17.0193 31.7732 17.3216L25.0949 24L31.7732 30.6784C32.0756 30.9807 32.0756 31.4709 31.7732 31.7732C31.4709 32.0756 30.9807 32.0756 30.6784 31.7732L24 25.0949L17.3216 31.7732C17.0193 32.0756 16.5291 32.0756 16.2268 31.7732C15.9244 31.4709 15.9244 30.9807 16.2268 30.6784L22.9051 24L16.2268 17.3216C15.9244 17.0193 15.9244 16.5291 16.2268 16.2268Z" fill="#FAFAFA"/>
</svg>
