<svg width="240" height="154" viewBox="0 0 240 154" fill="none" xmlns="http://www.w3.org/2000/svg">
<path fill-rule="evenodd" clip-rule="evenodd" d="M100.134 10.6657L100.012 10.343L96.5882 11.4208L96.8108 11.9592C97.4206 13.4871 97.7563 15.1549 97.7563 16.9025C97.7563 24.2676 91.7893 30.2382 84.4285 30.2382C81.442 30.2382 78.6861 29.2559 76.4641 27.5962L94.8201 8.53785H94.8257L97.2809 5.92237L96.9505 5.55747C93.8605 2.14481 89.3945 0 84.4286 0C75.0993 0 67.5363 7.56744 67.5363 16.9023C67.5363 26.2373 75.0993 33.8047 84.4286 33.8047C93.7579 33.8047 101.321 26.2373 101.321 16.9023C101.321 14.7007 100.9 12.5961 100.134 10.6657ZM76.1973 27.6171C76.2446 27.6535 76.2921 27.6896 76.3399 27.7254C78.5788 29.4035 81.3552 30.4021 84.3649 30.416C81.2903 30.4022 78.4591 29.3608 76.1955 27.6171L77.1918 26.5824L76.1973 27.6171ZM94.8282 8.27134L94.8261 8.26895L94.8282 8.26676V8.27134ZM94.8291 8.2724L94.83 8.2734L97.039 5.9202L96.8188 5.67692C93.7743 2.31456 89.3805 0.196333 84.4924 0.178039C89.3798 0.196849 93.7729 2.31496 96.817 5.67692L97.0372 5.92019L94.8291 8.2724ZM84.4286 33.6268L84.4268 33.6268C93.6579 33.6268 101.141 26.139 101.141 16.9023C101.141 14.7235 100.725 12.6412 99.9665 10.7314L99.8368 10.4048L99.8384 10.4042L99.9683 10.7314C100.726 12.6412 101.143 14.7235 101.143 16.9023C101.143 26.139 93.6597 33.6268 84.4286 33.6268ZM84.4285 3.56673C87.3363 3.56673 90.0253 4.49787 92.2159 6.07868L73.9234 25.1103C72.1546 22.8471 71.1008 19.9986 71.1008 16.9025C71.1008 9.53734 77.0678 3.56673 84.4285 3.56673ZM73.9098 25.3793L73.9088 25.3803C72.0398 23.0618 70.9211 20.1133 70.9211 16.9025C70.9211 10.1547 75.8638 4.56227 82.3241 3.55178C75.8647 4.56304 70.923 10.1554 70.923 16.9025C70.923 20.0488 71.9971 22.9432 73.7989 25.2398C73.8356 25.2866 73.8726 25.333 73.9098 25.3793ZM84.4267 3.3888L84.4285 3.38881C84.3866 3.38881 84.3448 3.389 84.303 3.38938C84.3442 3.389 84.3854 3.3888 84.4267 3.3888ZM144.082 16.3081V33.3884H147.268V27.8544C147.268 26.8675 147.496 26.0932 147.951 25.5315C148.421 24.9697 149.051 24.6889 149.84 24.6889C150.583 24.6889 151.175 24.9545 151.615 25.4859C152.07 26.0173 152.298 26.784 152.298 27.7861V33.3884H155.484V27.5356C155.484 25.7744 155.037 24.408 154.142 23.4363C153.262 22.4646 152.086 21.9788 150.614 21.9788C149.203 21.9788 148.087 22.4646 147.268 23.4363V16.3081H144.082ZM105.122 33.3884V22.1154H108.308V23.4591C109.219 22.4267 110.364 21.9105 111.745 21.9105C113.293 21.9105 114.537 22.5633 115.478 23.869C116.555 22.5633 117.928 21.9105 119.597 21.9105C121.084 21.9105 122.26 22.4039 123.125 23.3908C124.005 24.3776 124.445 25.7592 124.445 27.5356V33.3884H121.259V27.8089C121.259 26.7764 121.039 25.987 120.599 25.4404C120.174 24.8938 119.597 24.6205 118.869 24.6205C118.095 24.6205 117.488 24.909 117.048 25.4859C116.608 26.0477 116.388 26.822 116.388 27.8089V33.3884H113.202V27.8089C113.202 26.7916 112.982 26.0097 112.542 25.4632C112.102 24.9014 111.525 24.6205 110.812 24.6205C110.053 24.6205 109.446 24.9166 108.991 25.5087C108.536 26.0856 108.308 26.8827 108.308 27.8999V33.3884H105.122ZM128.391 39.0818V22.1154H131.578V23.5502C132.519 22.457 133.755 21.9105 135.288 21.9105C136.79 21.9105 138.042 22.4722 139.043 23.5957C140.045 24.704 140.545 26.0932 140.545 27.7633C140.545 29.403 140.045 30.7846 139.043 31.9081C138.042 33.0316 136.79 33.5934 135.288 33.5934C133.77 33.5934 132.534 33.0468 131.578 31.9537V39.0818H128.391ZM132.42 29.9268C132.981 30.5037 133.672 30.7922 134.491 30.7922C135.31 30.7922 135.993 30.5037 136.539 29.9268C137.086 29.3499 137.359 28.6287 137.359 27.7633C137.359 26.8827 137.086 26.154 136.539 25.577C135.993 24.9849 135.31 24.6889 134.491 24.6889C133.672 24.6889 132.981 24.9849 132.42 25.577C131.858 26.154 131.578 26.8827 131.578 27.7633C131.578 28.6287 131.858 29.3499 132.42 29.9268ZM164.105 33.5934C162.603 33.5934 161.351 33.0316 160.349 31.9081C159.348 30.7846 158.847 29.3954 158.847 27.7405C158.847 26.0856 159.348 24.704 160.349 23.5957C161.351 22.4722 162.603 21.9105 164.105 21.9105C165.668 21.9105 166.904 22.4494 167.815 23.5274V22.1154H171.001V33.3884H167.815V31.9764C166.889 33.0544 165.652 33.5934 164.105 33.5934ZM162.83 29.9268C163.392 30.5037 164.082 30.7922 164.901 30.7922C165.721 30.7922 166.411 30.5037 166.973 29.9268C167.534 29.3347 167.815 28.6059 167.815 27.7405C167.815 26.8751 167.534 26.154 166.973 25.577C166.411 24.9849 165.721 24.6889 164.901 24.6889C164.082 24.6889 163.392 24.9773 162.83 25.5543C162.284 26.1312 162.011 26.8599 162.011 27.7405C162.011 28.6211 162.284 29.3499 162.83 29.9268ZM176.358 32.9557C177.314 33.5175 178.391 33.7983 179.59 33.7983C181.077 33.7983 182.299 33.4491 183.255 32.7507C184.21 32.0372 184.688 31.1034 184.688 29.9496C184.688 28.6287 184.013 27.6874 182.663 27.1256C182.192 26.9283 181.517 26.7916 180.637 26.7157C179.757 26.6246 179.059 26.5032 178.543 26.3513C178.027 26.1843 177.769 25.8807 177.769 25.4404C177.769 25.0912 177.929 24.7951 178.247 24.5522C178.581 24.3093 178.998 24.1878 179.499 24.1878C180 24.1878 180.417 24.3245 180.751 24.5978C181.085 24.8559 181.305 25.2051 181.411 25.6454L184.119 24.8938C183.861 23.9525 183.323 23.201 182.503 22.6392C181.699 22.0775 180.69 21.7966 179.476 21.7966C178.187 21.7966 177.094 22.1534 176.199 22.867C175.304 23.5805 174.856 24.4611 174.856 25.5087C174.856 26.8448 175.501 27.8013 176.791 28.3782C177.231 28.5604 177.762 28.697 178.384 28.7881C179.021 28.864 179.552 28.9096 179.977 28.9248C180.417 28.9399 180.796 29.031 181.115 29.198C181.434 29.3499 181.593 29.5852 181.593 29.904C181.593 30.3291 181.419 30.6632 181.07 30.9061C180.721 31.1338 180.243 31.2477 179.636 31.2477C178.437 31.2477 177.618 30.7542 177.178 29.7674L174.424 30.6328C174.773 31.6045 175.417 32.3788 176.358 32.9557ZM190.907 19.8608C190.558 20.21 190.14 20.3846 189.655 20.3846C189.169 20.3846 188.745 20.21 188.38 19.8608C188.031 19.5116 187.857 19.0865 187.857 18.5855C187.857 18.1148 188.031 17.7125 188.38 17.3785C188.745 17.0293 189.169 16.8547 189.655 16.8547C190.14 16.8547 190.558 17.0293 190.907 17.3785C191.256 17.7125 191.43 18.1148 191.43 18.5855C191.43 19.0865 191.256 19.5116 190.907 19.8608ZM188.084 33.3884V22.1154H191.203V33.3884H188.084ZM195.148 30.7239V33.3884H205.959V30.6328H199.473L205.732 24.78V22.1154H195.444V24.871H201.407L195.148 30.7239ZM214.813 21.751C216.482 21.751 217.84 22.2824 218.887 23.3452C219.949 24.3928 220.487 25.8427 220.503 27.695C220.503 28.0897 220.495 28.401 220.48 28.6287H211.831C211.983 29.4182 212.332 30.0255 212.878 30.4506C213.424 30.8757 214.069 31.0883 214.813 31.0883C216.057 31.0883 217.013 30.6556 217.68 29.7902L219.615 31.4071C219.099 32.1207 218.409 32.6824 217.544 33.0924C216.679 33.4871 215.776 33.6845 214.835 33.6845C213.136 33.6845 211.717 33.1151 210.579 31.9764C209.441 30.8226 208.872 29.4182 208.872 27.7633C208.872 26.0477 209.434 24.6205 210.556 23.4818C211.695 22.328 213.113 21.751 214.813 21.751ZM214.835 24.2334C214.107 24.2334 213.477 24.4459 212.946 24.871C212.43 25.281 212.074 25.8503 211.877 26.5791H217.635C217.225 25.0153 216.292 24.2334 214.835 24.2334ZM104.534 53.9843L107.784 54.997L81.363 99.1675L78.1688 98.3838L87.4816 82.3119L67.5981 55.0002L70.9486 53.976L89.5549 78.9626L104.534 53.9843ZM110.769 93.4021C112.438 93.4021 113.864 92.8252 115.048 91.6713C116.246 90.5023 116.846 89.0903 116.846 87.4354C116.846 85.7805 116.246 84.3685 115.048 83.1995C113.864 82.0153 112.438 81.4231 110.769 81.4231C109.1 81.4231 107.666 82.0153 106.467 83.1995C105.283 84.3685 104.692 85.7805 104.692 87.4354C104.692 89.0903 105.283 90.5023 106.467 91.6713C107.666 92.8252 109.1 93.4021 110.769 93.4021ZM112.726 89.5989C112.195 90.1606 111.543 90.4339 110.769 90.4187C109.995 90.4339 109.335 90.1606 108.789 89.5989C108.257 89.022 107.992 88.3084 107.992 87.4582C107.992 86.5928 108.257 85.8792 108.789 85.3174C109.335 84.7405 109.995 84.4596 110.769 84.4748C111.543 84.4596 112.195 84.7405 112.726 85.3174C113.272 85.8792 113.545 86.5928 113.545 87.4582C113.545 88.3084 113.272 89.022 112.726 89.5989ZM121.664 91.7624C122.559 92.7341 123.743 93.2199 125.215 93.2199C126.626 93.2199 127.741 92.7189 128.56 91.7169H128.606V93.0833H131.747V81.8103H128.56V87.2532C128.56 88.2856 128.333 89.0827 127.877 89.6444C127.422 90.2062 126.793 90.4871 125.988 90.4871C125.245 90.4871 124.646 90.2138 124.19 89.6672C123.75 89.1207 123.53 88.3388 123.53 87.3215V81.8103H120.344V87.6631C120.344 89.4243 120.784 90.7907 121.664 91.7624ZM135.838 93.0833V81.8103H139.024V83.2678C139.904 82.1291 141.346 81.575 143.349 81.6053V84.9758C142.878 84.7177 142.332 84.5887 141.71 84.5887C140.982 84.5887 140.352 84.8847 139.821 85.4769C139.29 86.069 139.024 86.8812 139.024 87.9136V93.0833H135.838ZM101.321 136.527C101.321 145.862 93.7579 153.429 84.4286 153.429C75.0993 153.429 67.5363 145.862 67.5363 136.527C67.5363 127.192 75.0993 119.625 84.4286 119.625C93.7579 119.625 101.321 127.192 101.321 136.527ZM84.4285 149.863C91.7893 149.863 97.7563 143.892 97.7563 136.527C97.7563 129.162 91.7893 123.191 84.4285 123.191C77.0678 123.191 71.1008 129.162 71.1008 136.527C71.1008 143.892 77.0678 149.863 84.4285 149.863ZM101.143 136.527C101.143 145.764 93.6597 153.251 84.4286 153.251C84.1421 153.251 83.8572 153.244 83.5742 153.23C83.8566 153.244 84.1409 153.251 84.4268 153.251C93.6579 153.251 101.141 145.764 101.141 136.527C101.141 127.776 94.4246 120.595 85.8683 119.864C94.4254 120.594 101.143 127.776 101.143 136.527ZM70.9211 136.527C70.9211 143.752 76.5877 149.653 83.7165 150.022C76.5885 149.652 70.923 143.751 70.923 136.527C70.923 129.064 76.9696 123.013 84.4285 123.013C84.6668 123.013 84.9036 123.019 85.1388 123.032C84.903 123.019 84.6656 123.013 84.4267 123.013C76.9678 123.013 70.9211 129.063 70.9211 136.527ZM116.655 151.415C117.657 152.539 118.908 153.101 120.411 153.101C121.989 153.101 123.225 152.554 124.12 151.461V152.896H127.307V135.815H124.12V143.057C123.225 141.964 121.989 141.418 120.411 141.418C118.908 141.418 117.657 141.979 116.655 143.103C115.654 144.211 115.153 145.593 115.153 147.248C115.153 148.903 115.654 150.292 116.655 151.415ZM121.207 150.299C120.388 150.299 119.705 150.011 119.159 149.434C118.612 148.857 118.339 148.128 118.339 147.248C118.339 146.367 118.612 145.638 119.159 145.061C119.705 144.484 120.388 144.196 121.207 144.196C122.027 144.196 122.717 144.492 123.278 145.084C123.84 145.661 124.12 146.382 124.12 147.248C124.12 148.113 123.84 148.842 123.278 149.434C122.717 150.011 122.027 150.299 121.207 150.299ZM105.122 141.623V152.896H108.308V147.726C108.308 146.694 108.574 145.881 109.105 145.289C109.636 144.697 110.265 144.401 110.994 144.401C111.616 144.401 112.162 144.53 112.632 144.788V141.418C110.63 141.387 109.188 141.941 108.308 143.08V141.623H105.122ZM134.278 139.368C133.929 139.717 133.512 139.892 133.027 139.892C132.541 139.892 132.116 139.717 131.752 139.368C131.403 139.019 131.229 138.594 131.229 138.093C131.229 137.622 131.403 137.22 131.752 136.886C132.116 136.536 132.541 136.362 133.027 136.362C133.512 136.362 133.929 136.536 134.278 136.886C134.627 137.22 134.802 137.622 134.802 138.093C134.802 138.594 134.627 139.019 134.278 139.368ZM131.456 152.896V141.623H134.574V152.896H131.456ZM138.656 141.623V152.896H141.843V147.384C141.843 146.382 142.07 145.593 142.526 145.016C142.996 144.439 143.626 144.15 144.415 144.15C145.158 144.15 145.75 144.424 146.19 144.97C146.645 145.517 146.873 146.299 146.873 147.316V152.896H150.059V147.043C150.059 145.266 149.611 143.885 148.716 142.898C147.836 141.911 146.66 141.418 145.188 141.418C143.838 141.418 142.723 141.934 141.843 142.966V141.623H138.656ZM158.679 153.101C157.177 153.101 155.926 152.539 154.924 151.415C153.923 150.292 153.422 148.903 153.422 147.248C153.422 145.593 153.923 144.211 154.924 143.103C155.926 141.979 157.177 141.418 158.679 141.418C160.242 141.418 161.479 141.957 162.389 143.035V141.623H165.576V152.896H162.389V151.484C161.464 152.562 160.227 153.101 158.679 153.101ZM157.405 149.434C157.966 150.011 158.657 150.299 159.476 150.299C160.295 150.299 160.986 150.011 161.547 149.434C162.109 148.842 162.389 148.113 162.389 147.248C162.389 146.382 162.109 145.661 161.547 145.084C160.986 144.492 160.295 144.196 159.476 144.196C158.657 144.196 157.966 144.484 157.405 145.061C156.859 145.638 156.586 146.367 156.586 147.248C156.586 148.128 156.859 148.857 157.405 149.434ZM169.748 141.623V152.896H172.934V147.726C172.934 146.694 173.2 145.881 173.731 145.289C174.262 144.697 174.892 144.401 175.62 144.401C176.242 144.401 176.788 144.53 177.259 144.788V141.418C175.256 141.387 173.814 141.941 172.934 143.08V141.623H169.748ZM183.525 139.368C183.176 139.717 182.759 139.892 182.274 139.892C181.788 139.892 181.363 139.717 180.999 139.368C180.65 139.019 180.476 138.594 180.476 138.093C180.476 137.622 180.65 137.22 180.999 136.886C181.363 136.536 181.788 136.362 182.274 136.362C182.759 136.362 183.176 136.536 183.525 136.886C183.874 137.22 184.049 137.622 184.049 138.093C184.049 138.594 183.874 139.019 183.525 139.368ZM180.703 152.896V141.623H183.821V152.896H180.703ZM187.903 141.623V152.896H191.09V147.384C191.09 146.382 191.317 145.593 191.773 145.016C192.243 144.439 192.873 144.15 193.662 144.15C194.405 144.15 194.997 144.424 195.437 144.97C195.892 145.517 196.12 146.299 196.12 147.316V152.896H199.306V147.043C199.306 145.266 198.859 143.885 197.963 142.898C197.083 141.911 195.907 141.418 194.436 141.418C193.085 141.418 191.97 141.934 191.09 142.966V141.623H187.903ZM208.587 141.258C210.256 141.258 211.614 141.79 212.661 142.852C213.723 143.9 214.262 145.35 214.277 147.202C214.277 147.597 214.27 147.908 214.254 148.136H205.606C205.757 148.925 206.106 149.533 206.653 149.958C207.199 150.383 207.844 150.595 208.587 150.595C209.831 150.595 210.787 150.163 211.455 149.297L213.39 150.914C212.874 151.628 212.183 152.19 211.318 152.6C210.453 152.994 209.551 153.192 208.61 153.192C206.91 153.192 205.492 152.622 204.354 151.484C203.216 150.33 202.647 148.925 202.647 147.27C202.647 145.555 203.208 144.128 204.331 142.989C205.469 141.835 206.888 141.258 208.587 141.258ZM208.61 143.741C207.882 143.741 207.252 143.953 206.721 144.378C206.205 144.788 205.848 145.357 205.651 146.086H211.409C211 144.522 210.067 143.741 208.61 143.741ZM218.891 152.463C219.847 153.025 220.924 153.305 222.123 153.305C223.61 153.305 224.831 152.956 225.787 152.258C226.743 151.544 227.221 150.611 227.221 149.457C227.221 148.136 226.546 147.195 225.195 146.633C224.725 146.435 224.05 146.299 223.17 146.223C222.29 146.132 221.592 146.01 221.076 145.858C220.56 145.691 220.302 145.388 220.302 144.948C220.302 144.598 220.461 144.302 220.78 144.059C221.114 143.816 221.531 143.695 222.032 143.695C222.532 143.695 222.95 143.832 223.284 144.105C223.617 144.363 223.837 144.712 223.944 145.152L226.652 144.401C226.394 143.46 225.855 142.708 225.036 142.146C224.232 141.585 223.223 141.304 222.009 141.304C220.719 141.304 219.627 141.661 218.732 142.374C217.836 143.088 217.389 143.968 217.389 145.016C217.389 146.352 218.034 147.308 219.323 147.885C219.763 148.068 220.294 148.204 220.917 148.295C221.554 148.371 222.085 148.417 222.51 148.432C222.95 148.447 223.329 148.538 223.648 148.705C223.966 148.857 224.126 149.092 224.126 149.411C224.126 149.836 223.951 150.17 223.602 150.413C223.253 150.641 222.775 150.755 222.168 150.755C220.97 150.755 220.15 150.261 219.71 149.275L216.956 150.14C217.305 151.112 217.95 151.886 218.891 152.463ZM234.901 153.305C233.703 153.305 232.625 153.025 231.669 152.463C230.729 151.886 230.084 151.112 229.735 150.14L232.489 149.275C232.929 150.261 233.748 150.755 234.947 150.755C235.554 150.755 236.032 150.641 236.381 150.413C236.73 150.17 236.904 149.836 236.904 149.411C236.904 149.092 236.745 148.857 236.426 148.705C236.108 148.538 235.728 148.447 235.288 148.432C234.863 148.417 234.332 148.371 233.695 148.295C233.073 148.204 232.542 148.068 232.102 147.885C230.812 147.308 230.167 146.352 230.167 145.016C230.167 143.968 230.615 143.088 231.51 142.374C232.405 141.661 233.498 141.304 234.788 141.304C236.001 141.304 237.01 141.585 237.815 142.146C238.634 142.708 239.173 143.46 239.431 144.401L236.722 145.152C236.616 144.712 236.396 144.363 236.062 144.105C235.728 143.832 235.311 143.695 234.81 143.695C234.31 143.695 233.892 143.816 233.559 144.059C233.24 144.302 233.081 144.598 233.081 144.948C233.081 145.388 233.338 145.691 233.854 145.858C234.37 146.01 235.068 146.132 235.948 146.223C236.828 146.299 237.504 146.435 237.974 146.633C239.324 147.195 240 148.136 240 149.457C240 150.611 239.522 151.544 238.566 152.258C237.61 152.956 236.388 153.305 234.901 153.305ZM32.3702 151.965C33.1744 152.694 34.2213 153.058 35.5111 153.058C36.2242 153.058 36.9677 152.937 37.7415 152.694L37.4001 149.961C37.0056 150.083 36.6187 150.143 36.2394 150.143C34.9496 150.143 34.3048 149.536 34.3048 148.322V144.518H37.4457V141.74H34.3048V138.461H31.1639V141.74H28.7741V144.518H31.1639V149.028C31.1639 150.242 31.566 151.221 32.3702 151.965ZM5.94038 141.376C7.60945 141.376 8.96747 141.907 10.0144 142.97C11.0766 144.017 11.6152 145.467 11.6304 147.32C11.6304 147.714 11.6228 148.025 11.6076 148.253H2.95881C3.11054 149.043 3.45953 149.65 4.00577 150.075C4.55202 150.5 5.19688 150.713 5.94038 150.713C7.1846 150.713 8.14052 150.28 8.80815 149.415L10.7428 151.032C10.2269 151.745 9.53647 152.307 8.67159 152.717C7.80671 153.112 6.90389 153.309 5.96314 153.309C4.26372 153.309 2.84501 152.74 1.70701 151.601C0.569002 150.447 0 149.043 0 147.388C0 145.672 0.561415 144.245 1.68425 143.106C2.82225 141.952 4.24096 141.376 5.94038 141.376ZM5.96314 143.858C5.23482 143.858 4.60512 144.07 4.07405 144.496C3.55816 144.905 3.20158 145.475 3.00433 146.204H8.76263C8.35295 144.64 7.41979 143.858 5.96314 143.858ZM13.8596 153.013L18.0247 147.274L13.8596 141.74H17.6606L20.0049 145.179L22.3264 141.74H26.1273L21.985 147.274L26.1273 153.013H22.3264L20.0049 149.346L17.6378 153.013H13.8596ZM41.4385 153.013V141.74H44.6249V143.197C45.5049 142.059 46.9464 141.505 48.9493 141.535V144.905C48.4789 144.647 47.9327 144.518 47.3106 144.518C46.5822 144.518 45.9525 144.814 45.4215 145.407C44.8904 145.999 44.6249 146.811 44.6249 147.843V153.013H41.4385ZM53.0164 151.533C54.0178 152.656 55.2696 153.218 56.7718 153.218C58.3195 153.218 59.5561 152.679 60.4817 151.601V153.013H63.6681V141.74H60.4817V143.152C59.5713 142.074 58.3347 141.535 56.7718 141.535C55.2696 141.535 54.0178 142.097 53.0164 143.22C52.015 144.329 51.5142 145.71 51.5142 147.365C51.5142 149.02 52.015 150.409 53.0164 151.533ZM57.5684 150.417C56.7491 150.417 56.0587 150.128 55.4972 149.551C54.951 148.974 54.6779 148.246 54.6779 147.365C54.6779 146.484 54.951 145.756 55.4972 145.179C56.0587 144.602 56.7491 144.313 57.5684 144.313C58.3878 144.313 59.0782 144.609 59.6396 145.202C60.201 145.778 60.4817 146.5 60.4817 147.365C60.4817 148.23 60.201 148.959 59.6396 149.551C59.0782 150.128 58.3878 150.417 57.5684 150.417Z" fill="#FAFAFA"/>
</svg>
