<svg width="214" height="215" viewBox="0 0 214 215" fill="none" xmlns="http://www.w3.org/2000/svg">
<path d="M61.2126 135.293L48.5568 141.279L46.0598 136C45.4955 134.806 45.3902 133.617 45.7442 132.432C46.0981 131.247 46.9139 130.352 48.1916 129.748C49.4813 129.138 50.6964 129.072 51.8371 129.55C52.9777 130.028 53.8302 130.864 54.3946 132.057L55.6345 134.679L59.9556 132.635L61.2126 135.293ZM53.3565 135.756L52.2192 133.352C51.9626 132.809 51.5798 132.452 51.0706 132.28C50.5437 132.101 50.003 132.143 49.4486 132.406C48.8941 132.668 48.5248 133.056 48.3406 133.571C48.1507 134.074 48.184 134.597 48.4405 135.139L49.5778 137.544L53.3565 135.756Z" fill="#FAFAFA"/>
<path d="M54.7151 119.791L40.3165 115.644L40.0413 112.376L53.5372 105.8L53.809 109.029L51.5876 110.059L52.0826 115.938L54.4433 116.562L54.7151 119.791ZM49.3332 115.226L48.9976 111.24L43.5453 113.706L49.3332 115.226Z" fill="#FAFAFA"/>
<path d="M56.4127 92.735C55.8358 94.65 54.677 96.0694 52.9365 96.9933C51.1999 97.9044 49.3741 98.0715 47.4591 97.4945C45.5441 96.9176 44.1145 95.7697 43.1701 94.0509C42.2258 92.3321 42.0402 90.5216 42.6133 88.6194C43.0056 87.3172 43.687 86.2344 44.6573 85.3709C45.6276 84.5074 46.7438 83.9455 48.0059 83.6852L48.5465 86.6053C47.7877 86.7666 47.1309 87.0979 46.5761 87.5991C46.0123 88.0838 45.6189 88.6963 45.3958 89.4368C45.0612 90.5475 45.1806 91.607 45.7541 92.6153C46.3149 93.6197 47.1697 94.295 48.3187 94.6412C49.4677 94.9874 50.5597 94.8986 51.5948 94.3749C52.6171 93.8474 53.2956 93.0283 53.6302 91.9176C53.8533 91.1772 53.8656 90.4428 53.6673 89.7147C53.46 88.9699 53.0763 88.3251 52.5163 87.7804L54.5858 85.6258C55.5107 86.5311 56.1435 87.6199 56.4842 88.8923C56.8289 90.1519 56.805 91.4329 56.4127 92.735Z" fill="#FAFAFA"/>
<path d="M61.3438 80.424L50.3638 71.7385L52.1877 69.4327L56.5797 72.9069L57.833 71.3226L55.9101 64.7269L58.1436 61.9035L60.5126 70.1272L69.2725 70.4009L66.9894 73.287L60.0538 73.0284L58.7758 74.644L63.1678 78.1182L61.3438 80.424Z" fill="#FAFAFA"/>
<path d="M74.7365 65.8724L67.4936 53.8916L72.4913 50.8703C73.6209 50.1874 74.7932 49.9616 76.0082 50.1931C77.2232 50.4246 78.1963 51.1451 78.9274 52.3546C79.6655 53.5755 79.8548 54.7776 79.4951 55.961C79.1355 57.1444 78.3909 58.0776 77.2612 58.7605L74.7795 60.2608L77.2524 64.3514L74.7365 65.8724ZM73.4758 58.1043L75.7521 56.7281C76.2656 56.4177 76.5821 56.0005 76.7015 55.4764C76.8255 54.9341 76.7288 54.4005 76.4115 53.8756C76.0942 53.3507 75.67 53.0228 75.1391 52.892C74.6196 52.7542 74.1031 52.8406 73.5896 53.151L71.3133 54.5271L73.4758 58.1043Z" fill="#FAFAFA"/>
<path d="M90.488 57.442L88.2892 43.6158L91.1927 43.154L92.022 48.3685L94.9057 47.9098C96.3278 47.6837 97.5231 47.8986 98.4915 48.5547C99.4578 49.1975 100.045 50.1708 100.252 51.4744C100.459 52.778 100.204 53.8919 99.4873 54.816C98.7681 55.7269 97.6974 56.2955 96.2753 56.5216L90.488 57.442ZM102.635 55.5102L100.437 41.6839L103.34 41.2221L105.539 55.0484L102.635 55.5102ZM93.002 54.531L95.5302 54.1289C96.215 54.02 96.7231 53.7772 97.0547 53.4005C97.3974 53.0084 97.5217 52.5162 97.4274 51.9236C97.3332 51.331 97.0634 50.9082 96.6181 50.655C96.1839 50.3865 95.6244 50.3067 94.9397 50.4156L92.4115 50.8177L93.002 54.531Z" fill="#FAFAFA"/>
<path d="M123.418 50.7283C124.446 51.6653 124.797 52.8351 124.471 54.2377C124.191 55.4455 123.54 56.3005 122.52 56.8026C121.5 57.3047 120.315 57.3989 118.964 57.085L113.159 55.736L116.328 42.0993L121.802 43.3714C123.165 43.6883 124.181 44.294 124.85 45.1884C125.534 46.0729 125.736 47.1191 125.455 48.3269C125.183 49.4957 124.504 50.2962 123.418 50.7283ZM118.582 45.2103L117.83 48.4442L120.48 49.0598C120.986 49.1775 121.437 49.1522 121.832 48.9839C122.23 48.8027 122.496 48.4263 122.628 47.8549C122.761 47.2834 122.687 46.8351 122.407 46.5099C122.13 46.1716 121.738 45.9437 121.231 45.826L118.582 45.2103ZM119.456 54.6123C119.963 54.73 120.428 54.7012 120.852 54.526C121.279 54.3378 121.559 53.9579 121.692 53.3865C121.822 52.828 121.735 52.3767 121.432 52.0324C121.131 51.6752 120.728 51.4377 120.222 51.32L117.319 50.6455L116.554 53.9378L119.456 54.6123Z" fill="#FAFAFA"/>
<path d="M129.344 60.2715L141.537 51.5619L144.269 53.3762L141.041 68.0375L138.341 66.2453L138.914 63.8646L133.999 60.6011L132.043 62.0637L129.344 60.2715ZM136.264 58.8884L139.596 61.1009L141.05 55.296L136.264 58.8884Z" fill="#FAFAFA"/>
<path d="M164.918 75.9159C165.943 77.6177 166.211 79.418 165.72 81.3168C165.236 83.227 164.138 84.698 162.424 85.73C160.711 86.7619 158.897 87.0452 156.983 86.5797C155.075 86.1257 153.608 85.0478 152.583 83.346C151.682 81.8498 151.362 80.26 151.625 78.5765C151.905 76.8977 152.677 75.4912 153.94 74.3571L152.66 72.2327L147.863 75.1222L146.346 72.6038L158.338 65.3801L159.855 67.8985L155.058 70.788L156.338 72.9124C157.931 72.3265 159.529 72.3055 161.133 72.8492C162.755 73.3975 164.017 74.4197 164.918 75.9159ZM155.091 81.8119C155.697 82.817 156.56 83.4489 157.681 83.7076C158.802 83.9664 159.87 83.7896 160.887 83.1773C161.903 82.565 162.559 81.703 162.855 80.5911C163.15 79.4793 162.995 78.4209 162.389 77.4158C161.791 76.4221 160.931 75.7959 159.81 75.5372C158.689 75.2784 157.621 75.4552 156.604 76.0675C155.588 76.6798 154.932 77.5418 154.636 78.6537C154.341 79.7655 154.493 80.8182 155.091 81.8119Z" fill="#FAFAFA"/>
<path d="M172.811 114.535C172.593 116.55 171.716 118.158 170.178 119.36C168.653 120.563 166.89 121.057 164.888 120.841C162.887 120.625 161.263 119.766 160.017 118.263C158.784 116.762 158.277 115.004 158.494 112.989C158.642 111.624 159.113 110.421 159.91 109.38C160.718 108.354 161.731 107.605 162.948 107.133L163.937 109.714C163.236 110.001 162.636 110.466 162.137 111.109C161.638 111.753 161.338 112.485 161.236 113.305C161.11 114.351 161.291 115.283 161.779 116.1C162.266 116.93 162.987 117.524 163.941 117.882L164.58 111.956L167.086 112.227L166.446 118.152C167.439 118.018 168.263 117.598 168.916 116.89C169.582 116.184 169.972 115.308 170.085 114.26C170.173 113.439 170.049 112.667 169.711 111.947C169.373 111.227 168.892 110.645 168.27 110.202L169.764 107.909C170.825 108.641 171.635 109.587 172.194 110.747C172.751 111.92 172.957 113.183 172.811 114.535Z" fill="#FAFAFA"/>
<path d="M156.061 127.064L168.198 134.043L166.523 136.956L157.146 136.732L162.057 144.723L160.382 147.636L148.245 140.658L149.711 138.109L157.496 142.585L153.554 135.958L154.68 133.999L162.363 134.079L154.595 129.613L156.061 127.064Z" fill="#FAFAFA"/>
<path d="M137.227 150.339C138.848 149.168 140.631 148.745 142.575 149.068C144.508 149.399 146.06 150.376 147.23 151.997C148.401 153.619 148.839 155.399 148.545 157.338C148.24 159.285 147.277 160.844 145.655 162.014C144.045 163.177 142.273 163.593 140.34 163.262C138.396 162.938 136.839 161.966 135.668 160.344C134.498 158.723 134.065 156.938 134.369 154.992C134.664 153.053 135.616 151.502 137.227 150.339ZM142.054 151.935C140.922 151.733 139.88 151.976 138.929 152.662C137.977 153.349 137.419 154.262 137.255 155.4C137.098 156.55 137.374 157.616 138.084 158.6C138.795 159.584 139.716 160.177 140.848 160.379C141.989 160.591 143.035 160.354 143.986 159.668C144.937 158.981 145.491 158.063 145.648 156.913C145.802 155.783 145.524 154.726 144.814 153.742C144.104 152.758 143.184 152.156 142.054 151.935Z" fill="#FAFAFA"/>
<path d="M113.844 162.905L111.761 163.393L110.444 157.765L113.307 157.095L114.036 160.211L124.98 157.65L128.169 171.282L125.307 171.952L122.705 160.832L116.707 162.235L119.309 173.355L116.446 174.025L113.844 162.905Z" fill="#FAFAFA"/>
<path d="M104.453 160.913L102.275 174.743L99.3705 174.285L100.836 164.98L93.3645 173.339L90.0849 172.823L92.263 158.993L95.1672 159.451L93.7048 168.736L101.173 160.397L104.453 160.913Z" fill="#FAFAFA"/>
<path d="M85.1564 156.487L78.0447 168.546L75.5123 167.053L80.2974 158.938L70.2752 163.964L67.4154 162.278L74.5271 150.218L77.0595 151.712L72.2845 159.809L82.2967 154.8L85.1564 156.487Z" fill="#FAFAFA"/>
</svg>
