<svg width="48" height="48" viewBox="0 0 48 48" fill="none" xmlns="http://www.w3.org/2000/svg">
<g clip-path="url(#clip0)">
<path d="M36.9001 36.8H35.3001V40H20.9001V41.6H35.3001V44C35.3001 45.3254 34.2255 46.4 32.9001 46.4H15.3001C14.4427 46.3989 13.6505 45.9418 13.22 45.2L11.8345 46C12.5517 47.2356 13.8716 47.9973 15.3001 48H32.9001C35.1083 47.9973 36.8974 46.2083 36.9001 44V36.8Z" fill="#010101"/>
<path d="M23.3 43.2H24.9V44.8H23.3V43.2Z" fill="#010101"/>
<path d="M28.1 21.6V20H25.6594C25.2605 14.8949 21.2051 10.8395 16.1 10.4406V8H14.5V10.4406C13.9609 10.482 13.4262 10.5656 12.9 10.6902V6.4H25.7V4.8H12.9V4C12.9 2.67461 13.9746 1.6 15.3 1.6H32.9C33.4844 1.6 34.0488 1.81328 34.4871 2.2L35.5457 1C34.8152 0.355078 33.8742 -0.000390303 32.9 3.21601e-07H15.3C13.0918 0.0027347 11.3027 1.7918 11.3 4V11.2C7.69766 12.709 5.24258 16.1062 4.94063 20H2.5V21.6H4.94258C5.31992 26.7148 9.38516 30.7828 14.5 31.1633V33.6H16.1V31.1633C21.2148 30.7828 25.2801 26.7148 25.6574 21.6H28.1ZM14.5 28V29.5633C13.384 29.4629 12.298 29.1492 11.3 28.6398V27.2C11.3 24.991 13.091 23.2 15.3 23.2C17.509 23.2 19.3 24.991 19.3 27.2V28.6398C18.3023 29.15 17.216 29.4641 16.1 29.5656V28H14.5ZM12.9 19.2C12.9 17.8746 13.9746 16.8 15.3 16.8C16.6254 16.8 17.7 17.8746 17.7 19.2C17.7 20.5254 16.6254 21.6 15.3 21.6C13.9746 21.6 12.9 20.5254 12.9 19.2ZM21.1664 27.3602C21.0801 27.4398 20.9879 27.5039 20.9 27.5777V27.2C20.898 25.1102 19.7324 23.1953 17.877 22.2336C19.1621 21.1512 19.6336 19.3809 19.0574 17.8027C18.4813 16.2242 16.9801 15.1742 15.3 15.1742C13.6199 15.1742 12.1188 16.2242 11.5426 17.8027C10.9664 19.3809 11.4379 21.1512 12.723 22.2336C10.8676 23.1953 9.70195 25.1102 9.7 27.2V27.5816C9.61133 27.509 9.51914 27.4406 9.43359 27.3641C7.77578 25.8773 6.74258 23.818 6.54258 21.6H8.1V20H6.54063C6.93164 15.7766 10.2766 12.4316 14.5 12.0406V13.6H16.1V12.0406C20.3234 12.4316 23.6684 15.7766 24.0594 20H22.5V21.6H24.0574C23.8574 23.818 22.8242 25.8773 21.1664 27.3641V27.3602Z" fill="#010101"/>
<path d="M45.7 14.4C46.1418 14.4 46.5 14.0417 46.5 13.6V3.99995C46.5 3.55815 46.1418 3.19995 45.7 3.19995H28.1C27.6583 3.19995 27.3 3.55815 27.3 3.99995V13.6C27.3 14.0417 27.6583 14.4 28.1 14.4H45.7ZM28.9 4.79995H44.9V12.8H28.9V4.79995Z" fill="#010101"/>
<path d="M30.5 6.3999H33.7V7.9999H30.5V6.3999Z" fill="#010101"/>
<path d="M35.3 6.3999H43.3V7.9999H35.3V6.3999Z" fill="#010101"/>
<path d="M30.5 9.6001H43.3V11.2001H30.5V9.6001Z" fill="#010101"/>
<path d="M45.5584 16C44.9389 16.0012 44.3413 16.2285 43.8784 16.6398L36.8998 22.7922V16H35.2998V24H35.5311L30.9799 28.016C28.019 28.1855 25.7033 30.634 25.6998 33.6V35.0113C25.703 35.8051 25.2541 36.532 24.5424 36.884C24.21 37.0496 24.0354 37.4223 24.1205 37.7836C24.2057 38.1449 24.5283 38.4004 24.8998 38.4H30.4998C33.4659 38.3965 35.9143 36.0809 36.0838 33.1199L47.4647 20.2223C48.1252 19.473 48.2858 18.4063 47.8745 17.4957C47.4635 16.5852 46.5573 16 45.5584 16V16ZM30.4998 36.8H26.8412C27.1432 36.2523 27.301 35.6367 27.2998 35.0113V33.6C27.3026 31.516 28.9026 29.782 30.9799 29.6129L34.4869 33.1199C34.3182 35.1973 32.5838 36.7977 30.4998 36.8ZM46.2647 19.1641L35.2639 31.632L32.4678 28.8367L44.9358 17.8352C45.3088 17.5078 45.8717 17.5262 46.2229 17.877C46.5737 18.2281 46.592 18.791 46.2647 19.1641Z" fill="#010101"/>
<path d="M0.900098 44H18.5001C18.9419 44 19.3001 43.6418 19.3001 43.2V36.8C19.3001 36.3582 18.9419 36 18.5001 36H12.9001V32H11.3001V36H0.900098C0.458301 36 0.100098 36.3582 0.100098 36.8V43.2C0.100098 43.6418 0.458301 44 0.900098 44ZM1.7001 37.6H17.7001V42.4H1.7001V37.6Z" fill="#010101"/>
<path d="M3.30005 39.2H7.30005V40.8H3.30005V39.2Z" fill="#010101"/>
<path d="M8.8999 39.2H16.0999V40.8H8.8999V39.2Z" fill="#010101"/>
<path d="M0.900098 11.2H8.9001C9.34189 11.2 9.7001 10.8417 9.7001 10.4V3.99995C9.7001 3.55815 9.34189 3.19995 8.9001 3.19995H0.900098C0.458301 3.19995 0.100098 3.55815 0.100098 3.99995V10.4C0.100098 10.8417 0.458301 11.2 0.900098 11.2ZM1.7001 4.79995H8.1001V9.59995H1.7001V4.79995Z" fill="#010101"/>
<path d="M3.30005 6.3999H6.50005V7.9999H3.30005V6.3999Z" fill="#010101"/>
</g>
<defs>
<clipPath id="clip0">
<rect width="48" height="48" fill="white"/>
</clipPath>
</defs>
</svg>
