<svg width="48" height="49" viewBox="0 0 48 49" fill="none" xmlns="http://www.w3.org/2000/svg">
<g clip-path="url(#clip0)">
<path d="M34.0645 40.565V42.0918H46.4516V44.3819C46.4516 45.6445 45.4095 46.672 44.129 46.672H3.87097C2.59045 46.672 1.54839 45.6445 1.54839 44.3819V42.0918H13.9355V40.565H0V44.3819C0 46.4865 1.73652 48.1987 3.87097 48.1987H44.129C46.2635 48.1987 48 46.4865 48 44.3819V40.565H34.0645Z" fill="#010101"/>
<path d="M17.8065 45.1452H30.1936C31.4741 45.1452 32.5161 44.1177 32.5161 42.8551V40.565H15.4839V42.8551C15.4839 44.1177 16.526 45.1452 17.8065 45.1452ZM17.0323 42.0917H30.9678V42.8551C30.9678 43.2757 30.6209 43.6185 30.1936 43.6185H17.8065C17.3791 43.6185 17.0323 43.2757 17.0323 42.8551V42.0917Z" fill="#010101"/>
<path d="M6.19365 43.6184H4.64526V45.1452H6.19365V43.6184Z" fill="#010101"/>
<path d="M9.29033 43.6184H7.74194V45.1452H9.29033V43.6184Z" fill="#010101"/>
<path d="M12.387 43.6184H10.8386V45.1452H12.387V43.6184Z" fill="#010101"/>
<path d="M44.9032 12.3202V39.0383H46.4516V12.3202C46.4516 10.2155 44.7151 8.5033 42.5806 8.5033H40.2581V10.03H42.5806C43.8612 10.03 44.9032 11.0575 44.9032 12.3202Z" fill="#010101"/>
<path d="M3.09673 12.3202C3.09673 11.0575 4.13879 10.03 5.41931 10.03H7.74189V8.5033H5.41931C3.28486 8.5033 1.54834 10.2155 1.54834 12.3202V39.0383H3.09673V12.3202Z" fill="#010101"/>
<path d="M41.8064 39.0382H43.3548V13.0835C43.3548 12.2414 42.6604 11.5567 41.8064 11.5567H40.2581V13.0835H41.8064V39.0382Z" fill="#010101"/>
<path d="M4.64526 13.0835V39.0382H6.19365V13.0835H7.74204V11.5567H6.19365C5.33972 11.5567 4.64526 12.2414 4.64526 13.0835Z" fill="#010101"/>
<path d="M38.7096 0.869568H9.29028V8.50331H38.7096V0.869568ZM37.1613 6.97656H10.8387V2.39632H37.1613V6.97656Z" fill="#010101"/>
<path d="M38.7096 10.03H37.1613V34.458H10.8387V10.03H9.29028V35.9848H38.7096V10.03Z" fill="#010101"/>
<path d="M13.9356 3.92297H12.3872V5.44972H13.9356V3.92297Z" fill="#010101"/>
<path d="M17.0323 3.92297H15.4839V5.44972H17.0323V3.92297Z" fill="#010101"/>
<path d="M20.129 3.92297H18.5806V5.44972H20.129V3.92297Z" fill="#010101"/>
<path d="M35.6129 18.5646L32.5703 17.9646C32.5169 17.8379 32.4604 17.7135 32.4023 17.5906L31.0002 18.241C31.1017 18.4532 31.1922 18.67 31.2743 18.8921L31.4222 19.296L34.0645 19.8166V23.1449L31.4237 23.6655L31.2758 24.0693C31.1938 24.2915 31.1024 24.5083 31.0018 24.7205L30.816 25.1106L32.3109 27.3213L29.9241 29.6748L27.682 28.2007L27.2872 28.3839C27.072 28.4832 26.8521 28.5725 26.6268 28.6534L26.2165 28.7992L25.6877 31.4046H22.3122L21.7835 28.7992L21.3731 28.6534C21.1478 28.5732 20.9287 28.4839 20.7127 28.3839L20.3179 28.2007L18.0758 29.6748L15.24 26.8785L14.1453 27.958L17.8777 31.6389L20.4387 29.9557L21.0426 32.9313H26.9582L27.5605 29.9565L30.1215 31.6397L34.3029 27.516L32.5958 24.9915L35.6129 24.3968V18.5646Z" fill="#010101"/>
<path d="M12.3872 24.3967L15.4298 24.9967C15.4832 25.1235 15.5397 25.2479 15.5978 25.3708L16.9999 24.7204C16.8984 24.5082 16.8079 24.2914 16.7258 24.0692L16.5779 23.6654L13.9356 23.1448V19.8165L16.5764 19.2959L16.7242 18.892C16.8063 18.6699 16.8977 18.4531 16.9983 18.2409L17.1841 17.8508L15.6891 15.6401L18.076 13.2866L20.318 14.7607L20.7129 14.5774C20.9281 14.4782 21.148 14.3889 21.3733 14.308L21.7836 14.1622L22.3124 11.5568H25.6871L26.2159 14.1622L26.6262 14.308C26.8515 14.3881 27.0706 14.4774 27.2866 14.5774L27.6814 14.7607L29.9235 13.2866L32.7593 16.0828L33.854 15.0034L30.1217 11.3224L27.5606 13.0057L26.9575 10.03H21.0427L20.4404 13.0049L17.8793 11.3217L13.6979 15.4454L15.405 17.9699L12.3872 18.5646V24.3967Z" fill="#010101"/>
<path d="M23.9999 15.3737C20.585 15.3737 17.8064 18.1135 17.8064 21.4807C17.8064 24.848 20.585 27.5877 23.9999 27.5877C27.4149 27.5877 30.1935 24.848 30.1935 21.4807C30.1935 18.1135 27.4149 15.3737 23.9999 15.3737ZM23.9999 26.061C21.4381 26.061 19.3548 24.0067 19.3548 21.4807C19.3548 18.9547 21.4381 16.9005 23.9999 16.9005C26.5618 16.9005 28.6451 18.9547 28.6451 21.4807C28.6451 24.0067 26.5618 26.061 23.9999 26.061Z" fill="#010101"/>
<path d="M24.0001 18.4271C22.2922 18.4271 20.9033 19.7966 20.9033 21.4806C20.9033 23.1646 22.2922 24.5341 24.0001 24.5341C25.708 24.5341 27.0969 23.1646 27.0969 21.4806C27.0969 19.7966 25.708 18.4271 24.0001 18.4271ZM24.0001 23.0074C23.1462 23.0074 22.4517 22.3226 22.4517 21.4806C22.4517 20.6386 23.1462 19.9539 24.0001 19.9539C24.854 19.9539 25.5485 20.6386 25.5485 21.4806C25.5485 22.3226 24.854 23.0074 24.0001 23.0074Z" fill="#010101"/>
</g>
<defs>
<clipPath id="clip0">
<rect width="48" height="47.3292" fill="white" transform="translate(0 0.869568)"/>
</clipPath>
</defs>
</svg>
