<svg width="48" height="48" viewBox="0 0 48 48" fill="none" xmlns="http://www.w3.org/2000/svg">
<g clip-path="url(#clip0)">
<path d="M37.6003 3.19957C37.6014 3.01295 37.5363 2.83197 37.4167 2.68874C37.297 2.54552 37.1305 2.4493 36.9467 2.41716L24.1466 0.0131415C24.0492 -0.00446189 23.9495 -0.00446189 23.8522 0.0131415L11.0521 2.41796C10.8685 2.44997 10.7022 2.54609 10.5828 2.68921C10.4634 2.83234 10.3986 3.01319 10.4001 3.19957V5.59959H0V39.1999H14.4001V40.9439L3.06802 43.2111C1.75121 43.4303 0 43.9999 0 46.3999V47.1999C3.4114e-05 47.3161 0.0253848 47.4309 0.0742886 47.5364C0.123192 47.6418 0.194475 47.7353 0.283178 47.8103C0.371881 47.8854 0.475875 47.9403 0.587925 47.9711C0.699975 48.0019 0.817392 48.0079 0.932007 47.9887L15.2665 45.5999H32.7339L47.0684 47.9887C47.112 47.9964 47.1561 48.0002 47.2004 47.9999C47.4126 47.9999 47.616 47.9156 47.7661 47.7656C47.9161 47.6156 48.0004 47.4121 48.0004 47.1999V46.3999C48.0004 44.0071 46.2604 43.4335 44.9452 43.2127L33.6003 40.9439V39.1999H48.0004V5.59959H37.6003V3.19957ZM24.0002 1.61395L33.0547 3.31157L24.0002 5.57479L14.9457 3.31157L24.0002 1.61395ZM36.0003 4.22438V17.0453L24.8002 21.2453V7.0244L36.0003 4.22438ZM12.0001 4.22438L23.2002 7.0244V21.2453L12.0001 17.0453V4.22438ZM10.9193 18.3493L23.7194 23.1493C23.8112 23.1747 23.9052 23.1916 24.0002 23.1997C24.0951 23.1916 24.1891 23.1747 24.281 23.1493L37.0811 18.3493C37.2337 18.2921 37.3652 18.1897 37.458 18.0557C37.5507 17.9217 37.6004 17.7626 37.6003 17.5997V10.3996H43.2003V34.3998H4.80004V10.3996H10.4001V17.5997C10.4 17.7626 10.4496 17.9217 10.5424 18.0557C10.6352 18.1897 10.7667 18.2921 10.9193 18.3493V18.3493ZM44.6404 44.7839L44.6652 44.7887C46.0564 45.0207 46.3644 45.4527 46.3948 46.2551L32.9291 44.0151C32.8867 44.0062 32.8436 44.0012 32.8003 43.9999H15.2001C15.1559 43.9997 15.1117 44.0034 15.0681 44.0111L1.60001 46.2551C1.63041 45.4551 1.93922 45.0207 3.35443 44.7839L15.2801 42.3999H32.7203L44.6404 44.7839ZM16.0001 40.7999V39.1999H32.0003V40.7999H16.0001ZM46.4004 7.1996V37.5998H1.60001V7.1996H10.4001V8.79961H3.20003V35.9998H44.8004V8.79961H37.6003V7.1996H46.4004Z" fill="#010101"/>
<path d="M11.5513 24.9373C11.4431 25.0106 11.3545 25.1093 11.2933 25.2248C11.2321 25.3403 11.2001 25.469 11.2001 25.5997V30.3997C11.2 30.5596 11.2478 30.7159 11.3373 30.8484C11.4269 30.9809 11.5541 31.0835 11.7025 31.143L15.7025 32.743C15.7997 32.7714 15.8993 32.7904 16.0001 32.7998C16.1009 32.7904 16.2006 32.7714 16.2977 32.743L20.2978 31.143C20.4462 31.0835 20.5734 30.9809 20.6629 30.8484C20.7525 30.7159 20.8003 30.5596 20.8002 30.3997V25.5997C20.8002 25.469 20.7682 25.3403 20.707 25.2248C20.6458 25.1093 20.5572 25.0106 20.449 24.9373C20.4002 24.9077 20.3497 24.881 20.2978 24.8573L16.2977 23.2573C16.1065 23.1821 15.8938 23.1821 15.7025 23.2573L11.7025 24.8573C11.6507 24.8812 11.6002 24.9079 11.5513 24.9373V24.9373ZM19.2002 29.8581L16.8001 30.8181V27.7413L19.2002 26.7813V29.8581ZM16.0001 24.8613L17.8457 25.5997L16.0001 26.3381L14.1545 25.5997L16.0001 24.8613ZM12.8001 26.7813L15.2001 27.7413V30.8181L12.8001 29.8581V26.7813Z" fill="#010101"/>
<path d="M30.0427 27.92L33.2427 29.52C33.3537 29.5755 33.4761 29.6044 33.6003 29.6044C33.7244 29.6044 33.8468 29.5755 33.9579 29.52L37.1579 27.92C37.2915 27.8533 37.4037 27.7504 37.4819 27.6232C37.5601 27.4959 37.6011 27.3494 37.6003 27.2V24C37.6004 23.8636 37.5656 23.7294 37.4992 23.6103C37.4328 23.4911 37.3371 23.3909 37.2211 23.3192C37.2003 23.3064 37.1579 23.284 37.1579 23.284L33.9579 21.684C33.8468 21.6285 33.7244 21.5996 33.6003 21.5996C33.4761 21.5996 33.3537 21.6285 33.2427 21.684L30.0427 23.284C30.0427 23.284 30.0003 23.3064 29.9795 23.3192C29.8635 23.3909 29.7677 23.4911 29.7014 23.6103C29.635 23.7294 29.6002 23.8636 29.6003 24V27.2C29.5994 27.3494 29.6404 27.4959 29.7186 27.6232C29.7968 27.7504 29.9091 27.8533 30.0427 27.92V27.92ZM36.0003 26.7056L34.4003 27.5056V26.0944L36.0003 25.2944V26.7056ZM33.6003 23.2944L35.0115 24L33.6003 24.7056L32.1891 24L33.6003 23.2944ZM31.2003 25.2944L32.8003 26.0944V27.5056L31.2003 26.7056V25.2944Z" fill="#010101"/>
<path d="M40.0003 31.1997H36.8003V32.7997H41.6003V26.3996H40.0003V31.1997Z" fill="#010101"/>
<path d="M40.8003 19.7412V15.1995H39.2003V18.658L35.7026 20.0564L36.2978 21.5428L40.8003 19.7412Z" fill="#010101"/>
<path d="M8.80007 11.9995H7.20006V19.7268L13.2849 22.3348L13.9153 20.8644L8.80007 18.6724V11.9995Z" fill="#010101"/>
<path d="M23.2002 25.5996H24.8002V27.1996H23.2002V25.5996Z" fill="#010101"/>
<path d="M8.00006 30.3997H9.60007V31.9997H8.00006V30.3997Z" fill="#010101"/>
<path d="M25.6002 28.7997H27.2002V30.3997H25.6002V28.7997Z" fill="#010101"/>
</g>
<defs>
<clipPath id="clip0">
<rect width="48" height="48" fill="white"/>
</clipPath>
</defs>
</svg>
