<svg width="32" height="32" viewBox="0 0 32 32" fill="none" xmlns="http://www.w3.org/2000/svg">
<g clip-path="url(#clip0_150_460)">
<path d="M30 16C30 12.6776 29.9974 10.342 29.8076 8.54102C29.6216 6.77593 29.2738 5.75593 28.7344 4.98535C28.266 4.31646 27.6835 3.73399 27.0146 3.26562C26.2441 2.72619 25.2241 2.37843 23.459 2.19238C21.658 2.00257 19.3224 2 16 2C12.6776 2 10.342 2.00257 8.54102 2.19238C6.77593 2.37843 5.75593 2.72619 4.98535 3.26562C4.31646 3.73399 3.73399 4.31646 3.26562 4.98535C2.72619 5.75593 2.37843 6.77593 2.19238 8.54102C2.00257 10.342 2 12.6776 2 16C2 19.3224 2.00257 21.658 2.19238 23.459C2.37843 25.2241 2.72619 26.2441 3.26562 27.0146C3.73399 27.6835 4.31646 28.266 4.98535 28.7344C5.75593 29.2738 6.77593 29.6216 8.54102 29.8076C10.342 29.9974 12.6776 30 16 30V32C9.6466 32 6.37045 32.0002 4.05859 30.5205L3.83789 30.3721C3.08548 29.8452 2.41865 29.2069 1.86035 28.4795L1.62793 28.1621C0.000298023 25.8376 0 22.5585 0 16C0 9.6466 -0.000193596 6.37045 1.47949 4.05859L1.62793 3.83789C2.15479 3.08548 2.79306 2.41865 3.52051 1.86035L3.83789 1.62793C6.16239 0.000298023 9.44154 0 16 0C22.5585 0 25.8376 0.000298023 28.1621 1.62793C29.022 2.23008 29.7699 2.97796 30.3721 3.83789C31.9997 6.16239 32 9.44154 32 16C32 22.5585 31.9997 25.8376 30.3721 28.1621C29.7699 29.022 29.022 29.7699 28.1621 30.3721C25.8376 31.9997 22.5585 32 16 32V30C19.3224 30 21.658 29.9974 23.459 29.8076C25.2241 29.6216 26.2441 29.2738 27.0146 28.7344C27.6835 28.266 28.266 27.6835 28.7344 27.0146C29.2738 26.2441 29.6216 25.2241 29.8076 23.459C29.9974 21.658 30 19.3224 30 16Z" fill="#2AA4EF"/>
<path d="M30 16C30 12.6776 29.9974 10.342 29.8076 8.54102C29.6216 6.77593 29.2738 5.75593 28.7344 4.98535C28.266 4.31646 27.6835 3.73399 27.0146 3.26562C26.2441 2.72619 25.2241 2.37843 23.459 2.19238C21.658 2.00257 19.3224 2 16 2C12.6776 2 10.342 2.00257 8.54102 2.19238C6.77593 2.37843 5.75593 2.72619 4.98535 3.26562C4.31646 3.73399 3.73399 4.31646 3.26562 4.98535C2.72619 5.75593 2.37843 6.77593 2.19238 8.54102C2.00257 10.342 2 12.6776 2 16C2 19.3224 2.00257 21.658 2.19238 23.459C2.37843 25.2241 2.72619 26.2441 3.26562 27.0146C3.73399 27.6835 4.31646 28.266 4.98535 28.7344C5.75593 29.2738 6.77593 29.6216 8.54102 29.8076C10.342 29.9974 12.6776 30 16 30V32C9.6466 32 6.37045 32.0002 4.05859 30.5205L3.83789 30.3721C3.08548 29.8452 2.41865 29.2069 1.86035 28.4795L1.62793 28.1621C0.000298023 25.8376 0 22.5585 0 16C0 9.6466 -0.000193596 6.37045 1.47949 4.05859L1.62793 3.83789C2.15479 3.08548 2.79306 2.41865 3.52051 1.86035L3.83789 1.62793C6.16239 0.000298023 9.44154 0 16 0C22.5585 0 25.8376 0.000298023 28.1621 1.62793C29.022 2.23008 29.7699 2.97796 30.3721 3.83789C31.9997 6.16239 32 9.44154 32 16C32 22.5585 31.9997 25.8376 30.3721 28.1621C29.7699 29.022 29.022 29.7699 28.1621 30.3721C25.8376 31.9997 22.5585 32 16 32V30C19.3224 30 21.658 29.9974 23.459 29.8076C25.2241 29.6216 26.2441 29.2738 27.0146 28.7344C27.6835 28.266 28.266 27.6835 28.7344 27.0146C29.2738 26.2441 29.6216 25.2241 29.8076 23.459C29.9974 21.658 30 19.3224 30 16Z" fill="url(#paint0_linear_150_460)"/>
<path d="M30 16C30 12.6776 29.9974 10.342 29.8076 8.54102C29.6216 6.77593 29.2738 5.75593 28.7344 4.98535C28.266 4.31646 27.6835 3.73399 27.0146 3.26562C26.2441 2.72619 25.2241 2.37843 23.459 2.19238C21.658 2.00257 19.3224 2 16 2C12.6776 2 10.342 2.00257 8.54102 2.19238C6.77593 2.37843 5.75593 2.72619 4.98535 3.26562C4.31646 3.73399 3.73399 4.31646 3.26562 4.98535C2.72619 5.75593 2.37843 6.77593 2.19238 8.54102C2.00257 10.342 2 12.6776 2 16C2 19.3224 2.00257 21.658 2.19238 23.459C2.37843 25.2241 2.72619 26.2441 3.26562 27.0146C3.73399 27.6835 4.31646 28.266 4.98535 28.7344C5.75593 29.2738 6.77593 29.6216 8.54102 29.8076C10.342 29.9974 12.6776 30 16 30V32C9.6466 32 6.37045 32.0002 4.05859 30.5205L3.83789 30.3721C3.08548 29.8452 2.41865 29.2069 1.86035 28.4795L1.62793 28.1621C0.000298023 25.8376 0 22.5585 0 16C0 9.6466 -0.000193596 6.37045 1.47949 4.05859L1.62793 3.83789C2.15479 3.08548 2.79306 2.41865 3.52051 1.86035L3.83789 1.62793C6.16239 0.000298023 9.44154 0 16 0C22.5585 0 25.8376 0.000298023 28.1621 1.62793C29.022 2.23008 29.7699 2.97796 30.3721 3.83789C31.9997 6.16239 32 9.44154 32 16C32 22.5585 31.9997 25.8376 30.3721 28.1621C29.7699 29.022 29.022 29.7699 28.1621 30.3721C25.8376 31.9997 22.5585 32 16 32V30C19.3224 30 21.658 29.9974 23.459 29.8076C25.2241 29.6216 26.2441 29.2738 27.0146 28.7344C27.6835 28.266 28.266 27.6835 28.7344 27.0146C29.2738 26.2441 29.6216 25.2241 29.8076 23.459C29.9974 21.658 30 19.3224 30 16Z" fill="#E84E8B"/>
<path d="M30 16C30 12.6776 29.9974 10.342 29.8076 8.54102C29.6216 6.77593 29.2738 5.75593 28.7344 4.98535C28.266 4.31646 27.6835 3.73399 27.0146 3.26562C26.2441 2.72619 25.2241 2.37843 23.459 2.19238C21.658 2.00257 19.3224 2 16 2C12.6776 2 10.342 2.00257 8.54102 2.19238C6.77593 2.37843 5.75593 2.72619 4.98535 3.26562C4.31646 3.73399 3.73399 4.31646 3.26562 4.98535C2.72619 5.75593 2.37843 6.77593 2.19238 8.54102C2.00257 10.342 2 12.6776 2 16C2 19.3224 2.00257 21.658 2.19238 23.459C2.37843 25.2241 2.72619 26.2441 3.26562 27.0146C3.73399 27.6835 4.31646 28.266 4.98535 28.7344C5.75593 29.2738 6.77593 29.6216 8.54102 29.8076C10.342 29.9974 12.6776 30 16 30V32C9.6466 32 6.37045 32.0002 4.05859 30.5205L3.83789 30.3721C3.08548 29.8452 2.41865 29.2069 1.86035 28.4795L1.62793 28.1621C0.000298023 25.8376 0 22.5585 0 16C0 9.6466 -0.000193596 6.37045 1.47949 4.05859L1.62793 3.83789C2.15479 3.08548 2.79306 2.41865 3.52051 1.86035L3.83789 1.62793C6.16239 0.000298023 9.44154 0 16 0C22.5585 0 25.8376 0.000298023 28.1621 1.62793C29.022 2.23008 29.7699 2.97796 30.3721 3.83789C31.9997 6.16239 32 9.44154 32 16C32 22.5585 31.9997 25.8376 30.3721 28.1621C29.7699 29.022 29.022 29.7699 28.1621 30.3721C25.8376 31.9997 22.5585 32 16 32V30C19.3224 30 21.658 29.9974 23.459 29.8076C25.2241 29.6216 26.2441 29.2738 27.0146 28.7344C27.6835 28.266 28.266 27.6835 28.7344 27.0146C29.2738 26.2441 29.6216 25.2241 29.8076 23.459C29.9974 21.658 30 19.3224 30 16Z" fill="#0056FF"/>
<path d="M21.8271 12.9121C22.5835 12.9122 23.2424 13.0377 23.8447 13.3037C24.433 13.5698 24.9232 13.9767 25.3154 14.5508C25.6656 15.0549 25.8899 15.629 26.002 16.2871C26.058 16.6792 26.0863 17.2397 26.0723 17.9678H19.8369C19.879 18.8079 20.174 19.41 20.7344 19.7461C21.0706 19.956 21.4906 20.0684 21.9668 20.0684C22.4852 20.0684 22.8916 19.9279 23.2139 19.6758C23.3959 19.5358 23.5497 19.3536 23.6758 19.1016H25.96C25.9039 19.6057 25.6232 20.1098 25.1328 20.6279C24.3623 21.4541 23.284 21.8603 21.9111 21.8604C20.7763 21.8604 19.7671 21.5104 18.8984 20.8242C18.0299 20.138 17.5957 19.0036 17.5957 17.4492C17.5957 15.9928 17.9879 14.8721 18.7725 14.0879C19.557 13.3038 20.5803 12.9121 21.8271 12.9121ZM12.9297 10.167C14.3447 10.195 15.3403 10.6015 15.9287 11.3857C16.2788 11.8618 16.4609 12.4501 16.4609 13.1221C16.4609 13.8222 16.2929 14.3826 15.9287 14.8027C15.7326 15.0407 15.438 15.2503 15.0459 15.4463C15.6483 15.6564 16.0828 15.9926 16.377 16.4688C16.6712 16.9169 16.8252 17.4775 16.8252 18.1357C16.8251 18.8078 16.6568 19.424 16.3066 19.9561C16.0965 20.3062 15.8164 20.6145 15.4941 20.8525C15.13 21.1326 14.6956 21.3287 14.1914 21.4268C13.687 21.5248 13.1402 21.5801 12.5518 21.5801H7.33984V10.167H12.9297ZM9.6377 19.5781H12.4541C12.9583 19.5781 13.3507 19.5218 13.6309 19.3818C14.1491 19.1297 14.4007 18.6532 14.3867 17.9531C14.3866 17.3651 14.1348 16.9594 13.6445 16.7354C13.3643 16.6093 12.9718 16.5391 12.4814 16.5391H9.6377V19.5781ZM21.8271 14.7324C21.2527 14.7324 20.8183 14.8869 20.4961 15.209C20.1739 15.531 19.9776 15.9647 19.8936 16.5107H23.7598C23.7177 15.9229 23.5082 15.4887 23.1582 15.1807C22.794 14.8866 22.3594 14.7325 21.8271 14.7324ZM9.65137 14.6484H12.4678C12.9581 14.6484 13.3783 14.5502 13.6865 14.3682C14.0088 14.1861 14.1631 13.8502 14.1631 13.374C14.1631 12.8419 13.9671 12.4913 13.5469 12.3232C13.1827 12.1972 12.7341 12.1416 12.1738 12.1416H9.65137V14.6484ZM24.2783 12.0996H19.3193V10.6855H24.2783V12.0996Z" fill="#FAFAFA"/>
</g>
<defs>
<linearGradient id="paint0_linear_150_460" x1="29.7472" y1="29.7433" x2="2.25186" y2="2.24786" gradientUnits="userSpaceOnUse">
<stop stop-color="#FEC053"/>
<stop offset="0.3273" stop-color="#F2203E"/>
<stop offset="0.6485" stop-color="#B729A8"/>
<stop offset="1" stop-color="#5342D6"/>
</linearGradient>
<clipPath id="clip0_150_460">
<rect width="32" height="31.9999" fill="white"/>
</clipPath>
</defs>
</svg>
