<svg width="420" height="316" viewBox="0 0 420 316" fill="none" xmlns="http://www.w3.org/2000/svg">
<g filter="url(#filter0_if)">
<path d="M228.518 149.542C228.518 149.542 205.826 135.558 219.418 124.792C233.01 114.025 232.002 72.5043 274.5 47.0006C316.998 21.497 358.505 36.0128 376.513 65.5313C394.521 95.0498 386.032 151.076 341.031 165.073C296.03 179.071 257.008 153.855 241.768 177.461C226.528 201.067 228.518 149.542 228.518 149.542Z" fill="url(#paint0_radial)"/>
<path d="M228.518 149.542C228.518 149.542 205.826 135.558 219.418 124.792C233.01 114.025 232.002 72.5043 274.5 47.0006C316.998 21.497 358.505 36.0128 376.513 65.5313C394.521 95.0498 386.032 151.076 341.031 165.073C296.03 179.071 257.008 153.855 241.768 177.461C226.528 201.067 228.518 149.542 228.518 149.542Z" fill="url(#paint1_radial)"/>
<path d="M228.518 149.542C228.518 149.542 205.826 135.558 219.418 124.792C233.01 114.025 232.002 72.5043 274.5 47.0006C316.998 21.497 358.505 36.0128 376.513 65.5313C394.521 95.0498 386.032 151.076 341.031 165.073C296.03 179.071 257.008 153.855 241.768 177.461C226.528 201.067 228.518 149.542 228.518 149.542Z" fill="url(#paint2_radial)" fill-opacity="0.8"/>
<path d="M228.518 149.542C228.518 149.542 205.826 135.558 219.418 124.792C233.01 114.025 232.002 72.5043 274.5 47.0006C316.998 21.497 358.505 36.0128 376.513 65.5313C394.521 95.0498 386.032 151.076 341.031 165.073C296.03 179.071 257.008 153.855 241.768 177.461C226.528 201.067 228.518 149.542 228.518 149.542Z" fill="url(#paint3_radial)"/>
<path d="M228.518 149.542C228.518 149.542 205.826 135.558 219.418 124.792C233.01 114.025 232.002 72.5043 274.5 47.0006C316.998 21.497 358.505 36.0128 376.513 65.5313C394.521 95.0498 386.032 151.076 341.031 165.073C296.03 179.071 257.008 153.855 241.768 177.461C226.528 201.067 228.518 149.542 228.518 149.542Z" fill="url(#paint4_radial)"/>
<path d="M228.518 149.542C228.518 149.542 205.826 135.558 219.418 124.792C233.01 114.025 232.002 72.5043 274.5 47.0006C316.998 21.497 358.505 36.0128 376.513 65.5313C394.521 95.0498 386.032 151.076 341.031 165.073C296.03 179.071 257.008 153.855 241.768 177.461C226.528 201.067 228.518 149.542 228.518 149.542Z" fill="url(#paint5_radial)"/>
<path d="M228.518 149.542C228.518 149.542 205.826 135.558 219.418 124.792C233.01 114.025 232.002 72.5043 274.5 47.0006C316.998 21.497 358.505 36.0128 376.513 65.5313C394.521 95.0498 386.032 151.076 341.031 165.073C296.03 179.071 257.008 153.855 241.768 177.461C226.528 201.067 228.518 149.542 228.518 149.542Z" fill="url(#paint6_radial)"/>
<path d="M228.518 149.542C228.518 149.542 205.826 135.558 219.418 124.792C233.01 114.025 232.002 72.5043 274.5 47.0006C316.998 21.497 358.505 36.0128 376.513 65.5313C394.521 95.0498 386.032 151.076 341.031 165.073C296.03 179.071 257.008 153.855 241.768 177.461C226.528 201.067 228.518 149.542 228.518 149.542Z" fill="url(#paint7_radial)"/>
</g>
<g filter="url(#filter1_if)">
<path d="M40.5199 210.553C27.9861 155.518 79.8249 103.676 134.025 105.16C188.226 106.643 205.535 126.696 219.108 124.944C232.682 123.191 244.679 138.209 246.18 140.711C247.68 143.214 256.682 158.228 241.463 177.625C226.245 197.022 219.22 246.732 171.393 264.196C123.567 281.659 53.0536 265.588 40.5199 210.553Z" fill="url(#paint8_radial)"/>
<path d="M40.5199 210.553C27.9861 155.518 79.8249 103.676 134.025 105.16C188.226 106.643 205.535 126.696 219.108 124.944C232.682 123.191 244.679 138.209 246.18 140.711C247.68 143.214 256.682 158.228 241.463 177.625C226.245 197.022 219.22 246.732 171.393 264.196C123.567 281.659 53.0536 265.588 40.5199 210.553Z" fill="url(#paint9_radial)"/>
<path d="M40.5199 210.553C27.9861 155.518 79.8249 103.676 134.025 105.16C188.226 106.643 205.535 126.696 219.108 124.944C232.682 123.191 244.679 138.209 246.18 140.711C247.68 143.214 256.682 158.228 241.463 177.625C226.245 197.022 219.22 246.732 171.393 264.196C123.567 281.659 53.0536 265.588 40.5199 210.553Z" fill="url(#paint10_radial)"/>
<path d="M40.5199 210.553C27.9861 155.518 79.8249 103.676 134.025 105.16C188.226 106.643 205.535 126.696 219.108 124.944C232.682 123.191 244.679 138.209 246.18 140.711C247.68 143.214 256.682 158.228 241.463 177.625C226.245 197.022 219.22 246.732 171.393 264.196C123.567 281.659 53.0536 265.588 40.5199 210.553Z" fill="url(#paint11_radial)"/>
<path d="M40.5199 210.553C27.9861 155.518 79.8249 103.676 134.025 105.16C188.226 106.643 205.535 126.696 219.108 124.944C232.682 123.191 244.679 138.209 246.18 140.711C247.68 143.214 256.682 158.228 241.463 177.625C226.245 197.022 219.22 246.732 171.393 264.196C123.567 281.659 53.0536 265.588 40.5199 210.553Z" fill="url(#paint12_radial)"/>
<path d="M40.5199 210.553C27.9861 155.518 79.8249 103.676 134.025 105.16C188.226 106.643 205.535 126.696 219.108 124.944C232.682 123.191 244.679 138.209 246.18 140.711C247.68 143.214 256.682 158.228 241.463 177.625C226.245 197.022 219.22 246.732 171.393 264.196C123.567 281.659 53.0536 265.588 40.5199 210.553Z" fill="url(#paint13_radial)"/>
<path d="M40.5199 210.553C27.9861 155.518 79.8249 103.676 134.025 105.16C188.226 106.643 205.535 126.696 219.108 124.944C232.682 123.191 244.679 138.209 246.18 140.711C247.68 143.214 256.682 158.228 241.463 177.625C226.245 197.022 219.22 246.732 171.393 264.196C123.567 281.659 53.0536 265.588 40.5199 210.553Z" fill="url(#paint14_radial)"/>
<path d="M40.5199 210.553C27.9861 155.518 79.8249 103.676 134.025 105.16C188.226 106.643 205.535 126.696 219.108 124.944C232.682 123.191 244.679 138.209 246.18 140.711C247.68 143.214 256.682 158.228 241.463 177.625C226.245 197.022 219.22 246.732 171.393 264.196C123.567 281.659 53.0536 265.588 40.5199 210.553Z" fill="url(#paint15_radial)"/>
<path d="M40.5199 210.553C27.9861 155.518 79.8249 103.676 134.025 105.16C188.226 106.643 205.535 126.696 219.108 124.944C232.682 123.191 244.679 138.209 246.18 140.711C247.68 143.214 256.682 158.228 241.463 177.625C226.245 197.022 219.22 246.732 171.393 264.196C123.567 281.659 53.0536 265.588 40.5199 210.553Z" fill="url(#paint16_radial)"/>
<path d="M40.5199 210.553C27.9861 155.518 79.8249 103.676 134.025 105.16C188.226 106.643 205.535 126.696 219.108 124.944C232.682 123.191 244.679 138.209 246.18 140.711C247.68 143.214 256.682 158.228 241.463 177.625C226.245 197.022 219.22 246.732 171.393 264.196C123.567 281.659 53.0536 265.588 40.5199 210.553Z" fill="url(#paint17_radial)"/>
</g>
<g filter="url(#filter2_dddi)">
<path d="M126.428 191.096C124.878 192.552 122.965 193.28 120.688 193.28C118.41 193.28 116.488 192.552 114.92 191.096C113.37 189.64 112.596 187.727 112.596 185.356V173.4H115.676V184.796C115.676 186.383 116.133 187.708 117.048 188.772C117.962 189.817 119.176 190.34 120.688 190.34C122.2 190.34 123.413 189.817 124.328 188.772C125.242 187.708 125.7 186.383 125.7 184.796V173.4H128.78V185.356C128.78 187.727 127.996 189.64 126.428 191.096ZM131.284 193L137.752 183.2L131.424 173.4H135.064L139.74 180.876L144.444 173.4H148.112L141.784 183.2L148.252 193H144.612L139.768 185.524L134.924 193H131.284Z" fill="#E9E9E9"/>
</g>
<g filter="url(#filter3_dddi)">
<path d="M317.428 109.096C315.879 110.552 313.965 111.28 311.688 111.28C309.411 111.28 307.488 110.552 305.92 109.096C304.371 107.64 303.596 105.727 303.596 103.356V91.4H306.676V102.796C306.676 104.383 307.133 105.708 308.048 106.772C308.963 107.817 310.176 108.34 311.688 108.34C313.2 108.34 314.413 107.817 315.328 106.772C316.243 105.708 316.7 104.383 316.7 102.796V91.4H319.78V103.356C319.78 105.727 318.996 107.64 317.428 109.096ZM323.851 111V91.4H326.931V111H323.851Z" fill="#E9E9E9"/>
</g>
<defs>
<filter id="filter0_if" x="169.628" y="0.00585938" width="249.902" height="219.117" filterUnits="userSpaceOnUse" color-interpolation-filters="sRGB">
<feFlood flood-opacity="0" result="BackgroundImageFix"/>
<feBlend mode="normal" in="SourceGraphic" in2="BackgroundImageFix" result="shape"/>
<feColorMatrix in="SourceAlpha" type="matrix" values="0 0 0 0 0 0 0 0 0 0 0 0 0 0 0 0 0 0 127 0" result="hardAlpha"/>
<feOffset dx="-20" dy="-10"/>
<feGaussianBlur stdDeviation="10"/>
<feComposite in2="hardAlpha" operator="arithmetic" k2="-1" k3="1"/>
<feColorMatrix type="matrix" values="0 0 0 0 0.153583 0 0 0 0 0 0 0 0 0 0.404167 0 0 0 0.4 0"/>
<feBlend mode="overlay" in2="shape" result="effect1_innerShadow"/>
<feGaussianBlur stdDeviation="6" result="effect2_foregroundBlur"/>
</filter>
<filter id="filter1_if" x="0.780273" y="50.8818" width="290.696" height="264.73" filterUnits="userSpaceOnUse" color-interpolation-filters="sRGB">
<feFlood flood-opacity="0" result="BackgroundImageFix"/>
<feBlend mode="normal" in="SourceGraphic" in2="BackgroundImageFix" result="shape"/>
<feColorMatrix in="SourceAlpha" type="matrix" values="0 0 0 0 0 0 0 0 0 0 0 0 0 0 0 0 0 0 127 0" result="hardAlpha"/>
<feOffset dy="4"/>
<feGaussianBlur stdDeviation="15"/>
<feComposite in2="hardAlpha" operator="arithmetic" k2="-1" k3="1"/>
<feColorMatrix type="matrix" values="0 0 0 0 0.193325 0 0 0 0 0.0870833 0 0 0 0 0.366667 0 0 0 0.4 0"/>
<feBlend mode="overlay" in2="shape" result="effect1_innerShadow"/>
<feGaussianBlur stdDeviation="6" result="effect2_foregroundBlur"/>
</filter>
<filter id="filter2_dddi" x="97.5957" y="159.4" width="65.6567" height="49.88" filterUnits="userSpaceOnUse" color-interpolation-filters="sRGB">
<feFlood flood-opacity="0" result="BackgroundImageFix"/>
<feColorMatrix in="SourceAlpha" type="matrix" values="0 0 0 0 0 0 0 0 0 0 0 0 0 0 0 0 0 0 127 0"/>
<feOffset dy="1"/>
<feGaussianBlur stdDeviation="7.5"/>
<feColorMatrix type="matrix" values="0 0 0 0 0.213502 0 0 0 0 0.183333 0 0 0 0 0.366667 0 0 0 0.56 0"/>
<feBlend mode="normal" in2="BackgroundImageFix" result="effect1_dropShadow"/>
<feColorMatrix in="SourceAlpha" type="matrix" values="0 0 0 0 0 0 0 0 0 0 0 0 0 0 0 0 0 0 127 0"/>
<feOffset dx="-0.5" dy="-0.5"/>
<feGaussianBlur stdDeviation="1"/>
<feColorMatrix type="matrix" values="0 0 0 0 0.570833 0 0 0 0 0.66525 0 0 0 0 1 0 0 0 0.4 0"/>
<feBlend mode="normal" in2="effect1_dropShadow" result="effect2_dropShadow"/>
<feColorMatrix in="SourceAlpha" type="matrix" values="0 0 0 0 0 0 0 0 0 0 0 0 0 0 0 0 0 0 127 0"/>
<feOffset dx="1" dy="1"/>
<feGaussianBlur stdDeviation="1.5"/>
<feColorMatrix type="matrix" values="0 0 0 0 0.292031 0 0 0 0 0.0590625 0 0 0 0 0.525 0 0 0 1 0"/>
<feBlend mode="normal" in2="effect2_dropShadow" result="effect3_dropShadow"/>
<feBlend mode="normal" in="SourceGraphic" in2="effect3_dropShadow" result="shape"/>
<feColorMatrix in="SourceAlpha" type="matrix" values="0 0 0 0 0 0 0 0 0 0 0 0 0 0 0 0 0 0 127 0" result="hardAlpha"/>
<feOffset dx="0.3" dy="0.3"/>
<feGaussianBlur stdDeviation="0.25"/>
<feComposite in2="hardAlpha" operator="arithmetic" k2="-1" k3="1"/>
<feColorMatrix type="matrix" values="0 0 0 0 1 0 0 0 0 1 0 0 0 0 1 0 0 0 0.9 0"/>
<feBlend mode="normal" in2="shape" result="effect4_innerShadow"/>
</filter>
<filter id="filter3_dddi" x="288.596" y="77.3999" width="53.3347" height="49.88" filterUnits="userSpaceOnUse" color-interpolation-filters="sRGB">
<feFlood flood-opacity="0" result="BackgroundImageFix"/>
<feColorMatrix in="SourceAlpha" type="matrix" values="0 0 0 0 0 0 0 0 0 0 0 0 0 0 0 0 0 0 127 0"/>
<feOffset dy="1"/>
<feGaussianBlur stdDeviation="7.5"/>
<feColorMatrix type="matrix" values="0 0 0 0 0.213502 0 0 0 0 0.183333 0 0 0 0 0.366667 0 0 0 0.56 0"/>
<feBlend mode="normal" in2="BackgroundImageFix" result="effect1_dropShadow"/>
<feColorMatrix in="SourceAlpha" type="matrix" values="0 0 0 0 0 0 0 0 0 0 0 0 0 0 0 0 0 0 127 0"/>
<feOffset dx="-0.5" dy="-0.5"/>
<feGaussianBlur stdDeviation="1"/>
<feColorMatrix type="matrix" values="0 0 0 0 0.570833 0 0 0 0 0.66525 0 0 0 0 1 0 0 0 0.4 0"/>
<feBlend mode="normal" in2="effect1_dropShadow" result="effect2_dropShadow"/>
<feColorMatrix in="SourceAlpha" type="matrix" values="0 0 0 0 0 0 0 0 0 0 0 0 0 0 0 0 0 0 127 0"/>
<feOffset dx="1" dy="1"/>
<feGaussianBlur stdDeviation="1.5"/>
<feColorMatrix type="matrix" values="0 0 0 0 0.292031 0 0 0 0 0.0590625 0 0 0 0 0.525 0 0 0 1 0"/>
<feBlend mode="normal" in2="effect2_dropShadow" result="effect3_dropShadow"/>
<feBlend mode="normal" in="SourceGraphic" in2="effect3_dropShadow" result="shape"/>
<feColorMatrix in="SourceAlpha" type="matrix" values="0 0 0 0 0 0 0 0 0 0 0 0 0 0 0 0 0 0 127 0" result="hardAlpha"/>
<feOffset dx="0.3" dy="0.3"/>
<feGaussianBlur stdDeviation="0.25"/>
<feComposite in2="hardAlpha" operator="arithmetic" k2="-1" k3="1"/>
<feColorMatrix type="matrix" values="0 0 0 0 1 0 0 0 0 1 0 0 0 0 1 0 0 0 0.9 0"/>
<feBlend mode="normal" in2="shape" result="effect4_innerShadow"/>
</filter>
<radialGradient id="paint0_radial" cx="0" cy="0" r="1" gradientUnits="userSpaceOnUse" gradientTransform="translate(221.061 156.002) rotate(-2.12179) scale(257.661 213.964)">
<stop offset="0.516389" stop-color="#3B41C0"/>
<stop offset="0.905572" stop-color="#740092" stop-opacity="0"/>
</radialGradient>
<radialGradient id="paint1_radial" cx="0" cy="0" r="1" gradientUnits="userSpaceOnUse" gradientTransform="translate(308.668 111.192) rotate(-169.465) scale(92.3323 85.8258)">
<stop stop-color="white" stop-opacity="0"/>
<stop offset="0.723958" stop-color="white" stop-opacity="0.260417"/>
<stop offset="0.901042" stop-color="#FAC43A"/>
</radialGradient>
<radialGradient id="paint2_radial" cx="0" cy="0" r="1" gradientUnits="userSpaceOnUse" gradientTransform="translate(304.933 110.135) rotate(-178.935) scale(90.7792 76.8065)">
<stop stop-color="white" stop-opacity="0"/>
<stop offset="0.609375" stop-color="white" stop-opacity="0.260417"/>
<stop offset="0.903431" stop-color="#A69BEB"/>
<stop offset="1" stop-color="#FFACD9" stop-opacity="0"/>
</radialGradient>
<radialGradient id="paint3_radial" cx="0" cy="0" r="1" gradientUnits="userSpaceOnUse" gradientTransform="translate(247.691 97.6547) rotate(-0.783092) scale(117.838 97.2424)">
<stop stop-color="#FFBFCC" stop-opacity="0.34"/>
<stop offset="1" stop-color="white" stop-opacity="0"/>
</radialGradient>
<radialGradient id="paint4_radial" cx="0" cy="0" r="1" gradientUnits="userSpaceOnUse" gradientTransform="translate(254.037 96.8973) rotate(28.0632) scale(73.5007 81.5722)">
<stop stop-color="#F8DDF8"/>
<stop offset="0.191506" stop-color="#94B6FF" stop-opacity="0.09"/>
</radialGradient>
<radialGradient id="paint5_radial" cx="0" cy="0" r="1" gradientUnits="userSpaceOnUse" gradientTransform="translate(260.388 101.391) rotate(142.115) scale(34.6624 30.5984)">
<stop stop-color="#FFEEDE"/>
<stop offset="1" stop-color="white" stop-opacity="0"/>
</radialGradient>
<radialGradient id="paint6_radial" cx="0" cy="0" r="1" gradientUnits="userSpaceOnUse" gradientTransform="translate(270.011 101.026) rotate(0.0120955) scale(137.012 112.767)">
<stop stop-color="white" stop-opacity="0.79"/>
<stop offset="0.333333" stop-color="#FF9494" stop-opacity="0.09"/>
</radialGradient>
<radialGradient id="paint7_radial" cx="0" cy="0" r="1" gradientUnits="userSpaceOnUse" gradientTransform="translate(266.511 101.026) rotate(145.817) scale(48.9551 37.398)">
<stop stop-color="#F4ECFF" stop-opacity="0.44"/>
<stop offset="0.447749" stop-color="white" stop-opacity="0"/>
</radialGradient>
<radialGradient id="paint8_radial" cx="0" cy="0" r="1" gradientUnits="userSpaceOnUse" gradientTransform="translate(117.219 179.298) rotate(22.6044) scale(139.167 144.45)">
<stop stop-color="#D3EDFF"/>
<stop offset="1" stop-color="#001D84"/>
</radialGradient>
<radialGradient id="paint9_radial" cx="0" cy="0" r="1" gradientUnits="userSpaceOnUse" gradientTransform="translate(51.8403 240.087) rotate(-1.73506) scale(314.619 265.191)">
<stop offset="0.516389" stop-color="#3B41C0"/>
<stop offset="0.905572" stop-color="#740092" stop-opacity="0"/>
</radialGradient>
<radialGradient id="paint10_radial" cx="0" cy="0" r="1" gradientUnits="userSpaceOnUse" gradientTransform="translate(158.468 185.354) rotate(-168.932) scale(113.153 105.989)">
<stop stop-color="white" stop-opacity="0"/>
<stop offset="0.723958" stop-color="white" stop-opacity="0.260417"/>
<stop offset="0.901042" stop-color="#FAC43A"/>
</radialGradient>
<radialGradient id="paint11_radial" cx="0" cy="0" r="1" gradientUnits="userSpaceOnUse" gradientTransform="translate(153.895 184.011) rotate(-178.503) scale(110.936 95.1193)">
<stop stop-color="white" stop-opacity="0"/>
<stop offset="0.609375" stop-color="white" stop-opacity="0.260417"/>
<stop offset="0.903431" stop-color="#EB9BA5"/>
<stop offset="1" stop-color="#FFACD9" stop-opacity="0"/>
</radialGradient>
<radialGradient id="paint12_radial" cx="0" cy="0" r="1" gradientUnits="userSpaceOnUse" gradientTransform="translate(83.8542 168.039) rotate(0.0473242) scale(238.253 199.394)">
<stop stop-color="#FFBFCC" stop-opacity="0.34"/>
<stop offset="1" stop-color="white" stop-opacity="0"/>
</radialGradient>
<radialGradient id="paint13_radial" cx="0" cy="0" r="1" gradientUnits="userSpaceOnUse" gradientTransform="translate(91.5995 167.158) rotate(28.6257) scale(90.6209 100.129)">
<stop stop-color="#F8DDF8"/>
<stop offset="0.191506" stop-color="#94B6FF" stop-opacity="0.09"/>
</radialGradient>
<radialGradient id="paint14_radial" cx="0" cy="0" r="1" gradientUnits="userSpaceOnUse" gradientTransform="translate(90.4175 172.082) rotate(132.114) scale(36.162 32.4651)">
<stop stop-color="#FFEEDE"/>
<stop offset="1" stop-color="white" stop-opacity="0"/>
</radialGradient>
<radialGradient id="paint15_radial" cx="0" cy="0" r="1" gradientUnits="userSpaceOnUse" gradientTransform="translate(101.573 173.919) rotate(17.9939) scale(187.306 156.185)">
<stop stop-color="white" stop-opacity="0.54"/>
<stop offset="0.1875" stop-color="#FF9494" stop-opacity="0.09"/>
</radialGradient>
<radialGradient id="paint16_radial" cx="0" cy="0" r="1" gradientUnits="userSpaceOnUse" gradientTransform="translate(95.5623 181.28) rotate(146.776) scale(59.8252 46.5734)">
<stop stop-color="#F4ECFF" stop-opacity="0.32"/>
<stop offset="0.367407" stop-color="white" stop-opacity="0"/>
</radialGradient>
<radialGradient id="paint17_radial" cx="0" cy="0" r="1" gradientUnits="userSpaceOnUse" gradientTransform="translate(123.921 173.7) rotate(17.3239) scale(151.058 155.508)">
<stop stop-color="white" stop-opacity="0"/>
<stop offset="0.65728" stop-color="white" stop-opacity="0"/>
<stop offset="0.799235" stop-color="#17002F" stop-opacity="0.47"/>
<stop offset="1" stop-color="#DFD0FF" stop-opacity="0"/>
</radialGradient>
</defs>
</svg>
