<svg width="582" height="408" viewBox="0 0 582 408" fill="none" xmlns="http://www.w3.org/2000/svg">
<g filter="url(#filter0_if)">
<path d="M185.266 190.455C201.484 147.214 258.455 109.906 276.836 85.3086C295.217 60.7111 324.11 52.8056 358.727 60.7328C393.344 68.66 441.583 61.0695 491.367 98.5921C541.151 136.115 543.909 193.549 529.391 235.874C514.873 278.199 491.436 300.796 456.886 321.446C422.336 342.095 364.906 364.104 318.318 359.179C271.729 354.254 223.328 319.612 205.073 298.337C186.818 277.062 169.049 233.695 185.266 190.455Z" fill="url(#paint0_radial)"/>
<path d="M185.266 190.455C201.484 147.214 258.455 109.906 276.836 85.3086C295.217 60.7111 324.11 52.8056 358.727 60.7328C393.344 68.66 441.583 61.0695 491.367 98.5921C541.151 136.115 543.909 193.549 529.391 235.874C514.873 278.199 491.436 300.796 456.886 321.446C422.336 342.095 364.906 364.104 318.318 359.179C271.729 354.254 223.328 319.612 205.073 298.337C186.818 277.062 169.049 233.695 185.266 190.455Z" fill="url(#paint1_radial)"/>
<path d="M185.266 190.455C201.484 147.214 258.455 109.906 276.836 85.3086C295.217 60.7111 324.11 52.8056 358.727 60.7328C393.344 68.66 441.583 61.0695 491.367 98.5921C541.151 136.115 543.909 193.549 529.391 235.874C514.873 278.199 491.436 300.796 456.886 321.446C422.336 342.095 364.906 364.104 318.318 359.179C271.729 354.254 223.328 319.612 205.073 298.337C186.818 277.062 169.049 233.695 185.266 190.455Z" fill="url(#paint2_radial)"/>
<path d="M185.266 190.455C201.484 147.214 258.455 109.906 276.836 85.3086C295.217 60.7111 324.11 52.8056 358.727 60.7328C393.344 68.66 441.583 61.0695 491.367 98.5921C541.151 136.115 543.909 193.549 529.391 235.874C514.873 278.199 491.436 300.796 456.886 321.446C422.336 342.095 364.906 364.104 318.318 359.179C271.729 354.254 223.328 319.612 205.073 298.337C186.818 277.062 169.049 233.695 185.266 190.455Z" fill="url(#paint3_radial)"/>
<path d="M185.266 190.455C201.484 147.214 258.455 109.906 276.836 85.3086C295.217 60.7111 324.11 52.8056 358.727 60.7328C393.344 68.66 441.583 61.0695 491.367 98.5921C541.151 136.115 543.909 193.549 529.391 235.874C514.873 278.199 491.436 300.796 456.886 321.446C422.336 342.095 364.906 364.104 318.318 359.179C271.729 354.254 223.328 319.612 205.073 298.337C186.818 277.062 169.049 233.695 185.266 190.455Z" fill="url(#paint4_radial)"/>
<path d="M185.266 190.455C201.484 147.214 258.455 109.906 276.836 85.3086C295.217 60.7111 324.11 52.8056 358.727 60.7328C393.344 68.66 441.583 61.0695 491.367 98.5921C541.151 136.115 543.909 193.549 529.391 235.874C514.873 278.199 491.436 300.796 456.886 321.446C422.336 342.095 364.906 364.104 318.318 359.179C271.729 354.254 223.328 319.612 205.073 298.337C186.818 277.062 169.049 233.695 185.266 190.455Z" fill="url(#paint5_radial)"/>
<path d="M185.266 190.455C201.484 147.214 258.455 109.906 276.836 85.3086C295.217 60.7111 324.11 52.8056 358.727 60.7328C393.344 68.66 441.583 61.0695 491.367 98.5921C541.151 136.115 543.909 193.549 529.391 235.874C514.873 278.199 491.436 300.796 456.886 321.446C422.336 342.095 364.906 364.104 318.318 359.179C271.729 354.254 223.328 319.612 205.073 298.337C186.818 277.062 169.049 233.695 185.266 190.455Z" fill="url(#paint6_radial)"/>
<path d="M185.266 190.455C201.484 147.214 258.455 109.906 276.836 85.3086C295.217 60.7111 324.11 52.8056 358.727 60.7328C393.344 68.66 441.583 61.0695 491.367 98.5921C541.151 136.115 543.909 193.549 529.391 235.874C514.873 278.199 491.436 300.796 456.886 321.446C422.336 342.095 364.906 364.104 318.318 359.179C271.729 354.254 223.328 319.612 205.073 298.337C186.818 277.062 169.049 233.695 185.266 190.455Z" fill="url(#paint7_radial)"/>
<path d="M185.266 190.455C201.484 147.214 258.455 109.906 276.836 85.3086C295.217 60.7111 324.11 52.8056 358.727 60.7328C393.344 68.66 441.583 61.0695 491.367 98.5921C541.151 136.115 543.909 193.549 529.391 235.874C514.873 278.199 491.436 300.796 456.886 321.446C422.336 342.095 364.906 364.104 318.318 359.179C271.729 354.254 223.328 319.612 205.073 298.337C186.818 277.062 169.049 233.695 185.266 190.455Z" fill="url(#paint8_radial)"/>
</g>
<g filter="url(#filter1_dddi)">
<path d="M308.402 200.48V193.284H311.65C312.602 191.79 313.078 189.541 313.078 186.536V176.4H326.63V193.284H329.822V200.48H326.742V196H311.482V200.48H308.402ZM314.898 193.284H323.55V179.424H316.158V186.536C316.158 189.504 315.738 191.753 314.898 193.284ZM343.087 182.14H345.859V196H343.087V186.144L335.359 196H332.587V182.14H335.359V191.996L343.087 182.14ZM358.237 188.748C359.114 188.99 359.796 189.392 360.281 189.952C360.766 190.512 361.009 191.174 361.009 191.94C361.009 193.19 360.468 194.226 359.385 195.048C358.302 195.869 356.837 196.28 354.989 196.28C353.57 196.28 352.282 195.99 351.125 195.412C349.986 194.814 349.109 193.937 348.493 192.78L350.733 191.772C351.592 193.284 352.945 194.04 354.793 194.04C355.876 194.04 356.706 193.834 357.285 193.424C357.882 193.013 358.181 192.472 358.181 191.8C358.181 190.418 356.986 189.728 354.597 189.728H354.065V188.02H354.625C356.716 188.02 357.761 187.348 357.761 186.004C357.761 185.388 357.5 184.902 356.977 184.548C356.454 184.193 355.754 184.016 354.877 184.016C353.589 184.016 352.413 184.538 351.349 185.584L349.473 184.128C350.966 182.56 352.796 181.776 354.961 181.776C356.622 181.776 357.957 182.149 358.965 182.896C359.973 183.642 360.477 184.576 360.477 185.696C360.477 187.245 359.73 188.262 358.237 188.748ZM369.747 196.196C367.88 196.196 366.312 195.514 365.043 194.152C363.773 192.77 363.139 191.081 363.139 189.084C363.139 187.049 363.764 185.35 365.015 183.988C366.284 182.625 367.861 181.944 369.747 181.944C371.893 181.944 373.592 182.662 374.843 184.1V182.14H377.783V196H374.843V194.04C373.573 195.477 371.875 196.196 369.747 196.196ZM367.311 192.332C368.151 193.209 369.196 193.648 370.447 193.648C371.697 193.648 372.743 193.209 373.583 192.332C374.423 191.436 374.843 190.353 374.843 189.084C374.843 187.777 374.423 186.685 373.583 185.808C372.743 184.93 371.697 184.492 370.447 184.492C369.196 184.492 368.151 184.93 367.311 185.808C366.471 186.685 366.051 187.777 366.051 189.084C366.051 190.353 366.471 191.436 367.311 192.332ZM388.209 179.676C387.014 179.676 386.081 179.34 385.409 178.668C384.755 177.996 384.41 177.193 384.373 176.26H385.969C386.025 176.745 386.23 177.193 386.585 177.604C386.958 177.996 387.499 178.192 388.209 178.192C388.918 178.192 389.45 177.996 389.805 177.604C390.178 177.193 390.383 176.745 390.421 176.26H392.017C391.979 177.193 391.625 177.996 390.953 178.668C390.299 179.34 389.385 179.676 388.209 179.676ZM392.045 182.14H394.817V196H392.045V186.144L384.317 196H381.545V182.14H384.317V191.996L392.045 182.14ZM408.954 182.14H411.866V196H408.954V190.316H401.45V196H398.566V182.14H401.45V187.824H408.954V182.14ZM307.999 214.14V228H305.059V216.604H297.555V228H294.615V214.14H307.999ZM311.745 235V214.14H314.685V216.128C315.954 214.672 317.662 213.944 319.809 213.944C321.675 213.944 323.234 214.634 324.485 216.016C325.754 217.378 326.389 219.068 326.389 221.084C326.389 223.1 325.754 224.789 324.485 226.152C323.234 227.514 321.675 228.196 319.809 228.196C317.699 228.196 315.991 227.477 314.685 226.04V235H311.745ZM315.945 224.332C316.785 225.209 317.83 225.648 319.081 225.648C320.331 225.648 321.367 225.209 322.189 224.332C323.029 223.454 323.449 222.372 323.449 221.084C323.449 219.777 323.029 218.685 322.189 217.808C321.367 216.93 320.331 216.492 319.081 216.492C317.83 216.492 316.785 216.93 315.945 217.808C315.105 218.685 314.685 219.777 314.685 221.084C314.685 222.372 315.105 223.454 315.945 224.332ZM341.405 226.236C339.967 227.654 338.231 228.364 336.197 228.364C334.162 228.364 332.426 227.654 330.989 226.236C329.551 224.798 328.833 223.072 328.833 221.056C328.833 219.021 329.551 217.294 330.989 215.876C332.426 214.438 334.162 213.72 336.197 213.72C338.25 213.72 339.995 214.438 341.433 215.876C342.87 217.294 343.589 219.021 343.589 221.056C343.589 223.072 342.861 224.798 341.405 226.236ZM336.197 225.704C337.466 225.722 338.53 225.293 339.389 224.416C340.266 223.52 340.705 222.409 340.705 221.084C340.705 219.758 340.266 218.648 339.389 217.752C338.53 216.837 337.466 216.389 336.197 216.408C334.927 216.389 333.863 216.837 333.005 217.752C332.146 218.648 331.717 219.758 331.717 221.084C331.717 222.409 332.146 223.52 333.005 224.416C333.863 225.293 334.927 225.722 336.197 225.704ZM361.147 225.536H363.891V232.452H361.175V228H347.959V232.452H345.243V225.536H347.735C348.388 224.658 348.808 223.725 348.995 222.736C349.182 221.728 349.275 220.178 349.275 218.088V214.14H361.147V225.536ZM350.759 225.536H358.347V216.632H352.075V219.068C352.075 220.766 351.972 222.101 351.767 223.072C351.58 224.042 351.244 224.864 350.759 225.536ZM366.577 235L366.857 232.256C368.817 232.218 370.096 231.341 370.693 229.624L371.365 228L365.401 214.14H368.537L372.877 225.088L377.049 214.14H380.157L373.297 230.576C372.625 232.181 371.738 233.32 370.637 233.992C369.536 234.664 368.182 235 366.577 235ZM382.672 228V214.14H385.612V219.628H388.048L392.808 214.14H396.56L390.456 220.86L396.56 228H392.864L388.048 222.148H385.612V228H382.672ZM411.264 214.14V216.66H406.14V228H403.256V216.66H398.104V214.14H411.264ZM419.34 228.196C417.473 228.196 415.905 227.514 414.636 226.152C413.366 224.77 412.732 223.081 412.732 221.084C412.732 219.049 413.357 217.35 414.608 215.988C415.877 214.625 417.454 213.944 419.34 213.944C421.486 213.944 423.185 214.662 424.436 216.1V214.14H427.376V228H424.436V226.04C423.166 227.477 421.468 228.196 419.34 228.196ZM416.904 224.332C417.744 225.209 418.789 225.648 420.04 225.648C421.29 225.648 422.336 225.209 423.176 224.332C424.016 223.436 424.436 222.353 424.436 221.084C424.436 219.777 424.016 218.685 423.176 217.808C422.336 216.93 421.29 216.492 420.04 216.492C418.789 216.492 417.744 216.93 416.904 217.808C416.064 218.685 415.644 219.777 415.644 221.084C415.644 222.353 416.064 223.436 416.904 224.332Z" fill="#FAFAFA"/>
</g>
<g filter="url(#filter2_if)">
<path d="M3.59938 285.26C10.5812 229.322 60.4506 200.854 95.8579 192.862C131.265 184.871 156.699 185.87 191.607 202.352C226.516 218.834 243.472 248.8 237.986 285.26C232.5 321.72 214.049 362.175 170.163 377.658C126.278 393.14 98.3514 386.148 75.4114 379.656C52.4715 373.163 -3.38248 341.198 3.59938 285.26Z" fill="url(#paint9_radial)"/>
<path d="M3.59938 285.26C10.5812 229.322 60.4506 200.854 95.8579 192.862C131.265 184.871 156.699 185.87 191.607 202.352C226.516 218.834 243.472 248.8 237.986 285.26C232.5 321.72 214.049 362.175 170.163 377.658C126.278 393.14 98.3514 386.148 75.4114 379.656C52.4715 373.163 -3.38248 341.198 3.59938 285.26Z" fill="url(#paint10_radial)"/>
<path d="M3.59938 285.26C10.5812 229.322 60.4506 200.854 95.8579 192.862C131.265 184.871 156.699 185.87 191.607 202.352C226.516 218.834 243.472 248.8 237.986 285.26C232.5 321.72 214.049 362.175 170.163 377.658C126.278 393.14 98.3514 386.148 75.4114 379.656C52.4715 373.163 -3.38248 341.198 3.59938 285.26Z" fill="url(#paint11_radial)"/>
<path d="M3.59938 285.26C10.5812 229.322 60.4506 200.854 95.8579 192.862C131.265 184.871 156.699 185.87 191.607 202.352C226.516 218.834 243.472 248.8 237.986 285.26C232.5 321.72 214.049 362.175 170.163 377.658C126.278 393.14 98.3514 386.148 75.4114 379.656C52.4715 373.163 -3.38248 341.198 3.59938 285.26Z" fill="url(#paint12_radial)"/>
<path d="M3.59938 285.26C10.5812 229.322 60.4506 200.854 95.8579 192.862C131.265 184.871 156.699 185.87 191.607 202.352C226.516 218.834 243.472 248.8 237.986 285.26C232.5 321.72 214.049 362.175 170.163 377.658C126.278 393.14 98.3514 386.148 75.4114 379.656C52.4715 373.163 -3.38248 341.198 3.59938 285.26Z" fill="url(#paint13_radial)"/>
<path d="M3.59938 285.26C10.5812 229.322 60.4506 200.854 95.8579 192.862C131.265 184.871 156.699 185.87 191.607 202.352C226.516 218.834 243.472 248.8 237.986 285.26C232.5 321.72 214.049 362.175 170.163 377.658C126.278 393.14 98.3514 386.148 75.4114 379.656C52.4715 373.163 -3.38248 341.198 3.59938 285.26Z" fill="url(#paint14_radial)"/>
<path d="M3.59938 285.26C10.5812 229.322 60.4506 200.854 95.8579 192.862C131.265 184.871 156.699 185.87 191.607 202.352C226.516 218.834 243.472 248.8 237.986 285.26C232.5 321.72 214.049 362.175 170.163 377.658C126.278 393.14 98.3514 386.148 75.4114 379.656C52.4715 373.163 -3.38248 341.198 3.59938 285.26Z" fill="url(#paint15_radial)"/>
<path d="M3.59938 285.26C10.5812 229.322 60.4506 200.854 95.8579 192.862C131.265 184.871 156.699 185.87 191.607 202.352C226.516 218.834 243.472 248.8 237.986 285.26C232.5 321.72 214.049 362.175 170.163 377.658C126.278 393.14 98.3514 386.148 75.4114 379.656C52.4715 373.163 -3.38248 341.198 3.59938 285.26Z" fill="url(#paint16_radial)"/>
</g>
<g filter="url(#filter3_dddi)">
<path d="M110.38 271.976C112.247 272.872 113.18 274.384 113.18 276.512C113.18 278.248 112.573 279.601 111.36 280.572C110.165 281.524 108.663 282 106.852 282H98.844V262.4H106.432C108.261 262.4 109.755 262.876 110.912 263.828C112.088 264.761 112.676 266.087 112.676 267.804C112.676 269.671 111.911 271.061 110.38 271.976ZM101.896 265.06V270.94H106.432C107.384 270.94 108.159 270.707 108.756 270.24C109.372 269.773 109.68 269.027 109.68 268C109.68 266.973 109.372 266.227 108.756 265.76C108.14 265.293 107.365 265.06 106.432 265.06H101.896ZM106.768 279.34C107.683 279.34 108.467 279.097 109.12 278.612C109.792 278.108 110.128 277.343 110.128 276.316C110.128 275.308 109.792 274.561 109.12 274.076C108.467 273.572 107.683 273.32 106.768 273.32H101.896V279.34H106.768ZM122.873 267.748C124.908 267.748 126.579 268.392 127.885 269.68C129.192 270.968 129.864 272.685 129.901 274.832C129.901 275.261 129.892 275.597 129.873 275.84H118.337C118.487 277.091 118.981 278.089 119.821 278.836C120.68 279.564 121.697 279.928 122.873 279.928C124.647 279.928 126.019 279.303 126.989 278.052L128.781 279.564C128.147 280.441 127.297 281.123 126.233 281.608C125.188 282.093 124.068 282.336 122.873 282.336C120.82 282.336 119.093 281.636 117.693 280.236C116.312 278.836 115.621 277.119 115.621 275.084C115.621 273.012 116.312 271.276 117.693 269.876C119.075 268.457 120.801 267.748 122.873 267.748ZM125.701 271.052C124.955 270.38 124.012 270.044 122.873 270.044C121.735 270.044 120.764 270.389 119.961 271.08C119.159 271.752 118.645 272.657 118.421 273.796H127.241C126.98 272.62 126.467 271.705 125.701 271.052ZM139.154 282.336C137.119 282.336 135.411 281.645 134.03 280.264C132.649 278.883 131.958 277.063 131.958 274.804C131.958 271.929 132.397 269.671 133.274 268.028C134.151 266.367 135.355 265.032 136.886 264.024C138.043 263.259 140.666 262.251 144.754 261L145.65 263.1C141.581 264.369 139.07 265.331 138.118 265.984C136.251 267.347 135.085 269.241 134.618 271.668C135.085 270.828 135.766 270.147 136.662 269.624C137.577 269.083 138.613 268.812 139.77 268.812C141.655 268.812 143.195 269.456 144.39 270.744C145.603 272.032 146.21 273.628 146.21 275.532C146.21 277.436 145.529 279.051 144.166 280.376C142.822 281.683 141.151 282.336 139.154 282.336ZM139.154 279.76C140.349 279.76 141.347 279.349 142.15 278.528C142.971 277.707 143.382 276.708 143.382 275.532C143.382 274.319 142.971 273.301 142.15 272.48C141.347 271.659 140.349 271.248 139.154 271.248C137.978 271.248 136.989 271.659 136.186 272.48C135.383 273.301 134.982 274.319 134.982 275.532C134.982 276.708 135.383 277.707 136.186 278.528C136.989 279.349 137.978 279.76 139.154 279.76ZM86.9292 311.536H89.6732V318.452H86.9572V314H73.7412V318.452H71.0252V311.536H73.5172C74.1706 310.659 74.5906 309.725 74.7772 308.736C74.9639 307.728 75.0572 306.179 75.0572 304.088V300.14H86.9292V311.536ZM76.5412 311.536H84.1292V302.632H77.8572V305.068C77.8572 306.767 77.7546 308.101 77.5492 309.072C77.3626 310.043 77.0266 310.864 76.5412 311.536ZM103.164 300.14H105.936V314H103.164V304.144L95.4362 314H92.6642V300.14H95.4362V309.996L103.164 300.14ZM118.314 306.748C119.191 306.991 119.872 307.392 120.358 307.952C120.843 308.512 121.086 309.175 121.086 309.94C121.086 311.191 120.544 312.227 119.462 313.048C118.379 313.869 116.914 314.28 115.066 314.28C113.647 314.28 112.359 313.991 111.202 313.412C110.063 312.815 109.186 311.937 108.57 310.78L110.81 309.772C111.668 311.284 113.022 312.04 114.87 312.04C115.952 312.04 116.783 311.835 117.362 311.424C117.959 311.013 118.258 310.472 118.258 309.8C118.258 308.419 117.063 307.728 114.674 307.728H114.142V306.02H114.702C116.792 306.02 117.838 305.348 117.838 304.004C117.838 303.388 117.576 302.903 117.054 302.548C116.531 302.193 115.831 302.016 114.954 302.016C113.666 302.016 112.49 302.539 111.426 303.584L109.55 302.128C111.043 300.56 112.872 299.776 115.038 299.776C116.699 299.776 118.034 300.149 119.042 300.896C120.05 301.643 120.554 302.576 120.554 303.696C120.554 305.245 119.807 306.263 118.314 306.748ZM129.824 314.196C127.957 314.196 126.389 313.515 125.12 312.152C123.85 310.771 123.216 309.081 123.216 307.084C123.216 305.049 123.841 303.351 125.092 301.988C126.361 300.625 127.938 299.944 129.824 299.944C131.97 299.944 133.669 300.663 134.92 302.1V300.14H137.86V314H134.92V312.04C133.65 313.477 131.952 314.196 129.824 314.196ZM127.388 310.332C128.228 311.209 129.273 311.648 130.524 311.648C131.774 311.648 132.82 311.209 133.66 310.332C134.5 309.436 134.92 308.353 134.92 307.084C134.92 305.777 134.5 304.685 133.66 303.808C132.82 302.931 131.774 302.492 130.524 302.492C129.273 302.492 128.228 302.931 127.388 303.808C126.548 304.685 126.128 305.777 126.128 307.084C126.128 308.353 126.548 309.436 127.388 310.332ZM148.286 297.676C147.091 297.676 146.158 297.34 145.486 296.668C144.832 295.996 144.487 295.193 144.45 294.26H146.046C146.102 294.745 146.307 295.193 146.662 295.604C147.035 295.996 147.576 296.192 148.286 296.192C148.995 296.192 149.527 295.996 149.882 295.604C150.255 295.193 150.46 294.745 150.498 294.26H152.094C152.056 295.193 151.702 295.996 151.03 296.668C150.376 297.34 149.462 297.676 148.286 297.676ZM152.122 300.14H154.894V314H152.122V304.144L144.394 314H141.622V300.14H144.394V309.996L152.122 300.14ZM169.03 300.14H171.942V314H169.03V308.316H161.526V314H158.642V300.14H161.526V305.824H169.03V300.14Z" fill="#E9E9E9"/>
</g>
<defs>
<filter id="filter0_if" x="132" y="0.00732422" width="449.913" height="407.681" filterUnits="userSpaceOnUse" color-interpolation-filters="sRGB">
<feFlood flood-opacity="0" result="BackgroundImageFix"/>
<feBlend mode="normal" in="SourceGraphic" in2="BackgroundImageFix" result="shape"/>
<feColorMatrix in="SourceAlpha" type="matrix" values="0 0 0 0 0 0 0 0 0 0 0 0 0 0 0 0 0 0 127 0" result="hardAlpha"/>
<feOffset dy="4"/>
<feGaussianBlur stdDeviation="15"/>
<feComposite in2="hardAlpha" operator="arithmetic" k2="-1" k3="1"/>
<feColorMatrix type="matrix" values="0 0 0 0 0.193325 0 0 0 0 0.0870833 0 0 0 0 0.366667 0 0 0 0.4 0"/>
<feBlend mode="overlay" in2="shape" result="effect1_innerShadow"/>
<feGaussianBlur stdDeviation="4" result="effect2_foregroundBlur"/>
</filter>
<filter id="filter1_dddi" x="279.615" y="162.26" width="162.761" height="88.74" filterUnits="userSpaceOnUse" color-interpolation-filters="sRGB">
<feFlood flood-opacity="0" result="BackgroundImageFix"/>
<feColorMatrix in="SourceAlpha" type="matrix" values="0 0 0 0 0 0 0 0 0 0 0 0 0 0 0 0 0 0 127 0"/>
<feOffset dy="1"/>
<feGaussianBlur stdDeviation="7.5"/>
<feColorMatrix type="matrix" values="0 0 0 0 0.213502 0 0 0 0 0.183333 0 0 0 0 0.366667 0 0 0 0.56 0"/>
<feBlend mode="normal" in2="BackgroundImageFix" result="effect1_dropShadow"/>
<feColorMatrix in="SourceAlpha" type="matrix" values="0 0 0 0 0 0 0 0 0 0 0 0 0 0 0 0 0 0 127 0"/>
<feOffset dx="-0.5" dy="-0.5"/>
<feGaussianBlur stdDeviation="1"/>
<feColorMatrix type="matrix" values="0 0 0 0 0.570833 0 0 0 0 0.66525 0 0 0 0 1 0 0 0 0.4 0"/>
<feBlend mode="normal" in2="effect1_dropShadow" result="effect2_dropShadow"/>
<feColorMatrix in="SourceAlpha" type="matrix" values="0 0 0 0 0 0 0 0 0 0 0 0 0 0 0 0 0 0 127 0"/>
<feOffset dx="1" dy="1"/>
<feGaussianBlur stdDeviation="1.5"/>
<feColorMatrix type="matrix" values="0 0 0 0 0.292031 0 0 0 0 0.0590625 0 0 0 0 0.525 0 0 0 1 0"/>
<feBlend mode="normal" in2="effect2_dropShadow" result="effect3_dropShadow"/>
<feBlend mode="normal" in="SourceGraphic" in2="effect3_dropShadow" result="shape"/>
<feColorMatrix in="SourceAlpha" type="matrix" values="0 0 0 0 0 0 0 0 0 0 0 0 0 0 0 0 0 0 127 0" result="hardAlpha"/>
<feOffset dx="0.3" dy="0.3"/>
<feGaussianBlur stdDeviation="0.25"/>
<feComposite in2="hardAlpha" operator="arithmetic" k2="-1" k3="1"/>
<feColorMatrix type="matrix" values="0 0 0 0 1 0 0 0 0 1 0 0 0 0 1 0 0 0 0.9 0"/>
<feBlend mode="normal" in2="shape" result="effect4_innerShadow"/>
</filter>
<filter id="filter2_if" x="0" y="185" width="242" height="206" filterUnits="userSpaceOnUse" color-interpolation-filters="sRGB">
<feFlood flood-opacity="0" result="BackgroundImageFix"/>
<feBlend mode="normal" in="SourceGraphic" in2="BackgroundImageFix" result="shape"/>
<feColorMatrix in="SourceAlpha" type="matrix" values="0 0 0 0 0 0 0 0 0 0 0 0 0 0 0 0 0 0 127 0" result="hardAlpha"/>
<feOffset dy="4"/>
<feGaussianBlur stdDeviation="15"/>
<feComposite in2="hardAlpha" operator="arithmetic" k2="-1" k3="1"/>
<feColorMatrix type="matrix" values="0 0 0 0 0.193325 0 0 0 0 0.0870833 0 0 0 0 0.366667 0 0 0 0.4 0"/>
<feBlend mode="overlay" in2="shape" result="effect1_innerShadow"/>
<feGaussianBlur stdDeviation="1.5" result="effect2_foregroundBlur"/>
</filter>
<filter id="filter3_dddi" x="56.0254" y="247" width="130.917" height="87.452" filterUnits="userSpaceOnUse" color-interpolation-filters="sRGB">
<feFlood flood-opacity="0" result="BackgroundImageFix"/>
<feColorMatrix in="SourceAlpha" type="matrix" values="0 0 0 0 0 0 0 0 0 0 0 0 0 0 0 0 0 0 127 0"/>
<feOffset dy="1"/>
<feGaussianBlur stdDeviation="7.5"/>
<feColorMatrix type="matrix" values="0 0 0 0 0.213502 0 0 0 0 0.183333 0 0 0 0 0.366667 0 0 0 0.56 0"/>
<feBlend mode="normal" in2="BackgroundImageFix" result="effect1_dropShadow"/>
<feColorMatrix in="SourceAlpha" type="matrix" values="0 0 0 0 0 0 0 0 0 0 0 0 0 0 0 0 0 0 127 0"/>
<feOffset dx="-0.5" dy="-0.5"/>
<feGaussianBlur stdDeviation="1"/>
<feColorMatrix type="matrix" values="0 0 0 0 0.570833 0 0 0 0 0.66525 0 0 0 0 1 0 0 0 0.4 0"/>
<feBlend mode="normal" in2="effect1_dropShadow" result="effect2_dropShadow"/>
<feColorMatrix in="SourceAlpha" type="matrix" values="0 0 0 0 0 0 0 0 0 0 0 0 0 0 0 0 0 0 127 0"/>
<feOffset dx="1" dy="1"/>
<feGaussianBlur stdDeviation="1.5"/>
<feColorMatrix type="matrix" values="0 0 0 0 0.292031 0 0 0 0 0.0590625 0 0 0 0 0.525 0 0 0 1 0"/>
<feBlend mode="normal" in2="effect2_dropShadow" result="effect3_dropShadow"/>
<feBlend mode="normal" in="SourceGraphic" in2="effect3_dropShadow" result="shape"/>
<feColorMatrix in="SourceAlpha" type="matrix" values="0 0 0 0 0 0 0 0 0 0 0 0 0 0 0 0 0 0 127 0" result="hardAlpha"/>
<feOffset dx="0.3" dy="0.3"/>
<feGaussianBlur stdDeviation="0.25"/>
<feComposite in2="hardAlpha" operator="arithmetic" k2="-1" k3="1"/>
<feColorMatrix type="matrix" values="0 0 0 0 1 0 0 0 0 1 0 0 0 0 1 0 0 0 0.9 0"/>
<feBlend mode="normal" in2="shape" result="effect4_innerShadow"/>
</filter>
<radialGradient id="paint0_radial" cx="0" cy="0" r="1" gradientUnits="userSpaceOnUse" gradientTransform="translate(309.356 190.465) rotate(30.7234) scale(239.67 247.928)">
<stop stop-color="#D3EDFF"/>
<stop offset="1" stop-color="#001D84"/>
</radialGradient>
<radialGradient id="paint1_radial" cx="0" cy="0" r="1" gradientUnits="userSpaceOnUse" gradientTransform="translate(191.021 282.358) rotate(5.82187) scale(528.564 466.586)">
<stop offset="0.516389" stop-color="#3B41C0"/>
<stop offset="0.905572" stop-color="#740092" stop-opacity="0"/>
</radialGradient>
<radialGradient id="paint2_radial" cx="0" cy="0" r="1" gradientUnits="userSpaceOnUse" gradientTransform="translate(377.671 223.099) rotate(-157.453) scale(197.388 188.663)">
<stop stop-color="white" stop-opacity="0"/>
<stop offset="0.712779" stop-color="white" stop-opacity="0.260417"/>
<stop offset="0.901042" stop-color="#FAC43A"/>
</radialGradient>
<radialGradient id="paint3_radial" cx="0" cy="0" r="1" gradientUnits="userSpaceOnUse" gradientTransform="translate(443.062 214.632) rotate(-171.705) scale(260.471 232.203)">
<stop stop-color="white" stop-opacity="0"/>
<stop offset="0.609375" stop-color="white" stop-opacity="0.260417"/>
<stop offset="0.859375" stop-color="#EB9BA5"/>
<stop offset="1" stop-color="#FFACD9" stop-opacity="0"/>
</radialGradient>
<radialGradient id="paint4_radial" cx="0" cy="0" r="1" gradientUnits="userSpaceOnUse" gradientTransform="translate(255.448 163.281) rotate(7.68582) scale(400.85 350.31)">
<stop stop-color="#FFBFCC" stop-opacity="0.34"/>
<stop offset="1" stop-color="white" stop-opacity="0"/>
</radialGradient>
<radialGradient id="paint5_radial" cx="0" cy="0" r="1" gradientUnits="userSpaceOnUse" gradientTransform="translate(284.092 177.544) rotate(10.2035) scale(419.351 366.842)">
<stop stop-color="white" stop-opacity="0.79"/>
<stop offset="0.333333" stop-color="#FF9494" stop-opacity="0.09"/>
</radialGradient>
<radialGradient id="paint6_radial" cx="0" cy="0" r="1" gradientUnits="userSpaceOnUse" gradientTransform="translate(248.125 171.089) rotate(144.147) scale(191.022 158.284)">
<stop stop-color="#F4ECFF" stop-opacity="0.44"/>
<stop offset="0.507459" stop-color="white" stop-opacity="0"/>
</radialGradient>
<radialGradient id="paint7_radial" cx="0" cy="0" r="1" gradientUnits="userSpaceOnUse" gradientTransform="translate(321.39 182.156) rotate(29.3158) scale(203.987 212.303)">
<stop offset="0.904987" stop-color="white" stop-opacity="0"/>
<stop offset="1" stop-color="#17002F" stop-opacity="0.47"/>
</radialGradient>
<radialGradient id="paint8_radial" cx="0" cy="0" r="1" gradientUnits="userSpaceOnUse" gradientTransform="translate(194.507 309.498) rotate(38.8095) scale(347.994 421.547)">
<stop stop-color="#4F1C8E"/>
<stop offset="0.208333" stop-color="#48378D" stop-opacity="0"/>
</radialGradient>
<radialGradient id="paint9_radial" cx="0" cy="0" r="1" gradientUnits="userSpaceOnUse" gradientTransform="translate(93.86 269.922) rotate(48.0012) scale(157.541 162.661)">
<stop stop-color="#D3EDFF"/>
<stop offset="1" stop-color="#001D84"/>
</radialGradient>
<radialGradient id="paint10_radial" cx="0" cy="0" r="1" gradientUnits="userSpaceOnUse" gradientTransform="translate(3 305.742) rotate(22.937) scale(344.672 308.575)">
<stop offset="0.516389" stop-color="#3B41C0"/>
<stop offset="0.905572" stop-color="#740092" stop-opacity="0"/>
</radialGradient>
<radialGradient id="paint11_radial" cx="0" cy="0" r="1" gradientUnits="userSpaceOnUse" gradientTransform="translate(137.648 292.385) rotate(-146.161) scale(128.486 123.812)">
<stop stop-color="white" stop-opacity="0"/>
<stop offset="0.712779" stop-color="white" stop-opacity="0.260417"/>
<stop offset="0.901042" stop-color="#FAC43A"/>
</radialGradient>
<radialGradient id="paint12_radial" cx="0" cy="0" r="1" gradientUnits="userSpaceOnUse" gradientTransform="translate(173.055 302.374) rotate(-157.226) scale(166.944 150.968)">
<stop stop-color="white" stop-opacity="0"/>
<stop offset="0.609375" stop-color="white" stop-opacity="0.260417"/>
<stop offset="0.859375" stop-color="#EB9BA5"/>
<stop offset="1" stop-color="#FFACD9" stop-opacity="0"/>
</radialGradient>
<radialGradient id="paint13_radial" cx="0" cy="0" r="1" gradientUnits="userSpaceOnUse" gradientTransform="translate(65.3714 242.371) rotate(24.8265) scale(261.517 231.564)">
<stop stop-color="#FFBFCC" stop-opacity="0.34"/>
<stop offset="1" stop-color="white" stop-opacity="0"/>
</radialGradient>
<radialGradient id="paint14_radial" cx="0" cy="0" r="1" gradientUnits="userSpaceOnUse" gradientTransform="translate(77.3055 252.429) rotate(33.117) scale(245.907 217.597)">
<stop stop-color="white" stop-opacity="0.79"/>
<stop offset="0.333333" stop-color="#FF9494" stop-opacity="0.09"/>
</radialGradient>
<radialGradient id="paint15_radial" cx="0" cy="0" r="1" gradientUnits="userSpaceOnUse" gradientTransform="translate(59.3525 245.936) rotate(140.759) scale(66.3213 55.7756)">
<stop stop-color="#F4ECFF" stop-opacity="0.44"/>
<stop offset="0.507459" stop-color="white" stop-opacity="0"/>
</radialGradient>
<radialGradient id="paint16_radial" cx="0" cy="0" r="1" gradientUnits="userSpaceOnUse" gradientTransform="translate(102.907 266.937) rotate(46.5957) scale(134.02 139.356)">
<stop offset="0.904987" stop-color="white" stop-opacity="0"/>
<stop offset="1" stop-color="#17002F" stop-opacity="0.47"/>
</radialGradient>
</defs>
</svg>
