<svg width="272" height="209" viewBox="0 0 272 209" fill="none" xmlns="http://www.w3.org/2000/svg">
<g filter="url(#filter0_if)">
<path d="M6.02723 105.623C7.28556 42.1691 66.8157 18.7286 102.936 8.58359C139.057 -1.56142 175.618 20.9341 195.441 28.4326C215.263 35.9311 259.249 56.2839 265.479 106.064C271.709 155.844 220.549 188.106 190.595 195.605C160.641 203.103 116.969 207.577 82.17 195.605C47.3708 183.632 4.7689 169.076 6.02723 105.623Z" fill="url(#paint0_radial)"/>
<path d="M6.02723 105.623C7.28556 42.1691 66.8157 18.7286 102.936 8.58359C139.057 -1.56142 175.618 20.9341 195.441 28.4326C215.263 35.9311 259.249 56.2839 265.479 106.064C271.709 155.844 220.549 188.106 190.595 195.605C160.641 203.103 116.969 207.577 82.17 195.605C47.3708 183.632 4.7689 169.076 6.02723 105.623Z" fill="url(#paint1_radial)"/>
<path d="M6.02723 105.623C7.28556 42.1691 66.8157 18.7286 102.936 8.58359C139.057 -1.56142 175.618 20.9341 195.441 28.4326C215.263 35.9311 259.249 56.2839 265.479 106.064C271.709 155.844 220.549 188.106 190.595 195.605C160.641 203.103 116.969 207.577 82.17 195.605C47.3708 183.632 4.7689 169.076 6.02723 105.623Z" fill="url(#paint2_radial)"/>
<path d="M6.02723 105.623C7.28556 42.1691 66.8157 18.7286 102.936 8.58359C139.057 -1.56142 175.618 20.9341 195.441 28.4326C215.263 35.9311 259.249 56.2839 265.479 106.064C271.709 155.844 220.549 188.106 190.595 195.605C160.641 203.103 116.969 207.577 82.17 195.605C47.3708 183.632 4.7689 169.076 6.02723 105.623Z" fill="url(#paint3_radial)"/>
<path d="M6.02723 105.623C7.28556 42.1691 66.8157 18.7286 102.936 8.58359C139.057 -1.56142 175.618 20.9341 195.441 28.4326C215.263 35.9311 259.249 56.2839 265.479 106.064C271.709 155.844 220.549 188.106 190.595 195.605C160.641 203.103 116.969 207.577 82.17 195.605C47.3708 183.632 4.7689 169.076 6.02723 105.623Z" fill="url(#paint4_radial)"/>
<path d="M6.02723 105.623C7.28556 42.1691 66.8157 18.7286 102.936 8.58359C139.057 -1.56142 175.618 20.9341 195.441 28.4326C215.263 35.9311 259.249 56.2839 265.479 106.064C271.709 155.844 220.549 188.106 190.595 195.605C160.641 203.103 116.969 207.577 82.17 195.605C47.3708 183.632 4.7689 169.076 6.02723 105.623Z" fill="url(#paint5_radial)"/>
<path d="M6.02723 105.623C7.28556 42.1691 66.8157 18.7286 102.936 8.58359C139.057 -1.56142 175.618 20.9341 195.441 28.4326C215.263 35.9311 259.249 56.2839 265.479 106.064C271.709 155.844 220.549 188.106 190.595 195.605C160.641 203.103 116.969 207.577 82.17 195.605C47.3708 183.632 4.7689 169.076 6.02723 105.623Z" fill="url(#paint6_radial)"/>
<path d="M6.02723 105.623C7.28556 42.1691 66.8157 18.7286 102.936 8.58359C139.057 -1.56142 175.618 20.9341 195.441 28.4326C215.263 35.9311 259.249 56.2839 265.479 106.064C271.709 155.844 220.549 188.106 190.595 195.605C160.641 203.103 116.969 207.577 82.17 195.605C47.3708 183.632 4.7689 169.076 6.02723 105.623Z" fill="url(#paint7_radial)"/>
</g>
<g filter="url(#filter1_dddi)">
<path d="M87.381 98V78.4H90.909L97.937 91.168L104.937 78.4H108.493V98H105.413V83.664L99.141 94.836H96.733L90.461 83.692V98H87.381ZM124.471 96.236C123.034 97.6547 121.298 98.364 119.263 98.364C117.228 98.364 115.492 97.6547 114.055 96.236C112.618 94.7987 111.899 93.072 111.899 91.056C111.899 89.0213 112.618 87.2947 114.055 85.876C115.492 84.4387 117.228 83.72 119.263 83.72C121.316 83.72 123.062 84.4387 124.499 85.876C125.936 87.2947 126.655 89.0213 126.655 91.056C126.655 93.072 125.927 94.7987 124.471 96.236ZM119.263 95.704C120.532 95.7227 121.596 95.2933 122.455 94.416C123.332 93.52 123.771 92.4093 123.771 91.084C123.771 89.7587 123.332 88.648 122.455 87.752C121.596 86.8373 120.532 86.3893 119.263 86.408C117.994 86.3893 116.93 86.8373 116.071 87.752C115.212 88.648 114.783 89.7587 114.783 91.084C114.783 92.4093 115.212 93.52 116.071 94.416C116.93 95.2933 117.994 95.7227 119.263 95.704ZM129.806 105L130.086 102.256C132.046 102.219 133.325 101.341 133.922 99.624L134.594 98L128.63 84.14H131.766L136.106 95.088L140.278 84.14H143.386L136.526 100.576C135.854 102.181 134.968 103.32 133.866 103.992C132.765 104.664 131.412 105 129.806 105ZM145.901 98V84.14H148.785V95.536H155.169V84.14H158.053V95.536H164.437V84.14H167.321V98H145.901ZM181.459 84.14H184.371V98H181.459V92.316H173.955V98H171.071V84.14H173.955V89.824H181.459V84.14ZM100.929 127.536H103.673V134.452H100.957V130H87.7412V134.452H85.0252V127.536H87.5172C88.1706 126.659 88.5906 125.725 88.7772 124.736C88.9639 123.728 89.0572 122.179 89.0572 120.088V116.14H100.929V127.536ZM90.5412 127.536H98.1292V118.632H91.8572V121.068C91.8572 122.767 91.7546 124.101 91.5492 125.072C91.3626 126.043 91.0266 126.864 90.5412 127.536ZM117.164 116.14H119.936V130H117.164V120.144L109.436 130H106.664V116.14H109.436V125.996L117.164 116.14ZM132.314 122.748C133.191 122.991 133.872 123.392 134.358 123.952C134.843 124.512 135.086 125.175 135.086 125.94C135.086 127.191 134.544 128.227 133.462 129.048C132.379 129.869 130.914 130.28 129.066 130.28C127.647 130.28 126.359 129.991 125.202 129.412C124.063 128.815 123.186 127.937 122.57 126.78L124.81 125.772C125.668 127.284 127.022 128.04 128.87 128.04C129.952 128.04 130.783 127.835 131.362 127.424C131.959 127.013 132.258 126.472 132.258 125.8C132.258 124.419 131.063 123.728 128.674 123.728H128.142V122.02H128.702C130.792 122.02 131.838 121.348 131.838 120.004C131.838 119.388 131.576 118.903 131.054 118.548C130.531 118.193 129.831 118.016 128.954 118.016C127.666 118.016 126.49 118.539 125.426 119.584L123.55 118.128C125.043 116.56 126.872 115.776 129.038 115.776C130.699 115.776 132.034 116.149 133.042 116.896C134.05 117.643 134.554 118.576 134.554 119.696C134.554 121.245 133.807 122.263 132.314 122.748ZM143.824 130.196C141.957 130.196 140.389 129.515 139.12 128.152C137.85 126.771 137.216 125.081 137.216 123.084C137.216 121.049 137.841 119.351 139.092 117.988C140.361 116.625 141.938 115.944 143.824 115.944C145.97 115.944 147.669 116.663 148.92 118.1V116.14H151.86V130H148.92V128.04C147.65 129.477 145.952 130.196 143.824 130.196ZM141.388 126.332C142.228 127.209 143.273 127.648 144.524 127.648C145.774 127.648 146.82 127.209 147.66 126.332C148.5 125.436 148.92 124.353 148.92 123.084C148.92 121.777 148.5 120.685 147.66 119.808C146.82 118.931 145.774 118.492 144.524 118.492C143.273 118.492 142.228 118.931 141.388 119.808C140.548 120.685 140.128 121.777 140.128 123.084C140.128 124.353 140.548 125.436 141.388 126.332ZM162.286 113.676C161.091 113.676 160.158 113.34 159.486 112.668C158.832 111.996 158.487 111.193 158.45 110.26H160.046C160.102 110.745 160.307 111.193 160.662 111.604C161.035 111.996 161.576 112.192 162.286 112.192C162.995 112.192 163.527 111.996 163.882 111.604C164.255 111.193 164.46 110.745 164.498 110.26H166.094C166.056 111.193 165.702 111.996 165.03 112.668C164.376 113.34 163.462 113.676 162.286 113.676ZM166.122 116.14H168.894V130H166.122V120.144L158.394 130H155.622V116.14H158.394V125.996L166.122 116.14ZM183.03 116.14H185.942V130H183.03V124.316H175.526V130H172.642V116.14H175.526V121.824H183.03V116.14Z" fill="#E9E9E9"/>
</g>
<defs>
<filter id="filter0_if" x="0" y="0" width="272" height="209" filterUnits="userSpaceOnUse" color-interpolation-filters="sRGB">
<feFlood flood-opacity="0" result="BackgroundImageFix"/>
<feBlend mode="normal" in="SourceGraphic" in2="BackgroundImageFix" result="shape"/>
<feColorMatrix in="SourceAlpha" type="matrix" values="0 0 0 0 0 0 0 0 0 0 0 0 0 0 0 0 0 0 127 0" result="hardAlpha"/>
<feOffset dy="4"/>
<feGaussianBlur stdDeviation="15"/>
<feComposite in2="hardAlpha" operator="arithmetic" k2="-1" k3="1"/>
<feColorMatrix type="matrix" values="0 0 0 0 0.193325 0 0 0 0 0.0870833 0 0 0 0 0.366667 0 0 0 0.4 0"/>
<feBlend mode="overlay" in2="shape" result="effect1_innerShadow"/>
<feGaussianBlur stdDeviation="3" result="effect2_foregroundBlur"/>
</filter>
<filter id="filter1_dddi" x="70.0254" y="64.3999" width="130.917" height="86.052" filterUnits="userSpaceOnUse" color-interpolation-filters="sRGB">
<feFlood flood-opacity="0" result="BackgroundImageFix"/>
<feColorMatrix in="SourceAlpha" type="matrix" values="0 0 0 0 0 0 0 0 0 0 0 0 0 0 0 0 0 0 127 0"/>
<feOffset dy="1"/>
<feGaussianBlur stdDeviation="7.5"/>
<feColorMatrix type="matrix" values="0 0 0 0 0.213502 0 0 0 0 0.183333 0 0 0 0 0.366667 0 0 0 0.56 0"/>
<feBlend mode="normal" in2="BackgroundImageFix" result="effect1_dropShadow"/>
<feColorMatrix in="SourceAlpha" type="matrix" values="0 0 0 0 0 0 0 0 0 0 0 0 0 0 0 0 0 0 127 0"/>
<feOffset dx="-0.5" dy="-0.5"/>
<feGaussianBlur stdDeviation="1"/>
<feColorMatrix type="matrix" values="0 0 0 0 0.570833 0 0 0 0 0.66525 0 0 0 0 1 0 0 0 0.4 0"/>
<feBlend mode="normal" in2="effect1_dropShadow" result="effect2_dropShadow"/>
<feColorMatrix in="SourceAlpha" type="matrix" values="0 0 0 0 0 0 0 0 0 0 0 0 0 0 0 0 0 0 127 0"/>
<feOffset dx="1" dy="1"/>
<feGaussianBlur stdDeviation="1.5"/>
<feColorMatrix type="matrix" values="0 0 0 0 0.292031 0 0 0 0 0.0590625 0 0 0 0 0.525 0 0 0 1 0"/>
<feBlend mode="normal" in2="effect2_dropShadow" result="effect3_dropShadow"/>
<feBlend mode="normal" in="SourceGraphic" in2="effect3_dropShadow" result="shape"/>
<feColorMatrix in="SourceAlpha" type="matrix" values="0 0 0 0 0 0 0 0 0 0 0 0 0 0 0 0 0 0 127 0" result="hardAlpha"/>
<feOffset dx="0.3" dy="0.3"/>
<feGaussianBlur stdDeviation="0.25"/>
<feComposite in2="hardAlpha" operator="arithmetic" k2="-1" k3="1"/>
<feColorMatrix type="matrix" values="0 0 0 0 1 0 0 0 0 1 0 0 0 0 1 0 0 0 0.9 0"/>
<feBlend mode="normal" in2="shape" result="effect4_innerShadow"/>
</filter>
<radialGradient id="paint0_radial" cx="0" cy="0" r="1" gradientUnits="userSpaceOnUse" gradientTransform="translate(106.1 87.0983) rotate(44.9428) scale(164.074 170.338)">
<stop stop-color="#D3EDFF"/>
<stop offset="1" stop-color="#001D84"/>
</radialGradient>
<radialGradient id="paint1_radial" cx="0" cy="0" r="1" gradientUnits="userSpaceOnUse" gradientTransform="translate(6.00001 122.558) rotate(20.8195) scale(374.129 310.041)">
<stop offset="0.516389" stop-color="#3B41C0"/>
<stop offset="0.905572" stop-color="#740092" stop-opacity="0"/>
</radialGradient>
<radialGradient id="paint2_radial" cx="0" cy="0" r="1" gradientUnits="userSpaceOnUse" gradientTransform="translate(154.341 109.336) rotate(-148.934) scale(137.261 126.4)">
<stop stop-color="white" stop-opacity="0"/>
<stop offset="0.712779" stop-color="white" stop-opacity="0.260417"/>
<stop offset="0.901042" stop-color="#FAC43A"/>
</radialGradient>
<radialGradient id="paint3_radial" cx="0" cy="0" r="1" gradientUnits="userSpaceOnUse" gradientTransform="translate(193.349 119.224) rotate(-159.331) scale(181.248 151.655)">
<stop stop-color="white" stop-opacity="0"/>
<stop offset="0.609375" stop-color="white" stop-opacity="0.260417"/>
<stop offset="0.859375" stop-color="#EB9BA5"/>
<stop offset="1" stop-color="#FFACD9" stop-opacity="0"/>
</radialGradient>
<radialGradient id="paint4_radial" cx="0" cy="0" r="1" gradientUnits="userSpaceOnUse" gradientTransform="translate(74.7143 59.8249) rotate(22.5727) scale(283.179 233.23)">
<stop stop-color="#FFBFCC" stop-opacity="0.34"/>
<stop offset="1" stop-color="white" stop-opacity="0"/>
</radialGradient>
<radialGradient id="paint5_radial" cx="0" cy="0" r="1" gradientUnits="userSpaceOnUse" gradientTransform="translate(82.5 67.583) rotate(25.5389) scale(242.715 201.228)">
<stop stop-color="white" stop-opacity="0.79"/>
<stop offset="0.333333" stop-color="#FF9494" stop-opacity="0.09"/>
</radialGradient>
<radialGradient id="paint6_radial" cx="0" cy="0" r="1" gradientUnits="userSpaceOnUse" gradientTransform="translate(68.0833 63.3541) rotate(162.341) scale(135.641 104.843)">
<stop stop-color="#F4ECFF" stop-opacity="0.15"/>
<stop offset="0.507459" stop-color="white" stop-opacity="0"/>
</radialGradient>
<radialGradient id="paint7_radial" cx="0" cy="0" r="1" gradientUnits="userSpaceOnUse" gradientTransform="translate(116.067 84.1433) rotate(43.5332) scale(139.944 145.551)">
<stop offset="0.904987" stop-color="white" stop-opacity="0"/>
<stop offset="1" stop-color="#17002F" stop-opacity="0.47"/>
</radialGradient>
</defs>
</svg>
