<svg width="366" height="283" viewBox="0 0 366 283" fill="none" xmlns="http://www.w3.org/2000/svg">
<g filter="url(#filter0_if)">
<path d="M9.46242 136.135C18.6344 78.085 68.0275 40.3229 104.852 23.0904C141.676 5.85787 235.23 -8.80742 293.932 51.6868C352.633 112.181 358 118.291 358 142.245C358 166.2 298.687 229.015 251.74 252.723C204.793 276.431 136.512 282.299 85.8962 265.067C35.2805 247.834 0.290402 194.185 9.46242 136.135Z" fill="url(#paint0_radial)"/>
<path d="M9.46242 136.135C18.6344 78.085 68.0275 40.3229 104.852 23.0904C141.676 5.85787 235.23 -8.80742 293.932 51.6868C352.633 112.181 358 118.291 358 142.245C358 166.2 298.687 229.015 251.74 252.723C204.793 276.431 136.512 282.299 85.8962 265.067C35.2805 247.834 0.290402 194.185 9.46242 136.135Z" fill="url(#paint1_radial)"/>
<path d="M9.46242 136.135C18.6344 78.085 68.0275 40.3229 104.852 23.0904C141.676 5.85787 235.23 -8.80742 293.932 51.6868C352.633 112.181 358 118.291 358 142.245C358 166.2 298.687 229.015 251.74 252.723C204.793 276.431 136.512 282.299 85.8962 265.067C35.2805 247.834 0.290402 194.185 9.46242 136.135Z" fill="url(#paint2_radial)"/>
<path d="M9.46242 136.135C18.6344 78.085 68.0275 40.3229 104.852 23.0904C141.676 5.85787 235.23 -8.80742 293.932 51.6868C352.633 112.181 358 118.291 358 142.245C358 166.2 298.687 229.015 251.74 252.723C204.793 276.431 136.512 282.299 85.8962 265.067C35.2805 247.834 0.290402 194.185 9.46242 136.135Z" fill="url(#paint3_radial)"/>
<path d="M9.46242 136.135C18.6344 78.085 68.0275 40.3229 104.852 23.0904C141.676 5.85787 235.23 -8.80742 293.932 51.6868C352.633 112.181 358 118.291 358 142.245C358 166.2 298.687 229.015 251.74 252.723C204.793 276.431 136.512 282.299 85.8962 265.067C35.2805 247.834 0.290402 194.185 9.46242 136.135Z" fill="url(#paint4_radial)"/>
<path d="M9.46242 136.135C18.6344 78.085 68.0275 40.3229 104.852 23.0904C141.676 5.85787 235.23 -8.80742 293.932 51.6868C352.633 112.181 358 118.291 358 142.245C358 166.2 298.687 229.015 251.74 252.723C204.793 276.431 136.512 282.299 85.8962 265.067C35.2805 247.834 0.290402 194.185 9.46242 136.135Z" fill="url(#paint5_radial)"/>
<path d="M9.46242 136.135C18.6344 78.085 68.0275 40.3229 104.852 23.0904C141.676 5.85787 235.23 -8.80742 293.932 51.6868C352.633 112.181 358 118.291 358 142.245C358 166.2 298.687 229.015 251.74 252.723C204.793 276.431 136.512 282.299 85.8962 265.067C35.2805 247.834 0.290402 194.185 9.46242 136.135Z" fill="url(#paint6_radial)"/>
<path d="M9.46242 136.135C18.6344 78.085 68.0275 40.3229 104.852 23.0904C141.676 5.85787 235.23 -8.80742 293.932 51.6868C352.633 112.181 358 118.291 358 142.245C358 166.2 298.687 229.015 251.74 252.723C204.793 276.431 136.512 282.299 85.8962 265.067C35.2805 247.834 0.290402 194.185 9.46242 136.135Z" fill="url(#paint7_radial)"/>
<path d="M9.46242 136.135C18.6344 78.085 68.0275 40.3229 104.852 23.0904C141.676 5.85787 235.23 -8.80742 293.932 51.6868C352.633 112.181 358 118.291 358 142.245C358 166.2 298.687 229.015 251.74 252.723C204.793 276.431 136.512 282.299 85.8962 265.067C35.2805 247.834 0.290402 194.185 9.46242 136.135Z" fill="url(#paint8_radial)"/>
<path d="M9.46242 136.135C18.6344 78.085 68.0275 40.3229 104.852 23.0904C141.676 5.85787 235.23 -8.80742 293.932 51.6868C352.633 112.181 358 118.291 358 142.245C358 166.2 298.687 229.015 251.74 252.723C204.793 276.431 136.512 282.299 85.8962 265.067C35.2805 247.834 0.290402 194.185 9.46242 136.135Z" fill="url(#paint9_radial)"/>
<path d="M9.46242 136.135C18.6344 78.085 68.0275 40.3229 104.852 23.0904C141.676 5.85787 235.23 -8.80742 293.932 51.6868C352.633 112.181 358 118.291 358 142.245C358 166.2 298.687 229.015 251.74 252.723C204.793 276.431 136.512 282.299 85.8962 265.067C35.2805 247.834 0.290402 194.185 9.46242 136.135Z" fill="url(#paint10_radial)"/>
</g>
<g filter="url(#filter1_dddi)">
<path d="M105.66 139.156C107.657 139.156 109.225 139.688 110.364 140.752C111.521 141.816 112.1 143.253 112.1 145.064C112.1 146.893 111.521 148.34 110.364 149.404C109.225 150.468 107.657 151 105.66 151H97.904V131.4H110.952V134.116H100.984V139.156H105.66ZM105.212 148.34C106.463 148.34 107.405 148.06 108.04 147.5C108.693 146.921 109.02 146.109 109.02 145.064C109.02 144.056 108.693 143.263 108.04 142.684C107.387 142.105 106.444 141.816 105.212 141.816H100.984V148.34H105.212ZM115.355 158V137.14H118.295V139.128C119.565 137.672 121.273 136.944 123.419 136.944C125.286 136.944 126.845 137.635 128.095 139.016C129.365 140.379 129.999 142.068 129.999 144.084C129.999 146.1 129.365 147.789 128.095 149.152C126.845 150.515 125.286 151.196 123.419 151.196C121.31 151.196 119.602 150.477 118.295 149.04V158H115.355ZM119.555 147.332C120.395 148.209 121.441 148.648 122.691 148.648C123.942 148.648 124.978 148.209 125.799 147.332C126.639 146.455 127.059 145.372 127.059 144.084C127.059 142.777 126.639 141.685 125.799 140.808C124.978 139.931 123.942 139.492 122.691 139.492C121.441 139.492 120.395 139.931 119.555 140.808C118.715 141.685 118.295 142.777 118.295 144.084C118.295 145.372 118.715 146.455 119.555 147.332ZM139.583 136.748C141.618 136.748 143.288 137.392 144.595 138.68C145.902 139.968 146.574 141.685 146.611 143.832C146.611 144.261 146.602 144.597 146.583 144.84H135.047C135.196 146.091 135.691 147.089 136.531 147.836C137.39 148.564 138.407 148.928 139.583 148.928C141.356 148.928 142.728 148.303 143.699 147.052L145.491 148.564C144.856 149.441 144.007 150.123 142.943 150.608C141.898 151.093 140.778 151.336 139.583 151.336C137.53 151.336 135.803 150.636 134.403 149.236C133.022 147.836 132.331 146.119 132.331 144.084C132.331 142.012 133.022 140.276 134.403 138.876C135.784 137.457 137.511 136.748 139.583 136.748ZM142.411 140.052C141.664 139.38 140.722 139.044 139.583 139.044C138.444 139.044 137.474 139.389 136.671 140.08C135.868 140.752 135.355 141.657 135.131 142.796H143.951C143.69 141.62 143.176 140.705 142.411 140.052ZM159.922 137.14H162.834V151H159.922V145.316H152.418V151H149.534V137.14H152.418V142.824H159.922V137.14ZM181.368 148.536H184.112V155.452H181.396V151H168.18V155.452H165.464V148.536H167.956C168.609 147.659 169.029 146.725 169.216 145.736C169.403 144.728 169.496 143.179 169.496 141.088V137.14H181.368V148.536ZM170.98 148.536H178.568V139.632H172.296V142.068C172.296 143.767 172.193 145.101 171.988 146.072C171.801 147.043 171.465 147.864 170.98 148.536ZM197.603 137.14H200.375V151H197.603V141.144L189.875 151H187.103V137.14H189.875V146.996L197.603 137.14ZM214.512 137.14H217.424V151H214.512V145.316H207.008V151H204.124V137.14H207.008V142.824H214.512V137.14ZM231.504 137.14V139.66H224.112V151H221.172V137.14H231.504Z" fill="white"/>
</g>
<defs>
<filter id="filter0_if" x="-22" y="-12" width="388" height="295" filterUnits="userSpaceOnUse" color-interpolation-filters="sRGB">
<feFlood flood-opacity="0" result="BackgroundImageFix"/>
<feBlend mode="normal" in="SourceGraphic" in2="BackgroundImageFix" result="shape"/>
<feColorMatrix in="SourceAlpha" type="matrix" values="0 0 0 0 0 0 0 0 0 0 0 0 0 0 0 0 0 0 127 0" result="hardAlpha"/>
<feOffset dx="-30" dy="-20"/>
<feGaussianBlur stdDeviation="20"/>
<feComposite in2="hardAlpha" operator="arithmetic" k2="-1" k3="1"/>
<feColorMatrix type="matrix" values="0 0 0 0 0 0 0 0 0 0.0553334 0 0 0 0 0.345833 0 0 0 0.3 0"/>
<feBlend mode="normal" in2="shape" result="effect1_innerShadow"/>
<feGaussianBlur stdDeviation="4" result="effect2_foregroundBlur"/>
</filter>
<filter id="filter1_dddi" x="82.9038" y="117.4" width="163.6" height="56.6" filterUnits="userSpaceOnUse" color-interpolation-filters="sRGB">
<feFlood flood-opacity="0" result="BackgroundImageFix"/>
<feColorMatrix in="SourceAlpha" type="matrix" values="0 0 0 0 0 0 0 0 0 0 0 0 0 0 0 0 0 0 127 0"/>
<feOffset dy="1"/>
<feGaussianBlur stdDeviation="7.5"/>
<feColorMatrix type="matrix" values="0 0 0 0 0.213502 0 0 0 0 0.183333 0 0 0 0 0.366667 0 0 0 0.56 0"/>
<feBlend mode="normal" in2="BackgroundImageFix" result="effect1_dropShadow"/>
<feColorMatrix in="SourceAlpha" type="matrix" values="0 0 0 0 0 0 0 0 0 0 0 0 0 0 0 0 0 0 127 0"/>
<feOffset dx="-0.5" dy="-0.5"/>
<feGaussianBlur stdDeviation="1"/>
<feColorMatrix type="matrix" values="0 0 0 0 0.570833 0 0 0 0 0.66525 0 0 0 0 1 0 0 0 0.4 0"/>
<feBlend mode="normal" in2="effect1_dropShadow" result="effect2_dropShadow"/>
<feColorMatrix in="SourceAlpha" type="matrix" values="0 0 0 0 0 0 0 0 0 0 0 0 0 0 0 0 0 0 127 0"/>
<feOffset dx="1" dy="1"/>
<feGaussianBlur stdDeviation="1.5"/>
<feColorMatrix type="matrix" values="0 0 0 0 0.292031 0 0 0 0 0.0590625 0 0 0 0 0.525 0 0 0 1 0"/>
<feBlend mode="normal" in2="effect2_dropShadow" result="effect3_dropShadow"/>
<feBlend mode="normal" in="SourceGraphic" in2="effect3_dropShadow" result="shape"/>
<feColorMatrix in="SourceAlpha" type="matrix" values="0 0 0 0 0 0 0 0 0 0 0 0 0 0 0 0 0 0 127 0" result="hardAlpha"/>
<feOffset dx="0.3" dy="0.3"/>
<feGaussianBlur stdDeviation="0.25"/>
<feComposite in2="hardAlpha" operator="arithmetic" k2="-1" k3="1"/>
<feColorMatrix type="matrix" values="0 0 0 0 1 0 0 0 0 1 0 0 0 0 1 0 0 0 0.9 0"/>
<feBlend mode="normal" in2="shape" result="effect4_innerShadow"/>
</filter>
<radialGradient id="paint0_radial" cx="0" cy="0" r="1" gradientUnits="userSpaceOnUse" gradientTransform="translate(142.75 117.915) rotate(45.1374) scale(221.621 230.081)">
<stop stop-color="#D3EDFF"/>
<stop offset="1" stop-color="#001D84"/>
</radialGradient>
<radialGradient id="paint1_radial" cx="0" cy="0" r="1" gradientUnits="userSpaceOnUse" gradientTransform="translate(8.00001 165.975) rotate(20.9492) scale(504.07 419.846)">
<stop offset="0.516389" stop-color="#3B41C0"/>
<stop offset="0.905572" stop-color="#740092" stop-opacity="0"/>
</radialGradient>
<radialGradient id="paint2_radial" cx="0" cy="0" r="1" gradientUnits="userSpaceOnUse" gradientTransform="translate(199.917 152.18) rotate(-146.365) scale(180.763 168.288)">
<stop stop-color="white" stop-opacity="0"/>
<stop offset="0.723958" stop-color="white" stop-opacity="0.260417"/>
<stop offset="0.901042" stop-color="#FAC43A"/>
</radialGradient>
<radialGradient id="paint3_radial" cx="0" cy="0" r="1" gradientUnits="userSpaceOnUse" gradientTransform="translate(194 147.405) rotate(-155.855) scale(177.623 150.688)">
<stop stop-color="white" stop-opacity="0"/>
<stop offset="0.609375" stop-color="white" stop-opacity="0.260417"/>
<stop offset="0.903431" stop-color="#EB9BA5"/>
<stop offset="1" stop-color="#FFACD9" stop-opacity="0"/>
</radialGradient>
<radialGradient id="paint4_radial" cx="0" cy="0" r="1" gradientUnits="userSpaceOnUse" gradientTransform="translate(100.5 80.9505) rotate(22.711) scale(381.587 315.785)">
<stop stop-color="#FFBFCC" stop-opacity="0.34"/>
<stop offset="1" stop-color="white" stop-opacity="0"/>
</radialGradient>
<radialGradient id="paint5_radial" cx="0" cy="0" r="1" gradientUnits="userSpaceOnUse" gradientTransform="translate(112.5 84.4481) rotate(51.1701) scale(144.07 159.754)">
<stop stop-color="#F8DDF8"/>
<stop offset="0.191506" stop-color="#94B6FF" stop-opacity="0.09"/>
</radialGradient>
<radialGradient id="paint6_radial" cx="0" cy="0" r="1" gradientUnits="userSpaceOnUse" gradientTransform="translate(120.5 97.4393) rotate(165.051) scale(67.7944 60.0557)">
<stop stop-color="#FFEEDE"/>
<stop offset="1" stop-color="white" stop-opacity="0"/>
</radialGradient>
<radialGradient id="paint7_radial" cx="0" cy="0" r="1" gradientUnits="userSpaceOnUse" gradientTransform="translate(123 100.437) rotate(21.8498) scale(400.881 330.915)">
<stop stop-color="white" stop-opacity="0.79"/>
<stop offset="0.333333" stop-color="#FF9494" stop-opacity="0.09"/>
</radialGradient>
<radialGradient id="paint8_radial" cx="0" cy="0" r="1" gradientUnits="userSpaceOnUse" gradientTransform="translate(142.167 119.695) rotate(27.9874) scale(207.047 180.271)">
<stop stop-color="white" stop-opacity="0"/>
<stop offset="0.614029" stop-color="white" stop-opacity="0"/>
<stop offset="0.796519" stop-color="#D0FFF9" stop-opacity="0.23"/>
<stop offset="1" stop-color="#D0FFF9" stop-opacity="0"/>
</radialGradient>
<radialGradient id="paint9_radial" cx="0" cy="0" r="1" gradientUnits="userSpaceOnUse" gradientTransform="translate(109.5 107.432) rotate(169.934) scale(194.917 149.469)">
<stop stop-color="#F4ECFF" stop-opacity="0.44"/>
<stop offset="0.447749" stop-color="white" stop-opacity="0"/>
</radialGradient>
<radialGradient id="paint10_radial" cx="0" cy="0" r="1" gradientUnits="userSpaceOnUse" gradientTransform="translate(156.167 113.91) rotate(39.8636) scale(240.911 247.329)">
<stop stop-color="white" stop-opacity="0"/>
<stop offset="0.65728" stop-color="white" stop-opacity="0"/>
<stop offset="0.799235" stop-color="#17002F" stop-opacity="0.47"/>
<stop offset="1" stop-color="#DFD0FF" stop-opacity="0"/>
</radialGradient>
</defs>
</svg>
