<svg width="303" height="287" viewBox="0 0 303 287" fill="none" xmlns="http://www.w3.org/2000/svg">
<g filter="url(#filter0_if)">
<path fill-rule="evenodd" clip-rule="evenodd" d="M145.26 30.9091C172.959 32.936 195.535 32.9099 222.54 41.4132C249.545 49.9164 267.768 69.8521 276.051 98.6731C284.211 127.067 278.516 150.625 269.93 178.893C261.149 207.803 258.831 243.405 233.125 259.294C207.571 275.09 174.514 262.804 145.26 255.957C121.98 250.509 102.643 237.687 82.9418 224.144C62.631 210.181 39.7533 198.354 29.1238 176.121C17.672 152.169 18.7334 124.883 22.9533 98.6731C27.8519 68.2478 33.0612 43.5484 59.0077 26.9075C84.9745 10.2537 114.491 28.6576 145.26 30.9091Z" fill="url(#paint0_radial)"/>
<path fill-rule="evenodd" clip-rule="evenodd" d="M145.26 30.9091C172.959 32.936 195.535 32.9099 222.54 41.4132C249.545 49.9164 267.768 69.8521 276.051 98.6731C284.211 127.067 278.516 150.625 269.93 178.893C261.149 207.803 258.831 243.405 233.125 259.294C207.571 275.09 174.514 262.804 145.26 255.957C121.98 250.509 102.643 237.687 82.9418 224.144C62.631 210.181 39.7533 198.354 29.1238 176.121C17.672 152.169 18.7334 124.883 22.9533 98.6731C27.8519 68.2478 33.0612 43.5484 59.0077 26.9075C84.9745 10.2537 114.491 28.6576 145.26 30.9091Z" fill="url(#paint1_radial)"/>
<path fill-rule="evenodd" clip-rule="evenodd" d="M145.26 30.9091C172.959 32.936 195.535 32.9099 222.54 41.4132C249.545 49.9164 267.768 69.8521 276.051 98.6731C284.211 127.067 278.516 150.625 269.93 178.893C261.149 207.803 258.831 243.405 233.125 259.294C207.571 275.09 174.514 262.804 145.26 255.957C121.98 250.509 102.643 237.687 82.9418 224.144C62.631 210.181 39.7533 198.354 29.1238 176.121C17.672 152.169 18.7334 124.883 22.9533 98.6731C27.8519 68.2478 33.0612 43.5484 59.0077 26.9075C84.9745 10.2537 114.491 28.6576 145.26 30.9091Z" fill="url(#paint2_radial)"/>
<path fill-rule="evenodd" clip-rule="evenodd" d="M145.26 30.9091C172.959 32.936 195.535 32.9099 222.54 41.4132C249.545 49.9164 267.768 69.8521 276.051 98.6731C284.211 127.067 278.516 150.625 269.93 178.893C261.149 207.803 258.831 243.405 233.125 259.294C207.571 275.09 174.514 262.804 145.26 255.957C121.98 250.509 102.643 237.687 82.9418 224.144C62.631 210.181 39.7533 198.354 29.1238 176.121C17.672 152.169 18.7334 124.883 22.9533 98.6731C27.8519 68.2478 33.0612 43.5484 59.0077 26.9075C84.9745 10.2537 114.491 28.6576 145.26 30.9091Z" fill="url(#paint3_radial)"/>
<path fill-rule="evenodd" clip-rule="evenodd" d="M145.26 30.9091C172.959 32.936 195.535 32.9099 222.54 41.4132C249.545 49.9164 267.768 69.8521 276.051 98.6731C284.211 127.067 278.516 150.625 269.93 178.893C261.149 207.803 258.831 243.405 233.125 259.294C207.571 275.09 174.514 262.804 145.26 255.957C121.98 250.509 102.643 237.687 82.9418 224.144C62.631 210.181 39.7533 198.354 29.1238 176.121C17.672 152.169 18.7334 124.883 22.9533 98.6731C27.8519 68.2478 33.0612 43.5484 59.0077 26.9075C84.9745 10.2537 114.491 28.6576 145.26 30.9091Z" fill="url(#paint4_radial)"/>
<path fill-rule="evenodd" clip-rule="evenodd" d="M145.26 30.9091C172.959 32.936 195.535 32.9099 222.54 41.4132C249.545 49.9164 267.768 69.8521 276.051 98.6731C284.211 127.067 278.516 150.625 269.93 178.893C261.149 207.803 258.831 243.405 233.125 259.294C207.571 275.09 174.514 262.804 145.26 255.957C121.98 250.509 102.643 237.687 82.9418 224.144C62.631 210.181 39.7533 198.354 29.1238 176.121C17.672 152.169 18.7334 124.883 22.9533 98.6731C27.8519 68.2478 33.0612 43.5484 59.0077 26.9075C84.9745 10.2537 114.491 28.6576 145.26 30.9091Z" fill="url(#paint5_radial)"/>
<path fill-rule="evenodd" clip-rule="evenodd" d="M145.26 30.9091C172.959 32.936 195.535 32.9099 222.54 41.4132C249.545 49.9164 267.768 69.8521 276.051 98.6731C284.211 127.067 278.516 150.625 269.93 178.893C261.149 207.803 258.831 243.405 233.125 259.294C207.571 275.09 174.514 262.804 145.26 255.957C121.98 250.509 102.643 237.687 82.9418 224.144C62.631 210.181 39.7533 198.354 29.1238 176.121C17.672 152.169 18.7334 124.883 22.9533 98.6731C27.8519 68.2478 33.0612 43.5484 59.0077 26.9075C84.9745 10.2537 114.491 28.6576 145.26 30.9091Z" fill="url(#paint6_radial)"/>
<path fill-rule="evenodd" clip-rule="evenodd" d="M145.26 30.9091C172.959 32.936 195.535 32.9099 222.54 41.4132C249.545 49.9164 267.768 69.8521 276.051 98.6731C284.211 127.067 278.516 150.625 269.93 178.893C261.149 207.803 258.831 243.405 233.125 259.294C207.571 275.09 174.514 262.804 145.26 255.957C121.98 250.509 102.643 237.687 82.9418 224.144C62.631 210.181 39.7533 198.354 29.1238 176.121C17.672 152.169 18.7334 124.883 22.9533 98.6731C27.8519 68.2478 33.0612 43.5484 59.0077 26.9075C84.9745 10.2537 114.491 28.6576 145.26 30.9091Z" fill="url(#paint7_radial)"/>
<path fill-rule="evenodd" clip-rule="evenodd" d="M145.26 30.9091C172.959 32.936 195.535 32.9099 222.54 41.4132C249.545 49.9164 267.768 69.8521 276.051 98.6731C284.211 127.067 278.516 150.625 269.93 178.893C261.149 207.803 258.831 243.405 233.125 259.294C207.571 275.09 174.514 262.804 145.26 255.957C121.98 250.509 102.643 237.687 82.9418 224.144C62.631 210.181 39.7533 198.354 29.1238 176.121C17.672 152.169 18.7334 124.883 22.9533 98.6731C27.8519 68.2478 33.0612 43.5484 59.0077 26.9075C84.9745 10.2537 114.491 28.6576 145.26 30.9091Z" fill="url(#paint8_radial)"/>
<path fill-rule="evenodd" clip-rule="evenodd" d="M145.26 30.9091C172.959 32.936 195.535 32.9099 222.54 41.4132C249.545 49.9164 267.768 69.8521 276.051 98.6731C284.211 127.067 278.516 150.625 269.93 178.893C261.149 207.803 258.831 243.405 233.125 259.294C207.571 275.09 174.514 262.804 145.26 255.957C121.98 250.509 102.643 237.687 82.9418 224.144C62.631 210.181 39.7533 198.354 29.1238 176.121C17.672 152.169 18.7334 124.883 22.9533 98.6731C27.8519 68.2478 33.0612 43.5484 59.0077 26.9075C84.9745 10.2537 114.491 28.6576 145.26 30.9091Z" fill="url(#paint9_radial)"/>
</g>
<mask id="mask0" mask-type="alpha" maskUnits="userSpaceOnUse" x="17" y="21" width="266" height="260">
<path fill-rule="evenodd" clip-rule="evenodd" d="M142.235 34.2313C169.929 36.2574 198.69 27.9422 223.222 40.9442C249.718 54.9873 272.149 78.6652 280.431 107.475C288.589 135.858 275.465 164.575 266.881 192.832C258.102 221.73 255.784 257.319 230.083 273.202C204.534 288.992 171.483 276.711 142.235 269.866C118.96 264.42 99.6265 251.603 79.9293 238.065C59.6226 224.108 36.7494 212.285 26.122 190.061C14.6724 166.118 15.7336 138.843 19.9527 112.643C24.8504 82.2293 26.2091 45.063 52.1505 28.4285C78.1121 11.7811 111.472 31.9807 142.235 34.2313Z" fill="#204772"/>
<path fill-rule="evenodd" clip-rule="evenodd" d="M142.235 34.2313C169.929 36.2574 198.69 27.9422 223.222 40.9442C249.718 54.9873 272.149 78.6652 280.431 107.475C288.589 135.858 275.465 164.575 266.881 192.832C258.102 221.73 255.784 257.319 230.083 273.202C204.534 288.992 171.483 276.711 142.235 269.866C118.96 264.42 99.6265 251.603 79.9293 238.065C59.6226 224.108 36.7494 212.285 26.122 190.061C14.6724 166.118 15.7336 138.843 19.9527 112.643C24.8504 82.2293 26.2091 45.063 52.1505 28.4285C78.1121 11.7811 111.472 31.9807 142.235 34.2313Z" fill="url(#paint10_linear)"/>
<path fill-rule="evenodd" clip-rule="evenodd" d="M142.235 34.2313C169.929 36.2574 198.69 27.9422 223.222 40.9442C249.718 54.9873 272.149 78.6652 280.431 107.475C288.589 135.858 275.465 164.575 266.881 192.832C258.102 221.73 255.784 257.319 230.083 273.202C204.534 288.992 171.483 276.711 142.235 269.866C118.96 264.42 99.6265 251.603 79.9293 238.065C59.6226 224.108 36.7494 212.285 26.122 190.061C14.6724 166.118 15.7336 138.843 19.9527 112.643C24.8504 82.2293 26.2091 45.063 52.1505 28.4285C78.1121 11.7811 111.472 31.9807 142.235 34.2313Z" fill="url(#paint11_linear)"/>
<path fill-rule="evenodd" clip-rule="evenodd" d="M142.235 34.2313C169.929 36.2574 198.69 27.9422 223.222 40.9442C249.718 54.9873 272.149 78.6652 280.431 107.475C288.589 135.858 275.465 164.575 266.881 192.832C258.102 221.73 255.784 257.319 230.083 273.202C204.534 288.992 171.483 276.711 142.235 269.866C118.96 264.42 99.6265 251.603 79.9293 238.065C59.6226 224.108 36.7494 212.285 26.122 190.061C14.6724 166.118 15.7336 138.843 19.9527 112.643C24.8504 82.2293 26.2091 45.063 52.1505 28.4285C78.1121 11.7811 111.472 31.9807 142.235 34.2313Z" fill="url(#paint12_linear)"/>
</mask>
<g mask="url(#mask0)">
<path d="M7.55989 120.905V89.2248H19.7199V92.5528C21.9812 89.9075 24.8399 88.5849 28.2959 88.5849C32.3492 88.5849 35.7626 90.2062 38.5359 93.4488C41.6506 90.2062 45.2986 88.5849 49.4799 88.5849C53.8319 88.5849 57.2239 90.0142 59.6559 92.8728C62.1306 95.6888 63.3679 99.5075 63.3679 104.329V120.905H51.2079V105.481C51.2079 103.476 50.8026 101.876 49.9919 100.681C49.2239 99.4435 48.0292 98.8248 46.4079 98.8248C44.8292 98.8248 43.6132 99.4435 42.7599 100.681C41.9492 101.918 41.5439 103.518 41.5439 105.481V120.905H29.3839V105.481C29.3839 103.518 28.9786 101.918 28.1679 100.681C27.3572 99.4435 26.1626 98.8248 24.5839 98.8248C23.0052 98.8248 21.7892 99.4435 20.9359 100.681C20.1252 101.918 19.7199 103.518 19.7199 105.481V120.905H7.55989Z" fill="black"/>
<path d="M95.8999 116.937C92.5292 120.18 88.4972 121.801 83.8039 121.801C79.1106 121.801 75.0786 120.18 71.7079 116.937C68.3372 113.652 66.6519 109.684 66.6519 105.033C66.6519 100.382 68.3372 96.3928 71.7079 93.0648C75.0786 89.7368 79.1106 88.0728 83.8039 88.0728C88.4972 88.0728 92.5292 89.7368 95.8999 93.0648C99.2706 96.3928 100.956 100.382 100.956 105.033C100.956 109.684 99.2706 113.652 95.8999 116.937ZM79.8359 109.385C80.9452 110.537 82.2679 111.113 83.8039 111.113C85.3399 111.113 86.6626 110.537 87.7719 109.385C88.8812 108.19 89.4359 106.761 89.4359 105.097C89.4359 103.39 88.8812 101.961 87.7719 100.809C86.6626 99.6142 85.3399 99.0168 83.8039 99.0168C82.2679 99.0168 80.9452 99.6142 79.8359 100.809C78.7266 101.961 78.1719 103.39 78.1719 105.097C78.1719 106.761 78.7266 108.19 79.8359 109.385Z" fill="black"/>
<path d="M117.613 121.545C113.474 121.545 110.04 119.988 107.309 116.873C104.621 113.716 103.277 109.769 103.277 105.033C103.277 100.297 104.621 96.3715 107.309 93.2568C110.04 90.1422 113.474 88.5849 117.613 88.5849C119.362 88.5849 121.005 88.9475 122.541 89.6728C124.077 90.3982 125.293 91.3582 126.189 92.5528V72.9048H138.349V120.905H126.189V117.513C124.354 120.201 121.496 121.545 117.613 121.545ZM116.845 109.321C117.912 110.43 119.213 110.985 120.749 110.985C122.285 110.985 123.565 110.43 124.589 109.321C125.656 108.212 126.189 106.782 126.189 105.033C126.189 103.284 125.656 101.854 124.589 100.745C123.565 99.6355 122.285 99.0808 120.749 99.0808C119.213 99.0808 117.912 99.6355 116.845 100.745C115.821 101.854 115.309 103.284 115.309 105.033C115.309 106.782 115.821 108.212 116.845 109.321Z" fill="black"/>
<path d="M174.731 108.489H153.419C154.315 110.793 156.15 111.945 158.923 111.945C161.568 111.945 163.638 111.028 165.131 109.193L172.427 115.337C170.976 117.385 169.014 118.985 166.539 120.137C164.064 121.246 161.547 121.801 158.987 121.801C154.123 121.801 150.07 120.201 146.827 117.001C143.627 113.758 142.027 109.79 142.027 105.097C142.027 100.233 143.627 96.1795 146.827 92.9368C150.027 89.6942 154.059 88.0728 158.923 88.0728C163.744 88.0728 167.606 89.5875 170.507 92.6168C173.408 95.6035 174.859 99.8702 174.859 105.417C174.859 106.74 174.816 107.764 174.731 108.489ZM158.987 97.4168C156.47 97.4168 154.699 98.5475 153.675 100.809H163.787C162.976 98.5475 161.376 97.4168 158.987 97.4168Z" fill="black"/>
<path d="M178.372 120.905V89.2248H190.532V93.0648C193.05 90.0355 197.082 88.5208 202.628 88.5208V101.449C201.007 100.382 199.236 99.8488 197.316 99.8488C195.482 99.8488 193.882 100.638 192.516 102.217C191.194 103.753 190.532 105.886 190.532 108.617V120.905H178.372Z" fill="black"/>
<path d="M206.372 120.905V89.2248H218.532V92.5528C220.879 89.9075 223.78 88.5849 227.236 88.5849C231.332 88.5849 234.596 90.0142 237.028 92.8728C239.46 95.6888 240.676 99.5075 240.676 104.329V120.905H228.516V105.481C228.516 103.433 228.09 101.812 227.236 100.617C226.426 99.4222 225.21 98.8248 223.588 98.8248C221.924 98.8248 220.666 99.4435 219.812 100.681C218.959 101.876 218.532 103.476 218.532 105.481V120.905H206.372Z" fill="black"/>
<path d="M25.9279 193.033C21.7039 193.033 18.2692 191.817 15.6239 189.385C12.9786 186.953 11.6559 183.838 11.6559 180.041V171.785H5.63989V161.225H11.6559V152.009H23.6239V161.225H32.2639V171.785H23.6239V177.225C23.6239 180.382 25.3306 181.961 28.7439 181.961C29.8106 181.961 30.7919 181.79 31.6879 181.449L32.9039 191.881C30.4292 192.649 28.1039 193.033 25.9279 193.033Z" fill="black"/>
<path d="M68.0434 180.489H46.7314C47.6274 182.793 49.4621 183.945 52.2354 183.945C54.8807 183.945 56.9501 183.028 58.4434 181.193L65.7394 187.337C64.2887 189.385 62.3261 190.985 59.8514 192.137C57.3767 193.246 54.8594 193.801 52.2994 193.801C47.4354 193.801 43.3821 192.201 40.1394 189.001C36.9394 185.758 35.3394 181.79 35.3394 177.097C35.3394 172.233 36.9394 168.18 40.1394 164.937C43.3394 161.694 47.3714 160.073 52.2354 160.073C57.0567 160.073 60.9181 161.588 63.8194 164.617C66.7207 167.604 68.1714 171.87 68.1714 177.417C68.1714 178.74 68.1287 179.764 68.0434 180.489ZM52.2994 169.417C49.7821 169.417 48.0114 170.548 46.9874 172.809H57.0994C56.2887 170.548 54.6887 169.417 52.2994 169.417Z" fill="black"/>
<path d="M87.6789 193.801C82.9856 193.801 78.9536 192.18 75.5829 188.937C72.2122 185.652 70.5269 181.684 70.5269 177.033C70.5269 172.382 72.2122 168.393 75.5829 165.065C78.9536 161.737 82.9856 160.073 87.6789 160.073C90.4949 160.073 93.1189 160.713 95.5509 161.993C98.0256 163.273 100.052 165.001 101.631 167.177L92.5429 174.025C91.4336 172.105 89.8122 171.145 87.6789 171.145C86.2282 171.145 84.9696 171.721 83.9029 172.873C82.8362 173.982 82.3029 175.39 82.3029 177.097C82.3029 178.718 82.8149 180.084 83.8389 181.193C84.9056 182.302 86.1642 182.857 87.6149 182.857C90.0469 182.857 91.7109 181.918 92.6069 180.041L101.567 186.825C99.9882 188.958 97.9829 190.665 95.5509 191.945C93.1189 193.182 90.4949 193.801 87.6789 193.801Z" fill="black"/>
<path d="M104.685 192.905V144.905H116.845V164.425C118.936 162.078 121.837 160.905 125.549 160.905C129.645 160.905 132.909 162.292 135.341 165.065C137.773 167.838 138.989 171.593 138.989 176.329V192.905H126.829V177.353C126.829 175.433 126.402 173.918 125.549 172.809C124.738 171.7 123.522 171.145 121.901 171.145C120.237 171.145 118.978 171.721 118.125 172.873C117.272 173.982 116.845 175.476 116.845 177.353V192.905H104.685Z" fill="black"/>
<path d="M143.81 192.905V161.225H155.97V164.553C158.317 161.908 161.218 160.585 164.674 160.585C168.77 160.585 172.034 162.014 174.466 164.873C176.898 167.689 178.114 171.508 178.114 176.329V192.905H165.954V177.481C165.954 175.433 165.527 173.812 164.674 172.617C163.863 171.422 162.647 170.825 161.026 170.825C159.362 170.825 158.103 171.444 157.25 172.681C156.397 173.876 155.97 175.476 155.97 177.481V192.905H143.81Z" fill="black"/>
<path d="M210.65 188.937C207.279 192.18 203.247 193.801 198.554 193.801C193.861 193.801 189.829 192.18 186.458 188.937C183.087 185.652 181.402 181.684 181.402 177.033C181.402 172.382 183.087 168.393 186.458 165.065C189.829 161.737 193.861 160.073 198.554 160.073C203.247 160.073 207.279 161.737 210.65 165.065C214.021 168.393 215.706 172.382 215.706 177.033C215.706 181.684 214.021 185.652 210.65 188.937ZM194.586 181.385C195.695 182.537 197.018 183.113 198.554 183.113C200.09 183.113 201.413 182.537 202.522 181.385C203.631 180.19 204.186 178.761 204.186 177.097C204.186 175.39 203.631 173.961 202.522 172.809C201.413 171.614 200.09 171.017 198.554 171.017C197.018 171.017 195.695 171.614 194.586 172.809C193.477 173.961 192.922 175.39 192.922 177.097C192.922 178.761 193.477 180.19 194.586 181.385Z" fill="black"/>
<path d="M232.811 193.033C228.758 193.033 225.515 191.881 223.083 189.577C220.651 187.23 219.435 184.052 219.435 180.041V144.905H231.595V177.673C231.595 179.124 232.022 180.19 232.875 180.873C233.771 181.556 234.816 181.897 236.011 181.897C236.566 181.897 237.078 181.833 237.547 181.705L238.699 192.265C236.608 192.777 234.646 193.033 232.811 193.033Z" fill="black"/>
<path d="M269.15 188.937C265.779 192.18 261.747 193.801 257.054 193.801C252.361 193.801 248.329 192.18 244.958 188.937C241.587 185.652 239.902 181.684 239.902 177.033C239.902 172.382 241.587 168.393 244.958 165.065C248.329 161.737 252.361 160.073 257.054 160.073C261.747 160.073 265.779 161.737 269.15 165.065C272.521 168.393 274.206 172.382 274.206 177.033C274.206 181.684 272.521 185.652 269.15 188.937ZM253.086 181.385C254.195 182.537 255.518 183.113 257.054 183.113C258.59 183.113 259.913 182.537 261.022 181.385C262.131 180.19 262.686 178.761 262.686 177.097C262.686 175.39 262.131 173.961 261.022 172.809C259.913 171.614 258.59 171.017 257.054 171.017C255.518 171.017 254.195 171.614 253.086 172.809C251.977 173.961 251.422 175.39 251.422 177.097C251.422 178.761 251.977 180.19 253.086 181.385Z" fill="black"/>
<path d="M292.335 208.905C289.348 208.905 286.426 208.244 283.567 206.921C280.708 205.598 278.468 203.849 276.847 201.673L285.231 194.569C287.407 197.129 289.796 198.409 292.399 198.409C294.276 198.409 295.94 197.769 297.391 196.489C298.842 195.252 299.567 193.417 299.567 190.985V189.705C297.476 192.265 294.618 193.545 290.991 193.545C286.852 193.545 283.418 191.988 280.687 188.873C277.999 185.716 276.655 181.769 276.655 177.033C276.655 172.297 277.999 168.372 280.687 165.257C283.418 162.142 286.852 160.585 290.991 160.585C294.618 160.585 297.476 161.865 299.567 164.425V161.225H311.727V190.089C311.727 193.204 311.194 195.977 310.127 198.409C309.06 200.884 307.61 202.868 305.775 204.361C303.94 205.854 301.871 206.985 299.567 207.753C297.306 208.521 294.895 208.905 292.335 208.905ZM290.223 181.321C291.29 182.43 292.591 182.985 294.127 182.985C295.663 182.985 296.943 182.43 297.967 181.321C299.034 180.212 299.567 178.782 299.567 177.033C299.567 175.284 299.034 173.854 297.967 172.745C296.943 171.636 295.663 171.081 294.127 171.081C292.591 171.081 291.29 171.636 290.223 172.745C289.199 173.854 288.687 175.284 288.687 177.033C288.687 178.782 289.199 180.212 290.223 181.321Z" fill="black"/>
<path d="M317.898 208.905L318.986 197.577C321.375 197.492 323.317 196.98 324.81 196.041C326.303 195.145 327.242 193.886 327.626 192.265V192.201L314.826 161.225H327.754L333.834 180.553L339.914 161.225H352.842L338.25 196.617C336.501 200.841 333.962 203.934 330.634 205.897C327.349 207.902 323.103 208.905 317.898 208.905Z" fill="black"/>
</g>
<defs>
<filter id="filter0_if" x="0" y="3.8147e-06" width="300" height="287" filterUnits="userSpaceOnUse" color-interpolation-filters="sRGB">
<feFlood flood-opacity="0" result="BackgroundImageFix"/>
<feBlend mode="normal" in="SourceGraphic" in2="BackgroundImageFix" result="shape"/>
<feColorMatrix in="SourceAlpha" type="matrix" values="0 0 0 0 0 0 0 0 0 0 0 0 0 0 0 0 0 0 127 0" result="hardAlpha"/>
<feOffset dy="4"/>
<feGaussianBlur stdDeviation="15"/>
<feComposite in2="hardAlpha" operator="arithmetic" k2="-1" k3="1"/>
<feColorMatrix type="matrix" values="0 0 0 0 0.193325 0 0 0 0 0.0870833 0 0 0 0 0.366667 0 0 0 0.4 0"/>
<feBlend mode="overlay" in2="shape" result="effect1_innerShadow"/>
<feGaussianBlur stdDeviation="10" result="effect2_foregroundBlur"/>
</filter>
<radialGradient id="paint0_radial" cx="0" cy="0" r="1" gradientUnits="userSpaceOnUse" gradientTransform="translate(120.1 121.682) rotate(51.3694) scale(186.022 188.372)">
<stop stop-color="#D3EDFF"/>
<stop offset="1" stop-color="#001D84"/>
</radialGradient>
<radialGradient id="paint1_radial" cx="0" cy="0" r="1" gradientUnits="userSpaceOnUse" gradientTransform="translate(20 166.142) rotate(25.4902) scale(387.411 375.404)">
<stop offset="0.516389" stop-color="#3B41C0"/>
<stop offset="0.905572" stop-color="#740092" stop-opacity="0"/>
</radialGradient>
<radialGradient id="paint2_radial" cx="0" cy="0" r="1" gradientUnits="userSpaceOnUse" gradientTransform="translate(162.567 153.38) rotate(-140.359) scale(145.185 143.99)">
<stop stop-color="white" stop-opacity="0"/>
<stop offset="0.723958" stop-color="white" stop-opacity="0.260417"/>
<stop offset="0.901042" stop-color="#FAC43A"/>
</radialGradient>
<radialGradient id="paint3_radial" cx="0" cy="0" r="1" gradientUnits="userSpaceOnUse" gradientTransform="translate(158.171 148.963) rotate(-150.829) scale(137.894 133.389)">
<stop stop-color="white" stop-opacity="0"/>
<stop offset="0.609375" stop-color="white" stop-opacity="0.260417"/>
<stop offset="0.903431" stop-color="#EB9BA5"/>
<stop offset="1" stop-color="#FFACD9" stop-opacity="0"/>
</radialGradient>
<radialGradient id="paint4_radial" cx="0" cy="0" r="1" gradientUnits="userSpaceOnUse" gradientTransform="translate(88.7143 87.4861) rotate(27.529) scale(294.872 280.83)">
<stop stop-color="#FFBFCC" stop-opacity="0.34"/>
<stop offset="1" stop-color="white" stop-opacity="0"/>
</radialGradient>
<radialGradient id="paint5_radial" cx="0" cy="0" r="1" gradientUnits="userSpaceOnUse" gradientTransform="translate(97.6286 90.7217) rotate(57.1244) scale(123.623 127.943)">
<stop stop-color="#F8DDF8"/>
<stop offset="0.191506" stop-color="#94B6FF" stop-opacity="0.09"/>
</radialGradient>
<radialGradient id="paint6_radial" cx="0" cy="0" r="1" gradientUnits="userSpaceOnUse" gradientTransform="translate(103.571 102.74) rotate(161.608) scale(51.2762 54.5662)">
<stop stop-color="#FFEEDE"/>
<stop offset="1" stop-color="white" stop-opacity="0"/>
</radialGradient>
<radialGradient id="paint7_radial" cx="0" cy="0" r="1" gradientUnits="userSpaceOnUse" gradientTransform="translate(105.429 105.513) rotate(26.5351) scale(308.949 295.078)">
<stop stop-color="white" stop-opacity="0.79"/>
<stop offset="0.333333" stop-color="#FF9494" stop-opacity="0.09"/>
</radialGradient>
<radialGradient id="paint8_radial" cx="0" cy="0" r="1" gradientUnits="userSpaceOnUse" gradientTransform="translate(95.4 111.984) rotate(167.535) scale(146.009 137.124)">
<stop stop-color="#F4ECFF" stop-opacity="0.44"/>
<stop offset="0.447749" stop-color="white" stop-opacity="0"/>
</radialGradient>
<radialGradient id="paint9_radial" cx="0" cy="0" r="1" gradientUnits="userSpaceOnUse" gradientTransform="translate(130.067 117.977) rotate(46.1207) scale(198.18 206.616)">
<stop stop-color="white" stop-opacity="0"/>
<stop offset="0.65728" stop-color="white" stop-opacity="0"/>
<stop offset="0.799235" stop-color="#17002F" stop-opacity="0.47"/>
<stop offset="1" stop-color="#DFD0FF" stop-opacity="0"/>
</radialGradient>
<linearGradient id="paint10_linear" x1="295.772" y1="73.1162" x2="103.921" y2="118.787" gradientUnits="userSpaceOnUse">
<stop stop-color="#15A6FF"/>
<stop offset="1" stop-color="#B484DB" stop-opacity="0"/>
</linearGradient>
<linearGradient id="paint11_linear" x1="31.0927" y1="126.094" x2="182.44" y2="236.391" gradientUnits="userSpaceOnUse">
<stop stop-color="#FFE052"/>
<stop offset="1" stop-color="#DF896D" stop-opacity="0"/>
</linearGradient>
<linearGradient id="paint12_linear" x1="132.384" y1="21.9049" x2="227.266" y2="285.733" gradientUnits="userSpaceOnUse">
<stop stop-color="#FFA6AA"/>
<stop offset="1" stop-color="white" stop-opacity="0"/>
</linearGradient>
</defs>
</svg>
