<svg width="64" height="64" viewBox="0 0 64 64" fill="none" xmlns="http://www.w3.org/2000/svg">
<g clip-path="url(#clip0)">
<g filter="url(#filter0_ddii)">
<path fill-rule="evenodd" clip-rule="evenodd" d="M20.1808 28.9921C23.6439 28.4932 31.6373 27.4098 35.9069 27.0676C40.1764 26.7255 41.4809 25.0718 41.5995 24.2878C41.647 23.48 41.2437 21.736 39.2513 21.2228C37.2589 20.7096 29.4077 19.821 25.7312 19.4409C29.3128 19.2033 36.8462 18.5713 38.3262 17.9441C38.6151 17.8216 38.8692 17.7183 39.0944 17.6268C40.3114 17.1322 40.6811 16.982 41.1014 16.0195C41.5995 14.8791 41.5284 13.4535 39.2513 12.7408C37.4296 12.1705 29.4789 11.2677 25.7312 10.8875C29.1468 10.6024 36.3053 9.93241 37.6147 9.53326C37.8099 9.47375 38.0152 9.41525 38.2255 9.35535C39.7781 8.91303 41.5995 8.39411 41.5995 6.8247C41.5995 5.04275 39.9629 4.61508 38.3262 5.32786C36.6896 6.04064 33.7009 6.39702 29.7161 6.8247C25.7312 7.25237 20.8924 7.89387 19.3269 8.32154C17.7614 8.74921 16.9075 9.17687 16.3383 10.246C15.769 11.3152 16.5517 13.0259 18.6153 13.3823C20.6789 13.7387 30.7834 15.0929 31.8508 15.2355C32.181 15.2796 31.2175 15.3373 29.6743 15.4298C26.2287 15.6363 19.8932 16.0159 18.6153 16.8036C16.7652 17.9441 15.6267 19.0132 16.9075 21.2228C17.9322 22.9905 32.4201 23.7176 32.4201 23.7176C32.4201 23.7176 20.4655 24.6157 19.0423 25.357C18.7689 25.4994 18.5224 25.6216 18.2999 25.7319C17.0749 26.3392 16.5792 26.5849 16.3383 27.8517C16.0536 29.3485 17.9749 30.4177 20.1808 28.9921ZM4.98422 32.057C4.42383 32.057 3.97121 32.5191 4.00143 33.0787C4.78233 47.5388 15.678 59 29.0044 59C36.1062 59 42.5177 55.7451 47.0759 50.516L47.0786 50.5178C47.0786 50.5178 51.8462 50.8029 53.8386 50.5178C55.8311 50.2327 59.2609 48.7359 59.8871 44.4592C60.656 39.208 57.3738 36.9829 53.6827 36.1627C53.8418 35.1525 53.951 34.1234 54.0075 33.0787C54.0377 32.5191 53.5851 32.057 53.0247 32.057H4.98422ZM54.0521 46.7401C53.5154 46.9417 50.8279 47.0166 49.8068 46.7855C51.118 44.6375 52.1621 42.2752 52.8868 39.7564C54.0771 39.8136 56.0378 40.427 56.4004 42.606C56.8985 45.5996 54.6214 46.5262 54.0521 46.7401Z" fill="#FAFAFA"/>
</g>
</g>
<defs>
<filter id="filter0_ddii" x="-5" y="-3" width="70.9999" height="70" filterUnits="userSpaceOnUse" color-interpolation-filters="sRGB">
<feFlood flood-opacity="0" result="BackgroundImageFix"/>
<feColorMatrix in="SourceAlpha" type="matrix" values="0 0 0 0 0 0 0 0 0 0 0 0 0 0 0 0 0 0 127 0"/>
<feOffset dx="2" dy="4"/>
<feGaussianBlur stdDeviation="2"/>
<feColorMatrix type="matrix" values="0 0 0 0 0.167111 0 0 0 0 0.110972 0 0 0 0 0.391667 0 0 0 0.15 0"/>
<feBlend mode="normal" in2="BackgroundImageFix" result="effect1_dropShadow"/>
<feColorMatrix in="SourceAlpha" type="matrix" values="0 0 0 0 0 0 0 0 0 0 0 0 0 0 0 0 0 0 127 0"/>
<feOffset dx="-3" dy="-2"/>
<feGaussianBlur stdDeviation="3"/>
<feColorMatrix type="matrix" values="0 0 0 0 1 0 0 0 0 1 0 0 0 0 1 0 0 0 0.15 0"/>
<feBlend mode="normal" in2="effect1_dropShadow" result="effect2_dropShadow"/>
<feBlend mode="normal" in="SourceGraphic" in2="effect2_dropShadow" result="shape"/>
<feColorMatrix in="SourceAlpha" type="matrix" values="0 0 0 0 0 0 0 0 0 0 0 0 0 0 0 0 0 0 127 0" result="hardAlpha"/>
<feOffset dx="1" dy="4"/>
<feGaussianBlur stdDeviation="2"/>
<feComposite in2="hardAlpha" operator="arithmetic" k2="-1" k3="1"/>
<feColorMatrix type="matrix" values="0 0 0 0 1 0 0 0 0 1 0 0 0 0 1 0 0 0 1 0"/>
<feBlend mode="normal" in2="shape" result="effect3_innerShadow"/>
<feColorMatrix in="SourceAlpha" type="matrix" values="0 0 0 0 0 0 0 0 0 0 0 0 0 0 0 0 0 0 127 0" result="hardAlpha"/>
<feOffset dx="-0.5" dy="-2"/>
<feGaussianBlur stdDeviation="2"/>
<feComposite in2="hardAlpha" operator="arithmetic" k2="-1" k3="1"/>
<feColorMatrix type="matrix" values="0 0 0 0 0.110369 0 0 0 0 0.0774132 0 0 0 0 0.204167 0 0 0 0.15 0"/>
<feBlend mode="normal" in2="effect3_innerShadow" result="effect4_innerShadow"/>
</filter>
<clipPath id="clip0">
<rect width="64" height="64" fill="white"/>
</clipPath>
</defs>
</svg>
