<svg width="64" height="64" viewBox="0 0 64 64" fill="none" xmlns="http://www.w3.org/2000/svg">
<g clip-path="url(#clip0)">
<g filter="url(#filter0_ddii)">
<path fill-rule="evenodd" clip-rule="evenodd" d="M30 18C30 24.6274 24.6274 30 18 30C11.3726 30 6 24.6274 6 18C6 11.3726 11.3726 6 18 6C24.6274 6 30 11.3726 30 18ZM22.8002 18.0001C22.8002 20.6511 20.6512 22.8001 18.0002 22.8001C15.3492 22.8001 13.2002 20.6511 13.2002 18.0001C13.2002 15.3491 15.3492 13.2001 18.0002 13.2001C20.6512 13.2001 22.8002 15.3491 22.8002 18.0001ZM44.2828 12.0857C46.221 10.1187 49.3634 10.1187 51.3016 12.0857C53.2398 14.0526 53.2398 17.2417 51.3016 19.2087L19.7172 51.2621C17.779 53.229 14.6366 53.229 12.6984 51.2621C10.7602 49.2951 10.7602 46.1061 12.6984 44.1391L44.2828 12.0857ZM45.7085 57.3478C52.3359 57.3478 57.7085 51.9752 57.7085 45.3478C57.7085 38.7203 52.3359 33.3478 45.7085 33.3478C39.0811 33.3478 33.7085 38.7203 33.7085 45.3478C33.7085 51.9752 39.0811 57.3478 45.7085 57.3478ZM45.7087 50.1473C48.3597 50.1473 50.5087 47.9982 50.5087 45.3473C50.5087 42.6963 48.3597 40.5473 45.7087 40.5473C43.0577 40.5473 40.9087 42.6963 40.9087 45.3473C40.9087 47.9982 43.0577 50.1473 45.7087 50.1473Z" fill="#FAFAFA"/>
</g>
</g>
<defs>
<filter id="filter0_ddii" x="-3" y="-2" width="66.7085" height="67.3478" filterUnits="userSpaceOnUse" color-interpolation-filters="sRGB">
<feFlood flood-opacity="0" result="BackgroundImageFix"/>
<feColorMatrix in="SourceAlpha" type="matrix" values="0 0 0 0 0 0 0 0 0 0 0 0 0 0 0 0 0 0 127 0"/>
<feOffset dx="2" dy="4"/>
<feGaussianBlur stdDeviation="2"/>
<feColorMatrix type="matrix" values="0 0 0 0 0.167111 0 0 0 0 0.110972 0 0 0 0 0.391667 0 0 0 0.15 0"/>
<feBlend mode="normal" in2="BackgroundImageFix" result="effect1_dropShadow"/>
<feColorMatrix in="SourceAlpha" type="matrix" values="0 0 0 0 0 0 0 0 0 0 0 0 0 0 0 0 0 0 127 0"/>
<feOffset dx="-3" dy="-2"/>
<feGaussianBlur stdDeviation="3"/>
<feColorMatrix type="matrix" values="0 0 0 0 1 0 0 0 0 1 0 0 0 0 1 0 0 0 0.15 0"/>
<feBlend mode="normal" in2="effect1_dropShadow" result="effect2_dropShadow"/>
<feBlend mode="normal" in="SourceGraphic" in2="effect2_dropShadow" result="shape"/>
<feColorMatrix in="SourceAlpha" type="matrix" values="0 0 0 0 0 0 0 0 0 0 0 0 0 0 0 0 0 0 127 0" result="hardAlpha"/>
<feOffset dx="1" dy="4"/>
<feGaussianBlur stdDeviation="2"/>
<feComposite in2="hardAlpha" operator="arithmetic" k2="-1" k3="1"/>
<feColorMatrix type="matrix" values="0 0 0 0 1 0 0 0 0 1 0 0 0 0 1 0 0 0 1 0"/>
<feBlend mode="normal" in2="shape" result="effect3_innerShadow"/>
<feColorMatrix in="SourceAlpha" type="matrix" values="0 0 0 0 0 0 0 0 0 0 0 0 0 0 0 0 0 0 127 0" result="hardAlpha"/>
<feOffset dx="-0.5" dy="-2"/>
<feGaussianBlur stdDeviation="2"/>
<feComposite in2="hardAlpha" operator="arithmetic" k2="-1" k3="1"/>
<feColorMatrix type="matrix" values="0 0 0 0 0.110369 0 0 0 0 0.0774132 0 0 0 0 0.204167 0 0 0 0.15 0"/>
<feBlend mode="normal" in2="effect3_innerShadow" result="effect4_innerShadow"/>
</filter>
<clipPath id="clip0">
<rect width="64" height="64" fill="white"/>
</clipPath>
</defs>
</svg>
