<svg width="35" height="35" viewBox="0 0 35 35" fill="none" xmlns="http://www.w3.org/2000/svg">
<path d="M9.22505 1H25.775C30.2751 1 34 4.77518 34 9.42014V25.5799C34 30.2248 30.2751 34 25.775 34H9.22505C4.72488 34 1 30.2248 1 25.5799V9.42014C1 4.77519 4.72488 1 9.22505 1Z" stroke="#E84E8B" stroke-width="2" stroke-miterlimit="10"/>
<path d="M26.0353 13.8929C25.8054 13.3414 25.5143 12.8207 25.1771 12.3152C24.84 11.825 24.4722 11.3655 24.0432 10.9519C23.6294 10.5384 23.1697 10.1554 22.664 9.81846C22.1736 9.48148 21.6373 9.19046 21.0856 8.9607C20.5187 8.73094 19.9363 8.54713 19.3387 8.42459C18.7257 8.30205 18.0975 8.24078 17.4692 8.24078C16.8409 8.24078 16.2126 8.30205 15.5996 8.42459C15.002 8.54713 14.4197 8.73094 13.8527 8.9607C13.301 9.19046 12.78 9.48148 12.2743 9.81846C11.784 10.1554 11.3243 10.5231 10.8952 10.9519C10.4814 11.3655 10.0983 11.825 9.76121 12.3152C9.42408 12.8053 9.13293 13.3414 8.90307 13.8929C8.65789 14.4596 8.48932 15.0417 8.36673 15.639C8.24414 16.2517 8.18283 16.8797 8.18283 17.5077C8.18283 18.1358 8.24414 18.7638 8.36673 19.3765C8.48932 19.9738 8.67321 20.5559 8.90307 21.1226C9.13293 21.6741 9.42408 22.2102 9.76121 22.7003C10.0983 23.1905 10.4661 23.65 10.8952 24.0636C11.3089 24.4771 11.7687 24.8601 12.2743 25.197C12.7647 25.534 13.301 25.825 13.8527 26.0548C14.4197 26.2999 15.002 26.4684 15.5996 26.5909C16.2126 26.7134 16.8409 26.7747 17.4692 26.7747C18.0975 26.7747 18.7257 26.7134 19.3387 26.5909C19.9363 26.4684 20.5187 26.2846 21.0856 26.0548C21.6373 25.825 22.1583 25.534 22.664 25.197C23.1544 24.8601 23.6141 24.4924 24.0432 24.0636C24.4569 23.65 24.84 23.1905 25.1771 22.7003C25.5143 22.2102 25.8054 21.6741 26.0353 21.1226C26.2651 20.5712 26.449 19.9738 26.5716 19.3765C26.6942 18.7638 26.7555 18.1358 26.7555 17.5077C26.7555 16.8797 26.6942 16.2517 26.5716 15.639C26.4644 15.0417 26.2805 14.4596 26.0353 13.8929ZM17.4998 9.5887C19.5073 9.5887 21.3308 10.3393 22.7253 11.5646C22.71 11.5953 21.576 13.3108 18.5878 14.429C17.2393 11.9476 15.7529 9.97164 15.6303 9.81846C16.2279 9.66529 16.8562 9.5887 17.4998 9.5887ZM15.5996 9.81846C15.5996 9.81846 15.5843 9.81846 15.569 9.81846C15.5843 9.81846 15.5996 9.81846 15.5996 9.81846ZM14.1285 10.3393C14.2358 10.4771 15.6916 12.4684 17.0707 14.9038C13.2704 15.9148 9.97575 15.8688 9.76121 15.8688C10.2669 13.418 11.9066 11.3808 14.1285 10.3393ZM11.6154 22.7922C10.3588 21.383 9.59265 19.5296 9.59265 17.5077C9.59265 17.4312 9.59265 17.3393 9.59265 17.2627C9.73057 17.2627 13.6382 17.3546 17.7144 16.1292C17.9442 16.5734 18.1588 17.0176 18.358 17.4771C18.2507 17.5077 18.1434 17.5384 18.0515 17.569C13.7761 18.9476 11.6001 22.7922 11.6154 22.7922C11.6001 22.7922 11.6154 22.7922 11.6154 22.7922ZM17.4998 25.4115C15.6303 25.4115 13.914 24.7681 12.5502 23.6806C12.5195 23.6653 12.4889 23.6347 12.4429 23.604C12.4889 23.6347 12.5195 23.6653 12.5502 23.6806C12.5961 23.7113 12.6268 23.7419 12.6268 23.7419C12.6268 23.7419 14.1439 20.4334 18.833 18.7944C18.8483 18.7944 18.8637 18.7791 18.879 18.7791C19.9976 21.6741 20.4574 24.0942 20.5646 24.7835C19.6452 25.197 18.6032 25.4115 17.4998 25.4115ZM21.9285 24.0636C21.8518 23.5887 21.4228 21.2605 20.3807 18.4115C22.9398 17.9979 25.1465 18.7025 25.3151 18.7638C24.9626 20.9695 23.706 22.8688 21.9285 24.0636ZM19.9057 17.1708C19.8444 17.0329 19.7984 16.8951 19.7371 16.7572C19.5686 16.3743 19.4 15.9913 19.2161 15.6084C22.3422 14.3371 23.6141 12.499 23.6294 12.4837C24.7328 13.8316 25.407 15.5471 25.4376 17.4312C25.2997 17.4005 22.618 16.8185 19.9057 17.1708Z" fill="#FAFAFA"/>
</svg>
