<svg width="32" height="32" viewBox="0 0 32 32" fill="none" xmlns="http://www.w3.org/2000/svg">
<path d="M30 16C30 12.6776 29.9974 10.342 29.8076 8.54102C29.6216 6.77593 29.2738 5.75593 28.7344 4.98535C28.266 4.31646 27.6835 3.73399 27.0146 3.26562C26.2441 2.72619 25.2241 2.37843 23.459 2.19238C21.658 2.00257 19.3224 2 16 2C12.6776 2 10.342 2.00257 8.54102 2.19238C6.77593 2.37843 5.75593 2.72619 4.98535 3.26562C4.31646 3.73399 3.73399 4.31646 3.26562 4.98535C2.72619 5.75593 2.37843 6.77593 2.19238 8.54102C2.00257 10.342 2 12.6776 2 16C2 19.3224 2.00257 21.658 2.19238 23.459C2.37843 25.2241 2.72619 26.2441 3.26562 27.0146C3.73399 27.6835 4.31646 28.266 4.98535 28.7344C5.75593 29.2738 6.77593 29.6216 8.54102 29.8076C10.342 29.9974 12.6776 30 16 30V32C9.6466 32 6.37045 32.0002 4.05859 30.5205L3.83789 30.3721C3.08548 29.8452 2.41865 29.2069 1.86035 28.4795L1.62793 28.1621C0.000298023 25.8376 0 22.5585 0 16C0 9.6466 -0.000193596 6.37045 1.47949 4.05859L1.62793 3.83789C2.15479 3.08548 2.79306 2.41865 3.52051 1.86035L3.83789 1.62793C6.16239 0.000298023 9.44154 0 16 0C22.5585 0 25.8376 0.000298023 28.1621 1.62793C29.022 2.23008 29.7699 2.97796 30.3721 3.83789C31.9997 6.16239 32 9.44154 32 16C32 22.5585 31.9997 25.8376 30.3721 28.1621C29.7699 29.022 29.022 29.7699 28.1621 30.3721C25.8376 31.9997 22.5585 32 16 32V30C19.3224 30 21.658 29.9974 23.459 29.8076C25.2241 29.6216 26.2441 29.2738 27.0146 28.7344C27.6835 28.266 28.266 27.6835 28.7344 27.0146C29.2738 26.2441 29.6216 25.2241 29.8076 23.459C29.9974 21.658 30 19.3224 30 16Z" fill="#2AA4EF"/>
<path d="M30 16C30 12.6776 29.9974 10.342 29.8076 8.54102C29.6216 6.77593 29.2738 5.75593 28.7344 4.98535C28.266 4.31646 27.6835 3.73399 27.0146 3.26562C26.2441 2.72619 25.2241 2.37843 23.459 2.19238C21.658 2.00257 19.3224 2 16 2C12.6776 2 10.342 2.00257 8.54102 2.19238C6.77593 2.37843 5.75593 2.72619 4.98535 3.26562C4.31646 3.73399 3.73399 4.31646 3.26562 4.98535C2.72619 5.75593 2.37843 6.77593 2.19238 8.54102C2.00257 10.342 2 12.6776 2 16C2 19.3224 2.00257 21.658 2.19238 23.459C2.37843 25.2241 2.72619 26.2441 3.26562 27.0146C3.73399 27.6835 4.31646 28.266 4.98535 28.7344C5.75593 29.2738 6.77593 29.6216 8.54102 29.8076C10.342 29.9974 12.6776 30 16 30V32C9.6466 32 6.37045 32.0002 4.05859 30.5205L3.83789 30.3721C3.08548 29.8452 2.41865 29.2069 1.86035 28.4795L1.62793 28.1621C0.000298023 25.8376 0 22.5585 0 16C0 9.6466 -0.000193596 6.37045 1.47949 4.05859L1.62793 3.83789C2.15479 3.08548 2.79306 2.41865 3.52051 1.86035L3.83789 1.62793C6.16239 0.000298023 9.44154 0 16 0C22.5585 0 25.8376 0.000298023 28.1621 1.62793C29.022 2.23008 29.7699 2.97796 30.3721 3.83789C31.9997 6.16239 32 9.44154 32 16C32 22.5585 31.9997 25.8376 30.3721 28.1621C29.7699 29.022 29.022 29.7699 28.1621 30.3721C25.8376 31.9997 22.5585 32 16 32V30C19.3224 30 21.658 29.9974 23.459 29.8076C25.2241 29.6216 26.2441 29.2738 27.0146 28.7344C27.6835 28.266 28.266 27.6835 28.7344 27.0146C29.2738 26.2441 29.6216 25.2241 29.8076 23.459C29.9974 21.658 30 19.3224 30 16Z" fill="url(#paint0_linear_150_457)"/>
<path d="M30 16C30 12.6776 29.9974 10.342 29.8076 8.54102C29.6216 6.77593 29.2738 5.75593 28.7344 4.98535C28.266 4.31646 27.6835 3.73399 27.0146 3.26562C26.2441 2.72619 25.2241 2.37843 23.459 2.19238C21.658 2.00257 19.3224 2 16 2C12.6776 2 10.342 2.00257 8.54102 2.19238C6.77593 2.37843 5.75593 2.72619 4.98535 3.26562C4.31646 3.73399 3.73399 4.31646 3.26562 4.98535C2.72619 5.75593 2.37843 6.77593 2.19238 8.54102C2.00257 10.342 2 12.6776 2 16C2 19.3224 2.00257 21.658 2.19238 23.459C2.37843 25.2241 2.72619 26.2441 3.26562 27.0146C3.73399 27.6835 4.31646 28.266 4.98535 28.7344C5.75593 29.2738 6.77593 29.6216 8.54102 29.8076C10.342 29.9974 12.6776 30 16 30V32C9.6466 32 6.37045 32.0002 4.05859 30.5205L3.83789 30.3721C3.08548 29.8452 2.41865 29.2069 1.86035 28.4795L1.62793 28.1621C0.000298023 25.8376 0 22.5585 0 16C0 9.6466 -0.000193596 6.37045 1.47949 4.05859L1.62793 3.83789C2.15479 3.08548 2.79306 2.41865 3.52051 1.86035L3.83789 1.62793C6.16239 0.000298023 9.44154 0 16 0C22.5585 0 25.8376 0.000298023 28.1621 1.62793C29.022 2.23008 29.7699 2.97796 30.3721 3.83789C31.9997 6.16239 32 9.44154 32 16C32 22.5585 31.9997 25.8376 30.3721 28.1621C29.7699 29.022 29.022 29.7699 28.1621 30.3721C25.8376 31.9997 22.5585 32 16 32V30C19.3224 30 21.658 29.9974 23.459 29.8076C25.2241 29.6216 26.2441 29.2738 27.0146 28.7344C27.6835 28.266 28.266 27.6835 28.7344 27.0146C29.2738 26.2441 29.6216 25.2241 29.8076 23.459C29.9974 21.658 30 19.3224 30 16Z" fill="#E84E8B"/>
<path d="M23.8027 12.7018C23.5926 12.1976 23.3264 11.7215 23.0181 11.2594C22.7099 10.8112 22.3736 10.3911 21.9813 10.013C21.6031 9.63484 21.1827 9.28473 20.7204 8.97663C20.2721 8.66853 19.7817 8.40245 19.2773 8.19239C18.7589 7.98232 18.2265 7.81427 17.6801 7.70223C17.1197 7.5902 16.5453 7.53418 15.9708 7.53418C15.3964 7.53418 14.822 7.5902 14.2616 7.70223C13.7151 7.81427 13.1827 7.98232 12.6644 8.19239C12.16 8.40245 11.6836 8.66853 11.2213 8.97663C10.7729 9.28473 10.3526 9.62084 9.96034 10.013C9.58206 10.3911 9.23179 10.8112 8.92356 11.2594C8.61533 11.7075 8.34913 12.1976 8.13897 12.7018C7.9148 13.22 7.76069 13.7521 7.64861 14.2983C7.53652 14.8585 7.48047 15.4327 7.48047 16.0068C7.48047 16.581 7.53652 17.1552 7.64861 17.7154C7.76069 18.2615 7.92882 18.7937 8.13897 19.3119C8.34913 19.816 8.61533 20.3062 8.92356 20.7543C9.23179 21.2025 9.56804 21.6226 9.96034 22.0007C10.3386 22.3788 10.7589 22.7289 11.2213 23.037C11.6696 23.3451 12.16 23.6112 12.6644 23.8213C13.1827 24.0454 13.7151 24.1994 14.2616 24.3114C14.822 24.4235 15.3964 24.4795 15.9708 24.4795C16.5453 24.4795 17.1197 24.4235 17.6801 24.3114C18.2265 24.1994 18.7589 24.0313 19.2773 23.8213C19.7817 23.6112 20.2581 23.3451 20.7204 23.037C21.1687 22.7289 21.589 22.3928 21.9813 22.0007C22.3596 21.6226 22.7099 21.2025 23.0181 20.7543C23.3264 20.3062 23.5926 19.816 23.8027 19.3119C24.0129 18.8077 24.181 18.2615 24.2931 17.7154C24.4052 17.1552 24.4612 16.581 24.4612 16.0068C24.4612 15.4327 24.4052 14.8585 24.2931 14.2983C24.195 13.7521 24.0269 13.22 23.8027 12.7018ZM15.9989 8.76656C17.8342 8.76656 19.5015 9.45278 20.7764 10.5731C20.7624 10.6011 19.7257 12.1696 16.9936 13.192C15.7607 10.9232 14.4017 9.11667 14.2896 8.97663C14.836 8.83659 15.4104 8.76656 15.9989 8.76656ZM14.2616 8.97663C14.2616 8.97663 14.2476 8.97663 14.2335 8.97663C14.2476 8.97663 14.2616 8.97663 14.2616 8.97663ZM12.9166 9.45278C13.0146 9.57882 14.3456 11.3994 15.6066 13.6261C12.132 14.5504 9.1197 14.5084 8.92356 14.5084C9.3859 12.2677 10.885 10.4051 12.9166 9.45278ZM10.6188 20.8383C9.46996 19.5499 8.76945 17.8554 8.76945 16.0068C8.76945 15.9368 8.76945 15.8528 8.76945 15.7828C8.89554 15.7828 12.4682 15.8668 16.195 14.7464C16.4052 15.1526 16.6013 15.5587 16.7834 15.9788C16.6854 16.0068 16.5873 16.0348 16.5032 16.0629C12.5943 17.3233 10.6048 20.8383 10.6188 20.8383C10.6188 20.8383 10.6048 20.8383 10.6188 20.8383ZM15.9989 23.2331C14.2896 23.2331 12.7204 22.6449 11.4735 21.6506C11.4454 21.6366 11.4174 21.6086 11.3754 21.5806C11.4174 21.6086 11.4454 21.6366 11.4735 21.6506C11.5155 21.6786 11.5435 21.7066 11.5435 21.7066C11.5435 21.7066 12.9306 18.6817 17.2178 17.1832C17.2318 17.1832 17.2458 17.1692 17.2598 17.1692C18.2826 19.816 18.7029 22.0287 18.801 22.6589C17.9603 23.037 17.0076 23.2331 15.9989 23.2331ZM20.0479 22.0007C19.9779 21.5666 19.5855 19.4379 18.6328 16.8331C20.9726 16.455 22.9901 17.0992 23.1442 17.1552C22.822 19.1718 21.6731 20.9084 20.0479 22.0007ZM18.1985 15.6987C18.1425 15.5727 18.1004 15.4467 18.0444 15.3206C17.8903 14.9705 17.7362 14.6204 17.568 14.2703C20.4262 13.1079 21.5891 11.4274 21.6031 11.4134C22.6118 12.6458 23.2283 14.2143 23.2563 15.9368C23.1302 15.9088 20.6784 15.3766 18.1985 15.6987Z" fill="#FAFAFA"/>
<defs>
<linearGradient id="paint0_linear_150_457" x1="29.7472" y1="29.7433" x2="2.25186" y2="2.24786" gradientUnits="userSpaceOnUse">
<stop stop-color="#FEC053"/>
<stop offset="0.3273" stop-color="#F2203E"/>
<stop offset="0.6485" stop-color="#B729A8"/>
<stop offset="1" stop-color="#5342D6"/>
</linearGradient>
</defs>
</svg>
