<svg width="462" height="295" viewBox="0 0 462 295" fill="none" xmlns="http://www.w3.org/2000/svg">
<path fill-rule="evenodd" clip-rule="evenodd" d="M192.523 20.5071L192.289 19.8865L185.706 21.959L186.134 22.9941C187.306 25.9319 187.952 29.1385 187.952 32.4986C187.952 46.6595 176.479 58.1393 162.326 58.1393C156.584 58.1393 151.285 56.2506 147.013 53.0595L182.306 16.4158H182.317L187.038 11.387L186.403 10.6854C180.461 4.12385 171.875 0 162.327 0C144.389 0 129.848 14.55 129.848 32.4983C129.848 50.4466 144.389 64.9966 162.327 64.9966C180.264 64.9966 194.805 50.4466 194.805 32.4983C194.805 28.2652 193.996 24.2187 192.523 20.5071ZM186.451 22.8672C187.64 25.8447 188.294 29.0944 188.294 32.4986C188.294 32.9596 188.282 33.4179 188.258 33.8731C188.282 33.4178 188.294 32.9595 188.294 32.4983C188.294 29.0941 187.64 25.8444 186.452 22.8669L186.195 22.2238L186.195 22.2239L186.451 22.8672ZM182.32 15.9007L182.325 15.9073L182.326 15.9071V15.8943L182.32 15.9007ZM130.19 32.4981C130.19 50.2575 144.578 64.6543 162.327 64.6543C163.024 64.6543 163.716 64.6321 164.402 64.5884C163.716 64.6322 163.024 64.6545 162.327 64.6545C144.578 64.6545 130.19 50.2577 130.19 32.4983C130.19 31.9534 130.203 31.4117 130.23 30.8734C130.203 31.4116 130.19 31.9532 130.19 32.4981ZM162.326 6.85778C167.917 6.85778 173.087 8.6481 177.299 11.6875L142.128 48.2799C138.727 43.9283 136.701 38.4514 136.701 32.4986C136.701 18.3375 148.174 6.85778 162.326 6.85778ZM162.326 6.51569C168.009 6.51569 173.263 8.34122 177.539 11.4385C177.632 11.506 177.724 11.5741 177.817 11.6428L177.817 11.6425C173.492 8.42138 168.133 6.51544 162.327 6.51544C161.349 6.51544 160.385 6.56958 159.436 6.67481C160.385 6.56965 161.349 6.51569 162.326 6.51569ZM277.03 31.3558V64.1962H283.156V53.5559C283.156 51.6584 283.594 50.1697 284.469 49.0896C285.374 48.0095 286.584 47.4694 288.101 47.4694C289.531 47.4694 290.669 47.9803 291.515 49.002C292.39 50.0237 292.828 51.4979 292.828 53.4245V64.1962H298.954V52.9429C298.954 49.5566 298.094 46.9294 296.372 45.0611C294.68 43.1929 292.419 42.2588 289.589 42.2588C286.876 42.2588 284.732 43.1929 283.156 45.0611V31.3558H277.03ZM202.122 64.1962V42.5215H208.248V45.1049C209.999 43.1199 212.201 42.1274 214.856 42.1274C217.832 42.1274 220.224 43.3826 222.033 45.8931C224.104 43.3826 226.744 42.1274 229.954 42.1274C232.813 42.1274 235.074 43.0761 236.737 44.9736C238.429 46.871 239.275 49.5274 239.275 52.9429V64.1962H233.148V53.4683C233.148 51.4833 232.725 49.9653 231.879 48.9144C231.062 47.8635 229.954 47.3381 228.553 47.3381C227.065 47.3381 225.898 47.8927 225.052 49.002C224.206 50.0821 223.783 51.5709 223.783 53.4683V64.1962H217.657V53.4683C217.657 51.5125 217.234 50.0091 216.388 48.9582C215.542 47.8781 214.433 47.3381 213.062 47.3381C211.603 47.3381 210.436 47.9073 209.561 49.0458C208.686 50.1551 208.248 51.6876 208.248 53.6434V64.1962H202.122ZM246.862 75.143V42.5215H252.989V45.2801C254.797 43.1783 257.175 42.1274 260.122 42.1274C263.01 42.1274 265.417 43.2075 267.342 45.3677C269.268 47.4986 270.23 50.1697 270.23 53.3807C270.23 56.5334 269.268 59.1898 267.342 61.35C265.417 63.5102 263.01 64.5902 260.122 64.5902C257.204 64.5902 254.827 63.5394 252.989 61.4376V75.143H246.862ZM254.608 57.5405C255.687 58.6498 257.015 59.2044 258.59 59.2044C260.165 59.2044 261.478 58.6498 262.529 57.5405C263.579 56.4312 264.104 55.0446 264.104 53.3807C264.104 51.6876 263.579 50.2864 262.529 49.1771C261.478 48.0387 260.165 47.4694 258.59 47.4694C257.015 47.4694 255.687 48.0387 254.608 49.1771C253.528 50.2864 252.989 51.6876 252.989 53.3807C252.989 55.0446 253.528 56.4312 254.608 57.5405ZM315.529 64.5902C312.64 64.5902 310.234 63.5102 308.308 61.35C306.383 59.1898 305.42 56.5188 305.42 53.3369C305.42 50.1551 306.383 47.4986 308.308 45.3677C310.234 43.2075 312.64 42.1274 315.529 42.1274C318.534 42.1274 320.911 43.1637 322.662 45.2363V42.5215H328.788V64.1962H322.662V61.4814C320.882 63.5539 318.504 64.5902 315.529 64.5902ZM313.078 57.5405C314.157 58.6498 315.485 59.2044 317.06 59.2044C318.636 59.2044 319.963 58.6498 321.043 57.5405C322.122 56.402 322.662 55.0008 322.662 53.3369C322.662 51.673 322.122 50.2864 321.043 49.1771C319.963 48.0387 318.636 47.4694 317.06 47.4694C315.485 47.4694 314.157 48.0241 313.078 49.1334C312.028 50.2426 311.503 51.6438 311.503 53.3369C311.503 55.03 312.028 56.4312 313.078 57.5405ZM339.088 63.3642C340.926 64.4443 342.998 64.9843 345.303 64.9843C348.162 64.9843 350.51 64.3129 352.348 62.9701C354.186 61.5981 355.105 59.8028 355.105 57.5843C355.105 55.0446 353.807 53.2348 351.21 52.1547C350.306 51.7752 349.008 51.5125 347.316 51.3665C345.623 51.1914 344.281 50.9578 343.29 50.6659C342.298 50.3448 341.802 49.761 341.802 48.9144C341.802 48.243 342.108 47.6738 342.721 47.2067C343.362 46.7397 344.165 46.5061 345.127 46.5061C346.09 46.5061 346.893 46.7689 347.534 47.2943C348.176 47.7906 348.599 48.462 348.803 49.3085L354.011 47.8635C353.515 46.0537 352.479 44.6087 350.904 43.5286C349.358 42.4485 347.418 41.9085 345.084 41.9085C342.604 41.9085 340.503 42.5945 338.782 43.9665C337.061 45.3385 336.2 47.0316 336.2 49.0458C336.2 51.6146 337.44 53.4537 339.92 54.563C340.766 54.9133 341.787 55.176 342.983 55.3511C344.208 55.4971 345.23 55.5847 346.046 55.6139C346.893 55.6431 347.622 55.8182 348.234 56.1393C348.847 56.4312 349.154 56.8837 349.154 57.4967C349.154 58.3141 348.818 58.9563 348.147 59.4234C347.476 59.8612 346.557 60.0802 345.39 60.0802C343.085 60.0802 341.51 59.1314 340.664 57.234L335.369 58.8979C336.04 60.7662 337.28 62.2549 339.088 63.3642ZM367.061 38.1866C366.39 38.858 365.588 39.1937 364.654 39.1937C363.721 39.1937 362.904 38.858 362.204 38.1866C361.533 37.5152 361.197 36.6978 361.197 35.7345C361.197 34.8295 361.533 34.056 362.204 33.4138C362.904 32.7424 363.721 32.4066 364.654 32.4066C365.588 32.4066 366.39 32.7424 367.061 33.4138C367.732 34.056 368.068 34.8295 368.068 35.7345C368.068 36.6978 367.732 37.5152 367.061 38.1866ZM361.635 64.1962V42.5215H367.63V64.1962H361.635ZM375.216 59.0731V64.1962H396.002V58.8979H383.531L395.565 47.6446V42.5215H375.785V47.8197H387.25L375.216 59.0731ZM413.025 41.8209C416.234 41.8209 418.845 42.8426 420.858 44.886C422.901 46.9002 423.936 49.688 423.965 53.2494C423.965 54.0083 423.951 54.6068 423.922 55.0446H407.292C407.584 56.5626 408.255 57.7303 409.305 58.5476C410.356 59.365 411.596 59.7737 413.025 59.7737C415.417 59.7737 417.255 58.9417 418.539 57.2778L422.259 60.3867C421.267 61.7587 419.939 62.8388 418.276 63.6269C416.613 64.3859 414.878 64.7654 413.069 64.7654C409.801 64.7654 407.074 63.6707 404.886 61.4814C402.697 59.2628 401.603 56.5626 401.603 53.3807C401.603 50.0821 402.683 47.3381 404.842 45.1487C407.03 42.9302 409.758 41.8209 413.025 41.8209ZM413.069 46.5937C411.669 46.5937 410.458 47.0024 409.437 47.8197C408.445 48.6079 407.759 49.7026 407.38 51.1038H418.451C417.664 48.0971 415.87 46.5937 413.069 46.5937ZM200.992 103.796L207.241 105.743L156.441 190.671L150.3 189.164L168.206 158.262L129.976 105.75L136.418 103.78L172.192 151.822L200.992 103.796ZM212.974 179.585C216.183 179.585 218.925 178.476 221.201 176.257C223.505 174.009 224.658 171.295 224.658 168.113C224.658 164.931 223.505 162.216 221.201 159.968C218.925 157.691 216.183 156.553 212.974 156.553C209.764 156.553 207.008 157.691 204.703 159.968C202.427 162.216 201.289 164.931 201.289 168.113C201.289 171.295 202.427 174.009 204.703 176.257C207.008 178.476 209.764 179.585 212.974 179.585ZM216.737 172.273C215.716 173.353 214.461 173.878 212.974 173.849C211.486 173.878 210.217 173.353 209.166 172.273C208.145 171.163 207.635 169.791 207.635 168.157C207.635 166.493 208.145 165.121 209.166 164.041C210.217 162.931 211.486 162.391 212.974 162.42C214.461 162.391 215.716 162.931 216.737 164.041C217.787 165.121 218.312 166.493 218.312 168.157C218.312 169.791 217.787 171.163 216.737 172.273ZM233.922 176.432C235.643 178.301 237.919 179.235 240.749 179.235C243.462 179.235 245.606 178.271 247.182 176.345H247.269V178.972H253.308V157.297H247.182V167.762C247.182 169.748 246.744 171.28 245.869 172.36C244.994 173.44 243.783 173.98 242.237 173.98C240.807 173.98 239.655 173.455 238.78 172.404C237.934 171.353 237.511 169.85 237.511 167.894V157.297H231.384V168.551C231.384 171.937 232.23 174.564 233.922 176.432ZM261.174 178.972V157.297H267.301V160.1C268.993 157.91 271.764 156.845 275.615 156.903V163.384C274.711 162.888 273.661 162.639 272.465 162.639C271.064 162.639 269.854 163.209 268.833 164.347C267.811 165.486 267.301 167.047 267.301 169.032V178.972H261.174ZM194.805 262.502C194.805 280.45 180.264 295 162.326 295C144.389 295 129.847 280.45 129.847 262.502C129.847 244.553 144.389 230.003 162.326 230.003C180.264 230.003 194.805 244.553 194.805 262.502ZM162.326 288.142C176.479 288.142 187.951 276.663 187.951 262.502C187.951 248.341 176.479 236.861 162.326 236.861C148.174 236.861 136.701 248.341 136.701 262.502C136.701 276.663 148.174 288.142 162.326 288.142ZM153.382 293.396C156.221 294.217 159.222 294.658 162.326 294.658C163.035 294.658 163.738 294.635 164.435 294.59C163.738 294.635 163.035 294.658 162.326 294.658C159.222 294.658 156.221 294.217 153.382 293.396ZM162.326 236.519C169.889 236.519 176.696 239.753 181.442 244.915C176.696 239.753 169.888 236.519 162.326 236.519C160.586 236.519 158.886 236.69 157.242 237.016C158.886 236.69 160.586 236.519 162.326 236.519ZM224.297 291.127C226.222 293.288 228.629 294.368 231.517 294.368C234.551 294.368 236.929 293.317 238.65 291.215V293.974H244.777V261.133H238.65V275.057C236.929 272.956 234.551 271.905 231.517 271.905C228.629 271.905 226.222 272.985 224.297 275.145C222.371 277.276 221.408 279.932 221.408 283.114C221.408 286.296 222.371 288.967 224.297 291.127ZM233.049 288.982C231.473 288.982 230.161 288.427 229.11 287.318C228.06 286.209 227.535 284.807 227.535 283.114C227.535 281.421 228.06 280.02 229.11 278.911C230.161 277.801 231.473 277.247 233.049 277.247C234.624 277.247 235.952 277.816 237.031 278.954C238.111 280.064 238.65 281.45 238.65 283.114C238.65 284.778 238.111 286.179 237.031 287.318C235.952 288.427 234.624 288.982 233.049 288.982ZM188.294 262.501C188.294 262.838 188.287 263.173 188.275 263.506C188.287 263.173 188.293 262.838 188.293 262.502L188.294 262.501ZM202.121 272.299V293.974H208.248V284.034C208.248 282.049 208.758 280.487 209.779 279.349C210.8 278.21 212.011 277.641 213.411 277.641C214.608 277.641 215.658 277.889 216.562 278.385V271.905C212.711 271.846 209.94 272.912 208.248 275.101V272.299H202.121ZM258.181 267.964C257.51 268.635 256.708 268.971 255.774 268.971C254.841 268.971 254.024 268.635 253.324 267.964C252.653 267.293 252.317 266.475 252.317 265.512C252.317 264.607 252.653 263.833 253.324 263.191C254.024 262.52 254.841 262.184 255.774 262.184C256.708 262.184 257.51 262.52 258.181 263.191C258.852 263.833 259.188 264.607 259.188 265.512C259.188 266.475 258.852 267.293 258.181 267.964ZM252.755 293.974V272.299H258.75V293.974H252.755ZM266.599 272.299V293.974H272.725V283.377C272.725 281.45 273.163 279.932 274.038 278.823C274.942 277.714 276.153 277.159 277.67 277.159C279.1 277.159 280.237 277.685 281.083 278.736C281.959 279.786 282.396 281.29 282.396 283.246V293.974H288.523V282.72C288.523 279.305 287.662 276.648 285.941 274.751C284.249 272.853 281.988 271.905 279.158 271.905C276.561 271.905 274.417 272.897 272.725 274.882V272.299H266.599ZM305.097 294.368C302.209 294.368 299.802 293.288 297.877 291.127C295.951 288.967 294.988 286.296 294.988 283.114C294.988 279.932 295.951 277.276 297.877 275.145C299.802 272.985 302.209 271.905 305.097 271.905C308.102 271.905 310.48 272.941 312.23 275.014V272.299H318.357V293.974H312.23V291.259C310.451 293.331 308.073 294.368 305.097 294.368ZM302.647 287.318C303.726 288.427 305.053 288.982 306.629 288.982C308.204 288.982 309.532 288.427 310.611 287.318C311.691 286.179 312.23 284.778 312.23 283.114C312.23 281.45 311.691 280.064 310.611 278.954C309.532 277.816 308.204 277.247 306.629 277.247C305.053 277.247 303.726 277.801 302.647 278.911C301.596 280.02 301.071 281.421 301.071 283.114C301.071 284.807 301.596 286.209 302.647 287.318ZM326.378 272.299V293.974H332.505V284.034C332.505 282.049 333.016 280.487 334.037 279.349C335.058 278.21 336.268 277.641 337.669 277.641C338.865 277.641 339.915 277.889 340.82 278.385V271.905C336.969 271.846 334.197 272.912 332.505 275.101V272.299H326.378ZM352.869 267.964C352.198 268.635 351.396 268.971 350.462 268.971C349.528 268.971 348.712 268.635 348.011 267.964C347.34 267.293 347.005 266.475 347.005 265.512C347.005 264.607 347.34 263.833 348.011 263.191C348.712 262.52 349.528 262.184 350.462 262.184C351.396 262.184 352.198 262.52 352.869 263.191C353.54 263.833 353.875 264.607 353.875 265.512C353.875 266.475 353.54 267.293 352.869 267.964ZM347.443 293.974V272.299H353.438V293.974H347.443ZM361.286 272.299V293.974H367.413V283.377C367.413 281.45 367.851 279.932 368.726 278.823C369.63 277.714 370.841 277.159 372.358 277.159C373.787 277.159 374.925 277.685 375.771 278.736C376.647 279.786 377.084 281.29 377.084 283.246V293.974H383.211V282.72C383.211 279.305 382.35 276.648 380.629 274.751C378.937 272.853 376.676 271.905 373.846 271.905C371.249 271.905 369.105 272.897 367.413 274.882V272.299H361.286ZM401.055 271.598C404.264 271.598 406.875 272.62 408.888 274.663C410.931 276.678 411.966 279.465 411.995 283.027C411.995 283.786 411.981 284.384 411.952 284.822H395.323C395.614 286.34 396.285 287.508 397.336 288.325C398.386 289.142 399.626 289.551 401.055 289.551C403.448 289.551 405.285 288.719 406.569 287.055L410.289 290.164C409.297 291.536 407.969 292.616 406.307 293.404C404.644 294.163 402.908 294.543 401.099 294.543C397.832 294.543 395.104 293.448 392.916 291.259C390.728 289.04 389.634 286.34 389.634 283.158C389.634 279.859 390.713 277.115 392.872 274.926C395.06 272.708 397.788 271.598 401.055 271.598ZM401.099 276.371C399.699 276.371 398.488 276.78 397.467 277.597C396.475 278.385 395.789 279.48 395.41 280.881H406.482C405.694 277.874 403.9 276.371 401.099 276.371ZM420.866 293.142C422.704 294.222 424.776 294.762 427.08 294.762C429.939 294.762 432.288 294.09 434.126 292.747C435.964 291.375 436.883 289.58 436.883 287.362C436.883 284.822 435.585 283.012 432.988 281.932C432.084 281.553 430.785 281.29 429.093 281.144C427.401 280.969 426.059 280.735 425.067 280.443C424.075 280.122 423.579 279.538 423.579 278.692C423.579 278.02 423.886 277.451 424.499 276.984C425.14 276.517 425.943 276.283 426.905 276.283C427.868 276.283 428.67 276.546 429.312 277.072C429.954 277.568 430.377 278.239 430.581 279.086L435.789 277.641C435.293 275.831 434.257 274.386 432.682 273.306C431.136 272.226 429.196 271.686 426.862 271.686C424.382 271.686 422.281 272.372 420.56 273.744C418.839 275.116 417.978 276.809 417.978 278.823C417.978 281.392 419.218 283.231 421.698 284.34C422.544 284.691 423.565 284.953 424.761 285.128C425.986 285.274 427.007 285.362 427.824 285.391C428.67 285.42 429.4 285.596 430.012 285.917C430.625 286.209 430.931 286.661 430.931 287.274C430.931 288.091 430.596 288.734 429.925 289.201C429.254 289.639 428.335 289.858 427.168 289.858C424.863 289.858 423.288 288.909 422.442 287.011L417.147 288.675C417.818 290.544 419.058 292.032 420.866 293.142ZM451.65 294.762C449.345 294.762 447.274 294.222 445.436 293.142C443.627 292.032 442.387 290.544 441.716 288.675L447.011 287.011C447.857 288.909 449.433 289.858 451.737 289.858C452.904 289.858 453.823 289.639 454.494 289.201C455.165 288.734 455.501 288.091 455.501 287.274C455.501 286.661 455.194 286.209 454.582 285.917C453.969 285.596 453.24 285.42 452.394 285.391C451.577 285.362 450.556 285.274 449.331 285.128C448.134 284.953 447.113 284.691 446.267 284.34C443.787 283.231 442.548 281.392 442.548 278.823C442.548 276.809 443.408 275.116 445.129 273.744C446.851 272.372 448.951 271.686 451.431 271.686C453.765 271.686 455.705 272.226 457.251 273.306C458.827 274.386 459.862 275.831 460.358 277.641L455.151 279.086C454.947 278.239 454.523 277.568 453.882 277.072C453.24 276.546 452.438 276.283 451.475 276.283C450.512 276.283 449.71 276.517 449.068 276.984C448.455 277.451 448.149 278.02 448.149 278.692C448.149 279.538 448.645 280.122 449.637 280.443C450.629 280.735 451.971 280.969 453.663 281.144C455.355 281.29 456.653 281.553 457.558 281.932C460.154 283.012 461.452 284.822 461.452 287.362C461.452 289.58 460.533 291.375 458.695 292.747C456.857 294.09 454.509 294.762 451.65 294.762ZM62.2384 292.185C63.7847 293.587 65.7977 294.287 68.2775 294.287C69.6486 294.287 71.0782 294.054 72.566 293.587L71.9096 288.332C71.1511 288.566 70.4072 288.682 69.6778 288.682C67.198 288.682 65.9581 287.515 65.9581 285.179V277.867H71.9971V272.525H65.9581V266.22H59.9191V272.525H55.3242V277.867H59.9191V286.537C59.9191 288.872 60.6922 290.755 62.2384 292.185ZM11.4216 271.824C14.6308 271.824 17.2418 272.846 19.2549 274.889C21.297 276.904 22.3327 279.691 22.3619 283.253C22.3619 284.012 22.3473 284.61 22.3181 285.048H5.68893C5.98067 286.566 6.65168 287.734 7.70194 288.551C8.7522 289.368 9.9921 289.777 11.4216 289.777C13.8139 289.777 15.6519 288.945 16.9355 287.281L20.6552 290.39C19.6633 291.762 18.3359 292.842 16.6729 293.63C15.01 294.389 13.2742 294.769 11.4654 294.769C8.1979 294.769 5.47013 293.674 3.28208 291.485C1.09403 289.266 0 286.566 0 283.384C0 280.086 1.07944 277.341 3.23832 275.152C5.42637 272.934 8.15414 271.824 11.4216 271.824ZM11.4654 276.597C10.065 276.597 8.85431 277.006 7.83322 277.823C6.84131 278.611 6.15572 279.706 5.77645 281.107H16.848C16.0603 278.1 14.2661 276.597 11.4654 276.597ZM26.6481 294.2L34.6563 283.165L26.6481 272.525H33.9562L38.4635 279.137L42.9272 272.525H50.2353L42.2708 283.165L50.2353 294.2H42.9272L38.4635 287.15L33.9124 294.2H26.6481ZM79.6741 294.2V272.525H85.8007V275.327C87.4928 273.138 90.2643 272.072 94.1153 272.131V278.611C93.2109 278.115 92.1606 277.867 90.9645 277.867C89.5641 277.867 88.3534 278.436 87.3323 279.575C86.3112 280.713 85.8007 282.275 85.8007 284.26V294.2H79.6741ZM101.935 291.353C103.861 293.514 106.267 294.594 109.156 294.594C112.131 294.594 114.509 293.557 116.289 291.485V294.2H122.415V272.525H116.289V275.24C114.538 273.167 112.161 272.131 109.156 272.131C106.267 272.131 103.861 273.211 101.935 275.371C100.01 277.502 99.0469 280.158 99.0469 283.34C99.0469 286.522 100.01 289.193 101.935 291.353ZM110.687 289.208C109.112 289.208 107.785 288.653 106.705 287.544C105.655 286.435 105.13 285.033 105.13 283.34C105.13 281.647 105.655 280.246 106.705 279.137C107.785 278.027 109.112 277.473 110.687 277.473C112.263 277.473 113.59 278.042 114.67 279.181C115.749 280.29 116.289 281.676 116.289 283.34C116.289 285.004 115.749 286.405 114.67 287.544C113.59 288.653 112.263 289.208 110.687 289.208Z" fill="#FAFAFA"/>
</svg>
