<svg width="35" height="35" viewBox="0 0 35 35" fill="none" xmlns="http://www.w3.org/2000/svg">
<path d="M9.22505 1H25.775C30.2751 1 34 4.77519 34 9.42014V25.5799C34 30.2248 30.2751 34 25.775 34H9.22505C4.72487 34 1 30.2248 1 25.5799V9.42014C1 4.77519 4.72487 1 9.22505 1Z" stroke="#4469B0" stroke-width="2" stroke-miterlimit="10"/>
<path d="M19.4687 11.5659H22.1197V7.58337H19.0703C14.7489 7.58337 14.8408 11.0757 14.8408 11.5965V14.2158H12.8334V18.1983H14.8408C14.8408 22.5637 14.8408 27.4805 14.8408 27.4805H18.8098C18.8098 27.4805 18.8098 22.4718 18.8098 18.1983H21.4608L22.1197 14.2158H18.8098V12.2245C18.8098 11.7956 19.0549 11.5659 19.4687 11.5659Z" fill="#FAFAFA"/>
</svg>
