<svg width="35" height="35" viewBox="0 0 35 35" fill="none" xmlns="http://www.w3.org/2000/svg">
<path d="M9.42131 1.00004H9.42426H25.5757C30.2234 1.00004 34 4.72531 34 9.22506V25.7749C34 30.2747 30.2234 33.9999 25.5757 33.9999H9.42426C4.77662 33.9999 1 30.2747 1 25.7749V9.22506C1 4.70736 4.76335 0.986298 9.42131 1.00004Z" stroke="url(#paint0_linear)" stroke-width="2" stroke-miterlimit="10"/>
<path fill-rule="evenodd" clip-rule="evenodd" d="M22.3731 7.18695H12.627C9.63882 7.18695 7.2023 9.68476 7.2023 12.7342V22.2504C7.2023 25.2999 9.65414 27.7977 12.627 27.7977H22.3731C25.3612 27.7977 27.7977 25.2999 27.7977 22.2504V12.7342C27.7977 9.68476 25.3612 7.18695 22.3731 7.18695ZM25.9589 22.1125C25.9589 24.2272 24.2732 25.9588 22.2045 25.9588H12.8109C10.7421 25.9588 9.05651 24.2272 9.05651 22.1125V12.8721C9.05651 10.7574 10.7421 9.02582 12.8109 9.02582H22.2045C24.2732 9.02582 25.9589 10.7574 25.9589 12.8721V22.1125ZM17.4999 12.1979C14.6343 12.1979 12.3204 14.5731 12.3204 17.4847C12.3204 20.4115 14.6343 22.7714 17.4999 22.7714C20.3655 22.7714 22.6794 20.3962 22.6794 17.4847C22.6794 14.5731 20.3655 12.1979 17.4999 12.1979ZM17.4999 20.9172C15.661 20.9172 14.1593 19.3848 14.1593 17.5C14.1593 15.6152 15.661 14.0828 17.4999 14.0828C19.3388 14.0828 20.8405 15.6152 20.8405 17.5C20.8405 19.3848 19.3388 20.9172 17.4999 20.9172ZM24.12 11.922C24.12 12.5821 23.5986 13.1173 22.9554 13.1173C22.3122 13.1173 21.7907 12.5821 21.7907 11.922C21.7907 11.2619 22.3122 10.7267 22.9554 10.7267C23.5986 10.7267 24.12 11.2619 24.12 11.922Z" fill="#FAFAFA"/>
<defs>
<linearGradient id="paint0_linear" x1="32.536" y1="32.5316" x2="2.46303" y2="2.45853" gradientUnits="userSpaceOnUse">
<stop stop-color="#FEC053"/>
<stop offset="0.3273" stop-color="#F2203E"/>
<stop offset="0.6485" stop-color="#B729A8"/>
<stop offset="1" stop-color="#5342D6"/>
</linearGradient>
</defs>
</svg>
