<svg width="32" height="32" viewBox="0 0 32 32" fill="none" xmlns="http://www.w3.org/2000/svg">
<g clip-path="url(#clip0_150_453)">
<rect x="1" y="1" width="30" height="30" rx="8" stroke="#2AA4EF" stroke-width="2"/>
<rect x="1" y="1" width="30" height="30" rx="8" stroke="url(#paint0_linear_150_453)" stroke-width="2"/>
<g clip-path="url(#clip1_150_453)">
<path d="M12.2726 7.06294C11.315 7.10812 10.661 7.26094 10.0894 7.48558C9.49769 7.71616 8.99621 8.02558 8.49725 8.52634C7.99829 9.0271 7.69103 9.52894 7.46207 10.1215C7.24049 10.6944 7.09037 11.3489 7.04807 12.3071C7.00577 13.2652 6.99641 13.5732 7.00109 16.0172C7.00577 18.4613 7.01657 18.7676 7.06301 19.7277C7.10873 20.6852 7.26101 21.3389 7.48565 21.9108C7.71659 22.5024 8.02565 23.0037 8.52659 23.5029C9.02753 24.002 9.52901 24.3086 10.123 24.5379C10.6954 24.7591 11.3501 24.9099 12.308 24.9519C13.266 24.9938 13.5743 25.0035 16.0177 24.9989C18.461 24.9942 18.7686 24.9834 19.7285 24.9378C20.6885 24.8923 21.3388 24.7389 21.9109 24.5154C22.5025 24.2839 23.0042 23.9754 23.503 23.4743C24.0017 22.9731 24.3088 22.4709 24.5376 21.878C24.7594 21.3056 24.91 20.651 24.9516 19.6937C24.9935 18.7331 25.0034 18.4263 24.9988 15.9827C24.9941 13.539 24.9831 13.2326 24.9376 12.2729C24.892 11.3131 24.7396 10.6613 24.5151 10.0891C24.2838 9.49744 23.9751 8.9965 23.4743 8.497C22.9736 7.9975 22.471 7.6906 21.8783 7.46236C21.3055 7.24078 20.6512 7.08976 19.6933 7.04836C18.7353 7.00696 18.427 6.99634 15.9827 7.00102C13.5385 7.0057 13.2325 7.01614 12.2726 7.06294ZM12.3777 23.3328C11.5002 23.2946 11.0237 23.1488 10.7062 23.0268C10.2857 22.8648 9.98621 22.6689 9.66977 22.3556C9.35333 22.0422 9.15893 21.7416 8.99477 21.322C8.87147 21.0045 8.72297 20.5286 8.68193 19.6511C8.63729 18.7026 8.62793 18.4179 8.62271 16.0151C8.61749 13.6122 8.62667 13.3278 8.66825 12.3791C8.70569 11.5023 8.85239 11.0253 8.97425 10.7079C9.13625 10.2869 9.33137 9.98794 9.64547 9.67168C9.95957 9.35542 10.2593 9.16066 10.6792 8.9965C10.9964 8.87266 11.4723 8.72542 12.3494 8.68366C13.2986 8.63866 13.583 8.62966 15.9854 8.62444C18.3879 8.61922 18.673 8.62822 19.6225 8.66998C20.4993 8.70814 20.9765 8.8534 21.2935 8.97598C21.7141 9.13798 22.0135 9.33256 22.3297 9.6472C22.646 9.96184 22.8409 10.2605 23.0051 10.6813C23.1291 10.9976 23.2763 11.4733 23.3177 12.351C23.3629 13.3001 23.3732 13.5847 23.3775 15.987C23.3818 18.3893 23.3734 18.6746 23.3318 19.623C23.2934 20.5005 23.148 20.9771 23.0258 21.295C22.8638 21.7153 22.6685 22.015 22.3542 22.3311C22.0399 22.6472 21.7406 22.8419 21.3205 23.0061C21.0037 23.1297 20.5272 23.2773 19.6508 23.3191C18.7016 23.3637 18.4172 23.3731 16.0139 23.3783C13.6105 23.3835 13.327 23.3738 12.3779 23.3328M19.7147 11.1898C19.715 11.4034 19.7787 11.6121 19.8977 11.7896C20.0167 11.967 20.1856 12.1051 20.3831 12.1865C20.5806 12.2679 20.7978 12.2889 21.0073 12.2469C21.2167 12.2048 21.409 12.1016 21.5597 11.9503C21.7105 11.7989 21.813 11.6063 21.8543 11.3967C21.8956 11.1871 21.8738 10.97 21.7917 10.7728C21.7095 10.5756 21.5708 10.4072 21.3929 10.2888C21.2151 10.1705 21.0061 10.1076 20.7925 10.108C20.5061 10.1086 20.2317 10.2229 20.0296 10.4257C19.8275 10.6286 19.7142 10.9034 19.7147 11.1898ZM11.3789 16.0089C11.3839 18.5613 13.4568 20.6258 16.0087 20.6209C18.5605 20.616 20.6264 18.5433 20.6215 15.9909C20.6167 13.4385 18.5432 11.3736 15.991 11.3786C13.4388 11.3837 11.374 13.4569 11.3789 16.0089ZM13 16.0057C12.9988 15.4123 13.1736 14.832 13.5023 14.338C13.8309 13.844 14.2987 13.4585 14.8465 13.2304C15.3942 13.0022 15.9973 12.9416 16.5795 13.0562C17.1616 13.1708 17.6968 13.4555 18.1172 13.8742C18.5376 14.2929 18.8243 14.8269 18.9413 15.4087C19.0582 15.9904 19 16.5937 18.774 17.1424C18.548 17.691 18.1644 18.1603 17.6717 18.4909C17.179 18.8215 16.5993 18.9986 16.006 18.9998C15.612 19.0007 15.2217 18.9239 14.8574 18.7738C14.4931 18.6238 14.1619 18.4035 13.8827 18.1254C13.6036 17.8474 13.382 17.5171 13.2305 17.1534C13.079 16.7897 13.0007 16.3997 13 16.0057Z" fill="white"/>
</g>
</g>
<defs>
<linearGradient id="paint0_linear_150_453" x1="29.7472" y1="29.7433" x2="2.25186" y2="2.24786" gradientUnits="userSpaceOnUse">
<stop stop-color="#FEC053"/>
<stop offset="0.3273" stop-color="#F2203E"/>
<stop offset="0.6485" stop-color="#B729A8"/>
<stop offset="1" stop-color="#5342D6"/>
</linearGradient>
<clipPath id="clip0_150_453">
<rect width="32" height="31.9999" fill="white"/>
</clipPath>
<clipPath id="clip1_150_453">
<rect width="18" height="18" fill="white" transform="translate(7 7)"/>
</clipPath>
</defs>
</svg>
