<svg width="32" height="32" viewBox="0 0 32 32" fill="none" xmlns="http://www.w3.org/2000/svg">
<g clip-path="url(#clip0_540_448)">
<path d="M30 16C30 12.6776 29.9974 10.342 29.8076 8.54102C29.6216 6.77593 29.2738 5.75593 28.7344 4.98535C28.266 4.31646 27.6835 3.73399 27.0146 3.26562C26.2441 2.72619 25.2241 2.37843 23.459 2.19238C21.658 2.00257 19.3224 2 16 2C12.6776 2 10.342 2.00257 8.54102 2.19238C6.77593 2.37843 5.75593 2.72619 4.98535 3.26562C4.31646 3.73399 3.73399 4.31646 3.26562 4.98535C2.72619 5.75593 2.37843 6.77593 2.19238 8.54102C2.00257 10.342 2 12.6776 2 16C2 19.3224 2.00257 21.658 2.19238 23.459C2.37843 25.2241 2.72619 26.2441 3.26562 27.0146C3.73399 27.6835 4.31646 28.266 4.98535 28.7344C5.75593 29.2738 6.77593 29.6216 8.54102 29.8076C10.342 29.9974 12.6776 30 16 30V32C9.6466 32 6.37045 32.0002 4.05859 30.5205L3.83789 30.3721C3.08548 29.8452 2.41865 29.2069 1.86035 28.4795L1.62793 28.1621C0.000298023 25.8376 0 22.5585 0 16C0 9.6466 -0.000193596 6.37045 1.47949 4.05859L1.62793 3.83789C2.15479 3.08548 2.79306 2.41865 3.52051 1.86035L3.83789 1.62793C6.16239 0.000298023 9.44154 0 16 0C22.5585 0 25.8376 0.000298023 28.1621 1.62793C29.022 2.23008 29.7699 2.97796 30.3721 3.83789C31.9997 6.16239 32 9.44154 32 16C32 22.5585 31.9997 25.8376 30.3721 28.1621C29.7699 29.022 29.022 29.7699 28.1621 30.3721C25.8376 31.9997 22.5585 32 16 32V30C19.3224 30 21.658 29.9974 23.459 29.8076C25.2241 29.6216 26.2441 29.2738 27.0146 28.7344C27.6835 28.266 28.266 27.6835 28.7344 27.0146C29.2738 26.2441 29.6216 25.2241 29.8076 23.459C29.9974 21.658 30 19.3224 30 16Z" fill="#0077B7"/>
<path d="M24.3138 22.5234C24.3138 22.7985 24.0907 23.0215 23.8155 23.0215H21.3401C21.0649 23.0215 20.8418 22.7985 20.8418 22.5234V17.9891C20.8418 17.3127 21.0403 15.0251 19.0734 15.0251C17.5478 15.0251 17.2383 16.5909 17.1762 17.2936V22.5234C17.1762 22.7985 16.9532 23.0215 16.6779 23.0215H14.2837C14.0086 23.0215 13.7854 22.7985 13.7854 22.5234V12.7693C13.7854 12.4943 14.0086 12.2712 14.2837 12.2712H16.6779C16.9531 12.2712 17.1762 12.4943 17.1762 12.7693V13.6127C17.7419 12.7641 18.5826 12.109 20.3726 12.109C24.3142 12.109 24.3139 15.7693 24.3138 17.8103V17.8449V22.5234Z" fill="white"/>
<path d="M12.258 22.4798C12.258 22.779 12.0154 23.0215 11.7161 23.0215H9.40921C9.1099 23.0215 8.86728 22.779 8.86728 22.4798V12.813C8.86728 12.5138 9.1099 12.2712 9.40921 12.2712H11.7161C12.0154 12.2712 12.258 12.5138 12.258 12.813V22.4798Z" fill="white"/>
<path d="M10.5627 11.36C9.3523 11.36 8.37109 10.3792 8.37109 9.16926C8.37109 7.95936 9.3523 6.97852 10.5627 6.97852C11.773 6.97852 12.7542 7.95936 12.7542 9.16926C12.7542 10.3792 11.7731 11.36 10.5627 11.36Z" fill="white"/>
</g>
<defs>
<clipPath id="clip0_540_448">
<rect width="32" height="32" fill="white"/>
</clipPath>
</defs>
</svg>
