<svg width="32" height="32" viewBox="0 0 32 32" fill="none" xmlns="http://www.w3.org/2000/svg">
<g clip-path="url(#clip0_540_448)">
<rect x="1" y="1" width="30" height="30" rx="8" stroke="#0077B7" stroke-width="2"/>
<path d="M24.3138 22.5234C24.3138 22.7985 24.0907 23.0215 23.8155 23.0215H21.3401C21.0649 23.0215 20.8418 22.7985 20.8418 22.5234V17.9891C20.8418 17.3127 21.0403 15.0251 19.0734 15.0251C17.5478 15.0251 17.2383 16.5909 17.1762 17.2936V22.5234C17.1762 22.7985 16.9532 23.0215 16.6779 23.0215H14.2837C14.0086 23.0215 13.7854 22.7985 13.7854 22.5234V12.7693C13.7854 12.4943 14.0086 12.2712 14.2837 12.2712H16.6779C16.9531 12.2712 17.1762 12.4943 17.1762 12.7693V13.6127C17.7419 12.7641 18.5826 12.109 20.3726 12.109C24.3142 12.109 24.3139 15.7693 24.3138 17.8103V17.8449V22.5234Z" fill="white"/>
<path d="M12.258 22.4798C12.258 22.779 12.0154 23.0215 11.7161 23.0215H9.40921C9.1099 23.0215 8.86728 22.779 8.86728 22.4798V12.813C8.86728 12.5138 9.1099 12.2712 9.40921 12.2712H11.7161C12.0154 12.2712 12.258 12.5138 12.258 12.813V22.4798Z" fill="white"/>
<path d="M10.5627 11.36C9.3523 11.36 8.37109 10.3792 8.37109 9.16926C8.37109 7.95936 9.3523 6.97852 10.5627 6.97852C11.773 6.97852 12.7542 7.95936 12.7542 9.16926C12.7542 10.3792 11.7731 11.36 10.5627 11.36Z" fill="white"/>
</g>
<defs>
<clipPath id="clip0_540_448">
<rect width="32" height="32" fill="white"/>
</clipPath>
</defs>
</svg>
