<svg width="50" height="21" viewBox="0 0 50 21" fill="none" xmlns="http://www.w3.org/2000/svg">
<path fill-rule="evenodd" clip-rule="evenodd" d="M41.8394 15.321C45.7941 15.321 48.9999 12.1151 48.9999 8.16049C48.9999 4.20586 45.7941 1 41.8394 1C37.8848 1 34.679 4.20586 34.679 8.16049C34.679 12.1151 37.8848 15.321 41.8394 15.321ZM41.8395 14.2278C45.1904 14.2278 47.9068 11.5114 47.9068 8.16053C47.9068 4.80968 45.1904 2.09327 41.8395 2.09327C38.4887 2.09327 35.7723 4.80968 35.7723 8.16053C35.7723 11.5114 38.4887 14.2278 41.8395 14.2278Z" fill="#E9E9E9"/>
<path d="M48.6499 8.16049C48.6499 11.9218 45.6008 14.971 41.8394 14.971V15.671C45.9874 15.671 49.3499 12.3084 49.3499 8.16049H48.6499ZM41.8394 1.35C45.6008 1.35 48.6499 4.39916 48.6499 8.16049H49.3499C49.3499 4.01256 45.9874 0.65 41.8394 0.65V1.35ZM35.029 8.16049C35.029 4.39916 38.0781 1.35 41.8394 1.35V0.65C37.6915 0.65 34.329 4.01256 34.329 8.16049H35.029ZM41.8394 14.971C38.0781 14.971 35.029 11.9218 35.029 8.16049H34.329C34.329 12.3084 37.6915 15.671 41.8394 15.671V14.971ZM47.5568 8.16053C47.5568 11.3181 44.9971 13.8778 41.8395 13.8778V14.5778C45.3837 14.5778 48.2568 11.7047 48.2568 8.16053H47.5568ZM41.8395 2.44327C44.9971 2.44327 47.5568 5.00297 47.5568 8.16053H48.2568C48.2568 4.61638 45.3837 1.74327 41.8395 1.74327V2.44327ZM36.1223 8.16053C36.1223 5.00297 38.682 2.44327 41.8395 2.44327V1.74327C38.2954 1.74327 35.4223 4.61638 35.4223 8.16053H36.1223ZM41.8395 13.8778C38.682 13.8778 36.1223 11.3181 36.1223 8.16053H35.4223C35.4223 11.7047 38.2954 14.5778 41.8395 14.5778V13.8778Z" fill="white"/>
<path fill-rule="evenodd" clip-rule="evenodd" d="M8.16049 15.321C12.1151 15.321 15.321 12.1151 15.321 8.16049C15.321 7.22737 15.1425 6.33594 14.8178 5.51847L13.7973 5.91149C14.075 6.60698 14.2278 7.36592 14.2278 8.16053C14.2278 11.5114 11.5114 14.2278 8.16053 14.2278C6.70635 14.2278 5.37166 13.7162 4.32661 12.8632L12.71 4.14622C12.7124 4.14891 12.7148 4.15161 12.7171 4.1543L13.4685 3.35439C12.1583 1.90832 10.2655 1 8.16049 1C4.20586 1 1 4.20586 1 8.16049C1 12.1151 4.20586 15.321 8.16049 15.321ZM8.16053 2.09327C9.58028 2.09327 10.8861 2.58092 11.9197 3.39786L3.54818 12.1025C2.64109 11.0422 2.09327 9.66533 2.09327 8.16053C2.09327 4.80968 4.80968 2.09327 8.16053 2.09327Z" fill="#E9E9E9"/>
<path d="M14.8178 5.51847L15.1431 5.38927L15.0152 5.06738L14.692 5.19186L14.8178 5.51847ZM13.7973 5.91149L13.6715 5.58487L13.3408 5.71222L13.4722 6.04129L13.7973 5.91149ZM4.32661 12.8632L4.07435 12.6206L3.81115 12.8942L4.1053 13.1343L4.32661 12.8632ZM12.71 4.14622L12.9724 3.91455L12.721 3.62989L12.4578 3.90361L12.71 4.14622ZM12.7171 4.1543L12.4544 4.38552L12.7087 4.67451L12.9723 4.39392L12.7171 4.1543ZM13.4685 3.35439L13.7236 3.59402L13.9447 3.35867L13.7279 3.1194L13.4685 3.35439ZM11.9197 3.39786L12.172 3.64048L12.4394 3.36246L12.1368 3.12328L11.9197 3.39786ZM3.54818 12.1025L3.28222 12.33L3.53301 12.6232L3.80045 12.3451L3.54818 12.1025ZM14.971 8.16049C14.971 11.9218 11.9218 14.971 8.16049 14.971V15.671C12.3084 15.671 15.671 12.3084 15.671 8.16049H14.971ZM14.4925 5.64768C14.8012 6.4247 14.971 7.27234 14.971 8.16049H15.671C15.671 7.1824 15.4838 6.24718 15.1431 5.38927L14.4925 5.64768ZM13.9231 6.2381L14.9436 5.84509L14.692 5.19186L13.6715 5.58487L13.9231 6.2381ZM13.4722 6.04129C13.7338 6.69618 13.8778 7.41111 13.8778 8.16053H14.5778C14.5778 7.32072 14.4163 6.51778 14.1223 5.78168L13.4722 6.04129ZM13.8778 8.16053C13.8778 11.3181 11.3181 13.8778 8.16053 13.8778V14.5778C11.7047 14.5778 14.5778 11.7047 14.5778 8.16053H13.8778ZM8.16053 13.8778C6.78991 13.8778 5.53279 13.3959 4.54793 12.592L4.1053 13.1343C5.21053 14.0365 6.62279 14.5778 8.16053 14.5778V13.8778ZM4.57888 13.1058L12.9623 4.38884L12.4578 3.90361L4.07435 12.6206L4.57888 13.1058ZM12.4477 4.37789C12.4499 4.38041 12.4521 4.38295 12.4544 4.38552L12.9799 3.92309C12.9774 3.92026 12.9749 3.91741 12.9724 3.91455L12.4477 4.37789ZM13.2134 3.11477L12.462 3.91468L12.9723 4.39392L13.7236 3.59402L13.2134 3.11477ZM8.16049 1.35C10.1626 1.35 11.9625 2.21346 13.2091 3.58939L13.7279 3.1194C12.3542 1.60318 10.3684 0.65 8.16049 0.65V1.35ZM1.35 8.16049C1.35 4.39916 4.39916 1.35 8.16049 1.35V0.65C4.01256 0.65 0.65 4.01256 0.65 8.16049H1.35ZM8.16049 14.971C4.39916 14.971 1.35 11.9218 1.35 8.16049H0.65C0.65 12.3084 4.01256 15.671 8.16049 15.671V14.971ZM12.1368 3.12328C11.0436 2.25924 9.66183 1.74327 8.16053 1.74327V2.44327C9.49874 2.44327 10.7287 2.9026 11.7027 3.67245L12.1368 3.12328ZM3.80045 12.3451L12.172 3.64048L11.6675 3.15525L3.29591 11.8599L3.80045 12.3451ZM1.74327 8.16053C1.74327 9.75186 2.32295 11.2087 3.28222 12.33L3.81414 11.875C2.95924 10.8757 2.44327 9.57879 2.44327 8.16053H1.74327ZM8.16053 1.74327C4.61638 1.74327 1.74327 4.61638 1.74327 8.16053H2.44327C2.44327 5.00297 5.00297 2.44327 8.16053 2.44327V1.74327Z" fill="white"/>
<path d="M22.1897 20.1821L20.9578 20.0275L25.0387 12.9888L16.4919 1.23204L17.8009 1L25.8086 11.7513L32.2764 1L33.5084 1.23204L22.1897 20.1821Z" fill="#E9E9E9" stroke="white" stroke-width="0.7"/>
</svg>
