<svg width="94" height="96" viewBox="0 0 94 96" fill="none" xmlns="http://www.w3.org/2000/svg">
<path fill-rule="evenodd" clip-rule="evenodd" d="M83.5818 46.1685L93.2397 44.5061L91.8505 36.4348L86.4558 37.3633C85.8303 37.471 85.3462 37.4644 85.0034 37.3434C84.6713 37.2301 84.4657 36.9435 84.3866 36.4836C84.3597 36.3272 84.3473 36.1731 84.3496 36.0212L81.9213 36.4391C81.9327 36.5603 81.9574 36.7313 81.9954 36.952C82.1252 37.7062 82.3402 38.3227 82.6404 38.8014C82.9499 39.2785 83.3407 39.6232 83.8129 39.8355C84.2958 40.0554 84.8189 40.1785 85.3822 40.2046C85.9455 40.2308 86.595 40.1806 87.3309 40.0539L89.566 39.6692L90.0054 42.2216L83.1068 43.4091L83.5818 46.1685ZM75.6492 24.4391L85.9445 22.5954L87.5337 25.2826L80.9587 33.4165L79.3908 30.7654L80.2686 29.7746L78.5083 26.7981L77.2171 27.0901L75.6492 24.4391ZM81.1575 26.2723L82.0056 27.7063L83.9832 25.5771L81.1575 26.2723ZM73.2693 12.2019L68.6224 17.8966L70.7917 19.6668L75.4387 13.9722L77.7707 15.8752L79.3197 13.977L72.4862 8.40072L70.9372 10.2989L73.2693 12.2019ZM54.3072 11.0108L57.5029 1.74642L60.1498 2.65946L58.3831 7.78131L63.2335 3.72315L66.2113 4.75032L63.0157 14.0147L60.3687 13.1016L62.1355 7.97976L57.285 12.0379L54.3072 11.0108ZM38.4599 6.00949L35.9028 11.0988L39.2497 10.8025L40.9492 7.13838L41.7441 7.06802L42.0527 10.5544L44.8418 10.3075L44.5332 6.82111L45.3281 6.75075L47.6448 10.0593L50.9918 9.76306L47.5803 5.20211L50.1415 -1.88388e-06L46.7946 0.296282L45.0656 4.10358L44.2986 4.17147L43.9776 0.545655L41.1885 0.792559L41.5095 4.41838L40.7425 4.48628L38.3716 1.04193L35.0247 1.33822L38.4599 6.00949ZM23.6256 20.2308L21.2487 16.1878L22.697 15.3363C22.5827 14.3317 22.0833 13.077 21.1987 11.5725L19.503 8.68802L26.2615 4.71465L29.9865 11.0508L31.3745 10.2348L33.7514 14.2779L31.3376 15.697L30.2024 13.7659L24.9041 16.8808L26.0394 18.8118L23.6256 20.2308ZM25.1831 13.8747L27.5728 12.4698L25.2313 8.48713L23.3003 9.62238L23.6125 10.1534C24.4639 11.6017 24.9875 12.8421 25.1831 13.8747ZM6.33823 22.2591L14.1223 28.213L16.036 25.711L13.7143 19.8283L18.0178 23.12L19.7189 20.896L11.9349 14.9421L10.0211 17.4441L12.3428 23.3267L8.03933 20.0351L6.33823 22.2591ZM6.48549 42.4428L11.0098 43.6783L11.7475 40.9772L9.5866 40.3871L11.2057 34.4582L13.3666 35.0483L14.1043 32.3473L9.57993 31.1117L9.15578 32.6648L2.06543 30.7285L1.15131e-05 38.2915L3.22781 39.173C4.91149 39.6328 6.14491 40.1825 6.92808 40.8221L6.48549 42.4428ZM8.41813 35.3659L7.68786 38.04C6.82692 37.4372 5.58611 36.9145 3.96546 36.4719L3.37122 36.3097L3.96134 34.1488L8.41813 35.3659ZM80.0518 57.3547L84.2888 59.3659L83.5683 60.8836C84.227 61.6508 85.3447 62.4086 86.9214 63.157L89.9441 64.5918L86.5822 71.6744L79.9423 68.5226L79.2519 69.9771L75.015 67.966L76.2157 65.4365L78.2393 66.397L80.8748 60.8448L78.8512 59.8842L80.0518 57.3547ZM82.3316 63.4889L81.143 65.9931L85.3166 67.9743L86.2772 65.9507L85.7207 65.6865C84.203 64.9661 83.0733 64.2336 82.3316 63.4889ZM80.8881 79.2616L74.271 72.0328L71.9475 74.1598L73.1997 80.3587L69.5414 76.3623L67.476 78.2529L74.0931 85.4816L76.4166 83.3547L75.1644 77.1557L78.8227 81.1522L80.8881 79.2616ZM59.0827 87.7352C58.6715 87.6918 58.302 87.5407 57.9739 87.2818C57.6372 87.0264 57.3857 86.6957 57.2194 86.2898C56.8512 85.3917 56.9219 84.5305 57.4315 83.7064C57.9359 82.8945 58.7494 82.2584 59.8721 81.7983C61.5648 81.1045 63.175 81.317 64.7028 82.4359L62.8377 84.4562C62.1911 84.0353 61.5353 83.9611 60.8703 84.2336C60.5249 84.3752 60.2517 84.5578 60.0508 84.7814C59.8499 85.0049 59.7955 85.2289 59.8875 85.4535C60.0468 85.8421 60.5107 85.8789 61.2793 85.5639L62.0955 85.2294L62.8653 87.1078L62.386 87.3042C61.4965 87.6688 61.1367 88.0583 61.3066 88.4729C61.4836 88.9047 61.9305 88.9737 62.6473 88.6799C63.2431 88.4357 63.6645 87.9503 63.9114 87.2237L66.4286 87.9017C66.2265 88.5898 65.8921 89.2261 65.4257 89.8107C64.9541 90.4074 64.3426 90.8598 63.5913 91.1677C62.4945 91.6173 61.5262 91.6913 60.6865 91.3899C59.8504 91.0972 59.2783 90.5751 58.9704 89.8238C58.6341 89.0033 58.6716 88.3071 59.0827 87.7352ZM48.9948 94.3092L52.2867 84.3817L49.2088 84.4948L48.8493 85.7688L45.3937 85.8957L44.9417 84.6515L41.8638 84.7645L45.8749 94.4238L48.9948 94.3092ZM46.3826 88.4091L48.0474 88.348L47.3102 91.1629L46.3826 88.4091ZM28.5069 92.8767C29.01 92.6136 29.6019 92.5975 30.2825 92.8283C30.9631 93.0591 31.4231 93.4319 31.6624 93.9467C31.8988 94.4703 31.9255 95.0017 31.7427 95.5409L30.6422 95.1677C30.7112 94.9645 30.6843 94.7385 30.5616 94.49C30.439 94.2414 30.2185 94.0632 29.9003 93.9553C29.5821 93.8474 29.2987 93.8548 29.0502 93.9774C28.8016 94.1001 28.6429 94.2631 28.5739 94.4664L27.4735 94.0932C27.6563 93.554 28.0008 93.1485 28.5069 92.8767ZM38.1558 83.9526L35.0087 93.2335L32.357 92.3343L34.0969 87.2033L29.2678 91.2868L26.2846 90.2752L29.4318 80.9943L32.0835 81.8935L30.3435 87.0245L35.1727 82.941L38.1558 83.9526ZM19.4561 86.2828L25.6984 78.7281L23.54 76.9446L21.373 79.5671L18.718 77.3734L20.885 74.7509L18.7266 72.9673L12.4842 80.522L14.6427 82.3055L17.0237 79.424L19.6786 81.6177L17.2976 84.4993L19.4561 86.2828ZM15.9666 69.3367L7.55758 74.3695L3.81892 68.1228L5.94519 66.8502L8.2459 70.6943L9.279 70.076L7.02862 66.316L9.09482 65.0794L11.3452 68.8394L12.4023 68.2067L10.1016 64.3626L12.2279 63.09L15.9666 69.3367ZM1.07575 60.95L10.6371 58.8005L10.023 56.0687L6.99063 56.7504L6.6375 55.1796C6.43074 54.2599 5.96124 53.5332 5.22901 52.9994C4.48767 52.4678 3.61617 52.3145 2.6145 52.5397C1.61283 52.7649 0.895328 53.2754 0.461986 54.0711C0.0195344 54.869 -0.0983093 55.7277 0.108455 56.6474L1.07575 60.95ZM4.36766 55.9338L4.66859 57.2724L2.78364 57.6962L2.48271 56.3576C2.42538 56.1026 2.46936 55.8727 2.61463 55.6679C2.7508 55.4651 2.95547 55.3329 3.22865 55.2715C3.50183 55.2101 3.74791 55.2409 3.96688 55.3639C4.17675 55.4889 4.31034 55.6789 4.36766 55.9338Z" fill="#FAFAFA"/>
</svg>
