<svg width="64" height="64" viewBox="0 0 64 64" fill="none" xmlns="http://www.w3.org/2000/svg">
<g clip-path="url(#clip0)">
<g filter="url(#filter0_ddii)">
<path fill-rule="evenodd" clip-rule="evenodd" d="M40.9814 52.3274C39.4221 52.8413 33.8568 53.5409 29.0174 52.5415C27.3371 57.0386 24.2229 57.1337 22.5649 56.753C21.2655 56.3723 18.223 55.354 16.4485 54.3261C14.6741 53.2982 14.0064 51.3756 13.8944 50.5428C13.872 50.1145 13.8541 49.1295 13.9616 48.6155C14.0736 48.0802 14.419 47.0491 14.7644 46.0181C14.8335 45.8119 14.9026 45.6056 14.9698 45.4033C13.1954 44.0328 11.5419 41.168 10.937 39.907C10.2201 40.0021 8.36946 40.1354 6.70256 39.907C5.03567 39.6785 4.30528 37.9083 4.14845 37.0517C4.03643 35.1244 3.87959 30.9271 4.14845 29.5566C4.48452 27.8435 6.16485 26.9869 6.63535 26.9155C7.10584 26.8441 8.78618 26.7727 9.3911 26.7727C11.3373 20.5719 13.4007 18.6817 14.6889 17.5015C15.0913 17.1329 15.418 16.8335 15.642 16.4938C13.4911 13.353 13.4239 9.28421 13.4239 7C21.3182 7.65329 22.488 9.42763 23.1652 10.4547C23.3759 10.7743 23.5389 11.0215 23.842 11.1401C29.9181 8.79881 37.1727 9.21282 40.0404 9.7125C45.4847 10.6643 56.9648 15.1803 59.3307 25.6306C61.6966 36.0809 57.2247 42.6432 54.693 44.6181C55.0067 45.3082 55.6609 46.9024 55.7684 47.7589C56.6825 51.8705 54.2673 53.9929 52.9454 54.5402C52.923 54.6354 51.9104 55.1826 48.0389 56.6103C43.1995 58.3948 40.7798 53.5409 40.9814 52.3274ZM19.9965 24.417C19.9965 26.2304 19.0335 27.7005 17.8457 27.7005C16.6578 27.7005 15.6948 26.2304 15.6948 24.417C15.6948 22.6035 16.6578 21.1334 17.8457 21.1334C19.0335 21.1334 19.9965 22.6035 19.9965 24.417ZM30.8186 17.7072C33.1935 17.1124 39.4085 16.7079 45.2695 19.8487C47.6892 20.9908 49.2351 17.279 47.2187 15.9227C46.9681 15.8188 46.6913 15.6985 46.3886 15.5667C43.3621 14.2501 37.7352 11.8021 29.6087 13.4244C27.4579 14.1382 27.794 17.9928 30.8186 17.7072Z" fill="#FAFAFA"/>
</g>
</g>
<defs>
<filter id="filter0_ddii" x="-5" y="-1" width="71" height="66" filterUnits="userSpaceOnUse" color-interpolation-filters="sRGB">
<feFlood flood-opacity="0" result="BackgroundImageFix"/>
<feColorMatrix in="SourceAlpha" type="matrix" values="0 0 0 0 0 0 0 0 0 0 0 0 0 0 0 0 0 0 127 0"/>
<feOffset dx="2" dy="4"/>
<feGaussianBlur stdDeviation="2"/>
<feColorMatrix type="matrix" values="0 0 0 0 0.167111 0 0 0 0 0.110972 0 0 0 0 0.391667 0 0 0 0.15 0"/>
<feBlend mode="normal" in2="BackgroundImageFix" result="effect1_dropShadow"/>
<feColorMatrix in="SourceAlpha" type="matrix" values="0 0 0 0 0 0 0 0 0 0 0 0 0 0 0 0 0 0 127 0"/>
<feOffset dx="-3" dy="-2"/>
<feGaussianBlur stdDeviation="3"/>
<feColorMatrix type="matrix" values="0 0 0 0 1 0 0 0 0 1 0 0 0 0 1 0 0 0 0.15 0"/>
<feBlend mode="normal" in2="effect1_dropShadow" result="effect2_dropShadow"/>
<feBlend mode="normal" in="SourceGraphic" in2="effect2_dropShadow" result="shape"/>
<feColorMatrix in="SourceAlpha" type="matrix" values="0 0 0 0 0 0 0 0 0 0 0 0 0 0 0 0 0 0 127 0" result="hardAlpha"/>
<feOffset dx="1" dy="4"/>
<feGaussianBlur stdDeviation="2"/>
<feComposite in2="hardAlpha" operator="arithmetic" k2="-1" k3="1"/>
<feColorMatrix type="matrix" values="0 0 0 0 1 0 0 0 0 1 0 0 0 0 1 0 0 0 1 0"/>
<feBlend mode="normal" in2="shape" result="effect3_innerShadow"/>
<feColorMatrix in="SourceAlpha" type="matrix" values="0 0 0 0 0 0 0 0 0 0 0 0 0 0 0 0 0 0 127 0" result="hardAlpha"/>
<feOffset dx="-0.5" dy="-2"/>
<feGaussianBlur stdDeviation="2"/>
<feComposite in2="hardAlpha" operator="arithmetic" k2="-1" k3="1"/>
<feColorMatrix type="matrix" values="0 0 0 0 0.110369 0 0 0 0 0.0774132 0 0 0 0 0.204167 0 0 0 0.15 0"/>
<feBlend mode="normal" in2="effect3_innerShadow" result="effect4_innerShadow"/>
</filter>
<clipPath id="clip0">
<rect width="64" height="64" fill="white"/>
</clipPath>
</defs>
</svg>
