<svg width="48" height="48" viewBox="0 0 48 48" fill="none" xmlns="http://www.w3.org/2000/svg">
<path d="M44.129 34.0645H32.5161V16.0924C32.7979 15.9476 33.072 15.792 33.3345 15.6178L36.1037 19.0792C34.8449 20.3404 34.0645 22.0808 34.0645 24C34.0645 27.8423 37.1899 30.9677 41.0323 30.9677C44.8746 30.9677 48 27.8423 48 24C48 20.1585 44.8746 17.0323 41.0323 17.0323C39.6658 17.0323 38.3938 17.4333 37.3169 18.1161L34.5414 14.647C35.9783 13.265 36.9321 11.3876 37.1226 9.29032H39.0054H39.7796L41.328 12.3871H47.7043L45.7688 8.51613L47.7043 4.64516H41.328L39.7796 7.74194H39.0054H37.1226C36.7293 3.408 33.0797 0 28.6452 0C26.5711 0 24.6705 0.747097 23.1917 1.98348C23.0253 0.864 22.0676 0 20.9032 0H11.6129C10.6049 0 9.75329 0.649548 9.43277 1.54839H3.87097C1.73652 1.54839 0 3.2849 0 5.41935V44.129C0 46.2635 1.73652 48 3.87097 48H28.6452C30.7796 48 32.5161 46.2635 32.5161 44.129V41.8065H44.129C46.2635 41.8065 48 40.0699 48 37.9355C48 35.801 46.2635 34.0645 44.129 34.0645ZM46.4516 24C46.4516 26.9876 44.0199 29.4194 41.0323 29.4194C38.0446 29.4194 35.6129 26.9876 35.6129 24C35.6129 21.0116 38.0446 18.5806 41.0323 18.5806C44.0199 18.5806 46.4516 21.0116 46.4516 24ZM42.2849 10.8387L41.5107 9.29032H43.3548H44.4248L45.199 10.8387H42.2849ZM42.2849 6.19355H45.199L44.4248 7.74194H43.3548H41.5107L42.2849 6.19355ZM9.43277 6.19355C9.75329 7.09239 10.6049 7.74194 11.6129 7.74194H20.1685C20.1453 7.99742 20.129 8.25445 20.129 8.51613C20.129 10.9959 21.2013 13.2248 22.8983 14.7825L21.7177 16.3316C20.143 15.3097 18.271 14.7097 16.2581 14.7097C10.7086 14.7097 6.19355 19.2248 6.19355 24.7742C6.19355 30.3236 10.7086 34.8387 16.2581 34.8387C21.8075 34.8387 26.3226 30.3236 26.3226 24.7742C26.3226 21.7928 25.0119 19.1179 22.9455 17.2738L24.1277 15.7223C25.2325 16.4175 26.5037 16.8689 27.871 16.9928V34.0645H23.8591L18.2594 36.1649C17.5254 36.4405 17.0323 37.152 17.0323 37.9355C17.0323 38.719 17.5254 39.4304 18.2594 39.7068L23.8591 41.8065H27.871V43.3548H4.64516V6.19355H9.43277ZM20.129 28.6452H18.5806V22.4516H20.129V28.6452ZM17.0323 28.6452H15.4839V24V20.9032H17.0323V28.6452ZM13.9355 28.6452H12.3871V25.5484H13.9355V28.6452ZM22.8225 30.1935C21.2594 32.0834 18.8973 33.2903 16.2581 33.2903C13.6188 33.2903 11.2575 32.0834 9.69368 30.1935H22.8225ZM23.8343 28.6452H21.6774V20.9032H18.5806V19.3548H13.9355V24H10.8387V28.6452H8.68181C8.08568 27.4823 7.74194 26.1685 7.74194 24.7742C7.74194 20.0787 11.5626 16.2581 16.2581 16.2581C20.9535 16.2581 24.7742 20.0787 24.7742 24.7742C24.7742 26.1685 24.4305 27.4823 23.8343 28.6452V28.6452ZM18.8036 38.2575C18.6705 38.2072 18.5806 38.0779 18.5806 37.9355C18.5806 37.793 18.6705 37.6637 18.8036 37.6142L23.2258 35.9559V39.9151L18.8036 38.2575ZM24.7742 40.2581V38.7097H40.2581V40.2581H24.7742ZM40.2581 37.1613H24.7742V35.6129H40.2581V37.1613ZM30.9677 34.0645H29.4194V16.9928C29.952 16.9448 30.4684 16.8441 30.9677 16.7017V34.0645ZM28.6452 1.54839C32.2258 1.54839 35.1809 4.26348 35.5672 7.74194H32.4379C32.0779 5.97755 30.5141 4.64516 28.6452 4.64516C26.5107 4.64516 24.7742 6.38168 24.7742 8.51613C24.7742 10.6506 26.5107 12.3871 28.6452 12.3871C30.5141 12.3871 32.0779 11.0547 32.4379 9.29032H35.5672C35.1809 12.7688 32.2258 15.4839 28.6452 15.4839C24.8028 15.4839 21.6774 12.3577 21.6774 8.51613C21.6774 4.67458 24.8028 1.54839 28.6452 1.54839ZM30.8253 9.29032C30.5048 10.1892 29.6532 10.8387 28.6452 10.8387C27.3646 10.8387 26.3226 9.79664 26.3226 8.51613C26.3226 7.23561 27.3646 6.19355 28.6452 6.19355C29.6532 6.19355 30.5048 6.8431 30.8253 7.74194H27.871V9.29032H30.8253ZM10.8387 2.32258C10.8387 1.896 11.1855 1.54839 11.6129 1.54839H20.9032C21.3306 1.54839 21.6774 1.896 21.6774 2.32258V3.63484C21.137 4.40361 20.7236 5.26452 20.4604 6.18968L11.6129 6.19355C11.1855 6.19355 10.8387 5.84594 10.8387 5.41935V2.32258ZM30.9677 44.129C30.9677 45.4095 29.9257 46.4516 28.6452 46.4516H3.87097C2.59045 46.4516 1.54839 45.4095 1.54839 44.129V5.41935C1.54839 4.13884 2.59045 3.09677 3.87097 3.09677H9.29032V4.64516H4.64516C3.79123 4.64516 3.09677 5.33961 3.09677 6.19355V43.3548C3.09677 44.2088 3.79123 44.9032 4.64516 44.9032H27.871C28.7249 44.9032 29.4194 44.2088 29.4194 43.3548V41.8065H30.9677V44.129ZM44.129 40.2581H41.8065V35.6129H44.129C45.4095 35.6129 46.4516 36.655 46.4516 37.9355C46.4516 39.216 45.4095 40.2581 44.129 40.2581Z" fill="#010101"/>
<path d="M37.1614 25.8442C37.1614 26.9613 38.0711 27.871 39.1882 27.871C39.501 27.871 39.8153 27.7967 40.0948 27.6573L43.7839 25.8132C44.4737 25.4671 44.9033 24.7719 44.9033 24C44.9033 23.2274 44.4737 22.5322 43.7831 22.1869L40.0948 20.3427C39.8153 20.2034 39.501 20.1291 39.1882 20.1291C38.0711 20.1291 37.1614 21.038 37.1614 22.1559V25.8442ZM38.7098 22.1559C38.7098 21.8919 38.9242 21.6774 39.1882 21.6774C39.2626 21.6774 39.3361 21.6945 39.4019 21.7278L43.0902 23.5719C43.2535 23.654 43.355 23.8173 43.355 24C43.355 24.182 43.2535 24.3461 43.0902 24.4282L39.4019 26.2723C39.1031 26.4256 38.7098 26.1817 38.7098 25.8442V22.1559Z" fill="#010101"/>
<path d="M6.19348 37.1614H15.4838V38.7098H6.19348V37.1614Z" fill="#010101"/>
<path d="M6.19348 40.2581H15.4838V41.8065H6.19348V40.2581Z" fill="#010101"/>
<path d="M6.19348 9.29022H7.74187V10.8386H6.19348V9.29022Z" fill="#010101"/>
<path d="M9.29022 9.29022H18.5805V10.8386H9.29022V9.29022Z" fill="#010101"/>
<path d="M6.19348 12.3872H7.74187V13.9356H6.19348V12.3872Z" fill="#010101"/>
<path d="M9.29022 12.3872H18.5805V13.9356H9.29022V12.3872Z" fill="#010101"/>
</svg>
