<svg width="137" height="142" viewBox="0 0 137 142" fill="none" xmlns="http://www.w3.org/2000/svg">
<path d="M20.5739 66.2402L7.07326 62.5346L7.96262 59.2944L17.0945 57.1552L10.3342 50.654L11.2236 47.4138L24.7243 51.1195L23.9461 53.9546L15.2864 51.5777L20.7662 57.0016L20.168 59.181L12.7117 61.0335L21.3521 63.4051L20.5739 66.2402Z" fill="#E9E9E9"/>
<path d="M26.4161 45.1745L18.4288 32.3677L20.2556 29.8632L34.9255 33.5081L33.0162 36.1258L30.6276 35.4975L26.9857 40.4905L28.3254 42.5568L26.4161 45.1745ZM25.3745 38.1517L27.9084 34.6777L22.0907 33.083L22.0671 33.1153L25.3745 38.1517Z" fill="#E9E9E9"/>
<path d="M36.8125 32.4928L28.778 21.0277L31.1857 19.3405L34.3995 23.9265L36.0537 22.7672L36.0993 15.8971L39.0475 13.8311L38.9634 22.3889L47.2785 25.1584L44.2648 27.2704L37.6934 25.0373L36.0064 26.2195L39.2202 30.8055L36.8125 32.4928Z" fill="#E9E9E9"/>
<path d="M50.1499 24.6128L45.2706 11.4905L48.0263 10.4659L52.9056 23.5881L50.1499 24.6128Z" fill="#E9E9E9"/>
<path d="M57.9779 21.9966L56.5701 8.06754L59.8534 7.73569L66.8557 16.3552L65.9224 7.12227L68.8475 6.82662L70.2554 20.7557L66.9522 21.0895L59.9719 12.4879L60.903 21.7009L57.9779 21.9966Z" fill="#E9E9E9"/>
<path d="M82.3135 15.6077L87.8846 16.9042L87.1412 20.0988C86.4092 21.4206 85.3682 22.3352 84.0181 22.8424C82.668 23.3496 81.2073 23.4203 79.636 23.0547C77.662 22.5953 76.1649 21.5283 75.1446 19.8534C74.1373 18.1816 73.8603 16.3717 74.3136 14.4238C74.7669 12.4758 75.821 10.9757 77.4759 9.9234C79.1438 8.87411 80.9517 8.57612 82.8997 9.02941C85.6398 9.66705 87.3828 11.2363 88.1288 13.7371L85.1727 14.5277C84.6836 13.0997 83.6988 12.2134 82.2184 11.8689C81.0366 11.5939 79.969 11.7698 79.0154 12.3967C78.0619 13.0235 77.4491 13.9214 77.1771 15.0901C76.89 16.3238 77.0409 17.4404 77.6297 18.4399C78.2215 19.4263 79.1213 20.0601 80.329 20.3411C82.0172 20.734 83.328 20.3956 84.2614 19.326L84.4881 18.352L81.8194 17.731L82.3135 15.6077Z" fill="#E9E9E9"/>
<path d="M95.2628 30.433L103.902 19.4165L106.216 21.2308L97.5762 32.2473L95.2628 30.433Z" fill="#E9E9E9"/>
<path d="M101.586 35.7459L112.727 27.2677L116.025 31.5688C116.792 32.5768 117.282 33.6614 117.496 34.8226C117.72 35.9757 117.604 37.1445 117.148 38.3291C116.693 39.5136 115.887 40.546 114.73 41.4261C113.86 42.0882 112.947 42.5399 111.991 42.7813C111.046 43.0145 110.143 43.0489 109.28 42.8842C108.436 42.7221 107.629 42.3984 106.857 41.9131C106.104 41.4304 105.441 40.8124 104.868 40.059L101.586 35.7459ZM105.658 36.3414L107.087 38.2194C107.838 39.2062 108.728 39.8027 109.756 40.0088C110.803 40.2175 111.867 39.9101 112.95 39.0865C114.032 38.2629 114.607 37.3228 114.674 36.2663C114.749 35.2204 114.411 34.2041 113.661 33.2173L112.215 31.3514L105.658 36.3414Z" fill="#E9E9E9"/>
<path d="M111.333 49.2785L124.504 44.5328L127.853 53.8278L125.388 54.716L123.036 48.1868L120.138 49.2309L122.443 55.6283L120.053 56.4893L117.748 50.0919L114.794 51.1563L117.147 57.6854L114.682 58.5736L111.333 49.2785Z" fill="#E9E9E9"/>
<path d="M115.902 63.9016L129.897 69.555L129.894 72.655L115.888 78.3416L115.891 75.1016L118.192 74.2038L118.198 68.0238L115.899 67.1416L115.902 63.9016ZM120.877 68.9664L120.873 73.2664L126.515 71.1318L126.515 71.0918L120.877 68.9664Z" fill="#E9E9E9"/>
<path d="M111.972 86.7987C112.323 85.4985 112.934 84.4619 113.805 83.6888C114.686 82.9321 115.719 82.534 116.903 82.4945L116.936 85.4448C116.363 85.4698 115.861 85.6659 115.431 86.0331C115.009 86.4167 114.717 86.911 114.554 87.516C114.384 88.1468 114.388 88.6935 114.567 89.1561C114.746 89.6187 115.061 89.9107 115.512 90.0323C115.679 90.0774 115.834 90.0916 115.977 90.0749C116.119 90.0581 116.26 89.9992 116.397 89.8983C116.548 89.8008 116.669 89.7093 116.761 89.6236C116.853 89.538 116.969 89.3898 117.109 89.1789C117.249 88.968 117.349 88.8017 117.41 88.6799C117.479 88.5745 117.595 88.3777 117.755 88.0896C117.912 87.8143 118.019 87.6222 118.076 87.5133C118.317 87.0811 118.541 86.7133 118.747 86.4099C118.953 86.1064 119.221 85.7782 119.551 85.4253C119.878 85.0853 120.204 84.8213 120.531 84.6333C120.871 84.4487 121.271 84.3219 121.732 84.2528C122.202 84.2001 122.694 84.2432 123.209 84.3821C124.381 84.6981 125.226 85.4301 125.745 86.5783C126.276 87.7298 126.356 88.9943 125.985 90.3718C125.651 91.6076 125.078 92.5576 124.263 93.2217C123.462 93.8893 122.475 94.2446 121.303 94.2876L121.248 91.4969C122.411 91.4376 123.141 90.8544 123.44 89.7473C123.606 89.1294 123.586 88.5921 123.377 88.1354C123.166 87.6916 122.847 87.4124 122.422 87.2978C122.294 87.2631 122.174 87.2447 122.064 87.2427C121.951 87.2535 121.841 87.279 121.733 87.319C121.622 87.372 121.519 87.4202 121.425 87.4637C121.34 87.5236 121.241 87.6075 121.129 87.7154C121.027 87.8396 120.944 87.9416 120.881 88.0213C120.818 88.101 120.728 88.2287 120.612 88.4044C120.508 88.5836 120.425 88.7131 120.362 88.7928C120.308 88.8888 120.22 89.0376 120.097 89.2391C119.983 89.4569 119.901 89.6074 119.851 89.6905C119.627 90.0584 119.475 90.3143 119.395 90.4584C119.315 90.6024 119.151 90.8484 118.906 91.1964C118.66 91.5444 118.455 91.7929 118.29 91.9419C118.139 92.0943 117.922 92.2844 117.639 92.512C117.354 92.7525 117.077 92.9059 116.811 92.9721C116.554 93.0547 116.244 93.1023 115.882 93.115C115.529 93.1441 115.165 93.1082 114.792 93.0075C113.543 92.6707 112.665 91.9089 112.156 90.7222C111.644 89.5483 111.583 88.2405 111.972 86.7987Z" fill="#E9E9E9"/>
<path d="M102.405 104.592L110.893 112.232L113.93 108.857L115.848 110.583L107.807 119.518L105.889 117.792L108.926 114.417L100.438 106.777L102.405 104.592Z" fill="#E9E9E9"/>
<path d="M95.9678 111.096L98.1053 126.037L95.4228 127.591L83.4729 118.334L86.2765 116.71L88.2082 118.249L93.5557 115.152L93.1642 112.72L95.9678 111.096ZM94.0857 117.942L90.3649 120.097L95.0438 123.905L95.0784 123.885L94.0857 117.942Z" fill="#E9E9E9"/>
<path d="M81.337 118.501L84.0593 132.234L80.8223 132.875L73.0343 124.959L74.8388 134.062L71.9549 134.633L69.2326 120.9L72.4892 120.255L80.2538 128.156L78.4531 119.073L81.337 118.501Z" fill="#E9E9E9"/>
<path d="M57.7221 127.169L52.0532 126.406L52.4903 123.156C53.0936 121.77 54.0432 120.761 55.3392 120.128C56.6351 119.495 58.0825 119.286 59.6814 119.501C61.69 119.771 63.2816 120.692 64.4561 122.262C65.6174 123.831 66.0647 125.607 65.7982 127.589C65.5317 129.571 64.6246 131.164 63.0769 132.369C61.516 133.571 59.7445 134.039 57.7623 133.773C54.9741 133.398 53.0901 132.001 52.1104 129.582L54.9782 128.515C55.6005 129.89 56.6649 130.679 58.1713 130.882C59.3738 131.043 60.42 130.767 61.3098 130.053C62.1996 129.338 62.7245 128.386 62.8844 127.197C63.0532 125.942 62.7972 124.844 62.1163 123.905C61.4336 122.979 60.4778 122.434 59.2488 122.268C57.5309 122.037 56.2581 122.499 55.4304 123.652L55.2971 124.643L58.0127 125.008L57.7221 127.169Z" fill="#E9E9E9"/>
<path d="M50.9905 117.32L45.6817 130.275L42.9613 129.16L48.27 116.205L50.9905 117.32Z" fill="#E9E9E9"/>
<path d="M32.0673 114.477C31.4847 113.214 31.6162 112 32.4619 110.834C33.1901 109.83 34.1218 109.296 35.2569 109.23C36.392 109.164 37.5207 109.538 38.6431 110.352L43.4669 113.853L35.2447 125.184L30.6961 121.883C29.563 121.061 28.8625 120.108 28.5947 119.024C28.3083 117.943 28.5292 116.901 29.2574 115.897C29.9622 114.926 30.8988 114.452 32.0673 114.477ZM34.3776 121.441L36.3274 118.754L34.1259 117.157C33.705 116.851 33.2799 116.699 32.8505 116.701C32.4133 116.713 32.0225 116.956 31.6779 117.431C31.3334 117.906 31.227 118.348 31.3588 118.756C31.4828 119.176 31.7552 119.538 32.1761 119.844L34.3776 121.441ZM37.2278 112.439C36.8069 112.134 36.3671 111.979 35.9083 111.976C35.4417 111.983 35.0362 112.224 34.6916 112.699C34.3549 113.163 34.2593 113.613 34.4049 114.048C34.5426 114.494 34.8219 114.869 35.2428 115.175L37.6547 116.925L39.6397 114.189L37.2278 112.439Z" fill="#E9E9E9"/>
<path d="M32.8265 105.046L21.7228 113.573L19.9322 111.241L28.8785 104.371L24.6881 98.9145L26.8454 97.2578L32.8265 105.046Z" fill="#E9E9E9"/>
<path d="M25.5476 94.2444L12.5201 99.3712L8.90201 90.1775L11.34 89.2181L13.8815 95.676L16.7475 94.5481L14.2573 88.2204L16.6209 87.2903L19.1111 93.6179L22.033 92.468L19.4915 86.0101L21.9295 85.0507L25.5476 94.2444Z" fill="#E9E9E9"/>
<path d="M21.0813 79.6207C21.4311 79.8772 21.6394 80.2229 21.7062 80.6578C21.7731 81.0927 21.6793 81.4916 21.4249 81.8545C21.1572 82.2194 20.7994 82.4363 20.3513 82.5052C19.9428 82.5681 19.5627 82.4646 19.2109 82.195C18.8592 81.9253 18.6499 81.573 18.583 81.1382C18.5181 80.7164 18.6129 80.3241 18.8674 79.9612C19.1218 79.5983 19.4533 79.3855 19.8618 79.3226C20.3099 79.2537 20.7164 79.3531 21.0813 79.6207Z" fill="#E9E9E9"/>
</svg>
