<svg width="12" height="12" viewBox="0 0 12 12" fill="none" xmlns="http://www.w3.org/2000/svg">
<path fill-rule="evenodd" clip-rule="evenodd" d="M9.7 6C9.7 8.04345 8.04345 9.7 6 9.7C3.95655 9.7 2.3 8.04345 2.3 6C2.3 3.95655 3.95655 2.3 6 2.3C8.04345 2.3 9.7 3.95655 9.7 6ZM10 6C10 8.20914 8.20914 10 6 10C3.79086 10 2 8.20914 2 6C2 3.79086 3.79086 2 6 2C8.20914 2 10 3.79086 10 6ZM4.46333 7.6999C4.91667 8.16657 5.47222 8.3999 6.13 8.3999C6.58333 8.3999 6.99444 8.28435 7.36333 8.05324C7.73667 7.81768 8.01889 7.50435 8.21 7.11324L7.89667 6.95324C7.72778 7.28657 7.48778 7.55324 7.17667 7.75324C6.86556 7.95324 6.51667 8.05324 6.13 8.05324C5.57 8.05324 5.09667 7.85324 4.71 7.45324C4.32778 7.05324 4.13667 6.56879 4.13667 5.9999C4.13667 5.43101 4.32778 4.94657 4.71 4.54657C5.09667 4.14657 5.57 3.94657 6.13 3.94657C6.51222 3.94657 6.85889 4.04435 7.17 4.2399C7.48111 4.43546 7.72111 4.69768 7.89 5.02657L8.19667 4.86657C8.00111 4.48435 7.71889 4.17768 7.35 3.94657C6.98556 3.71546 6.57889 3.5999 6.13 3.5999C5.47222 3.5999 4.91667 3.83324 4.46333 4.2999C4.01444 4.76657 3.79 5.33324 3.79 5.9999C3.79 6.66657 4.01444 7.23324 4.46333 7.6999Z" fill="#FAFAFA"/>
</svg>
