<svg width="14" height="15" viewBox="0 0 14 15" fill="none" xmlns="http://www.w3.org/2000/svg">
<path fill-rule="evenodd" clip-rule="evenodd" d="M10.7 8.5C10.7 10.8196 8.8196 12.7 6.5 12.7C4.1804 12.7 2.3 10.8196 2.3 8.5C2.3 6.1804 4.1804 4.3 6.5 4.3C8.8196 4.3 10.7 6.1804 10.7 8.5ZM11 8.5C11 10.9853 8.98528 13 6.5 13C4.01472 13 2 10.9853 2 8.5C2 6.01472 4.01472 4 6.5 4C8.98528 4 11 6.01472 11 8.5ZM4.77107 10.4125C5.28107 10.9375 5.90607 11.2 6.64607 11.2C7.15607 11.2 7.61857 11.07 8.03357 10.81C8.45357 10.545 8.77107 10.1925 8.98607 9.7525L8.63357 9.5725C8.44357 9.9475 8.17357 10.2475 7.82357 10.4725C7.47357 10.6975 7.08107 10.81 6.64607 10.81C6.01607 10.81 5.48357 10.585 5.04857 10.135C4.61857 9.685 4.40357 9.14 4.40357 8.5C4.40357 7.86 4.61857 7.315 5.04857 6.865C5.48357 6.415 6.01607 6.19 6.64607 6.19C7.07607 6.19 7.46607 6.3 7.81607 6.52C8.16607 6.74 8.43607 7.035 8.62607 7.405L8.97107 7.225C8.75107 6.795 8.43357 6.45 8.01857 6.19C7.60857 5.93 7.15107 5.8 6.64607 5.8C5.90607 5.8 5.28107 6.0625 4.77107 6.5875C4.26607 7.1125 4.01357 7.75 4.01357 8.5C4.01357 9.25 4.26607 9.8875 4.77107 10.4125Z" fill="#FAFAFA"/>
<path d="M4.77107 10.4125L4.66297 10.5165L4.66348 10.517L4.77107 10.4125ZM8.03357 10.81L8.11321 10.9371L8.11362 10.9369L8.03357 10.81ZM8.98607 9.7525L9.12085 9.81835L9.18555 9.68594L9.05429 9.61891L8.98607 9.7525ZM8.63357 9.5725L8.70179 9.43891L8.56778 9.37048L8.49977 9.50471L8.63357 9.5725ZM7.82357 10.4725L7.74246 10.3463L7.74246 10.3463L7.82357 10.4725ZM5.04857 10.135L4.94012 10.2386L4.94073 10.2393L5.04857 10.135ZM5.04857 6.865L4.94072 6.76074L4.94013 6.76137L5.04857 6.865ZM7.81607 6.52L7.73625 6.647L7.73625 6.647L7.81607 6.52ZM8.62607 7.405L8.49264 7.47352L8.56161 7.60782L8.69546 7.53799L8.62607 7.405ZM8.97107 7.225L9.04046 7.35799L9.17239 7.28915L9.10461 7.15668L8.97107 7.225ZM8.01857 6.19L7.93824 6.31668L7.93894 6.31711L8.01857 6.19ZM4.77107 6.5875L4.66348 6.48298L4.66297 6.48351L4.77107 6.5875ZM6.5 12.85C8.90244 12.85 10.85 10.9024 10.85 8.5H10.55C10.55 10.7368 8.73675 12.55 6.5 12.55V12.85ZM2.15 8.5C2.15 10.9024 4.09756 12.85 6.5 12.85V12.55C4.26325 12.55 2.45 10.7368 2.45 8.5H2.15ZM6.5 4.15C4.09756 4.15 2.15 6.09756 2.15 8.5H2.45C2.45 6.26325 4.26325 4.45 6.5 4.45V4.15ZM10.85 8.5C10.85 6.09756 8.90244 4.15 6.5 4.15V4.45C8.73675 4.45 10.55 6.26325 10.55 8.5H10.85ZM6.5 13.15C9.06812 13.15 11.15 11.0681 11.15 8.5H10.85C10.85 10.9024 8.90244 12.85 6.5 12.85V13.15ZM1.85 8.5C1.85 11.0681 3.93188 13.15 6.5 13.15V12.85C4.09756 12.85 2.15 10.9024 2.15 8.5H1.85ZM6.5 3.85C3.93188 3.85 1.85 5.93188 1.85 8.5H2.15C2.15 6.09756 4.09756 4.15 6.5 4.15V3.85ZM11.15 8.5C11.15 5.93188 9.06812 3.85 6.5 3.85V4.15C8.90244 4.15 10.85 6.09756 10.85 8.5H11.15ZM6.64607 11.05C5.94611 11.05 5.36007 10.8035 4.87867 10.308L4.66348 10.517C5.20208 11.0715 5.86604 11.35 6.64607 11.35V11.05ZM7.95394 10.6829C7.56383 10.9273 7.12913 11.05 6.64607 11.05V11.35C7.18302 11.35 7.67332 11.2127 8.11321 10.9371L7.95394 10.6829ZM8.8513 9.68665C8.64871 10.1013 8.35033 10.4328 7.95353 10.6831L8.11362 10.9369C8.55682 10.6572 8.89344 10.2837 9.12085 9.81835L8.8513 9.68665ZM8.56536 9.70609L8.91786 9.88609L9.05429 9.61891L8.70179 9.43891L8.56536 9.70609ZM7.90469 10.5987C8.27738 10.3591 8.56545 10.0388 8.76738 9.64029L8.49977 9.50471C8.3217 9.85616 8.06977 10.1359 7.74246 10.3463L7.90469 10.5987ZM6.64607 10.96C7.10846 10.96 7.52936 10.84 7.90469 10.5987L7.74246 10.3463C7.41779 10.555 7.05369 10.66 6.64607 10.66V10.96ZM4.94073 10.2393C5.4042 10.7187 5.97571 10.96 6.64607 10.96V10.66C6.05644 10.66 5.56295 10.4513 5.15642 10.0307L4.94073 10.2393ZM4.25357 8.5C4.25357 9.17739 4.48263 9.75986 4.94013 10.2386L5.15702 10.0314C4.75452 9.61014 4.55357 9.10261 4.55357 8.5H4.25357ZM4.94013 6.76137C4.48263 7.24014 4.25357 7.82261 4.25357 8.5H4.55357C4.55357 7.89739 4.75452 7.38986 5.15702 6.96863L4.94013 6.76137ZM6.64607 6.04C5.97571 6.04 5.4042 6.28129 4.94073 6.76075L5.15642 6.96925C5.56295 6.54871 6.05644 6.34 6.64607 6.34V6.04ZM7.8959 6.393C7.521 6.15735 7.10313 6.04 6.64607 6.04V6.34C7.04902 6.34 7.41115 6.44265 7.73625 6.647L7.8959 6.393ZM8.75951 7.33648C8.55729 6.94268 8.26884 6.62742 7.8959 6.393L7.73625 6.647C8.06331 6.85258 8.31486 7.12732 8.49264 7.47352L8.75951 7.33648ZM8.90169 7.09201L8.55669 7.27201L8.69546 7.53799L9.04046 7.35799L8.90169 7.09201ZM7.93894 6.31711C8.33133 6.56295 8.63005 6.88777 8.83754 7.29332L9.10461 7.15668C8.8721 6.70223 8.53582 6.33705 8.09821 6.06289L7.93894 6.31711ZM6.64607 5.95C7.12383 5.95 7.55326 6.07254 7.93824 6.31668L8.09891 6.06332C7.66389 5.78746 7.17832 5.65 6.64607 5.65V5.95ZM4.87867 6.69202C5.36007 6.19645 5.94611 5.95 6.64607 5.95V5.65C5.86604 5.65 5.20208 5.92855 4.66348 6.48298L4.87867 6.69202ZM4.16357 8.5C4.16357 7.7875 4.40193 7.18764 4.87918 6.69149L4.66297 6.48351C4.13022 7.03736 3.86357 7.7125 3.86357 8.5H4.16357ZM4.87918 10.3085C4.40193 9.81236 4.16357 9.2125 4.16357 8.5H3.86357C3.86357 9.2875 4.13022 9.96264 4.66297 10.5165L4.87918 10.3085Z" fill="#FAFAFA"/>
</svg>
