<svg width="2252" height="139" viewBox="0 0 2252 139" fill="none" xmlns="http://www.w3.org/2000/svg">
<path fill-rule="evenodd" clip-rule="evenodd" d="M6.11563 80.9128L6.12683 80.9023C9.69773 77.5478 14.1371 75.896 19.3042 75.896C24.5546 75.896 29.0119 77.5408 32.5038 80.9235C36.0139 84.324 37.7202 88.7552 37.7202 94.024C37.7202 99.2238 35.9484 103.639 32.372 107.113C28.8936 110.586 24.485 112.296 19.3042 112.296C14.2019 112.296 9.80695 110.575 6.24789 107.124C2.66379 103.648 0.888184 99.2293 0.888184 94.024C0.888184 88.7552 2.59444 84.324 6.10459 80.9235L6.11563 80.9128ZM49.7769 80.9128L49.7881 80.9023C53.359 77.5478 57.7984 75.896 62.9654 75.896C68.2159 75.896 72.6731 77.5408 76.165 80.9235C79.6752 84.324 81.3814 88.7552 81.3814 94.024C81.3814 99.2238 79.6096 103.639 76.0331 107.113C72.5547 110.586 68.1462 112.296 62.9654 112.296C57.8631 112.296 53.4682 110.575 49.9091 107.124C46.325 103.648 44.5494 99.2293 44.5494 94.024C44.5494 88.7552 46.2557 84.324 49.7658 80.9235L49.7769 80.9128ZM93.4381 80.9128L93.4493 80.9023C97.0202 77.5478 101.46 75.896 106.627 75.896C111.877 75.896 116.334 77.5408 119.826 80.9235C123.336 84.324 125.043 88.7552 125.043 94.024C125.043 99.2237 123.271 103.639 119.695 107.113C116.216 110.586 111.808 112.296 106.627 112.296C101.524 112.296 97.1295 110.575 93.5704 107.124C89.9863 103.648 88.2107 99.2293 88.2107 94.024C88.2107 88.7552 89.9169 84.324 93.4271 80.9235L93.4381 80.9128ZM221.84 28.952V111H190.624V54.696H168.416V111H137.2V28.952H221.84ZM166.416 52.696H192.624V109H219.84V30.952H139.2V109H166.416V52.696ZM270.721 138.936H239.361V28.952H269.425V33.9902C274.768 29.7127 281.851 27.656 290.465 27.656C297.892 27.656 304.67 29.4149 310.751 32.9582C316.939 36.4108 321.802 41.3861 325.331 47.8317C328.979 54.2231 330.769 61.6264 330.769 69.976C330.769 78.3319 328.976 85.7816 325.33 92.265C321.798 98.6203 316.935 103.59 310.757 107.135L310.747 107.14C304.665 110.587 297.889 112.296 290.465 112.296C282.681 112.296 276.058 110.381 270.721 106.462V138.936ZM270.721 103.926C270.028 103.352 269.361 102.74 268.721 102.088V136.936H241.361V30.952H267.425V38.728C268.052 37.9824 268.719 37.2827 269.425 36.629C274.446 31.9803 281.46 29.656 290.465 29.656C297.569 29.656 304.001 31.336 309.761 34.696C315.617 37.96 320.225 42.664 323.585 48.808C327.041 54.856 328.769 61.912 328.769 69.976C328.769 78.04 327.041 85.144 323.585 91.288C320.225 97.336 315.617 102.04 309.761 105.4C304.001 108.664 297.569 110.296 290.465 110.296C282.431 110.296 275.85 108.173 270.721 103.926ZM295.047 57.8002L295.037 57.7895C292.367 54.8687 288.978 53.4 284.705 53.4C280.432 53.4 277.044 54.8687 274.373 57.7895L274.363 57.8002L274.354 57.8107C271.722 60.6069 270.289 64.5749 270.289 69.976C270.289 75.368 271.718 79.3964 274.364 82.2968C277.028 85.1208 280.419 86.552 284.705 86.552C288.992 86.552 292.383 85.1205 295.047 82.2958C297.693 79.3955 299.121 75.3674 299.121 69.976C299.121 64.5749 297.689 60.6069 295.057 57.8107L295.047 57.8002ZM296.513 83.656C293.441 86.92 289.505 88.552 284.705 88.552C279.905 88.552 275.969 86.92 272.897 83.656C269.825 80.296 268.289 75.736 268.289 69.976C268.289 64.216 269.825 59.704 272.897 56.44C275.969 53.08 279.905 51.4 284.705 51.4C289.505 51.4 293.441 53.08 296.513 56.44C299.585 59.704 301.121 64.216 301.121 69.976C301.121 75.736 299.585 80.296 296.513 83.656ZM343.086 91.7624L343.08 91.7527C339.13 85.2699 337.172 77.9444 337.172 69.832C337.172 61.8106 339.132 54.5341 343.08 48.0553L343.086 48.0456L343.092 48.036C347.129 41.5769 352.636 36.5794 359.574 33.0592C366.608 29.4427 374.51 27.656 383.236 27.656C391.96 27.656 399.86 29.4417 406.893 33.0562C413.926 36.5751 419.442 41.576 423.388 48.0495C427.344 54.4415 429.3 61.7226 429.3 69.832C429.3 77.9444 427.342 85.2699 423.392 91.7527C419.447 98.2271 413.933 103.275 406.903 106.891C399.868 110.509 391.964 112.296 383.236 112.296C374.6 112.296 366.745 110.507 359.713 106.891C352.687 103.277 347.131 98.235 343.092 91.772L343.086 91.7624ZM421.684 49.096C417.94 42.952 412.708 38.2 405.988 34.84C399.268 31.384 391.684 29.656 383.236 29.656C374.788 29.656 367.204 31.384 360.484 34.84C353.86 38.2 348.628 42.952 344.788 49.096C341.044 55.24 339.172 62.152 339.172 69.832C339.172 77.608 341.044 84.568 344.788 90.712C348.628 96.856 353.908 101.656 360.628 105.112C367.348 108.568 374.884 110.296 383.236 110.296C391.684 110.296 399.268 108.568 405.988 105.112C412.708 101.656 417.94 96.856 421.684 90.712C425.428 84.568 427.3 77.608 427.3 69.832C427.3 62.056 425.428 55.144 421.684 49.096ZM395.044 83.656C398.116 80.296 399.652 75.688 399.652 69.832C399.652 64.072 398.116 59.56 395.044 56.296C391.972 53.032 388.036 51.4 383.236 51.4C378.436 51.4 374.5 53.032 371.428 56.296C368.356 59.56 366.82 64.072 366.82 69.832C366.82 75.688 368.356 80.296 371.428 83.656C374.5 86.92 378.436 88.552 383.236 88.552C388.036 88.552 391.972 86.92 395.044 83.656ZM372.894 82.2958C370.253 79.4012 368.82 75.3293 368.82 69.832C368.82 64.4309 370.253 60.4629 372.884 57.6667C375.55 54.835 378.944 53.4 383.236 53.4C387.528 53.4 390.923 54.835 393.588 57.6667C396.219 60.4629 397.652 64.4309 397.652 69.832C397.652 75.3293 396.219 79.4013 393.578 82.2959C390.914 85.1205 387.523 86.552 383.236 86.552C378.949 86.552 375.558 85.1205 372.894 82.2958ZM535.91 85.112V127.128H506.566V111H461.462V127.128H431.974V85.112H436.832C438.805 85.0684 440.358 84.5225 441.6 83.5545C442.862 82.5708 443.946 81.0389 444.765 78.7993C446.488 73.9886 447.579 67.1193 447.959 58.0883C447.959 58.0868 447.959 58.0853 447.959 58.0839L449.038 28.952H525.11V85.112H535.91ZM446.646 79.48C444.822 84.472 441.558 87.016 436.854 87.112H433.974V125.128H459.462V109H508.566V125.128H533.91V87.112H523.11V30.952H450.966L449.958 58.168C449.574 67.288 448.47 74.392 446.646 79.48ZM476.58 60.2609L476.58 60.2661C476.29 67.3166 475.757 73.036 474.965 77.3898C474.438 80.2923 473.597 82.8786 472.415 85.112H493.75V54.696H476.794L476.58 60.2609ZM474.87 52.696H495.75V87.112H468.678C469.197 86.4977 469.676 85.831 470.115 85.112C471.458 82.9097 472.419 80.2164 472.998 77.032C473.766 72.808 474.294 67.192 474.582 60.184L474.87 52.696ZM546.846 91.7624L546.84 91.7527C542.89 85.2699 540.932 77.9444 540.932 69.832C540.932 61.8106 542.892 54.5341 546.84 48.0553L546.846 48.0456L546.852 48.036C550.889 41.5769 556.396 36.5793 563.334 33.0591C570.368 29.4426 578.27 27.656 586.996 27.656C595.72 27.656 603.62 29.4418 610.653 33.0563C617.685 36.5746 623.2 41.5743 627.146 48.0463C631.103 54.4391 633.06 61.7211 633.06 69.832C633.06 77.9444 631.102 85.2699 627.152 91.7527C623.207 98.2271 617.693 103.275 610.663 106.891C603.628 110.509 595.724 112.296 586.996 112.296C578.36 112.296 570.505 110.507 563.473 106.891C556.447 103.277 550.891 98.235 546.852 91.772L546.846 91.7624ZM609.748 34.84C603.028 31.384 595.444 29.656 586.996 29.656C578.548 29.656 570.964 31.384 564.244 34.84C557.62 38.2 552.388 42.952 548.548 49.096C544.804 55.24 542.932 62.152 542.932 69.832C542.932 77.608 544.804 84.568 548.548 90.712C552.388 96.856 557.668 101.656 564.388 105.112C571.108 108.568 578.644 110.296 586.996 110.296C595.444 110.296 603.028 108.568 609.748 105.112C616.468 101.656 621.7 96.856 625.444 90.712C629.188 84.568 631.06 77.608 631.06 69.832C631.06 62.056 629.188 55.144 625.444 49.096C621.7 42.952 616.468 38.2 609.748 34.84ZM598.804 83.656C601.876 80.296 603.412 75.688 603.412 69.832C603.412 64.072 601.876 59.56 598.804 56.296C595.732 53.032 591.796 51.4 586.996 51.4C582.196 51.4 578.26 53.032 575.188 56.296C572.116 59.56 570.58 64.072 570.58 69.832C570.58 75.688 572.116 80.296 575.188 83.656C578.26 86.92 582.196 88.552 586.996 88.552C591.796 88.552 595.732 86.92 598.804 83.656ZM576.654 82.2958C574.013 79.4012 572.58 75.3293 572.58 69.832C572.58 64.4309 574.013 60.4629 576.644 57.6667C579.31 54.835 582.704 53.4 586.996 53.4C591.288 53.4 594.682 54.835 597.348 57.6667C599.979 60.4629 601.412 64.4309 601.412 69.832C601.412 75.3293 599.979 79.4012 597.338 82.2958C594.674 85.1205 591.283 86.552 586.996 86.552C582.709 86.552 579.318 85.1204 576.654 82.2958ZM726.854 28.952V111H695.494V54.696H679.672L679.188 64.7234C679.188 64.7263 679.188 64.7291 679.188 64.732C678.801 74.9806 677.783 83.5249 676.107 90.3264C674.413 97.2043 671.582 102.748 667.516 106.814L667.507 106.823L667.497 106.832C663.292 110.93 657.606 112.872 650.694 112.872C647.118 112.872 642.536 112.212 637.001 110.95L635.362 110.576L636.71 84.4579L638.818 84.6922C640.565 84.8863 641.607 84.968 642.054 84.968C644.564 84.968 646.184 84.1836 647.26 82.8386C648.534 81.2464 649.486 79.0406 650.021 76.1041C650.573 72.9703 650.952 68.755 651.143 63.4252C651.143 63.425 651.143 63.4255 651.143 63.4252L652.363 28.952H726.854ZM653.142 63.496C652.95 68.872 652.566 73.192 651.99 76.456C651.414 79.624 650.358 82.168 648.822 84.088C647.286 86.008 645.03 86.968 642.054 86.968C641.738 86.968 641.25 86.9392 640.59 86.8817C640.044 86.8341 639.38 86.7669 638.598 86.68L637.446 109C642.918 110.248 647.334 110.872 650.694 110.872C657.222 110.872 662.358 109.048 666.102 105.4C669.846 101.656 672.534 96.472 674.166 89.848C675.798 83.224 676.806 74.824 677.19 64.648L677.766 52.696H697.494V109H724.854V30.952H654.294L653.142 63.496ZM841.017 109L826.905 81.208H818.841V109H791.913V81.208H783.705L769.593 109H737.193L760.665 68.68L738.921 30.952H767.865L783.129 59.752H791.913V30.952H818.841V59.752H827.337L842.745 30.952H871.689L849.801 68.68L873.417 109H841.017ZM852.116 68.6752L876.906 111H839.789L825.677 83.208H820.841V111H789.913V83.208H784.932L770.82 111H733.714L758.353 68.675L735.459 28.952H769.068L784.332 57.752H789.913V28.952H820.841V57.752H826.138L841.546 28.952H875.161L852.116 68.6752ZM964.074 78.888H908.338C909.447 81.2516 911.063 83.1312 913.183 84.5726C916.147 86.4268 919.922 87.416 924.619 87.416C928.183 87.416 931.138 86.9123 933.535 85.9705L933.546 85.9662L933.557 85.962C936.079 85.0055 938.666 83.4153 941.313 81.1332L942.747 79.8964L959.748 97.5773L958.507 98.9601C950.442 107.944 938.742 112.296 923.755 112.296C914.38 112.296 906.048 110.519 898.812 106.901C891.594 103.292 885.931 98.249 881.883 91.772L881.877 91.7624L881.871 91.7527C877.92 85.2699 875.963 77.9444 875.963 69.832C875.963 61.8208 877.87 54.5938 881.722 48.207L881.727 48.1992C885.663 41.7394 891.07 36.6921 897.907 33.0724C904.752 29.4483 912.423 27.656 920.875 27.656C928.935 27.656 936.306 29.3493 942.948 32.7685C949.62 36.1071 954.891 41.0245 958.73 47.4848C962.694 53.8969 964.635 61.4696 964.635 70.12C964.635 70.4005 964.481 72.7749 964.198 77.021L964.074 78.888ZM957.019 48.52C953.371 42.376 948.379 37.72 942.043 34.552C935.707 31.288 928.651 29.656 920.875 29.656C912.715 29.656 905.371 31.384 898.843 34.84C892.315 38.296 887.179 43.096 883.435 49.24C879.787 55.288 877.963 62.152 877.963 69.832C877.963 77.608 879.835 84.568 883.579 90.712C887.419 96.856 892.795 101.656 899.707 105.112C906.619 108.568 914.635 110.296 923.755 110.296C938.347 110.296 949.435 106.072 957.019 97.624L942.619 82.648C939.835 85.048 937.051 86.776 934.267 87.832C931.579 88.888 928.363 89.416 924.619 89.416C919.627 89.416 915.451 88.36 912.091 86.248C909.388 84.4199 907.41 81.9665 906.155 78.888C905.894 78.2483 905.665 77.5817 905.467 76.888H962.203C962.491 72.568 962.635 70.312 962.635 70.12C962.635 61.768 960.763 54.568 957.019 48.52ZM930.237 54.2217L930.225 54.2108C927.857 52.17 924.839 51.096 921.019 51.096C917.206 51.096 914.129 52.1662 911.656 54.2216C909.803 55.8233 908.439 57.8899 907.596 60.488H934.434C933.578 57.9 932.175 55.8365 930.25 54.2324L930.237 54.2217ZM936.528 60.488C936.716 61.1305 936.874 61.7971 937.003 62.488H905.035C905.163 61.7971 905.32 61.1305 905.505 60.488C906.425 57.2917 908.045 54.6943 910.363 52.696C913.243 50.296 916.795 49.096 921.019 49.096C925.243 49.096 928.747 50.296 931.531 52.696C933.929 54.6943 935.595 57.2917 936.528 60.488ZM977.974 28.952H1009.19V57.896H1033.27V28.952H1064.63V111H1033.27V83.64H1009.19V111H977.974V28.952ZM1007.19 81.64H1035.27V109H1062.63V30.952H1035.27V59.896H1007.19V30.952H979.974V109H1007.19V81.64ZM1081.96 28.952H1113.18V66.1425L1142.91 28.952H1171.07V111H1139.71V73.7211L1110.28 111H1081.96V28.952ZM1141.71 67.96V109H1169.07V30.952H1143.87L1111.18 71.848V30.952H1083.96V109H1109.31L1141.71 67.96ZM1270.84 78.888H1215.1C1216.21 81.2516 1217.83 83.1312 1219.95 84.5726C1222.91 86.4268 1226.69 87.416 1231.38 87.416C1234.95 87.416 1237.9 86.9123 1240.3 85.9705L1240.31 85.9662L1240.32 85.962C1242.84 85.0055 1245.43 83.4153 1248.08 81.1332L1249.51 79.8964L1266.51 97.5773L1265.27 98.9601C1257.21 107.944 1245.51 112.296 1230.52 112.296C1221.14 112.296 1212.81 110.519 1205.58 106.901C1198.36 103.292 1192.7 98.249 1188.65 91.772L1188.64 91.7624L1188.64 91.7527C1184.69 85.2699 1182.73 77.9444 1182.73 69.832C1182.73 61.8208 1184.63 54.5938 1188.49 48.207L1188.49 48.1992C1192.43 41.7394 1197.83 36.6921 1204.67 33.0724C1211.52 29.4483 1219.19 27.656 1227.64 27.656C1235.7 27.656 1243.07 29.3493 1249.71 32.7685C1256.38 36.1067 1261.65 41.0232 1265.49 47.4823C1269.46 53.8949 1271.4 61.4685 1271.4 70.12C1271.4 70.4005 1271.25 72.7749 1270.96 77.021L1270.84 78.888ZM1263.78 48.52C1260.14 42.376 1255.14 37.72 1248.81 34.552C1242.47 31.288 1235.42 29.656 1227.64 29.656C1219.48 29.656 1212.14 31.384 1205.61 34.84C1199.08 38.296 1193.94 43.096 1190.2 49.24C1186.55 55.288 1184.73 62.152 1184.73 69.832C1184.73 77.608 1186.6 84.568 1190.34 90.712C1194.18 96.856 1199.56 101.656 1206.47 105.112C1213.38 108.568 1221.4 110.296 1230.52 110.296C1245.11 110.296 1256.2 106.072 1263.78 97.624L1249.38 82.648C1246.6 85.048 1243.82 86.776 1241.03 87.832C1238.34 88.888 1235.13 89.416 1231.38 89.416C1226.39 89.416 1222.22 88.36 1218.86 86.248C1216.15 84.4199 1214.17 81.9665 1212.92 78.888C1212.66 78.2483 1212.43 77.5817 1212.23 76.888H1268.97C1269.26 72.568 1269.4 70.312 1269.4 70.12C1269.4 61.768 1267.53 54.568 1263.78 48.52ZM1237 54.2217L1236.99 54.2108C1234.62 52.17 1231.6 51.096 1227.78 51.096C1223.97 51.096 1220.89 52.1662 1218.42 54.2216C1216.57 55.8233 1215.2 57.8899 1214.36 60.488H1241.2C1240.34 57.9 1238.94 55.8365 1237.02 54.2324L1237 54.2217ZM1243.29 60.488C1243.48 61.1305 1243.64 61.7971 1243.77 62.488H1211.8C1211.93 61.7971 1212.09 61.1305 1212.27 60.488C1213.19 57.2917 1214.81 54.6943 1217.13 52.696C1220.01 50.296 1223.56 49.096 1227.78 49.096C1232.01 49.096 1235.51 50.296 1238.3 52.696C1240.69 54.6943 1242.36 57.2917 1243.29 60.488ZM1329.53 28.952H1360.74V57.896H1384.82V28.952H1416.18V111H1384.82V83.64H1360.74V111H1329.53V28.952ZM1358.74 81.64H1386.82V109H1414.18V30.952H1386.82V59.896H1358.74V30.952H1331.53V109H1358.74V81.64ZM1432.92 38.728C1437.24 35.848 1442.47 33.64 1448.62 32.104C1454.86 30.472 1461.1 29.656 1467.34 29.656C1480.3 29.656 1490.19 32.632 1497 38.584C1503.82 44.44 1507.23 53.464 1507.23 65.656V109H1481.74V98.92C1481.15 100.046 1480.49 101.088 1479.74 102.046C1475.44 107.546 1468.43 110.296 1458.7 110.296C1452.65 110.296 1447.42 109.24 1443 107.128C1438.59 105.016 1435.23 102.184 1432.92 98.632C1430.71 94.984 1429.61 90.856 1429.61 86.248C1429.61 78.856 1432.44 73.144 1438.11 69.112C1443.77 64.984 1452.51 62.92 1464.31 62.92H1479.87C1479.83 62.224 1479.75 61.5573 1479.64 60.92C1478.42 53.9973 1472.98 50.536 1463.31 50.536C1459.56 50.536 1455.77 51.16 1451.93 52.408C1448.84 53.3345 1446.13 54.5715 1443.78 56.1189C1443.21 56.4956 1442.67 56.8906 1442.14 57.304L1432.92 38.728ZM1477.6 60.92C1477.09 58.3783 1475.91 56.5365 1474.17 55.2337C1471.9 53.5333 1468.37 52.536 1463.31 52.536C1459.79 52.536 1456.21 53.1219 1452.55 54.3101L1452.53 54.3171L1452.51 54.3237C1448.86 55.4159 1445.83 56.9436 1443.37 58.8766L1441.44 60.3963L1430.35 38.0402L1431.81 37.0639C1436.36 34.034 1441.81 31.7461 1448.12 30.1664C1454.52 28.4944 1460.93 27.656 1467.34 27.656C1480.57 27.656 1491.01 30.6929 1498.32 37.0747C1505.71 43.4334 1509.23 53.1049 1509.23 65.656V111H1479.74V105.076C1474.92 109.965 1467.79 112.296 1458.7 112.296C1452.42 112.296 1446.88 111.2 1442.14 108.932C1437.44 106.687 1433.78 103.627 1431.24 99.7204L1431.23 99.6943L1431.21 99.6676C1428.8 95.6821 1427.61 91.1906 1427.61 86.248C1427.61 78.2624 1430.71 71.9254 1436.93 67.4915C1443.1 62.9975 1452.35 60.92 1464.31 60.92H1477.6ZM1466.33 91.016C1469.16 91.016 1471.56 90.3349 1473.6 89.0275C1475.51 87.8086 1476.94 86.0315 1477.87 83.5885V79.176H1468.06C1464.23 79.176 1461.71 79.8214 1460.2 80.8232C1458.83 81.7292 1458.11 83.0438 1458.11 85.096C1458.11 86.9072 1458.76 88.2397 1460.08 89.2862C1461.44 90.3615 1463.45 91.016 1466.33 91.016ZM1468.06 77.176C1460.09 77.176 1456.11 79.816 1456.11 85.096C1456.11 87.496 1457.02 89.416 1458.84 90.856C1460.67 92.296 1463.16 93.016 1466.33 93.016C1469.5 93.016 1472.28 92.248 1474.68 90.712C1477.08 89.176 1478.81 86.92 1479.87 83.944V77.176H1468.06ZM1570.22 111V6.19999H1623.77C1636.83 6.19999 1647.1 8.62829 1654.3 13.7698C1661.54 18.8398 1665.23 25.8267 1665.23 34.552C1665.23 39.7008 1663.93 44.3901 1661.32 48.5658C1659.49 51.5423 1657.08 54.0559 1654.13 56.1124C1658.47 58.206 1662.05 61.0732 1664.82 64.7311C1668.38 69.3493 1670.12 74.9278 1670.12 81.352C1670.12 90.8243 1666.26 98.272 1658.58 103.457C1651.01 108.574 1640.28 111 1626.65 111H1570.22ZM1663.23 65.944C1660.44 62.2514 1656.73 59.4005 1652.12 57.3913C1651.34 57.0499 1650.53 56.7328 1649.69 56.44C1650.48 56.037 1651.23 55.6084 1651.95 55.1542C1655.18 53.12 1657.74 50.5726 1659.63 47.512C1662.03 43.672 1663.23 39.352 1663.23 34.552C1663.23 26.488 1659.87 20.104 1653.15 15.4C1646.43 10.6 1636.63 8.19999 1623.77 8.19999H1572.22V109H1626.65C1640.09 109 1650.36 106.6 1657.47 101.8C1664.57 97 1668.12 90.184 1668.12 81.352C1668.12 75.304 1666.49 70.168 1663.23 65.944ZM1600.44 48.232V28.792H1620.03C1629.63 28.792 1634.43 32.008 1634.43 38.44C1634.43 44.968 1629.63 48.232 1620.03 48.232H1600.44ZM1602.44 30.792V46.232H1620.03C1624.66 46.232 1627.79 45.4326 1629.7 44.1301C1631.48 42.9216 1632.43 41.1382 1632.43 38.44C1632.43 35.8024 1631.49 34.0554 1629.71 32.8655C1627.79 31.5806 1624.66 30.792 1620.03 30.792H1602.44ZM1634.45 84.2002C1636.32 82.9211 1637.32 81.0295 1637.32 78.184C1637.32 75.3385 1636.32 73.4469 1634.45 72.1678C1632.44 70.7951 1629.17 69.96 1624.35 69.96H1602.44V86.408H1624.35C1629.17 86.408 1632.44 85.5729 1634.45 84.2002ZM1600.44 88.408V67.96H1624.35C1634.33 67.96 1639.32 71.368 1639.32 78.184C1639.32 85 1634.33 88.408 1624.35 88.408H1600.44ZM1765.69 78.888H1709.95C1711.06 81.2516 1712.68 83.1312 1714.8 84.5725C1717.76 86.4268 1721.54 87.416 1726.23 87.416C1729.8 87.416 1732.75 86.9123 1735.15 85.9705L1735.16 85.9662L1735.17 85.962C1737.69 85.0055 1740.28 83.4153 1742.93 81.1332L1744.36 79.8964L1761.36 97.5773L1760.12 98.9601C1752.06 107.944 1740.36 112.296 1725.37 112.296C1715.99 112.296 1707.66 110.519 1700.43 106.901C1693.21 103.292 1687.55 98.249 1683.5 91.772L1683.49 91.7624L1683.49 91.7527C1679.53 85.2699 1677.58 77.9444 1677.58 69.832C1677.58 61.8208 1679.48 54.5938 1683.34 48.207L1683.34 48.1992C1687.28 41.7394 1692.68 36.6921 1699.52 33.0724C1706.37 29.4483 1714.04 27.656 1722.49 27.656C1730.55 27.656 1737.92 29.3493 1744.56 32.7685C1751.23 36.1067 1756.5 41.0232 1760.34 47.4823C1764.31 53.8949 1766.25 61.4685 1766.25 70.12C1766.25 70.4005 1766.1 72.7749 1765.81 77.021L1765.69 78.888ZM1743.66 34.552C1737.32 31.288 1730.27 29.656 1722.49 29.656C1714.33 29.656 1706.98 31.384 1700.46 34.84C1693.93 38.296 1688.79 43.096 1685.05 49.24C1681.4 55.288 1679.58 62.152 1679.58 69.832C1679.58 77.608 1681.45 84.568 1685.19 90.712C1689.03 96.856 1694.41 101.656 1701.32 105.112C1708.23 108.568 1716.25 110.296 1725.37 110.296C1739.96 110.296 1751.05 106.072 1758.63 97.624L1744.23 82.648C1741.45 85.048 1738.66 86.776 1735.88 87.832C1733.19 88.888 1729.98 89.416 1726.23 89.416C1721.24 89.416 1717.06 88.36 1713.7 86.248C1711 84.4199 1709.02 81.9665 1707.77 78.888C1707.51 78.2483 1707.28 77.5817 1707.08 76.888H1763.82C1764.1 72.568 1764.25 70.312 1764.25 70.12C1764.25 61.768 1762.38 54.568 1758.63 48.52C1754.98 42.376 1749.99 37.72 1743.66 34.552ZM1731.85 54.2217L1731.84 54.2108C1729.47 52.17 1726.45 51.096 1722.63 51.096C1718.82 51.096 1715.74 52.1662 1713.27 54.2216C1711.42 55.8233 1710.05 57.8899 1709.21 60.488H1736.05C1735.19 57.9 1733.79 55.8365 1731.86 54.2324L1731.85 54.2217ZM1738.14 60.488C1738.33 61.1305 1738.49 61.7971 1738.62 62.488H1706.65C1706.78 61.7971 1706.93 61.1305 1707.12 60.488C1708.04 57.2917 1709.66 54.6943 1711.98 52.696C1714.86 50.296 1718.41 49.096 1722.63 49.096C1726.86 49.096 1730.36 50.296 1733.15 52.696C1735.54 54.6943 1737.21 57.2917 1738.14 60.488ZM1864.83 111H1833.47V68.824C1833.47 63.7105 1832.44 60.2456 1830.71 58.0871C1829.04 56.013 1826.49 54.84 1822.66 54.84C1818.44 54.84 1815.21 56.1918 1812.75 58.802C1810.44 61.3638 1809.1 65.3987 1809.1 71.272V111H1777.74V0.151993H1809.1V33.9571C1811.47 32.2924 1814.09 30.9514 1816.94 29.9325C1821.21 28.4097 1825.76 27.656 1830.58 27.656C1840.69 27.656 1849 30.674 1855.3 36.8621C1861.77 43.1296 1864.83 52.4263 1864.83 64.36V111ZM1809.1 36.4438C1811.62 34.4879 1814.45 32.9453 1817.62 31.816C1821.65 30.376 1825.97 29.656 1830.58 29.656C1840.27 29.656 1848.05 32.536 1853.9 38.296C1859.86 44.056 1862.83 52.744 1862.83 64.36V109H1835.47V68.824C1835.47 58.168 1831.2 52.84 1822.66 52.84C1817.95 52.84 1814.16 54.376 1811.28 57.448C1808.5 60.52 1807.1 65.128 1807.1 71.272V109H1779.74V2.15199H1807.1V38.152C1807.75 37.5513 1808.41 36.9819 1809.1 36.4438ZM1881.74 38.728C1886.06 35.848 1891.29 33.64 1897.43 32.104C1903.67 30.472 1909.91 29.656 1916.15 29.656C1929.11 29.656 1939 32.632 1945.82 38.584C1952.63 44.44 1956.04 53.464 1956.04 65.656V109H1930.55V98.92C1929.97 100.046 1929.3 101.088 1928.55 102.046C1924.26 107.546 1917.24 110.296 1907.51 110.296C1901.47 110.296 1896.23 109.24 1891.82 107.128C1887.4 105.016 1884.04 102.184 1881.74 98.632C1879.53 94.984 1878.43 90.856 1878.43 86.248C1878.43 78.856 1881.26 73.144 1886.92 69.112C1892.59 64.984 1901.32 62.92 1913.13 62.92H1928.68C1928.64 62.224 1928.56 61.5573 1928.45 60.92C1927.23 53.9973 1921.79 50.536 1912.12 50.536C1908.38 50.536 1904.59 51.16 1900.75 52.408C1897.66 53.3345 1894.94 54.5715 1892.6 56.1189C1892.03 56.4956 1891.48 56.8906 1890.95 57.304L1881.74 38.728ZM1926.42 60.92C1925.9 58.3783 1924.73 56.5365 1922.98 55.2337C1920.71 53.5333 1917.19 52.536 1912.12 52.536C1908.6 52.536 1905.02 53.1219 1901.36 54.3101L1901.34 54.3171L1901.32 54.3237C1897.68 55.4159 1894.65 56.9436 1892.19 58.8766L1890.25 60.3963L1879.16 38.0402L1880.63 37.0639C1885.17 34.034 1890.62 31.7461 1896.94 30.1664C1903.33 28.4944 1909.74 27.656 1916.15 27.656C1929.38 27.656 1939.81 30.6906 1947.12 37.0676C1954.52 43.4261 1958.04 53.1002 1958.04 65.656V111H1928.55V105.076C1923.73 109.965 1916.6 112.296 1907.51 112.296C1901.24 112.296 1895.7 111.2 1890.95 108.932C1886.26 106.687 1882.59 103.627 1880.06 99.7204L1880.04 99.6943L1880.03 99.6676C1877.61 95.6821 1876.43 91.1906 1876.43 86.248C1876.43 78.26 1879.53 71.9215 1885.75 67.4875C1891.92 62.9963 1901.17 60.92 1913.13 60.92H1926.42ZM1915.15 91.016C1917.98 91.016 1920.38 90.3349 1922.42 89.0275C1924.32 87.8086 1925.75 86.0315 1926.68 83.5884V79.176H1916.87C1913.05 79.176 1910.53 79.8214 1909.01 80.8232C1907.65 81.7292 1906.92 83.0438 1906.92 85.096C1906.92 86.9072 1907.57 88.2397 1908.9 89.2862C1910.26 90.3615 1912.27 91.016 1915.15 91.016ZM1916.87 77.176C1908.91 77.176 1904.92 79.816 1904.92 85.096C1904.92 87.496 1905.83 89.416 1907.66 90.856C1909.48 92.296 1911.98 93.016 1915.15 93.016C1918.31 93.016 1921.1 92.248 1923.5 90.712C1925.9 89.176 1927.63 86.92 1928.68 83.944V77.176H1916.87ZM2061.28 111H2029.92V68.824C2029.92 63.7105 2028.89 60.2456 2027.15 58.0871C2025.49 56.013 2022.94 54.84 2019.1 54.84C2014.89 54.84 2011.65 56.1918 2009.2 58.802C2006.88 61.3638 2005.55 65.3987 2005.55 71.272V111H1974.19V28.952H2004.26V34.9851C2006.72 33.0834 2009.46 31.551 2012.46 30.3888C2016.94 28.559 2021.8 27.656 2027.02 27.656C2037.14 27.656 2045.46 30.6766 2051.75 36.8701C2058.22 43.1375 2061.28 52.4315 2061.28 64.36V111ZM2050.35 38.296C2044.5 32.536 2036.72 29.656 2027.02 29.656C2022.03 29.656 2017.42 30.52 2013.2 32.248C2009.86 33.5392 2006.88 35.3111 2004.26 37.5637C2003.56 38.1583 2002.9 38.7864 2002.26 39.448V30.952H1976.19V109H2003.55V71.272C2003.55 65.128 2004.94 60.52 2007.73 57.448C2010.61 54.376 2014.4 52.84 2019.1 52.84C2027.65 52.84 2031.92 58.168 2031.92 68.824V109H2059.28V64.36C2059.28 52.744 2056.3 44.056 2050.35 38.296ZM2079.48 91.7624L2079.47 91.7527C2075.52 85.2699 2073.57 77.9444 2073.57 69.832C2073.57 61.72 2075.52 54.4367 2079.48 48.0433L2079.49 48.036C2083.53 41.5652 2089.14 36.5688 2096.27 33.0532C2103.4 29.4394 2111.44 27.656 2120.35 27.656C2129.47 27.656 2137.47 29.6408 2144.26 33.6923C2151.06 37.6537 2155.93 43.2253 2158.78 50.3692L2159.46 52.064L2134.88 64.6049L2133.97 62.8162C2132.31 59.5392 2130.33 57.2038 2128.09 55.685C2125.85 54.1765 2123.25 53.4 2120.21 53.4C2115.81 53.4 2112.25 54.8417 2109.39 57.6982C2106.68 60.4959 2105.21 64.453 2105.21 69.832C2105.21 75.3074 2106.68 79.3679 2109.4 82.2634C2112.26 85.1134 2115.82 86.552 2120.21 86.552C2123.25 86.552 2125.85 85.7755 2128.09 84.267C2130.33 82.7482 2132.31 80.4128 2133.97 77.1358L2134.88 75.3471L2159.46 87.888L2158.78 89.5828C2155.93 96.7251 2151.07 102.341 2144.27 106.397L2144.26 106.403L2144.25 106.408C2137.46 110.361 2129.47 112.296 2120.35 112.296C2111.44 112.296 2103.39 110.512 2096.26 106.896C2089.14 103.285 2083.53 98.242 2079.49 91.772L2079.48 91.7624ZM2107.97 83.656C2104.8 80.296 2103.21 75.688 2103.21 69.832C2103.21 64.072 2104.8 59.56 2107.97 56.296C2111.23 53.032 2115.31 51.4 2120.21 51.4C2126.97 51.4 2132.13 54.856 2135.68 61.7681C2135.71 61.8159 2135.73 61.8639 2135.76 61.912L2156.93 51.112C2154.24 44.392 2149.68 39.16 2143.25 35.416C2136.81 31.576 2129.18 29.656 2120.35 29.656C2111.71 29.656 2103.98 31.384 2097.17 34.84C2090.35 38.2 2085.02 42.952 2081.18 49.096C2077.44 55.144 2075.57 62.056 2075.57 69.832C2075.57 77.608 2077.44 84.568 2081.18 90.712C2085.02 96.856 2090.35 101.656 2097.17 105.112C2103.98 108.568 2111.71 110.296 2120.35 110.296C2129.18 110.296 2136.81 108.424 2143.25 104.68C2149.68 100.84 2154.24 95.56 2156.93 88.84L2135.76 78.04C2135.73 78.0881 2135.71 78.1361 2135.68 78.1839C2132.13 85.096 2126.97 88.552 2120.21 88.552C2115.31 88.552 2111.23 86.92 2107.97 83.656ZM2250.48 78.888H2194.74C2195.85 81.2521 2197.47 83.1321 2199.59 84.5735C2202.55 86.4271 2206.33 87.416 2211.02 87.416C2214.59 87.416 2217.54 86.9123 2219.94 85.9705L2219.95 85.9662L2219.96 85.962C2222.48 85.0055 2225.07 83.4153 2227.72 81.1332L2229.15 79.8964L2246.15 97.5773L2244.91 98.9601C2236.85 107.944 2225.15 112.296 2210.16 112.296C2200.78 112.296 2192.45 110.519 2185.22 106.901C2178 103.292 2172.34 98.249 2168.29 91.772L2168.28 91.7624L2168.28 91.7527C2164.33 85.2699 2162.37 77.9444 2162.37 69.832C2162.37 61.8208 2164.27 54.5938 2168.13 48.207L2168.13 48.1992C2172.07 41.7394 2177.47 36.6921 2184.31 33.0724C2191.16 29.4483 2198.83 27.656 2207.28 27.656C2215.34 27.656 2222.71 29.3493 2229.35 32.7685C2236.03 36.1075 2241.3 41.0258 2245.14 47.4874C2249.1 53.8989 2251.04 61.4708 2251.04 70.12C2251.04 70.4005 2250.89 72.7749 2250.6 77.021L2250.48 78.888ZM2243.42 48.52C2239.78 42.376 2234.78 37.72 2228.45 34.552C2222.11 31.288 2215.06 29.656 2207.28 29.656C2199.12 29.656 2191.78 31.384 2185.25 34.84C2178.72 38.296 2173.58 43.096 2169.84 49.24C2166.19 55.288 2164.37 62.152 2164.37 69.832C2164.37 77.608 2166.24 84.568 2169.98 90.712C2173.82 96.856 2179.2 101.656 2186.11 105.112C2193.02 108.568 2201.04 110.296 2210.16 110.296C2224.75 110.296 2235.84 106.072 2243.42 97.624L2229.02 82.648C2226.24 85.048 2223.46 86.776 2220.67 87.832C2217.98 88.888 2214.77 89.416 2211.02 89.416C2206.03 89.416 2201.86 88.36 2198.5 86.248C2195.79 84.4199 2193.81 81.9665 2192.56 78.888C2192.3 78.2483 2192.07 77.5817 2191.87 76.888H2248.61C2248.9 72.568 2249.04 70.312 2249.04 70.12C2249.04 61.768 2247.17 54.568 2243.42 48.52ZM2216.64 54.2217L2216.63 54.2108C2214.26 52.17 2211.24 51.096 2207.42 51.096C2203.61 51.096 2200.54 52.1653 2198.06 54.2189C2196.21 55.821 2194.84 57.8885 2194 60.488H2220.84C2219.98 57.9 2218.58 55.8365 2216.66 54.2324L2216.64 54.2217ZM2222.93 60.488C2223.12 61.1305 2223.28 61.7971 2223.41 62.488H2191.44C2191.57 61.7971 2191.72 61.1305 2191.91 60.488C2192.83 57.2917 2194.45 54.6943 2196.77 52.696C2199.65 50.296 2203.2 49.096 2207.42 49.096C2211.65 49.096 2215.15 50.296 2217.94 52.696C2220.33 54.6943 2222 57.2917 2222.93 60.488ZM7.64018 105.688C10.8082 108.76 14.6962 110.296 19.3042 110.296C24.0082 110.296 27.8962 108.76 30.9682 105.688C34.1362 102.616 35.7202 98.728 35.7202 94.024C35.7202 89.224 34.1842 85.336 31.1122 82.36C28.0402 79.384 24.1042 77.896 19.3042 77.896C14.6002 77.896 10.6642 79.384 7.49618 82.36C4.42418 85.336 2.88818 89.224 2.88818 94.024C2.88818 98.728 4.47218 102.616 7.64018 105.688ZM51.3014 105.688C54.4694 108.76 58.3574 110.296 62.9654 110.296C67.6694 110.296 71.5574 108.76 74.6294 105.688C77.7974 102.616 79.3814 98.728 79.3814 94.024C79.3814 89.224 77.8454 85.336 74.7734 82.36C71.7014 79.384 67.7654 77.896 62.9654 77.896C58.2614 77.896 54.3254 79.384 51.1574 82.36C48.0854 85.336 46.5494 89.224 46.5494 94.024C46.5494 98.728 48.1334 102.616 51.3014 105.688ZM94.9627 105.688C98.1307 108.76 102.019 110.296 106.627 110.296C111.331 110.296 115.219 108.76 118.291 105.688C121.459 102.616 123.043 98.728 123.043 94.024C123.043 89.224 121.507 85.336 118.435 82.36C115.363 79.384 111.427 77.896 106.627 77.896C101.923 77.896 97.9867 79.384 94.8187 82.36C91.7467 85.336 90.2107 89.224 90.2107 94.024C90.2107 98.728 91.7947 102.616 94.9627 105.688Z" fill="#010101"/>
</svg>
