<svg width="35" height="35" viewBox="0 0 35 35" fill="none" xmlns="http://www.w3.org/2000/svg">
<g clip-path="url(#clip0)">
<path d="M9.22505 1H25.775C30.2751 1 34 4.77518 34 9.42012V25.5798C34 30.2248 30.2751 34 25.775 34H9.22505C4.72487 34 1 30.2248 1 25.5798V9.42012C1 4.77518 4.72487 1 9.22505 1Z" stroke="#2AA4EF" stroke-width="2" stroke-miterlimit="10"/>
<path d="M26.8019 11.0438C26.0817 11.4727 25.3001 11.7943 24.4573 11.9628C23.7831 11.2276 22.8177 10.7681 21.7603 10.7681C19.7222 10.7681 18.0672 12.4683 18.0672 14.5667C18.0672 14.8578 18.0979 15.1488 18.1592 15.4245C15.079 15.2713 12.3514 13.7549 10.5278 11.4573C10.206 12.0241 10.0221 12.6674 10.0221 13.372C10.0221 14.6893 10.681 15.8534 11.6618 16.5274C11.0488 16.512 10.4818 16.3436 9.99147 16.0525V16.0985C9.99147 17.9365 11.2634 19.4683 12.9643 19.8206C12.6578 19.9125 12.3207 19.9584 11.9836 19.9584C11.7384 19.9584 11.5085 19.9431 11.294 19.8972C11.7691 21.3983 13.1329 22.5011 14.7572 22.5317C13.4853 23.5427 11.8916 24.1554 10.16 24.1554C9.86888 24.1554 9.5624 24.14 9.27124 24.1094C10.9109 25.1816 12.8571 25.8096 14.9411 25.8096C21.745 25.8096 25.4687 20.035 25.4687 15.0263C25.4687 14.8578 25.4687 14.6893 25.4534 14.5361C26.1736 14 26.8019 13.3414 27.2923 12.5755C26.6333 12.8818 25.9131 13.081 25.1622 13.1729C25.9284 12.6827 26.5261 11.9322 26.8019 11.0438Z" fill="#FAFAFA"/>
</g>
<defs>
<clipPath id="clip0">
<rect width="35" height="35" fill="white"/>
</clipPath>
</defs>
</svg>
