<svg width="1440" height="166" viewBox="0 0 1440 166" fill="none" xmlns="http://www.w3.org/2000/svg">
<path d="M-2.8 119H-3.8V120H-2.8V119ZM-2.8 18.2V17.2H-3.8V18.2H-2.8ZM30.176 18.2L31.0585 17.7297L30.7762 17.2H30.176V18.2ZM56.96 68.456L56.0775 68.9263L56.9624 70.5867L57.8435 68.9243L56.96 68.456ZM83.6 18.2V17.2H82.9983L82.7165 17.7316L83.6 18.2ZM116.576 18.2H117.576V17.2H116.576V18.2ZM116.576 119V120H117.576V119H116.576ZM87.776 119H86.776V120H87.776V119ZM87.776 67.448H88.776V63.6589L86.9062 66.9545L87.776 67.448ZM67.76 102.728V103.728H68.3424L68.6298 103.221L67.76 102.728ZM46.016 102.728L45.1462 103.221L45.4336 103.728H46.016V102.728ZM26 67.448L26.8698 66.9545L25 63.6589V67.448H26ZM26 119V120H27V119H26ZM-2.8 119H-1.8V18.2H-2.8H-3.8V119H-2.8ZM-2.8 18.2V19.2H30.176V18.2V17.2H-2.8V18.2ZM30.176 18.2L29.2935 18.6703L56.0775 68.9263L56.96 68.456L57.8425 67.9857L31.0585 17.7297L30.176 18.2ZM56.96 68.456L57.8435 68.9243L84.4835 18.6683L83.6 18.2L82.7165 17.7316L56.0765 67.9876L56.96 68.456ZM83.6 18.2V19.2H116.576V18.2V17.2H83.6V18.2ZM116.576 18.2H115.576V119H116.576H117.576V18.2H116.576ZM116.576 119V118H87.776V119V120H116.576V119ZM87.776 119H88.776V67.448H87.776H86.776V119H87.776ZM87.776 67.448L86.9062 66.9545L66.8902 102.235L67.76 102.728L68.6298 103.221L88.6458 67.9415L87.776 67.448ZM67.76 102.728V101.728H46.016V102.728V103.728H67.76V102.728ZM46.016 102.728L46.8858 102.235L26.8698 66.9545L26 67.448L25.1302 67.9415L45.1462 103.221L46.016 102.728ZM26 67.448H25V119H26H27V67.448H26ZM26 119V118H-2.8V119V120H26V119ZM202.79 91.064V92.064H203.68L203.784 91.1808L202.79 91.064ZM154.838 91.064V90.064H153.377L153.906 91.4264L154.838 91.064ZM181.19 92.648L181.835 91.8831L181.057 91.2281L180.415 92.0167L181.19 92.648ZM197.606 106.472L198.422 107.05L198.954 106.3L198.251 105.707L197.606 106.472ZM184.358 117.272L184.767 118.185L184.774 118.182L184.78 118.179L184.358 117.272ZM140.006 110.216L139.295 110.918L139.304 110.928L140.006 110.216ZM140.006 56.072L140.718 56.7744V56.7744L140.006 56.072ZM193.286 55.352L192.564 56.0437L192.569 56.0488L193.286 55.352ZM155.414 73.784L154.503 73.3715L153.864 74.784H155.414V73.784ZM178.166 73.784V74.784H179.587L179.108 73.4465L178.166 73.784ZM202.79 91.064V90.064H154.838V91.064V92.064H202.79V91.064ZM154.838 91.064L153.906 91.4264C154.981 94.1893 156.644 96.3169 158.915 97.7429C161.177 99.1634 163.966 99.84 167.222 99.84V98.84V97.84C164.238 97.84 161.844 97.2206 159.978 96.0491C158.121 94.8831 156.712 93.1227 155.77 90.7016L154.838 91.064ZM167.222 98.84V99.84C173.435 99.84 178.392 97.6701 181.966 93.2793L181.19 92.648L180.415 92.0167C177.269 95.8819 172.914 97.84 167.222 97.84V98.84ZM181.19 92.648L180.546 93.4129L196.962 107.237L197.606 106.472L198.251 105.707L181.835 91.8831L181.19 92.648ZM197.606 106.472L196.79 105.894C193.636 110.348 189.361 113.84 183.936 116.365L184.358 117.272L184.78 118.179C190.492 115.52 195.049 111.812 198.422 107.05L197.606 106.472ZM184.358 117.272L183.949 116.359C178.502 118.801 172.977 120.016 167.366 120.016V121.016V122.016C173.276 122.016 179.079 120.735 184.767 118.185L184.358 117.272ZM167.366 121.016V120.016C156.666 120.016 147.804 116.506 140.709 109.504L140.006 110.216L139.304 110.928C146.801 118.326 156.179 122.016 167.366 122.016V121.016ZM140.006 110.216L140.718 109.514C133.709 102.411 130.206 93.7379 130.206 83.432H129.206H128.206C128.206 94.2461 131.904 103.429 139.295 110.918L140.006 110.216ZM129.206 83.432H130.206C130.206 72.7312 133.716 63.8697 140.718 56.7744L140.006 56.072L139.295 55.3696C131.897 62.8663 128.206 72.2447 128.206 83.432H129.206ZM140.006 56.072L140.718 56.7744C147.717 49.6827 156.526 46.128 167.222 46.128V45.128V44.128C156.031 44.128 146.696 47.8693 139.295 55.3696L140.006 56.072ZM167.222 45.128V46.128C177.842 46.128 186.254 49.4546 192.564 56.0437L193.286 55.352L194.009 54.6603C187.263 47.6174 178.299 44.128 167.222 44.128V45.128ZM193.286 55.352L192.569 56.0488C198.862 62.5268 202.078 71.8433 202.078 84.152H203.078H204.078C204.078 71.5007 200.767 61.6171 194.004 54.6552L193.286 55.352ZM203.078 84.152H202.078C202.078 87.1148 201.982 89.3731 201.797 90.9472L202.79 91.064L203.784 91.1808C203.982 89.4909 204.078 87.1412 204.078 84.152H203.078ZM167.366 66.152V65.152C164.382 65.152 161.774 65.8237 159.592 67.2172C157.409 68.6112 155.721 70.6836 154.503 73.3715L155.414 73.784L156.325 74.1965C157.412 71.7964 158.868 70.0528 160.669 68.9028C162.47 67.7523 164.687 67.152 167.366 67.152V66.152ZM155.414 73.784V74.784H178.166V73.784V72.784H155.414V73.784ZM178.166 73.784L179.108 73.4465C178.142 70.7535 176.678 68.6584 174.675 67.2433C172.673 65.8279 170.215 65.152 167.366 65.152V66.152V67.152C169.894 67.152 171.924 67.7481 173.521 68.8767C175.119 70.0056 176.366 71.7265 177.225 74.1215L178.166 73.784ZM219.768 109.928L219.006 110.576L219.011 110.582L219.016 110.587L219.768 109.928ZM219.768 56.792L219.016 56.1327L219.011 56.1386L219.768 56.792ZM262.248 54.92L261.473 55.5525L263.248 57.7254V54.92H262.248ZM262.248 47.72V46.72H261.248V47.72H262.248ZM289.608 47.72H290.608V46.72H289.608V47.72ZM289.608 119V120H290.608V119H289.608ZM262.248 119H261.248V120H262.248V119ZM262.248 111.8H263.248V108.995L261.473 111.167L262.248 111.8ZM241.224 92.936L240.489 93.6143L240.496 93.6218L240.503 93.6291L241.224 92.936ZM258.648 92.936L257.927 92.2429L257.92 92.2502L257.913 92.2577L258.648 92.936ZM258.648 73.64L257.913 74.3183L257.92 74.3258L257.927 74.3331L258.648 73.64ZM241.224 73.64L240.503 72.9469L240.496 72.9542L240.489 72.9617L241.224 73.64ZM242.952 120.44V119.44C233.928 119.44 226.474 116.06 220.52 109.269L219.768 109.928L219.016 110.587C225.35 117.812 233.351 121.44 242.952 121.44V120.44ZM219.768 109.928L220.529 109.28C214.657 102.382 211.696 93.7423 211.696 83.288H210.696H209.696C209.696 94.1457 212.783 103.266 219.006 110.576L219.768 109.928ZM210.696 83.288H211.696C211.696 72.8334 214.657 64.2446 220.525 57.4453L219.768 56.792L219.011 56.1386C212.783 63.3554 209.696 72.4306 209.696 83.288H210.696ZM219.768 56.792L220.52 57.4512C226.474 50.6596 233.928 47.28 242.952 47.28V46.28V45.28C233.351 45.28 225.35 48.9084 219.016 56.1328L219.768 56.792ZM242.952 46.28V47.28C250.845 47.28 256.979 50.0496 261.473 55.5525L262.248 54.92L263.022 54.2875C258.108 48.2704 251.379 45.28 242.952 45.28V46.28ZM262.248 54.92H263.248V47.72H262.248H261.248V54.92H262.248ZM262.248 47.72V48.72H289.608V47.72V46.72H262.248V47.72ZM289.608 47.72H288.608V119H289.608H290.608V47.72H289.608ZM289.608 119V118H262.248V119V120H289.608V119ZM262.248 119H263.248V111.8H262.248H261.248V119H262.248ZM262.248 111.8L261.473 111.167C256.979 116.67 250.845 119.44 242.952 119.44V120.44V121.44C251.379 121.44 258.108 118.45 263.022 112.433L262.248 111.8ZM241.224 92.936L240.503 93.6291C243.091 96.3208 246.279 97.68 250.008 97.68V96.68V95.68C246.824 95.68 244.156 94.5432 241.945 92.2429L241.224 92.936ZM250.008 96.68V97.68C253.737 97.68 256.886 96.3194 259.383 93.6143L258.648 92.936L257.913 92.2577C255.802 94.5446 253.19 95.68 250.008 95.68V96.68ZM258.648 92.936L259.369 93.6291C261.973 90.921 263.248 87.4442 263.248 83.288H262.248H261.248C261.248 87.0038 260.123 89.959 257.927 92.2429L258.648 92.936ZM262.248 83.288H263.248C263.248 79.1318 261.973 75.655 259.369 72.9469L258.648 73.64L257.927 74.3331C260.123 76.617 261.248 79.5722 261.248 83.288H262.248ZM258.648 73.64L259.383 72.9617C256.886 70.2566 253.737 68.896 250.008 68.896V69.896V70.896C253.19 70.896 255.802 72.0314 257.913 74.3183L258.648 73.64ZM250.008 69.896V68.896C246.279 68.896 243.091 70.2552 240.503 72.9469L241.224 73.64L241.945 74.3331C244.156 72.0328 246.824 70.896 250.008 70.896V69.896ZM241.224 73.64L240.489 72.9617C237.988 75.6716 236.768 79.1433 236.768 83.288H237.768H238.768C238.768 79.5607 239.852 76.6004 241.959 74.3183L241.224 73.64ZM237.768 83.288H236.768C236.768 87.4327 237.988 90.9044 240.489 93.6143L241.224 92.936L241.959 92.2577C239.852 89.9756 238.768 87.0153 238.768 83.288H237.768ZM304.775 119H303.775V120H304.775V119ZM304.775 47.72V46.72H303.775V47.72H304.775ZM332.135 47.72H333.135V46.72H332.135V47.72ZM332.135 55.208H331.135V57.8422L332.883 55.8716L332.135 55.208ZM373.751 55.928L372.989 56.576L372.994 56.5816L373.751 55.928ZM381.959 119V120H382.959V119H381.959ZM354.599 119H353.599V120H354.599V119ZM351.719 73.352L350.892 73.9135L350.898 73.9234L350.905 73.9332L351.719 73.352ZM335.015 73.496L335.829 74.0772L335.834 74.0705L335.838 74.0637L335.015 73.496ZM332.135 119V120H333.135V119H332.135ZM304.775 119H305.775V47.72H304.775H303.775V119H304.775ZM304.775 47.72V48.72H332.135V47.72V46.72H304.775V47.72ZM332.135 47.72H331.135V55.208H332.135H333.135V47.72H332.135ZM332.135 55.208L332.883 55.8716C337.978 50.1279 344.237 47.28 351.719 47.28V46.28V45.28C343.65 45.28 336.852 48.3841 331.387 54.5444L332.135 55.208ZM351.719 46.28V47.28C360.672 47.28 367.726 50.3894 372.989 56.576L373.751 55.928L374.513 55.28C368.832 48.6026 361.198 45.28 351.719 45.28V46.28ZM373.751 55.928L372.994 56.5816C378.268 62.6878 380.959 71.0235 380.959 81.704H381.959H382.959C382.959 70.6885 380.178 61.8402 374.508 55.2744L373.751 55.928ZM381.959 81.704H380.959V119H381.959H382.959V81.704H381.959ZM381.959 119V118H354.599V119V120H381.959V119ZM354.599 119H355.599V84.296H354.599H353.599V119H354.599ZM354.599 84.296H355.599C355.599 79.5596 354.613 75.6835 352.533 72.7708L351.719 73.352L350.905 73.9332C352.665 76.3965 353.599 79.8164 353.599 84.296H354.599ZM351.719 73.352L352.547 72.7905C350.511 69.791 347.443 68.32 343.511 68.32V69.32V70.32C346.875 70.32 349.279 71.537 350.892 73.9135L351.719 73.352ZM343.511 69.32V68.32C339.479 68.32 336.321 69.8414 334.192 72.9283L335.015 73.496L335.838 74.0637C337.549 71.5826 340.055 70.32 343.511 70.32V69.32ZM335.015 73.496L334.201 72.9148C332.123 75.8244 331.135 79.6502 331.135 84.296H332.135H333.135C333.135 79.9178 334.067 76.5436 335.829 74.0772L335.015 73.496ZM332.135 84.296H331.135V119H332.135H333.135V84.296H332.135ZM332.135 119V118H304.775V119V120H332.135V119ZM398.566 35.192L397.848 35.8874L397.859 35.8992L397.871 35.9106L398.566 35.192ZM398.566 14.456L399.261 15.175L399.262 15.1746L398.566 14.456ZM419.59 14.456L418.883 15.1631L418.895 15.1749L418.907 15.1863L419.59 14.456ZM419.59 35.192L420.297 35.8991V35.8991L419.59 35.192ZM395.83 119H394.83V120H395.83V119ZM395.83 47.72V46.72H394.83V47.72H395.83ZM422.614 47.72H423.614V46.72H422.614V47.72ZM422.614 119V120H423.614V119H422.614ZM409.222 39.512V38.512C405.355 38.512 402.052 37.1736 399.262 34.4734L398.566 35.192L397.871 35.9106C401.033 38.9704 404.834 40.512 409.222 40.512V39.512ZM398.566 35.192L399.285 34.4966C396.585 31.7064 395.246 28.4035 395.246 24.536H394.246H393.246C393.246 28.9245 394.788 32.7256 397.848 35.8874L398.566 35.192ZM394.246 24.536H395.246C395.246 20.8764 396.572 17.7743 399.261 15.175L398.566 14.456L397.871 13.737C394.8 16.7057 393.246 20.3235 393.246 24.536H394.246ZM398.566 14.456L399.262 15.1746C402.052 12.4744 405.355 11.136 409.222 11.136V10.136V9.13599C404.834 9.13599 401.033 10.6776 397.871 13.7374L398.566 14.456ZM409.222 10.136V11.136C412.986 11.136 416.189 12.4685 418.883 15.1631L419.59 14.456L420.297 13.7489C417.232 10.6835 413.522 9.13599 409.222 9.13599V10.136ZM419.59 14.456L418.907 15.1863C421.689 17.7887 423.054 20.8876 423.054 24.536H424.054H425.054C425.054 20.3124 423.443 16.6913 420.273 13.7257L419.59 14.456ZM424.054 24.536H423.054C423.054 28.393 421.676 31.6923 418.883 34.4849L419.59 35.192L420.297 35.8991C423.457 32.7397 425.054 28.935 425.054 24.536H424.054ZM419.59 35.192L418.883 34.4849C416.189 37.1795 412.986 38.512 409.222 38.512V39.512V40.512C413.522 40.512 417.232 38.9645 420.297 35.8991L419.59 35.192ZM395.83 119H396.83V47.72H395.83H394.83V119H395.83ZM395.83 47.72V48.72H422.614V47.72V46.72H395.83V47.72ZM422.614 47.72H421.614V119H422.614H423.614V47.72H422.614ZM422.614 119V118H395.83V119V120H422.614V119ZM436.957 119H435.957V120H436.957V119ZM436.957 47.72V46.72H435.957V47.72H436.957ZM464.317 47.72H465.317V46.72H464.317V47.72ZM464.317 55.208H463.317V57.8422L465.065 55.8716L464.317 55.208ZM505.933 55.928L505.171 56.576L505.176 56.5816L505.933 55.928ZM514.141 119V120H515.141V119H514.141ZM486.781 119H485.781V120H486.781V119ZM483.901 73.352L483.073 73.9135L483.08 73.9234L483.087 73.9332L483.901 73.352ZM467.197 73.496L468.011 74.0772L468.015 74.0705L468.02 74.0637L467.197 73.496ZM464.317 119V120H465.317V119H464.317ZM436.957 119H437.957V47.72H436.957H435.957V119H436.957ZM436.957 47.72V48.72H464.317V47.72V46.72H436.957V47.72ZM464.317 47.72H463.317V55.208H464.317H465.317V47.72H464.317ZM464.317 55.208L465.065 55.8716C470.16 50.1279 476.418 47.28 483.901 47.28V46.28V45.28C475.831 45.28 469.034 48.3841 463.569 54.5444L464.317 55.208ZM483.901 46.28V47.28C492.854 47.28 499.908 50.3894 505.171 56.576L505.933 55.928L506.695 55.28C501.014 48.6026 493.38 45.28 483.901 45.28V46.28ZM505.933 55.928L505.176 56.5816C510.45 62.6878 513.141 71.0235 513.141 81.704H514.141H515.141C515.141 70.6885 512.36 61.8402 506.69 55.2744L505.933 55.928ZM514.141 81.704H513.141V119H514.141H515.141V81.704H514.141ZM514.141 119V118H486.781V119V120H514.141V119ZM486.781 119H487.781V84.296H486.781H485.781V119H486.781ZM486.781 84.296H487.781C487.781 79.5596 486.795 75.6835 484.715 72.7708L483.901 73.352L483.087 73.9332C484.847 76.3965 485.781 79.8164 485.781 84.296H486.781ZM483.901 73.352L484.728 72.7905C482.693 69.791 479.625 68.32 475.693 68.32V69.32V70.32C479.057 70.32 481.461 71.537 483.073 73.9135L483.901 73.352ZM475.693 69.32V68.32C471.661 68.32 468.503 69.8414 466.374 72.9283L467.197 73.496L468.02 74.0637C469.731 71.5826 472.236 70.32 475.693 70.32V69.32ZM467.197 73.496L466.383 72.9148C464.305 75.8244 463.317 79.6502 463.317 84.296H464.317H465.317C465.317 79.9178 466.249 76.5436 468.011 74.0772L467.197 73.496ZM464.317 84.296H463.317V119H464.317H465.317V84.296H464.317ZM464.317 119V118H436.957V119V120H464.317V119ZM540.54 150.536L540.12 151.444V151.444L540.54 150.536ZM525.42 138.728L524.774 137.965L524.057 138.572L524.618 139.325L525.42 138.728ZM544.284 122.744L545.046 122.096L544.399 121.336L543.638 121.981L544.284 122.744ZM571.644 127.064L570.995 126.303L570.989 126.309L570.983 126.314L571.644 127.064ZM576.54 111.8H577.54V108.995L575.766 111.167L576.54 111.8ZM534.06 109.928L533.299 110.576L533.303 110.582L533.308 110.587L534.06 109.928ZM534.06 56.792L533.308 56.1327L533.303 56.1386L534.06 56.792ZM576.54 54.92L575.766 55.5525L577.54 57.7254V54.92H576.54ZM576.54 47.72V46.72H575.54V47.72H576.54ZM603.9 47.72H604.9V46.72H603.9V47.72ZM600.3 131.384L599.384 130.982L599.382 130.988L600.3 131.384ZM590.508 144.776L591.139 145.552V145.552L590.508 144.776ZM576.54 152.408L576.224 151.459L576.219 151.461L576.54 152.408ZM555.516 92.936L554.781 93.6143L554.788 93.6218L554.795 93.6291L555.516 92.936ZM572.94 92.936L572.219 92.2429L572.212 92.2502L572.205 92.2577L572.94 92.936ZM572.94 73.64L572.205 74.3183L572.212 74.3258L572.219 74.3331L572.94 73.64ZM555.516 73.64L554.795 72.9469L554.788 72.9542L554.781 72.9617L555.516 73.64ZM560.268 155V154C553.701 154 547.268 152.547 540.96 149.628L540.54 150.536L540.12 151.444C546.677 154.477 553.395 156 560.268 156V155ZM540.54 150.536L540.96 149.628C534.655 146.711 529.756 142.873 526.222 138.131L525.42 138.728L524.618 139.325C528.381 144.375 533.562 148.409 540.12 151.444L540.54 150.536ZM525.42 138.728L526.067 139.491L544.931 123.507L544.284 122.744L543.638 121.981L524.774 137.965L525.42 138.728ZM544.284 122.744L543.522 123.392C548.549 129.305 554.182 132.384 560.412 132.384V131.384V130.384C554.93 130.384 549.811 127.703 545.046 122.096L544.284 122.744ZM560.412 131.384V132.384C564.888 132.384 568.865 130.85 572.306 127.814L571.644 127.064L570.983 126.314C567.895 129.038 564.384 130.384 560.412 130.384V131.384ZM571.644 127.064L572.293 127.825C575.838 124.801 577.54 120.358 577.54 114.68H576.54H575.54C575.54 119.946 573.978 123.759 570.995 126.303L571.644 127.064ZM576.54 114.68H577.54V111.8H576.54H575.54V114.68H576.54ZM576.54 111.8L575.766 111.167C571.272 116.67 565.137 119.44 557.244 119.44V120.44V121.44C565.671 121.44 572.401 118.45 577.315 112.433L576.54 111.8ZM557.244 120.44V119.44C548.22 119.44 540.766 116.06 534.812 109.269L534.06 109.928L533.308 110.587C539.642 117.812 547.644 121.44 557.244 121.44V120.44ZM534.06 109.928L534.822 109.28C528.949 102.382 525.988 93.7423 525.988 83.288H524.988H523.988C523.988 94.1457 527.075 103.266 533.299 110.576L534.06 109.928ZM524.988 83.288H525.988C525.988 72.8334 528.949 64.2446 534.817 57.4453L534.06 56.792L533.303 56.1386C527.075 63.3554 523.988 72.4306 523.988 83.288H524.988ZM534.06 56.792L534.812 57.4512C540.766 50.6596 548.22 47.28 557.244 47.28V46.28V45.28C547.644 45.28 539.642 48.9084 533.308 56.1328L534.06 56.792ZM557.244 46.28V47.28C565.137 47.28 571.272 50.0496 575.766 55.5525L576.54 54.92L577.315 54.2875C572.401 48.2704 565.671 45.28 557.244 45.28V46.28ZM576.54 54.92H577.54V47.72H576.54H575.54V54.92H576.54ZM576.54 47.72V48.72H603.9V47.72V46.72H576.54V47.72ZM603.9 47.72H602.9V112.664H603.9H604.9V47.72H603.9ZM603.9 112.664H602.9C602.9 119.557 601.72 125.657 599.384 130.982L600.3 131.384L601.216 131.786C603.68 126.167 604.9 119.787 604.9 112.664H603.9ZM600.3 131.384L599.382 130.988C597.037 136.429 593.864 140.755 589.877 144L590.508 144.776L591.139 145.552C595.409 142.077 598.764 137.475 601.219 131.78L600.3 131.384ZM590.508 144.776L589.877 144C585.845 147.282 581.296 149.768 576.224 151.459L576.54 152.408L576.856 153.357C582.152 151.592 586.915 148.99 591.139 145.552L590.508 144.776ZM576.54 152.408L576.219 151.461C571.241 153.151 565.927 154 560.268 154V155V156C566.13 156 571.663 155.121 576.862 153.355L576.54 152.408ZM555.516 92.936L554.795 93.6291C557.383 96.3208 560.572 97.68 564.3 97.68V96.68V95.68C561.117 95.68 558.449 94.5432 556.237 92.2429L555.516 92.936ZM564.3 96.68V97.68C568.03 97.68 571.178 96.3194 573.675 93.6143L572.94 92.936L572.205 92.2577C570.094 94.5446 567.483 95.68 564.3 95.68V96.68ZM572.94 92.936L573.661 93.6291C576.265 90.921 577.54 87.4442 577.54 83.288H576.54H575.54C575.54 87.0038 574.415 89.959 572.219 92.2429L572.94 92.936ZM576.54 83.288H577.54C577.54 79.1318 576.265 75.655 573.661 72.9469L572.94 73.64L572.219 74.3331C574.415 76.617 575.54 79.5722 575.54 83.288H576.54ZM572.94 73.64L573.675 72.9617C571.178 70.2566 568.03 68.896 564.3 68.896V69.896V70.896C567.483 70.896 570.094 72.0314 572.205 74.3183L572.94 73.64ZM564.3 69.896V68.896C560.572 68.896 557.383 70.2552 554.795 72.9469L555.516 73.64L556.237 74.3331C558.449 72.0328 561.117 70.896 564.3 70.896V69.896ZM555.516 73.64L554.781 72.9617C552.28 75.6716 551.06 79.1433 551.06 83.288H552.06H553.06C553.06 79.5607 554.144 76.6004 556.251 74.3183L555.516 73.64ZM552.06 83.288H551.06C551.06 87.4327 552.28 90.9044 554.781 93.6143L555.516 92.936L556.251 92.2577C554.144 89.9756 553.06 87.0153 553.06 83.288H552.06ZM669.188 109.928L668.427 110.576L668.432 110.582L668.436 110.587L669.188 109.928ZM669.188 56.792L668.436 56.1327L668.431 56.1386L669.188 56.792ZM711.668 54.92L710.894 55.5525L712.668 57.7254V54.92H711.668ZM711.668 47.72V46.72H710.668V47.72H711.668ZM739.028 47.72H740.028V46.72H739.028V47.72ZM739.028 119V120H740.028V119H739.028ZM711.668 119H710.668V120H711.668V119ZM711.668 111.8H712.668V108.995L710.894 111.167L711.668 111.8ZM690.644 92.936L689.91 93.6143L689.916 93.6218L689.924 93.6291L690.644 92.936ZM708.068 92.936L707.348 92.2429L707.34 92.2502L707.334 92.2577L708.068 92.936ZM708.068 73.64L707.334 74.3183L707.34 74.3258L707.348 74.3331L708.068 73.64ZM690.644 73.64L689.924 72.9469L689.916 72.9542L689.91 72.9617L690.644 73.64ZM692.372 120.44V119.44C683.349 119.44 675.895 116.06 669.94 109.269L669.188 109.928L668.436 110.587C674.77 117.812 682.772 121.44 692.372 121.44V120.44ZM669.188 109.928L669.95 109.28C664.078 102.382 661.116 93.7423 661.116 83.288H660.116H659.116C659.116 94.1457 662.203 103.266 668.427 110.576L669.188 109.928ZM660.116 83.288H661.116C661.116 72.8334 664.078 64.2446 669.945 57.4453L669.188 56.792L668.431 56.1386C662.203 63.3554 659.116 72.4306 659.116 83.288H660.116ZM669.188 56.792L669.94 57.4512C675.895 50.6596 683.349 47.28 692.372 47.28V46.28V45.28C682.772 45.28 674.77 48.9084 668.436 56.1328L669.188 56.792ZM692.372 46.28V47.28C700.265 47.28 706.4 50.0496 710.894 55.5525L711.668 54.92L712.443 54.2875C707.529 48.2704 700.799 45.28 692.372 45.28V46.28ZM711.668 54.92H712.668V47.72H711.668H710.668V54.92H711.668ZM711.668 47.72V48.72H739.028V47.72V46.72H711.668V47.72ZM739.028 47.72H738.028V119H739.028H740.028V47.72H739.028ZM739.028 119V118H711.668V119V120H739.028V119ZM711.668 119H712.668V111.8H711.668H710.668V119H711.668ZM711.668 111.8L710.894 111.167C706.4 116.67 700.265 119.44 692.372 119.44V120.44V121.44C700.799 121.44 707.529 118.45 712.443 112.433L711.668 111.8ZM690.644 92.936L689.924 93.6291C692.512 96.3208 695.7 97.68 699.428 97.68V96.68V95.68C696.245 95.68 693.577 94.5432 691.365 92.2429L690.644 92.936ZM699.428 96.68V97.68C703.158 97.68 706.306 96.3194 708.803 93.6143L708.068 92.936L707.334 92.2577C705.223 94.5446 702.611 95.68 699.428 95.68V96.68ZM708.068 92.936L708.789 93.6291C711.393 90.921 712.668 87.4442 712.668 83.288H711.668H710.668C710.668 87.0038 709.544 89.959 707.348 92.2429L708.068 92.936ZM711.668 83.288H712.668C712.668 79.1318 711.393 75.655 708.789 72.9469L708.068 73.64L707.348 74.3331C709.544 76.617 710.668 79.5722 710.668 83.288H711.668ZM708.068 73.64L708.803 72.9617C706.306 70.2566 703.158 68.896 699.428 68.896V69.896V70.896C702.611 70.896 705.223 72.0314 707.334 74.3183L708.068 73.64ZM699.428 69.896V68.896C695.7 68.896 692.512 70.2552 689.924 72.9469L690.644 73.64L691.365 74.3331C693.577 72.0328 696.245 70.896 699.428 70.896V69.896ZM690.644 73.64L689.91 72.9617C687.408 75.6716 686.188 79.1433 686.188 83.288H687.188H688.188C688.188 79.5607 689.273 76.6004 691.379 74.3183L690.644 73.64ZM687.188 83.288H686.188C686.188 87.4327 687.408 90.9044 689.91 93.6143L690.644 92.936L691.379 92.2577C689.273 89.9756 688.188 87.0153 688.188 83.288H687.188ZM754.196 119H753.196V120H754.196V119ZM754.196 47.72V46.72H753.196V47.72H754.196ZM781.556 47.72H782.556V46.72H781.556V47.72ZM781.556 55.208H780.556V57.8422L782.304 55.8716L781.556 55.208ZM823.172 55.928L822.41 56.576L822.415 56.5816L823.172 55.928ZM831.38 119V120H832.38V119H831.38ZM804.02 119H803.02V120H804.02V119ZM801.14 73.352L800.312 73.9135L800.319 73.9234L800.326 73.9332L801.14 73.352ZM784.436 73.496L785.249 74.0772L785.254 74.0705L785.259 74.0637L784.436 73.496ZM781.556 119V120H782.556V119H781.556ZM754.196 119H755.196V47.72H754.196H753.196V119H754.196ZM754.196 47.72V48.72H781.556V47.72V46.72H754.196V47.72ZM781.556 47.72H780.556V55.208H781.556H782.556V47.72H781.556ZM781.556 55.208L782.304 55.8716C787.399 50.1279 793.657 47.28 801.14 47.28V46.28V45.28C793.07 45.28 786.272 48.3841 780.808 54.5444L781.556 55.208ZM801.14 46.28V47.28C810.093 47.28 817.147 50.3894 822.41 56.576L823.172 55.928L823.933 55.28C818.253 48.6026 810.619 45.28 801.14 45.28V46.28ZM823.172 55.928L822.415 56.5816C827.688 62.6878 830.38 71.0235 830.38 81.704H831.38H832.38C832.38 70.6885 829.599 61.8402 823.928 55.2744L823.172 55.928ZM831.38 81.704H830.38V119H831.38H832.38V81.704H831.38ZM831.38 119V118H804.02V119V120H831.38V119ZM804.02 119H805.02V84.296H804.02H803.02V119H804.02ZM804.02 84.296H805.02C805.02 79.5596 804.034 75.6835 801.953 72.7708L801.14 73.352L800.326 73.9332C802.085 76.3965 803.02 79.8164 803.02 84.296H804.02ZM801.14 73.352L801.967 72.7905C799.932 69.791 796.863 68.32 792.932 68.32V69.32V70.32C796.296 70.32 798.699 71.537 800.312 73.9135L801.14 73.352ZM792.932 69.32V68.32C788.9 68.32 785.741 69.8414 783.612 72.9283L784.436 73.496L785.259 74.0637C786.97 71.5826 789.475 70.32 792.932 70.32V69.32ZM784.436 73.496L783.622 72.9148C781.544 75.8244 780.556 79.6502 780.556 84.296H781.556H782.556C782.556 79.9178 783.488 76.5436 785.249 74.0772L784.436 73.496ZM781.556 84.296H780.556V119H781.556H782.556V84.296H781.556ZM781.556 119V118H754.196V119V120H781.556V119ZM851.011 109.928L850.249 110.576L850.254 110.582L850.259 110.587L851.011 109.928ZM851.011 56.792L850.259 56.1327L850.254 56.1386L851.011 56.792ZM885.283 48.728L885.71 47.8237V47.8237L885.283 48.728ZM893.491 55.208L892.691 55.808L894.491 58.208V55.208H893.491ZM893.491 11V9.99999H892.491V11H893.491ZM920.851 11H921.851V9.99999H920.851V11ZM920.851 119V120H921.851V119H920.851ZM893.491 119H892.491V120H893.491V119ZM893.491 111.368H894.491V108.129L892.665 110.804L893.491 111.368ZM872.467 92.936L871.732 93.6143L871.739 93.6218L871.746 93.6291L872.467 92.936ZM889.891 92.936L889.17 92.2429L889.163 92.2502L889.156 92.2577L889.891 92.936ZM889.891 73.64L889.156 74.3183L889.163 74.3258L889.17 74.3331L889.891 73.64ZM872.467 73.64L871.746 72.9469L871.739 72.9542L871.732 72.9617L872.467 73.64ZM874.195 120.44V119.44C865.171 119.44 857.717 116.06 851.763 109.269L851.011 109.928L850.259 110.587C856.593 117.812 864.595 121.44 874.195 121.44V120.44ZM851.011 109.928L851.772 109.28C845.9 102.382 842.939 93.7423 842.939 83.288H841.939H840.939C840.939 94.1457 844.026 103.266 850.249 110.576L851.011 109.928ZM841.939 83.288H842.939C842.939 72.8334 845.9 64.2446 851.768 57.4453L851.011 56.792L850.254 56.1386C844.026 63.3554 840.939 72.4306 840.939 83.288H841.939ZM851.011 56.792L851.763 57.4512C857.717 50.6596 865.171 47.28 874.195 47.28V46.28V45.28C864.595 45.28 856.593 48.9084 850.259 56.1328L851.011 56.792ZM874.195 46.28V47.28C877.988 47.28 881.537 48.0652 884.856 49.6322L885.283 48.728L885.71 47.8237C882.116 46.1268 878.274 45.28 874.195 45.28V46.28ZM885.283 48.728L884.856 49.6322C888.185 51.2044 890.785 53.2672 892.691 55.808L893.491 55.208L894.291 54.608C892.164 51.7728 889.293 49.5156 885.71 47.8237L885.283 48.728ZM893.491 55.208H894.491V11H893.491H892.491V55.208H893.491ZM893.491 11V12H920.851V11V9.99999H893.491V11ZM920.851 11H919.851V119H920.851H921.851V11H920.851ZM920.851 119V118H893.491V119V120H920.851V119ZM893.491 119H894.491V111.368H893.491H892.491V119H893.491ZM893.491 111.368L892.665 110.804C888.761 116.524 882.673 119.44 874.195 119.44V120.44V121.44C883.188 121.44 889.965 118.308 894.317 111.932L893.491 111.368ZM872.467 92.936L871.746 93.6291C874.334 96.3208 877.522 97.68 881.251 97.68V96.68V95.68C878.068 95.68 875.4 94.5432 873.188 92.2429L872.467 92.936ZM881.251 96.68V97.68C884.98 97.68 888.129 96.3194 890.626 93.6143L889.891 92.936L889.156 92.2577C887.045 94.5446 884.433 95.68 881.251 95.68V96.68ZM889.891 92.936L890.612 93.6291C893.216 90.921 894.491 87.4442 894.491 83.288H893.491H892.491C892.491 87.0038 891.366 89.959 889.17 92.2429L889.891 92.936ZM893.491 83.288H894.491C894.491 79.1318 893.216 75.655 890.612 72.9469L889.891 73.64L889.17 74.3331C891.366 76.617 892.491 79.5722 892.491 83.288H893.491ZM889.891 73.64L890.626 72.9617C888.129 70.2566 884.98 68.896 881.251 68.896V69.896V70.896C884.433 70.896 887.045 72.0314 889.156 74.3183L889.891 73.64ZM881.251 69.896V68.896C877.522 68.896 874.334 70.2552 871.746 72.9469L872.467 73.64L873.188 74.3331C875.4 72.0328 878.068 70.896 881.251 70.896V69.896ZM872.467 73.64L871.732 72.9617C869.231 75.6716 868.011 79.1433 868.011 83.288H869.011H870.011C870.011 79.5607 871.095 76.6004 873.202 74.3183L872.467 73.64ZM869.011 83.288H868.011C868.011 87.4327 869.231 90.9044 871.732 93.6143L872.467 92.936L873.202 92.2577C871.095 89.9756 870.011 87.0153 870.011 83.288H869.011ZM981.682 119H980.682V120H981.682V119ZM981.682 18.2V17.2H980.682V18.2H981.682ZM1056.56 18.2H1057.56V17.2H1056.56V18.2ZM1056.56 43.688V44.688H1057.56V43.688H1056.56ZM1010.48 43.688V42.688H1009.48V43.688H1010.48ZM1010.48 56.072H1009.48V57.072H1010.48V56.072ZM1055.55 56.072H1056.55V55.072H1055.55V56.072ZM1055.55 80.84V81.84H1056.55V80.84H1055.55ZM1010.48 80.84V79.84H1009.48V80.84H1010.48ZM1010.48 93.512H1009.48V94.512H1010.48V93.512ZM1056.56 93.512H1057.56V92.512H1056.56V93.512ZM1056.56 119V120H1057.56V119H1056.56ZM981.682 119H982.682V18.2H981.682H980.682V119H981.682ZM981.682 18.2V19.2H1056.56V18.2V17.2H981.682V18.2ZM1056.56 18.2H1055.56V43.688H1056.56H1057.56V18.2H1056.56ZM1056.56 43.688V42.688H1010.48V43.688V44.688H1056.56V43.688ZM1010.48 43.688H1009.48V56.072H1010.48H1011.48V43.688H1010.48ZM1010.48 56.072V57.072H1055.55V56.072V55.072H1010.48V56.072ZM1055.55 56.072H1054.55V80.84H1055.55H1056.55V56.072H1055.55ZM1055.55 80.84V79.84H1010.48V80.84V81.84H1055.55V80.84ZM1010.48 80.84H1009.48V93.512H1010.48H1011.48V80.84H1010.48ZM1010.48 93.512V94.512H1056.56V93.512V92.512H1010.48V93.512ZM1056.56 93.512H1055.56V119H1056.56H1057.56V93.512H1056.56ZM1056.56 119V118H981.682V119V120H1056.56V119ZM1065.83 119L1065.01 118.425L1063.91 120H1065.83V119ZM1091.32 82.712L1092.14 83.2868L1092.55 82.7014L1092.13 82.1232L1091.32 82.712ZM1065.83 47.72V46.72H1063.87L1065.02 48.3088L1065.83 47.72ZM1098.38 47.72L1099.24 47.2207L1098.95 46.72H1098.38V47.72ZM1108.17 64.712L1107.3 65.2113L1108.17 66.726L1109.04 65.2058L1108.17 64.712ZM1117.82 47.72V46.72H1117.23L1116.95 47.2262L1117.82 47.72ZM1150.36 47.72L1151.17 48.3044L1152.31 46.72H1150.36V47.72ZM1125.16 82.712L1124.35 82.1276L1123.94 82.7015L1124.34 83.2824L1125.16 82.712ZM1150.36 119V120H1152.27L1151.18 118.43L1150.36 119ZM1117.96 119L1117.08 119.466L1117.36 120H1117.96V119ZM1108.17 100.424L1109.05 99.9577L1108.17 98.2917L1107.29 99.9523L1108.17 100.424ZM1098.23 119V120H1098.83L1099.11 119.472L1098.23 119ZM1065.83 119L1066.65 119.575L1092.14 83.2868L1091.32 82.712L1090.5 82.1372L1065.01 118.425L1065.83 119ZM1091.32 82.712L1092.13 82.1232L1066.64 47.1312L1065.83 47.72L1065.02 48.3088L1090.51 83.3008L1091.32 82.712ZM1065.83 47.72V48.72H1098.38V47.72V46.72H1065.83V47.72ZM1098.38 47.72L1097.51 48.2193L1107.3 65.2113L1108.17 64.712L1109.03 64.2127L1099.24 47.2207L1098.38 47.72ZM1108.17 64.712L1109.04 65.2058L1118.69 48.2138L1117.82 47.72L1116.95 47.2262L1107.3 64.2182L1108.17 64.712ZM1117.82 47.72V48.72H1150.36V47.72V46.72H1117.82V47.72ZM1150.36 47.72L1149.55 47.1356L1124.35 82.1276L1125.16 82.712L1125.97 83.2964L1151.17 48.3044L1150.36 47.72ZM1125.16 82.712L1124.34 83.2824L1149.54 119.57L1150.36 119L1151.18 118.43L1125.98 82.1416L1125.16 82.712ZM1150.36 119V118H1117.96V119V120H1150.36V119ZM1117.96 119L1118.84 118.534L1109.05 99.9577L1108.17 100.424L1107.28 100.89L1117.08 119.466L1117.96 119ZM1108.17 100.424L1107.29 99.9523L1097.35 118.528L1098.23 119L1099.11 119.472L1109.05 100.896L1108.17 100.424ZM1098.23 119V118H1065.83V119V120H1098.23V119ZM1227.98 91.064V92.064H1228.87L1228.97 91.1808L1227.98 91.064ZM1180.03 91.064V90.064H1178.57L1179.1 91.4264L1180.03 91.064ZM1206.38 92.648L1207.02 91.8831L1206.25 91.2281L1205.6 92.0167L1206.38 92.648ZM1222.8 106.472L1223.61 107.05L1224.14 106.3L1223.44 105.707L1222.8 106.472ZM1209.55 117.272L1209.96 118.185L1209.96 118.182L1209.97 118.179L1209.55 117.272ZM1165.2 110.216L1164.48 110.918L1164.49 110.928L1165.2 110.216ZM1165.2 56.072L1165.91 56.7744V56.7744L1165.2 56.072ZM1218.48 55.352L1217.75 56.0437L1217.76 56.0488L1218.48 55.352ZM1180.6 73.784L1179.69 73.3715L1179.05 74.784H1180.6V73.784ZM1203.36 73.784V74.784H1204.78L1204.3 73.4465L1203.36 73.784ZM1227.98 91.064V90.064H1180.03V91.064V92.064H1227.98V91.064ZM1180.03 91.064L1179.1 91.4264C1180.17 94.1893 1181.83 96.3169 1184.1 97.7429C1186.37 99.1634 1189.16 99.84 1192.41 99.84V98.84V97.84C1189.43 97.84 1187.03 97.2206 1185.17 96.0491C1183.31 94.8831 1181.9 93.1227 1180.96 90.7016L1180.03 91.064ZM1192.41 98.84V99.84C1198.62 99.84 1203.58 97.6701 1207.16 93.2793L1206.38 92.648L1205.6 92.0167C1202.46 95.8819 1198.1 97.84 1192.41 97.84V98.84ZM1206.38 92.648L1205.74 93.4129L1222.15 107.237L1222.8 106.472L1223.44 105.707L1207.02 91.8831L1206.38 92.648ZM1222.8 106.472L1221.98 105.894C1218.83 110.348 1214.55 113.84 1209.13 116.365L1209.55 117.272L1209.97 118.179C1215.68 115.52 1220.24 111.812 1223.61 107.05L1222.8 106.472ZM1209.55 117.272L1209.14 116.359C1203.69 118.801 1198.17 120.016 1192.56 120.016V121.016V122.016C1198.47 122.016 1204.27 120.735 1209.96 118.185L1209.55 117.272ZM1192.56 121.016V120.016C1181.86 120.016 1172.99 116.506 1165.9 109.504L1165.2 110.216L1164.49 110.928C1171.99 118.326 1181.37 122.016 1192.56 122.016V121.016ZM1165.2 110.216L1165.91 109.514C1158.9 102.411 1155.4 93.7379 1155.4 83.432H1154.4H1153.4C1153.4 94.2461 1157.09 103.429 1164.48 110.918L1165.2 110.216ZM1154.4 83.432H1155.4C1155.4 72.7312 1158.91 63.8697 1165.91 56.7744L1165.2 56.072L1164.48 55.3696C1157.09 62.8663 1153.4 72.2447 1153.4 83.432H1154.4ZM1165.2 56.072L1165.91 56.7744C1172.91 49.6827 1181.72 46.128 1192.41 46.128V45.128V44.128C1181.22 44.128 1171.89 47.8693 1164.48 55.3696L1165.2 56.072ZM1192.41 45.128V46.128C1203.03 46.128 1211.44 49.4546 1217.75 56.0437L1218.48 55.352L1219.2 54.6603C1212.45 47.6174 1203.49 44.128 1192.41 44.128V45.128ZM1218.48 55.352L1217.76 56.0488C1224.05 62.5268 1227.27 71.8433 1227.27 84.152H1228.27H1229.27C1229.27 71.5007 1225.96 61.6171 1219.19 54.6552L1218.48 55.352ZM1228.27 84.152H1227.27C1227.27 87.1148 1227.17 89.3731 1226.99 90.9472L1227.98 91.064L1228.97 91.1808C1229.17 89.4909 1229.27 87.1412 1229.27 84.152H1228.27ZM1192.56 66.152V65.152C1189.57 65.152 1186.96 65.8237 1184.78 67.2172C1182.6 68.6112 1180.91 70.6836 1179.69 73.3715L1180.6 73.784L1181.52 74.1965C1182.6 71.7964 1184.06 70.0528 1185.86 68.9028C1187.66 67.7523 1189.88 67.152 1192.56 67.152V66.152ZM1180.6 73.784V74.784H1203.36V73.784V72.784H1180.6V73.784ZM1203.36 73.784L1204.3 73.4465C1203.33 70.7535 1201.87 68.6584 1199.87 67.2433C1197.86 65.8279 1195.4 65.152 1192.56 65.152V66.152V67.152C1195.08 67.152 1197.11 67.7481 1198.71 68.8767C1200.31 70.0056 1201.56 71.7265 1202.42 74.1215L1203.36 73.784ZM1247.82 110.072L1247.13 110.788L1247.13 110.793L1247.82 110.072ZM1247.82 56.36L1247.12 55.6484V55.6484L1247.82 56.36ZM1292.75 49.448L1292.29 50.3329L1292.29 50.3362L1292.75 49.448ZM1306.43 61.112L1307.03 61.9106L1307.82 61.3197L1307.24 60.5248L1306.43 61.112ZM1285.98 76.52L1285.12 77.0203L1285.68 77.9986L1286.59 77.3186L1285.98 76.52ZM1266.54 73.928L1267.27 74.6211L1267.27 74.6143L1267.28 74.6074L1266.54 73.928ZM1266.4 92.648L1265.67 93.3263L1265.67 93.3338L1265.68 93.3411L1266.4 92.648ZM1286.13 90.056L1286.73 89.2587L1285.75 88.5184L1285.23 89.6253L1286.13 90.056ZM1306.29 105.32L1307.09 105.915L1307.68 105.12L1306.89 104.523L1306.29 105.32ZM1292.75 116.84L1293.21 117.731L1293.22 117.725L1292.75 116.84ZM1275.04 121.016V120.016C1264.74 120.016 1255.91 116.467 1248.52 109.351L1247.82 110.072L1247.13 110.793C1254.9 118.269 1264.22 122.016 1275.04 122.016V121.016ZM1247.82 110.072L1248.52 109.356C1241.13 102.15 1237.45 93.4787 1237.45 83.288H1236.45H1235.45C1235.45 94.0253 1239.35 103.21 1247.13 110.788L1247.82 110.072ZM1236.45 83.288H1237.45C1237.45 73.0969 1241.13 64.3756 1248.53 57.0716L1247.82 56.36L1247.12 55.6484C1239.35 63.3204 1235.45 72.5511 1235.45 83.288H1236.45ZM1247.82 56.36L1248.53 57.0716C1255.93 49.7665 1264.75 46.128 1275.04 46.128V45.128V44.128C1264.21 44.128 1254.89 47.9775 1247.12 55.6484L1247.82 56.36ZM1275.04 45.128V46.128C1281.22 46.128 1286.96 47.5304 1292.29 50.3329L1292.75 49.448L1293.22 48.5631C1287.6 45.6056 1281.53 44.128 1275.04 44.128V45.128ZM1292.75 49.448L1292.29 50.3362C1297.73 53.1472 1302.17 56.9341 1305.62 61.6992L1306.43 61.112L1307.24 60.5248C1303.59 55.4979 1298.91 51.5088 1293.21 48.5598L1292.75 49.448ZM1306.43 61.112L1305.83 60.3134L1285.38 75.7213L1285.98 76.52L1286.59 77.3186L1307.03 61.9106L1306.43 61.112ZM1285.98 76.52L1286.85 76.0197C1284.18 71.4055 1280.21 69.04 1275.04 69.04V70.04V71.04C1279.47 71.04 1282.79 72.9945 1285.12 77.0203L1285.98 76.52ZM1275.04 70.04V69.04C1271.47 69.04 1268.38 70.471 1265.81 73.2486L1266.54 73.928L1267.28 74.6074C1269.51 72.201 1272.08 71.04 1275.04 71.04V70.04ZM1266.54 73.928L1265.82 73.2349C1263.22 75.9382 1261.94 79.3643 1261.94 83.432H1262.94H1263.94C1263.94 79.8197 1265.06 76.9098 1267.27 74.6211L1266.54 73.928ZM1262.94 83.432H1261.94C1261.94 87.3111 1263.18 90.6312 1265.67 93.3263L1266.4 92.648L1267.14 91.9697C1265.01 89.6728 1263.94 86.8489 1263.94 83.432H1262.94ZM1266.4 92.648L1265.68 93.3411C1268.26 96.0199 1271.34 97.392 1274.9 97.392V96.392V95.392C1271.92 95.392 1269.35 94.2681 1267.12 91.9549L1266.4 92.648ZM1274.9 96.392V97.392C1277.76 97.392 1280.24 96.8396 1282.3 95.679C1284.37 94.5129 1285.94 92.7669 1287.03 90.4867L1286.13 90.056L1285.23 89.6253C1284.3 91.5691 1282.99 92.9911 1281.32 93.937C1279.63 94.8884 1277.51 95.392 1274.9 95.392V96.392ZM1286.13 90.056L1285.52 90.8533L1305.68 106.117L1306.29 105.32L1306.89 104.523L1286.73 89.2587L1286.13 90.056ZM1306.29 105.32L1305.48 104.725C1302.03 109.4 1297.63 113.143 1292.29 115.955L1292.75 116.84L1293.22 117.725C1298.82 114.777 1303.45 110.84 1307.09 105.915L1306.29 105.32ZM1292.75 116.84L1292.3 115.949C1286.97 118.659 1281.22 120.016 1275.04 120.016V121.016V122.016C1281.53 122.016 1287.59 120.589 1293.21 117.731L1292.75 116.84ZM1323.95 110.36L1324.7 109.701V109.701L1323.95 110.36ZM1315.74 47.72V46.72H1314.74V47.72H1315.74ZM1343.1 47.72H1344.1V46.72H1343.1V47.72ZM1345.84 92.648L1345 93.196L1345.02 93.2129L1345.03 93.2292L1345.84 92.648ZM1365.57 47.72V46.72H1364.57V47.72H1365.57ZM1392.93 47.72H1393.93V46.72H1392.93V47.72ZM1392.93 119V120H1393.93V119H1392.93ZM1366.15 119H1365.15V120H1366.15V119ZM1366.15 111.08H1367.15V110.08H1366.15V111.08ZM1365.86 111.08V110.08H1365.38L1365.08 110.447L1365.86 111.08ZM1345.98 119.72V118.72C1337.02 118.72 1329.96 115.699 1324.7 109.701L1323.95 110.36L1323.2 111.019C1328.89 117.501 1336.52 120.72 1345.98 120.72V119.72ZM1323.95 110.36L1324.7 109.701C1319.43 103.69 1316.74 95.5001 1316.74 85.016H1315.74H1314.74C1314.74 95.8439 1317.53 104.55 1323.2 111.019L1323.95 110.36ZM1315.74 85.016H1316.74V47.72H1315.74H1314.74V85.016H1315.74ZM1315.74 47.72V48.72H1343.1V47.72V46.72H1315.74V47.72ZM1343.1 47.72H1342.1V81.704H1343.1H1344.1V47.72H1343.1ZM1343.1 81.704H1342.1C1342.1 86.3434 1343.04 90.2007 1345 93.196L1345.84 92.648L1346.68 92.1C1344.99 89.5273 1344.1 86.0887 1344.1 81.704H1343.1ZM1345.84 92.648L1345.03 93.2292C1347.16 96.2104 1350.26 97.68 1354.19 97.68V96.68V95.68C1350.83 95.68 1348.37 94.4616 1346.65 92.0668L1345.84 92.648ZM1354.19 96.68V97.68C1358.22 97.68 1361.4 96.3389 1363.52 93.5409C1365.61 90.7948 1366.57 86.7942 1366.57 81.704H1365.57H1364.57C1364.57 86.5978 1363.63 90.0852 1361.93 92.3311C1360.26 94.5251 1357.75 95.68 1354.19 95.68V96.68ZM1365.57 81.704H1366.57V47.72H1365.57H1364.57V81.704H1365.57ZM1365.57 47.72V48.72H1392.93V47.72V46.72H1365.57V47.72ZM1392.93 47.72H1391.93V119H1392.93H1393.93V47.72H1392.93ZM1392.93 119V118H1366.15V119V120H1392.93V119ZM1366.15 119H1367.15V111.08H1366.15H1365.15V119H1366.15ZM1366.15 111.08V110.08H1365.86V111.08V112.08H1366.15V111.08ZM1365.86 111.08L1365.08 110.447C1360.6 115.939 1354.28 118.72 1345.98 118.72V119.72V120.72C1354.78 120.72 1361.71 117.741 1366.63 111.713L1365.86 111.08ZM1425.52 111.08L1426.2 110.344V110.344L1425.52 111.08ZM1416.59 71.48H1417.59V70.48H1416.59V71.48ZM1403.06 71.48H1402.06V72.48H1403.06V71.48ZM1403.06 47.72V46.72H1402.06V47.72H1403.06ZM1416.59 47.72V48.72H1417.59V47.72H1416.59ZM1416.59 26.984V25.984H1415.59V26.984H1416.59ZM1443.52 26.984H1444.52V25.984H1443.52V26.984ZM1443.52 47.72H1442.52V48.72H1443.52V47.72ZM1462.96 47.72H1463.96V46.72H1462.96V47.72ZM1462.96 71.48V72.48H1463.96V71.48H1462.96ZM1443.52 71.48V70.48H1442.52V71.48H1443.52ZM1461.66 93.224L1462.66 93.1082L1462.51 91.8322L1461.31 92.2895L1461.66 93.224ZM1464.4 116.696L1464.7 117.651L1465.49 117.405L1465.39 116.58L1464.4 116.696ZM1448.7 119.288V118.288C1439.4 118.288 1431.93 115.617 1426.2 110.344L1425.52 111.08L1424.84 111.816C1431.01 117.487 1439 120.288 1448.7 120.288V119.288ZM1425.52 111.08L1426.2 110.344C1420.46 105.073 1417.59 98.3381 1417.59 90.056H1416.59H1415.59C1415.59 98.8619 1418.67 106.143 1424.84 111.816L1425.52 111.08ZM1416.59 90.056H1417.59V71.48H1416.59H1415.59V90.056H1416.59ZM1416.59 71.48V70.48H1403.06V71.48V72.48H1416.59V71.48ZM1403.06 71.48H1404.06V47.72H1403.06H1402.06V71.48H1403.06ZM1403.06 47.72V48.72H1416.59V47.72V46.72H1403.06V47.72ZM1416.59 47.72H1417.59V26.984H1416.59H1415.59V47.72H1416.59ZM1416.59 26.984V27.984H1443.52V26.984V25.984H1416.59V26.984ZM1443.52 26.984H1442.52V47.72H1443.52H1444.52V26.984H1443.52ZM1443.52 47.72V48.72H1462.96V47.72V46.72H1443.52V47.72ZM1462.96 47.72H1461.96V71.48H1462.96H1463.96V47.72H1462.96ZM1462.96 71.48V70.48H1443.52V71.48V72.48H1462.96V71.48ZM1443.52 71.48H1442.52V83.72H1443.52H1444.52V71.48H1443.52ZM1443.52 83.72H1442.52C1442.52 87.447 1443.53 90.4203 1445.72 92.4461C1447.9 94.4583 1451.06 95.376 1455.04 95.376V94.376V93.376C1451.34 93.376 1448.74 92.5177 1447.08 90.9779C1445.43 89.4517 1444.52 87.097 1444.52 83.72H1443.52ZM1455.04 94.376V95.376C1457.55 95.376 1459.88 94.9744 1462.02 94.1585L1461.66 93.224L1461.31 92.2895C1459.42 93.0096 1457.33 93.376 1455.04 93.376V94.376ZM1461.66 93.224L1460.67 93.3398L1463.41 116.812L1464.4 116.696L1465.39 116.58L1462.66 93.1082L1461.66 93.224ZM1464.4 116.696L1464.1 115.741C1458.61 117.445 1453.48 118.288 1448.7 118.288V119.288V120.288C1453.72 120.288 1459.05 119.403 1464.7 117.651L1464.4 116.696ZM1480.21 35.192L1479.5 35.8874L1479.51 35.8992L1479.52 35.9106L1480.21 35.192ZM1480.21 14.456L1480.91 15.175L1480.91 15.1746L1480.21 14.456ZM1501.24 14.456L1500.53 15.1631L1500.54 15.1749L1500.56 15.1863L1501.24 14.456ZM1501.24 35.192L1501.95 35.8991V35.8991L1501.24 35.192ZM1477.48 119H1476.48V120H1477.48V119ZM1477.48 47.72V46.72H1476.48V47.72H1477.48ZM1504.26 47.72H1505.26V46.72H1504.26V47.72ZM1504.26 119V120H1505.26V119H1504.26ZM1490.87 39.512V38.512C1487 38.512 1483.7 37.1736 1480.91 34.4734L1480.21 35.192L1479.52 35.9106C1482.68 38.9704 1486.48 40.512 1490.87 40.512V39.512ZM1480.21 35.192L1480.93 34.4966C1478.23 31.7064 1476.89 28.4035 1476.89 24.536H1475.89H1474.89C1474.89 28.9245 1476.44 32.7256 1479.5 35.8874L1480.21 35.192ZM1475.89 24.536H1476.89C1476.89 20.8764 1478.22 17.7743 1480.91 15.175L1480.21 14.456L1479.52 13.737C1476.45 16.7057 1474.89 20.3235 1474.89 24.536H1475.89ZM1480.21 14.456L1480.91 15.1746C1483.7 12.4744 1487 11.136 1490.87 11.136V10.136V9.13599C1486.48 9.13599 1482.68 10.6776 1479.52 13.7374L1480.21 14.456ZM1490.87 10.136V11.136C1494.63 11.136 1497.84 12.4685 1500.53 15.1631L1501.24 14.456L1501.95 13.7489C1498.88 10.6835 1495.17 9.13599 1490.87 9.13599V10.136ZM1501.24 14.456L1500.56 15.1863C1503.34 17.7887 1504.7 20.8876 1504.7 24.536H1505.7H1506.7C1506.7 20.3124 1505.09 16.6913 1501.92 13.7257L1501.24 14.456ZM1505.7 24.536H1504.7C1504.7 28.393 1503.32 31.6923 1500.53 34.4849L1501.24 35.192L1501.95 35.8991C1505.1 32.7397 1506.7 28.935 1506.7 24.536H1505.7ZM1501.24 35.192L1500.53 34.4849C1497.84 37.1795 1494.63 38.512 1490.87 38.512V39.512V40.512C1495.17 40.512 1498.88 38.9645 1501.95 35.8991L1501.24 35.192ZM1477.48 119H1478.48V47.72H1477.48H1476.48V119H1477.48ZM1477.48 47.72V48.72H1504.26V47.72V46.72H1477.48V47.72ZM1504.26 47.72H1503.26V119H1504.26H1505.26V47.72H1504.26ZM1504.26 119V118H1477.48V119V120H1504.26V119ZM1581.24 110.072L1581.94 110.793L1581.94 110.788L1581.24 110.072ZM1526.81 110.072L1526.11 110.788L1526.12 110.793L1526.81 110.072ZM1526.81 56.36L1526.11 55.6484V55.6484L1526.81 56.36ZM1581.24 56.36L1581.95 55.6484V55.6484L1581.24 56.36ZM1545.1 93.08L1544.37 93.7605L1544.37 93.7671L1544.38 93.7736L1545.1 93.08ZM1562.96 93.08L1563.68 93.7736L1563.68 93.7671L1563.69 93.7605L1562.96 93.08ZM1562.96 73.784L1562.22 74.4644L1562.23 74.4711L1562.24 74.4776L1562.96 73.784ZM1545.1 73.784L1545.82 74.4776L1545.83 74.4711L1545.83 74.4644L1545.1 73.784ZM1581.24 110.072L1580.55 109.351C1573.15 116.467 1564.33 120.016 1554.03 120.016V121.016V122.016C1564.85 122.016 1574.17 118.269 1581.94 110.793L1581.24 110.072ZM1554.03 121.016V120.016C1543.73 120.016 1534.9 116.467 1527.51 109.351L1526.81 110.072L1526.12 110.793C1533.89 118.269 1543.21 122.016 1554.03 122.016V121.016ZM1526.81 110.072L1527.51 109.356C1520.12 102.15 1516.44 93.4787 1516.44 83.288H1515.44H1514.44C1514.44 94.0253 1518.34 103.21 1526.11 110.788L1526.81 110.072ZM1515.44 83.288H1516.44C1516.44 73.0969 1520.12 64.3756 1527.52 57.0716L1526.81 56.36L1526.11 55.6484C1518.34 63.3204 1514.44 72.5511 1514.44 83.288H1515.44ZM1526.81 56.36L1527.52 57.0716C1534.91 49.7665 1543.73 46.128 1554.03 46.128V45.128V44.128C1543.2 44.128 1533.88 47.9775 1526.11 55.6484L1526.81 56.36ZM1554.03 45.128V46.128C1564.32 46.128 1573.14 49.7665 1580.54 57.0716L1581.24 56.36L1581.95 55.6484C1574.18 47.9775 1564.85 44.128 1554.03 44.128V45.128ZM1581.24 56.36L1580.54 57.0716C1587.94 64.3756 1591.62 73.0969 1591.62 83.288H1592.62H1593.62C1593.62 72.5511 1589.72 63.3204 1581.95 55.6484L1581.24 56.36ZM1592.62 83.288H1591.62C1591.62 93.4787 1587.94 102.15 1580.55 109.356L1581.24 110.072L1581.94 110.788C1589.72 103.21 1593.62 94.0253 1593.62 83.288H1592.62ZM1545.1 93.08L1544.38 93.7736C1547.06 96.5523 1550.29 97.968 1554.03 97.968V96.968V95.968C1550.86 95.968 1548.14 94.7917 1545.82 92.3864L1545.1 93.08ZM1554.03 96.968V97.968C1557.77 97.968 1561 96.5523 1563.68 93.7736L1562.96 93.08L1562.24 92.3864C1559.92 94.7917 1557.2 95.968 1554.03 95.968V96.968ZM1562.96 93.08L1563.69 93.7605C1566.36 90.8833 1567.7 87.4226 1567.7 83.432H1566.7H1565.7C1565.7 86.9294 1564.54 89.9007 1562.22 92.3996L1562.96 93.08ZM1566.7 83.432H1567.7C1567.7 79.3524 1566.37 75.882 1563.68 73.0904L1562.96 73.784L1562.24 74.4776C1564.54 76.87 1565.7 79.8316 1565.7 83.432H1566.7ZM1562.96 73.784L1563.69 73.1035C1561.02 70.2258 1557.78 68.752 1554.03 68.752V69.752V70.752C1557.19 70.752 1559.9 71.9662 1562.22 74.4644L1562.96 73.784ZM1554.03 69.752V68.752C1550.28 68.752 1547.04 70.2258 1544.37 73.1035L1545.1 73.784L1545.83 74.4644C1548.15 71.9662 1550.87 70.752 1554.03 70.752V69.752ZM1545.1 73.784L1544.38 73.0904C1541.69 75.882 1540.36 79.3524 1540.36 83.432H1541.36H1542.36C1542.36 79.8316 1543.52 76.87 1545.82 74.4776L1545.1 73.784ZM1541.36 83.432H1540.36C1540.36 87.4226 1541.7 90.8833 1544.37 93.7605L1545.1 93.08L1545.83 92.3996C1543.51 89.9007 1542.36 86.9294 1542.36 83.432H1541.36ZM1603.89 119H1602.89V120H1603.89V119ZM1603.89 47.72V46.72H1602.89V47.72H1603.89ZM1631.25 47.72H1632.25V46.72H1631.25V47.72ZM1631.25 55.208H1630.25V57.8422L1632 55.8716L1631.25 55.208ZM1672.87 55.928L1672.11 56.576L1672.11 56.5816L1672.87 55.928ZM1681.08 119V120H1682.08V119H1681.08ZM1653.72 119H1652.72V120H1653.72V119ZM1650.84 73.352L1650.01 73.9135L1650.01 73.9234L1650.02 73.9332L1650.84 73.352ZM1634.13 73.496L1634.94 74.0772L1634.95 74.0705L1634.95 74.0637L1634.13 73.496ZM1631.25 119V120H1632.25V119H1631.25ZM1603.89 119H1604.89V47.72H1603.89H1602.89V119H1603.89ZM1603.89 47.72V48.72H1631.25V47.72V46.72H1603.89V47.72ZM1631.25 47.72H1630.25V55.208H1631.25H1632.25V47.72H1631.25ZM1631.25 55.208L1632 55.8716C1637.09 50.1279 1643.35 47.28 1650.84 47.28V46.28V45.28C1642.77 45.28 1635.97 48.3841 1630.5 54.5444L1631.25 55.208ZM1650.84 46.28V47.28C1659.79 47.28 1666.84 50.3894 1672.11 56.576L1672.87 55.928L1673.63 55.28C1667.95 48.6026 1660.31 45.28 1650.84 45.28V46.28ZM1672.87 55.928L1672.11 56.5816C1677.38 62.6878 1680.08 71.0235 1680.08 81.704H1681.08H1682.08C1682.08 70.6885 1679.29 61.8402 1673.62 55.2744L1672.87 55.928ZM1681.08 81.704H1680.08V119H1681.08H1682.08V81.704H1681.08ZM1681.08 119V118H1653.72V119V120H1681.08V119ZM1653.72 119H1654.72V84.296H1653.72H1652.72V119H1653.72ZM1653.72 84.296H1654.72C1654.72 79.5596 1653.73 75.6835 1651.65 72.7708L1650.84 73.352L1650.02 73.9332C1651.78 76.3965 1652.72 79.8164 1652.72 84.296H1653.72ZM1650.84 73.352L1651.66 72.7905C1649.63 69.791 1646.56 68.32 1642.63 68.32V69.32V70.32C1645.99 70.32 1648.4 71.537 1650.01 73.9135L1650.84 73.352ZM1642.63 69.32V68.32C1638.6 68.32 1635.44 69.8414 1633.31 72.9283L1634.13 73.496L1634.95 74.0637C1636.67 71.5826 1639.17 70.32 1642.63 70.32V69.32ZM1634.13 73.496L1633.32 72.9148C1631.24 75.8244 1630.25 79.6502 1630.25 84.296H1631.25H1632.25C1632.25 79.9178 1633.18 76.5436 1634.94 74.0772L1634.13 73.496ZM1631.25 84.296H1630.25V119H1631.25H1632.25V84.296H1631.25ZM1631.25 119V118H1603.89V119V120H1631.25V119Z" fill="#E9E9E9"/>
</svg>
