<svg width="1697" height="166" viewBox="0 0 1697 166" fill="none" xmlns="http://www.w3.org/2000/svg">
<path d="M7.2 119H6.2V120H7.2V119ZM7.2 18.2V17.2H6.2V18.2H7.2ZM40.176 18.2L41.0585 17.7297L40.7762 17.2H40.176V18.2ZM66.96 68.456L66.0775 68.9263L66.9624 70.5867L67.8435 68.9243L66.96 68.456ZM93.6 18.2V17.2H92.9983L92.7165 17.7316L93.6 18.2ZM126.576 18.2H127.576V17.2H126.576V18.2ZM126.576 119V120H127.576V119H126.576ZM97.776 119H96.776V120H97.776V119ZM97.776 67.448H98.776V63.6589L96.9062 66.9545L97.776 67.448ZM77.76 102.728V103.728H78.3424L78.6298 103.221L77.76 102.728ZM56.016 102.728L55.1462 103.221L55.4336 103.728H56.016V102.728ZM36 67.448L36.8698 66.9545L35 63.6589V67.448H36ZM36 119V120H37V119H36ZM7.2 119H8.2V18.2H7.2H6.2V119H7.2ZM7.2 18.2V19.2H40.176V18.2V17.2H7.2V18.2ZM40.176 18.2L39.2935 18.6703L66.0775 68.9263L66.96 68.456L67.8425 67.9857L41.0585 17.7297L40.176 18.2ZM66.96 68.456L67.8435 68.9243L94.4835 18.6683L93.6 18.2L92.7165 17.7316L66.0765 67.9876L66.96 68.456ZM93.6 18.2V19.2H126.576V18.2V17.2H93.6V18.2ZM126.576 18.2H125.576V119H126.576H127.576V18.2H126.576ZM126.576 119V118H97.776V119V120H126.576V119ZM97.776 119H98.776V67.448H97.776H96.776V119H97.776ZM97.776 67.448L96.9062 66.9545L76.8902 102.235L77.76 102.728L78.6298 103.221L98.6458 67.9415L97.776 67.448ZM77.76 102.728V101.728H56.016V102.728V103.728H77.76V102.728ZM56.016 102.728L56.8858 102.235L36.8698 66.9545L36 67.448L35.1302 67.9415L55.1462 103.221L56.016 102.728ZM36 67.448H35V119H36H37V67.448H36ZM36 119V118H7.2V119V120H36V119ZM212.79 91.064V92.064H213.68L213.784 91.1808L212.79 91.064ZM164.838 91.064V90.064H163.377L163.906 91.4264L164.838 91.064ZM191.19 92.648L191.835 91.8831L191.057 91.2281L190.415 92.0167L191.19 92.648ZM207.606 106.472L208.422 107.05L208.954 106.3L208.251 105.707L207.606 106.472ZM194.358 117.272L194.767 118.185L194.774 118.182L194.78 118.179L194.358 117.272ZM150.006 110.216L149.295 110.918L149.304 110.928L150.006 110.216ZM150.006 56.072L150.718 56.7744V56.7744L150.006 56.072ZM203.286 55.352L202.564 56.0437L202.569 56.0488L203.286 55.352ZM165.414 73.784L164.503 73.3715L163.864 74.784H165.414V73.784ZM188.166 73.784V74.784H189.587L189.108 73.4465L188.166 73.784ZM212.79 91.064V90.064H164.838V91.064V92.064H212.79V91.064ZM164.838 91.064L163.906 91.4264C164.981 94.1893 166.644 96.3169 168.915 97.7429C171.177 99.1634 173.966 99.84 177.222 99.84V98.84V97.84C174.238 97.84 171.844 97.2206 169.978 96.0491C168.121 94.8831 166.712 93.1227 165.77 90.7016L164.838 91.064ZM177.222 98.84V99.84C183.435 99.84 188.392 97.6701 191.966 93.2793L191.19 92.648L190.415 92.0167C187.269 95.8819 182.914 97.84 177.222 97.84V98.84ZM191.19 92.648L190.546 93.4129L206.962 107.237L207.606 106.472L208.251 105.707L191.835 91.8831L191.19 92.648ZM207.606 106.472L206.79 105.894C203.636 110.348 199.361 113.84 193.936 116.365L194.358 117.272L194.78 118.179C200.492 115.52 205.049 111.812 208.422 107.05L207.606 106.472ZM194.358 117.272L193.949 116.359C188.502 118.801 182.977 120.016 177.366 120.016V121.016V122.016C183.276 122.016 189.079 120.735 194.767 118.185L194.358 117.272ZM177.366 121.016V120.016C166.666 120.016 157.804 116.506 150.709 109.504L150.006 110.216L149.304 110.928C156.801 118.326 166.179 122.016 177.366 122.016V121.016ZM150.006 110.216L150.718 109.514C143.709 102.411 140.206 93.7379 140.206 83.432H139.206H138.206C138.206 94.2461 141.904 103.429 149.295 110.918L150.006 110.216ZM139.206 83.432H140.206C140.206 72.7312 143.716 63.8697 150.718 56.7744L150.006 56.072L149.295 55.3696C141.897 62.8663 138.206 72.2447 138.206 83.432H139.206ZM150.006 56.072L150.718 56.7744C157.717 49.6827 166.526 46.128 177.222 46.128V45.128V44.128C166.031 44.128 156.696 47.8693 149.295 55.3696L150.006 56.072ZM177.222 45.128V46.128C187.842 46.128 196.254 49.4546 202.564 56.0437L203.286 55.352L204.009 54.6603C197.263 47.6174 188.299 44.128 177.222 44.128V45.128ZM203.286 55.352L202.569 56.0488C208.862 62.5268 212.078 71.8433 212.078 84.152H213.078H214.078C214.078 71.5007 210.767 61.6171 204.004 54.6552L203.286 55.352ZM213.078 84.152H212.078C212.078 87.1148 211.982 89.3731 211.797 90.9472L212.79 91.064L213.784 91.1808C213.982 89.4909 214.078 87.1412 214.078 84.152H213.078ZM177.366 66.152V65.152C174.382 65.152 171.774 65.8237 169.592 67.2172C167.409 68.6112 165.721 70.6836 164.503 73.3715L165.414 73.784L166.325 74.1965C167.412 71.7964 168.868 70.0528 170.669 68.9028C172.47 67.7523 174.687 67.152 177.366 67.152V66.152ZM165.414 73.784V74.784H188.166V73.784V72.784H165.414V73.784ZM188.166 73.784L189.108 73.4465C188.142 70.7535 186.678 68.6584 184.675 67.2433C182.673 65.8279 180.215 65.152 177.366 65.152V66.152V67.152C179.894 67.152 181.924 67.7481 183.521 68.8767C185.119 70.0056 186.366 71.7265 187.225 74.1215L188.166 73.784ZM229.768 109.928L229.006 110.576L229.011 110.582L229.016 110.587L229.768 109.928ZM229.768 56.792L229.016 56.1327L229.011 56.1386L229.768 56.792ZM272.248 54.92L271.473 55.5525L273.248 57.7254V54.92H272.248ZM272.248 47.72V46.72H271.248V47.72H272.248ZM299.608 47.72H300.608V46.72H299.608V47.72ZM299.608 119V120H300.608V119H299.608ZM272.248 119H271.248V120H272.248V119ZM272.248 111.8H273.248V108.995L271.473 111.167L272.248 111.8ZM251.224 92.936L250.489 93.6143L250.496 93.6218L250.503 93.6291L251.224 92.936ZM268.648 92.936L267.927 92.2429L267.92 92.2502L267.913 92.2577L268.648 92.936ZM268.648 73.64L267.913 74.3183L267.92 74.3258L267.927 74.3331L268.648 73.64ZM251.224 73.64L250.503 72.9469L250.496 72.9542L250.489 72.9617L251.224 73.64ZM252.952 120.44V119.44C243.928 119.44 236.474 116.06 230.52 109.269L229.768 109.928L229.016 110.587C235.35 117.812 243.351 121.44 252.952 121.44V120.44ZM229.768 109.928L230.529 109.28C224.657 102.382 221.696 93.7423 221.696 83.288H220.696H219.696C219.696 94.1457 222.783 103.266 229.006 110.576L229.768 109.928ZM220.696 83.288H221.696C221.696 72.8334 224.657 64.2446 230.525 57.4453L229.768 56.792L229.011 56.1386C222.783 63.3554 219.696 72.4306 219.696 83.288H220.696ZM229.768 56.792L230.52 57.4512C236.474 50.6596 243.928 47.28 252.952 47.28V46.28V45.28C243.351 45.28 235.35 48.9084 229.016 56.1328L229.768 56.792ZM252.952 46.28V47.28C260.845 47.28 266.979 50.0496 271.473 55.5525L272.248 54.92L273.022 54.2875C268.108 48.2704 261.379 45.28 252.952 45.28V46.28ZM272.248 54.92H273.248V47.72H272.248H271.248V54.92H272.248ZM272.248 47.72V48.72H299.608V47.72V46.72H272.248V47.72ZM299.608 47.72H298.608V119H299.608H300.608V47.72H299.608ZM299.608 119V118H272.248V119V120H299.608V119ZM272.248 119H273.248V111.8H272.248H271.248V119H272.248ZM272.248 111.8L271.473 111.167C266.979 116.67 260.845 119.44 252.952 119.44V120.44V121.44C261.379 121.44 268.108 118.45 273.022 112.433L272.248 111.8ZM251.224 92.936L250.503 93.6291C253.091 96.3208 256.279 97.68 260.008 97.68V96.68V95.68C256.824 95.68 254.156 94.5432 251.945 92.2429L251.224 92.936ZM260.008 96.68V97.68C263.737 97.68 266.886 96.3194 269.383 93.6143L268.648 92.936L267.913 92.2577C265.802 94.5446 263.19 95.68 260.008 95.68V96.68ZM268.648 92.936L269.369 93.6291C271.973 90.921 273.248 87.4442 273.248 83.288H272.248H271.248C271.248 87.0038 270.123 89.959 267.927 92.2429L268.648 92.936ZM272.248 83.288H273.248C273.248 79.1318 271.973 75.655 269.369 72.9469L268.648 73.64L267.927 74.3331C270.123 76.617 271.248 79.5722 271.248 83.288H272.248ZM268.648 73.64L269.383 72.9617C266.886 70.2566 263.737 68.896 260.008 68.896V69.896V70.896C263.19 70.896 265.802 72.0314 267.913 74.3183L268.648 73.64ZM260.008 69.896V68.896C256.279 68.896 253.091 70.2552 250.503 72.9469L251.224 73.64L251.945 74.3331C254.156 72.0328 256.824 70.896 260.008 70.896V69.896ZM251.224 73.64L250.489 72.9617C247.988 75.6716 246.768 79.1433 246.768 83.288H247.768H248.768C248.768 79.5607 249.852 76.6004 251.959 74.3183L251.224 73.64ZM247.768 83.288H246.768C246.768 87.4327 247.988 90.9044 250.489 93.6143L251.224 92.936L251.959 92.2577C249.852 89.9756 248.768 87.0153 248.768 83.288H247.768ZM314.775 119H313.775V120H314.775V119ZM314.775 47.72V46.72H313.775V47.72H314.775ZM342.135 47.72H343.135V46.72H342.135V47.72ZM342.135 55.208H341.135V57.8422L342.883 55.8716L342.135 55.208ZM383.751 55.928L382.989 56.576L382.994 56.5816L383.751 55.928ZM391.959 119V120H392.959V119H391.959ZM364.599 119H363.599V120H364.599V119ZM361.719 73.352L360.892 73.9135L360.898 73.9234L360.905 73.9332L361.719 73.352ZM345.015 73.496L345.829 74.0772L345.834 74.0705L345.838 74.0637L345.015 73.496ZM342.135 119V120H343.135V119H342.135ZM314.775 119H315.775V47.72H314.775H313.775V119H314.775ZM314.775 47.72V48.72H342.135V47.72V46.72H314.775V47.72ZM342.135 47.72H341.135V55.208H342.135H343.135V47.72H342.135ZM342.135 55.208L342.883 55.8716C347.978 50.1279 354.237 47.28 361.719 47.28V46.28V45.28C353.65 45.28 346.852 48.3841 341.387 54.5444L342.135 55.208ZM361.719 46.28V47.28C370.672 47.28 377.726 50.3894 382.989 56.576L383.751 55.928L384.513 55.28C378.832 48.6026 371.198 45.28 361.719 45.28V46.28ZM383.751 55.928L382.994 56.5816C388.268 62.6878 390.959 71.0235 390.959 81.704H391.959H392.959C392.959 70.6885 390.178 61.8402 384.508 55.2744L383.751 55.928ZM391.959 81.704H390.959V119H391.959H392.959V81.704H391.959ZM391.959 119V118H364.599V119V120H391.959V119ZM364.599 119H365.599V84.296H364.599H363.599V119H364.599ZM364.599 84.296H365.599C365.599 79.5596 364.613 75.6835 362.533 72.7708L361.719 73.352L360.905 73.9332C362.665 76.3965 363.599 79.8164 363.599 84.296H364.599ZM361.719 73.352L362.547 72.7905C360.511 69.791 357.443 68.32 353.511 68.32V69.32V70.32C356.875 70.32 359.279 71.537 360.892 73.9135L361.719 73.352ZM353.511 69.32V68.32C349.479 68.32 346.321 69.8414 344.192 72.9283L345.015 73.496L345.838 74.0637C347.549 71.5826 350.055 70.32 353.511 70.32V69.32ZM345.015 73.496L344.201 72.9148C342.123 75.8244 341.135 79.6502 341.135 84.296H342.135H343.135C343.135 79.9178 344.067 76.5436 345.829 74.0772L345.015 73.496ZM342.135 84.296H341.135V119H342.135H343.135V84.296H342.135ZM342.135 119V118H314.775V119V120H342.135V119ZM408.566 35.192L407.848 35.8874L407.859 35.8992L407.871 35.9106L408.566 35.192ZM408.566 14.456L409.261 15.175L409.262 15.1746L408.566 14.456ZM429.59 14.456L428.883 15.1631L428.895 15.1749L428.907 15.1863L429.59 14.456ZM429.59 35.192L430.297 35.8991V35.8991L429.59 35.192ZM405.83 119H404.83V120H405.83V119ZM405.83 47.72V46.72H404.83V47.72H405.83ZM432.614 47.72H433.614V46.72H432.614V47.72ZM432.614 119V120H433.614V119H432.614ZM419.222 39.512V38.512C415.355 38.512 412.052 37.1736 409.262 34.4734L408.566 35.192L407.871 35.9106C411.033 38.9704 414.834 40.512 419.222 40.512V39.512ZM408.566 35.192L409.285 34.4966C406.585 31.7064 405.246 28.4035 405.246 24.536H404.246H403.246C403.246 28.9245 404.788 32.7256 407.848 35.8874L408.566 35.192ZM404.246 24.536H405.246C405.246 20.8764 406.572 17.7743 409.261 15.175L408.566 14.456L407.871 13.737C404.8 16.7057 403.246 20.3235 403.246 24.536H404.246ZM408.566 14.456L409.262 15.1746C412.052 12.4744 415.355 11.136 419.222 11.136V10.136V9.13599C414.834 9.13599 411.033 10.6776 407.871 13.7374L408.566 14.456ZM419.222 10.136V11.136C422.986 11.136 426.189 12.4685 428.883 15.1631L429.59 14.456L430.297 13.7489C427.232 10.6835 423.522 9.13599 419.222 9.13599V10.136ZM429.59 14.456L428.907 15.1863C431.689 17.7887 433.054 20.8876 433.054 24.536H434.054H435.054C435.054 20.3124 433.443 16.6913 430.273 13.7257L429.59 14.456ZM434.054 24.536H433.054C433.054 28.393 431.676 31.6923 428.883 34.4849L429.59 35.192L430.297 35.8991C433.457 32.7397 435.054 28.935 435.054 24.536H434.054ZM429.59 35.192L428.883 34.4849C426.189 37.1795 422.986 38.512 419.222 38.512V39.512V40.512C423.522 40.512 427.232 38.9645 430.297 35.8991L429.59 35.192ZM405.83 119H406.83V47.72H405.83H404.83V119H405.83ZM405.83 47.72V48.72H432.614V47.72V46.72H405.83V47.72ZM432.614 47.72H431.614V119H432.614H433.614V47.72H432.614ZM432.614 119V118H405.83V119V120H432.614V119ZM446.957 119H445.957V120H446.957V119ZM446.957 47.72V46.72H445.957V47.72H446.957ZM474.317 47.72H475.317V46.72H474.317V47.72ZM474.317 55.208H473.317V57.8422L475.065 55.8716L474.317 55.208ZM515.933 55.928L515.171 56.576L515.176 56.5816L515.933 55.928ZM524.141 119V120H525.141V119H524.141ZM496.781 119H495.781V120H496.781V119ZM493.901 73.352L493.073 73.9135L493.08 73.9234L493.087 73.9332L493.901 73.352ZM477.197 73.496L478.011 74.0772L478.015 74.0705L478.02 74.0637L477.197 73.496ZM474.317 119V120H475.317V119H474.317ZM446.957 119H447.957V47.72H446.957H445.957V119H446.957ZM446.957 47.72V48.72H474.317V47.72V46.72H446.957V47.72ZM474.317 47.72H473.317V55.208H474.317H475.317V47.72H474.317ZM474.317 55.208L475.065 55.8716C480.16 50.1279 486.418 47.28 493.901 47.28V46.28V45.28C485.831 45.28 479.034 48.3841 473.569 54.5444L474.317 55.208ZM493.901 46.28V47.28C502.854 47.28 509.908 50.3894 515.171 56.576L515.933 55.928L516.695 55.28C511.014 48.6026 503.38 45.28 493.901 45.28V46.28ZM515.933 55.928L515.176 56.5816C520.45 62.6878 523.141 71.0235 523.141 81.704H524.141H525.141C525.141 70.6885 522.36 61.8402 516.69 55.2744L515.933 55.928ZM524.141 81.704H523.141V119H524.141H525.141V81.704H524.141ZM524.141 119V118H496.781V119V120H524.141V119ZM496.781 119H497.781V84.296H496.781H495.781V119H496.781ZM496.781 84.296H497.781C497.781 79.5596 496.795 75.6835 494.715 72.7708L493.901 73.352L493.087 73.9332C494.847 76.3965 495.781 79.8164 495.781 84.296H496.781ZM493.901 73.352L494.728 72.7905C492.693 69.791 489.625 68.32 485.693 68.32V69.32V70.32C489.057 70.32 491.461 71.537 493.073 73.9135L493.901 73.352ZM485.693 69.32V68.32C481.661 68.32 478.503 69.8414 476.374 72.9283L477.197 73.496L478.02 74.0637C479.731 71.5826 482.236 70.32 485.693 70.32V69.32ZM477.197 73.496L476.383 72.9148C474.305 75.8244 473.317 79.6502 473.317 84.296H474.317H475.317C475.317 79.9178 476.249 76.5436 478.011 74.0772L477.197 73.496ZM474.317 84.296H473.317V119H474.317H475.317V84.296H474.317ZM474.317 119V118H446.957V119V120H474.317V119ZM550.54 150.536L550.12 151.444V151.444L550.54 150.536ZM535.42 138.728L534.774 137.965L534.057 138.572L534.618 139.325L535.42 138.728ZM554.284 122.744L555.046 122.096L554.399 121.336L553.638 121.981L554.284 122.744ZM581.644 127.064L580.995 126.303L580.989 126.309L580.983 126.314L581.644 127.064ZM586.54 111.8H587.54V108.995L585.766 111.167L586.54 111.8ZM544.06 109.928L543.299 110.576L543.303 110.582L543.308 110.587L544.06 109.928ZM544.06 56.792L543.308 56.1327L543.303 56.1386L544.06 56.792ZM586.54 54.92L585.766 55.5525L587.54 57.7254V54.92H586.54ZM586.54 47.72V46.72H585.54V47.72H586.54ZM613.9 47.72H614.9V46.72H613.9V47.72ZM610.3 131.384L609.384 130.982L609.382 130.988L610.3 131.384ZM600.508 144.776L601.139 145.552V145.552L600.508 144.776ZM586.54 152.408L586.224 151.459L586.219 151.461L586.54 152.408ZM565.516 92.936L564.781 93.6143L564.788 93.6218L564.795 93.6291L565.516 92.936ZM582.94 92.936L582.219 92.2429L582.212 92.2502L582.205 92.2577L582.94 92.936ZM582.94 73.64L582.205 74.3183L582.212 74.3258L582.219 74.3331L582.94 73.64ZM565.516 73.64L564.795 72.9469L564.788 72.9542L564.781 72.9617L565.516 73.64ZM570.268 155V154C563.701 154 557.268 152.547 550.96 149.628L550.54 150.536L550.12 151.444C556.677 154.477 563.395 156 570.268 156V155ZM550.54 150.536L550.96 149.628C544.655 146.711 539.756 142.873 536.222 138.131L535.42 138.728L534.618 139.325C538.381 144.375 543.562 148.409 550.12 151.444L550.54 150.536ZM535.42 138.728L536.067 139.491L554.931 123.507L554.284 122.744L553.638 121.981L534.774 137.965L535.42 138.728ZM554.284 122.744L553.522 123.392C558.549 129.305 564.182 132.384 570.412 132.384V131.384V130.384C564.93 130.384 559.811 127.703 555.046 122.096L554.284 122.744ZM570.412 131.384V132.384C574.888 132.384 578.865 130.85 582.306 127.814L581.644 127.064L580.983 126.314C577.895 129.038 574.384 130.384 570.412 130.384V131.384ZM581.644 127.064L582.293 127.825C585.838 124.801 587.54 120.358 587.54 114.68H586.54H585.54C585.54 119.946 583.978 123.759 580.995 126.303L581.644 127.064ZM586.54 114.68H587.54V111.8H586.54H585.54V114.68H586.54ZM586.54 111.8L585.766 111.167C581.272 116.67 575.137 119.44 567.244 119.44V120.44V121.44C575.671 121.44 582.401 118.45 587.315 112.433L586.54 111.8ZM567.244 120.44V119.44C558.22 119.44 550.766 116.06 544.812 109.269L544.06 109.928L543.308 110.587C549.642 117.812 557.644 121.44 567.244 121.44V120.44ZM544.06 109.928L544.822 109.28C538.949 102.382 535.988 93.7423 535.988 83.288H534.988H533.988C533.988 94.1457 537.075 103.266 543.299 110.576L544.06 109.928ZM534.988 83.288H535.988C535.988 72.8334 538.949 64.2446 544.817 57.4453L544.06 56.792L543.303 56.1386C537.075 63.3554 533.988 72.4306 533.988 83.288H534.988ZM544.06 56.792L544.812 57.4512C550.766 50.6596 558.22 47.28 567.244 47.28V46.28V45.28C557.644 45.28 549.642 48.9084 543.308 56.1328L544.06 56.792ZM567.244 46.28V47.28C575.137 47.28 581.272 50.0496 585.766 55.5525L586.54 54.92L587.315 54.2875C582.401 48.2704 575.671 45.28 567.244 45.28V46.28ZM586.54 54.92H587.54V47.72H586.54H585.54V54.92H586.54ZM586.54 47.72V48.72H613.9V47.72V46.72H586.54V47.72ZM613.9 47.72H612.9V112.664H613.9H614.9V47.72H613.9ZM613.9 112.664H612.9C612.9 119.557 611.72 125.657 609.384 130.982L610.3 131.384L611.216 131.786C613.68 126.167 614.9 119.787 614.9 112.664H613.9ZM610.3 131.384L609.382 130.988C607.037 136.429 603.864 140.755 599.877 144L600.508 144.776L601.139 145.552C605.409 142.077 608.764 137.475 611.219 131.78L610.3 131.384ZM600.508 144.776L599.877 144C595.845 147.282 591.296 149.768 586.224 151.459L586.54 152.408L586.856 153.357C592.152 151.592 596.915 148.99 601.139 145.552L600.508 144.776ZM586.54 152.408L586.219 151.461C581.241 153.151 575.927 154 570.268 154V155V156C576.13 156 581.663 155.121 586.862 153.355L586.54 152.408ZM565.516 92.936L564.795 93.6291C567.383 96.3208 570.572 97.68 574.3 97.68V96.68V95.68C571.117 95.68 568.449 94.5432 566.237 92.2429L565.516 92.936ZM574.3 96.68V97.68C578.03 97.68 581.178 96.3194 583.675 93.6143L582.94 92.936L582.205 92.2577C580.094 94.5446 577.483 95.68 574.3 95.68V96.68ZM582.94 92.936L583.661 93.6291C586.265 90.921 587.54 87.4442 587.54 83.288H586.54H585.54C585.54 87.0038 584.415 89.959 582.219 92.2429L582.94 92.936ZM586.54 83.288H587.54C587.54 79.1318 586.265 75.655 583.661 72.9469L582.94 73.64L582.219 74.3331C584.415 76.617 585.54 79.5722 585.54 83.288H586.54ZM582.94 73.64L583.675 72.9617C581.178 70.2566 578.03 68.896 574.3 68.896V69.896V70.896C577.483 70.896 580.094 72.0314 582.205 74.3183L582.94 73.64ZM574.3 69.896V68.896C570.572 68.896 567.383 70.2552 564.795 72.9469L565.516 73.64L566.237 74.3331C568.449 72.0328 571.117 70.896 574.3 70.896V69.896ZM565.516 73.64L564.781 72.9617C562.28 75.6716 561.06 79.1433 561.06 83.288H562.06H563.06C563.06 79.5607 564.144 76.6004 566.251 74.3183L565.516 73.64ZM562.06 83.288H561.06C561.06 87.4327 562.28 90.9044 564.781 93.6143L565.516 92.936L566.251 92.2577C564.144 89.9756 563.06 87.0153 563.06 83.288H562.06ZM679.188 109.928L678.427 110.576L678.432 110.582L678.436 110.587L679.188 109.928ZM679.188 56.792L678.436 56.1327L678.431 56.1386L679.188 56.792ZM721.668 54.92L720.894 55.5525L722.668 57.7254V54.92H721.668ZM721.668 47.72V46.72H720.668V47.72H721.668ZM749.028 47.72H750.028V46.72H749.028V47.72ZM749.028 119V120H750.028V119H749.028ZM721.668 119H720.668V120H721.668V119ZM721.668 111.8H722.668V108.995L720.894 111.167L721.668 111.8ZM700.644 92.936L699.91 93.6143L699.916 93.6218L699.924 93.6291L700.644 92.936ZM718.068 92.936L717.348 92.2429L717.34 92.2502L717.334 92.2577L718.068 92.936ZM718.068 73.64L717.334 74.3183L717.34 74.3258L717.348 74.3331L718.068 73.64ZM700.644 73.64L699.924 72.9469L699.916 72.9542L699.91 72.9617L700.644 73.64ZM702.372 120.44V119.44C693.349 119.44 685.895 116.06 679.94 109.269L679.188 109.928L678.436 110.587C684.77 117.812 692.772 121.44 702.372 121.44V120.44ZM679.188 109.928L679.95 109.28C674.078 102.382 671.116 93.7423 671.116 83.288H670.116H669.116C669.116 94.1457 672.203 103.266 678.427 110.576L679.188 109.928ZM670.116 83.288H671.116C671.116 72.8334 674.078 64.2446 679.945 57.4453L679.188 56.792L678.431 56.1386C672.203 63.3554 669.116 72.4306 669.116 83.288H670.116ZM679.188 56.792L679.94 57.4512C685.895 50.6596 693.349 47.28 702.372 47.28V46.28V45.28C692.772 45.28 684.77 48.9084 678.436 56.1328L679.188 56.792ZM702.372 46.28V47.28C710.265 47.28 716.4 50.0496 720.894 55.5525L721.668 54.92L722.443 54.2875C717.529 48.2704 710.799 45.28 702.372 45.28V46.28ZM721.668 54.92H722.668V47.72H721.668H720.668V54.92H721.668ZM721.668 47.72V48.72H749.028V47.72V46.72H721.668V47.72ZM749.028 47.72H748.028V119H749.028H750.028V47.72H749.028ZM749.028 119V118H721.668V119V120H749.028V119ZM721.668 119H722.668V111.8H721.668H720.668V119H721.668ZM721.668 111.8L720.894 111.167C716.4 116.67 710.265 119.44 702.372 119.44V120.44V121.44C710.799 121.44 717.529 118.45 722.443 112.433L721.668 111.8ZM700.644 92.936L699.924 93.6291C702.512 96.3208 705.7 97.68 709.428 97.68V96.68V95.68C706.245 95.68 703.577 94.5432 701.365 92.2429L700.644 92.936ZM709.428 96.68V97.68C713.158 97.68 716.306 96.3194 718.803 93.6143L718.068 92.936L717.334 92.2577C715.223 94.5446 712.611 95.68 709.428 95.68V96.68ZM718.068 92.936L718.789 93.6291C721.393 90.921 722.668 87.4442 722.668 83.288H721.668H720.668C720.668 87.0038 719.544 89.959 717.348 92.2429L718.068 92.936ZM721.668 83.288H722.668C722.668 79.1318 721.393 75.655 718.789 72.9469L718.068 73.64L717.348 74.3331C719.544 76.617 720.668 79.5722 720.668 83.288H721.668ZM718.068 73.64L718.803 72.9617C716.306 70.2566 713.158 68.896 709.428 68.896V69.896V70.896C712.611 70.896 715.223 72.0314 717.334 74.3183L718.068 73.64ZM709.428 69.896V68.896C705.7 68.896 702.512 70.2552 699.924 72.9469L700.644 73.64L701.365 74.3331C703.577 72.0328 706.245 70.896 709.428 70.896V69.896ZM700.644 73.64L699.91 72.9617C697.408 75.6716 696.188 79.1433 696.188 83.288H697.188H698.188C698.188 79.5607 699.273 76.6004 701.379 74.3183L700.644 73.64ZM697.188 83.288H696.188C696.188 87.4327 697.408 90.9044 699.91 93.6143L700.644 92.936L701.379 92.2577C699.273 89.9756 698.188 87.0153 698.188 83.288H697.188ZM764.196 119H763.196V120H764.196V119ZM764.196 47.72V46.72H763.196V47.72H764.196ZM791.556 47.72H792.556V46.72H791.556V47.72ZM791.556 55.208H790.556V57.8422L792.304 55.8716L791.556 55.208ZM833.172 55.928L832.41 56.576L832.415 56.5816L833.172 55.928ZM841.38 119V120H842.38V119H841.38ZM814.02 119H813.02V120H814.02V119ZM811.14 73.352L810.312 73.9135L810.319 73.9234L810.326 73.9332L811.14 73.352ZM794.436 73.496L795.249 74.0772L795.254 74.0705L795.259 74.0637L794.436 73.496ZM791.556 119V120H792.556V119H791.556ZM764.196 119H765.196V47.72H764.196H763.196V119H764.196ZM764.196 47.72V48.72H791.556V47.72V46.72H764.196V47.72ZM791.556 47.72H790.556V55.208H791.556H792.556V47.72H791.556ZM791.556 55.208L792.304 55.8716C797.399 50.1279 803.657 47.28 811.14 47.28V46.28V45.28C803.07 45.28 796.272 48.3841 790.808 54.5444L791.556 55.208ZM811.14 46.28V47.28C820.093 47.28 827.147 50.3894 832.41 56.576L833.172 55.928L833.933 55.28C828.253 48.6026 820.619 45.28 811.14 45.28V46.28ZM833.172 55.928L832.415 56.5816C837.688 62.6878 840.38 71.0235 840.38 81.704H841.38H842.38C842.38 70.6885 839.599 61.8402 833.928 55.2744L833.172 55.928ZM841.38 81.704H840.38V119H841.38H842.38V81.704H841.38ZM841.38 119V118H814.02V119V120H841.38V119ZM814.02 119H815.02V84.296H814.02H813.02V119H814.02ZM814.02 84.296H815.02C815.02 79.5596 814.034 75.6835 811.953 72.7708L811.14 73.352L810.326 73.9332C812.085 76.3965 813.02 79.8164 813.02 84.296H814.02ZM811.14 73.352L811.967 72.7905C809.932 69.791 806.863 68.32 802.932 68.32V69.32V70.32C806.296 70.32 808.699 71.537 810.312 73.9135L811.14 73.352ZM802.932 69.32V68.32C798.9 68.32 795.741 69.8414 793.612 72.9283L794.436 73.496L795.259 74.0637C796.97 71.5826 799.475 70.32 802.932 70.32V69.32ZM794.436 73.496L793.622 72.9148C791.544 75.8244 790.556 79.6502 790.556 84.296H791.556H792.556C792.556 79.9178 793.488 76.5436 795.249 74.0772L794.436 73.496ZM791.556 84.296H790.556V119H791.556H792.556V84.296H791.556ZM791.556 119V118H764.196V119V120H791.556V119ZM861.011 109.928L860.249 110.576L860.254 110.582L860.259 110.587L861.011 109.928ZM861.011 56.792L860.259 56.1327L860.254 56.1386L861.011 56.792ZM895.283 48.728L895.71 47.8237V47.8237L895.283 48.728ZM903.491 55.208L902.691 55.808L904.491 58.208V55.208H903.491ZM903.491 11V9.99999H902.491V11H903.491ZM930.851 11H931.851V9.99999H930.851V11ZM930.851 119V120H931.851V119H930.851ZM903.491 119H902.491V120H903.491V119ZM903.491 111.368H904.491V108.129L902.665 110.804L903.491 111.368ZM882.467 92.936L881.732 93.6143L881.739 93.6218L881.746 93.6291L882.467 92.936ZM899.891 92.936L899.17 92.2429L899.163 92.2502L899.156 92.2577L899.891 92.936ZM899.891 73.64L899.156 74.3183L899.163 74.3258L899.17 74.3331L899.891 73.64ZM882.467 73.64L881.746 72.9469L881.739 72.9542L881.732 72.9617L882.467 73.64ZM884.195 120.44V119.44C875.171 119.44 867.717 116.06 861.763 109.269L861.011 109.928L860.259 110.587C866.593 117.812 874.595 121.44 884.195 121.44V120.44ZM861.011 109.928L861.772 109.28C855.9 102.382 852.939 93.7423 852.939 83.288H851.939H850.939C850.939 94.1457 854.026 103.266 860.249 110.576L861.011 109.928ZM851.939 83.288H852.939C852.939 72.8334 855.9 64.2446 861.768 57.4453L861.011 56.792L860.254 56.1386C854.026 63.3554 850.939 72.4306 850.939 83.288H851.939ZM861.011 56.792L861.763 57.4512C867.717 50.6596 875.171 47.28 884.195 47.28V46.28V45.28C874.595 45.28 866.593 48.9084 860.259 56.1328L861.011 56.792ZM884.195 46.28V47.28C887.988 47.28 891.537 48.0652 894.856 49.6322L895.283 48.728L895.71 47.8237C892.116 46.1268 888.274 45.28 884.195 45.28V46.28ZM895.283 48.728L894.856 49.6322C898.185 51.2044 900.785 53.2672 902.691 55.808L903.491 55.208L904.291 54.608C902.164 51.7728 899.293 49.5156 895.71 47.8237L895.283 48.728ZM903.491 55.208H904.491V11H903.491H902.491V55.208H903.491ZM903.491 11V12H930.851V11V9.99999H903.491V11ZM930.851 11H929.851V119H930.851H931.851V11H930.851ZM930.851 119V118H903.491V119V120H930.851V119ZM903.491 119H904.491V111.368H903.491H902.491V119H903.491ZM903.491 111.368L902.665 110.804C898.761 116.524 892.673 119.44 884.195 119.44V120.44V121.44C893.188 121.44 899.965 118.308 904.317 111.932L903.491 111.368ZM882.467 92.936L881.746 93.6291C884.334 96.3208 887.522 97.68 891.251 97.68V96.68V95.68C888.068 95.68 885.4 94.5432 883.188 92.2429L882.467 92.936ZM891.251 96.68V97.68C894.98 97.68 898.129 96.3194 900.626 93.6143L899.891 92.936L899.156 92.2577C897.045 94.5446 894.433 95.68 891.251 95.68V96.68ZM899.891 92.936L900.612 93.6291C903.216 90.921 904.491 87.4442 904.491 83.288H903.491H902.491C902.491 87.0038 901.366 89.959 899.17 92.2429L899.891 92.936ZM903.491 83.288H904.491C904.491 79.1318 903.216 75.655 900.612 72.9469L899.891 73.64L899.17 74.3331C901.366 76.617 902.491 79.5722 902.491 83.288H903.491ZM899.891 73.64L900.626 72.9617C898.129 70.2566 894.98 68.896 891.251 68.896V69.896V70.896C894.433 70.896 897.045 72.0314 899.156 74.3183L899.891 73.64ZM891.251 69.896V68.896C887.522 68.896 884.334 70.2552 881.746 72.9469L882.467 73.64L883.188 74.3331C885.4 72.0328 888.068 70.896 891.251 70.896V69.896ZM882.467 73.64L881.732 72.9617C879.231 75.6716 878.011 79.1433 878.011 83.288H879.011H880.011C880.011 79.5607 881.095 76.6004 883.202 74.3183L882.467 73.64ZM879.011 83.288H878.011C878.011 87.4327 879.231 90.9044 881.732 93.6143L882.467 92.936L883.202 92.2577C881.095 89.9756 880.011 87.0153 880.011 83.288H879.011ZM991.682 119H990.682V120H991.682V119ZM991.682 18.2V17.2H990.682V18.2H991.682ZM1066.56 18.2H1067.56V17.2H1066.56V18.2ZM1066.56 43.688V44.688H1067.56V43.688H1066.56ZM1020.48 43.688V42.688H1019.48V43.688H1020.48ZM1020.48 56.072H1019.48V57.072H1020.48V56.072ZM1065.55 56.072H1066.55V55.072H1065.55V56.072ZM1065.55 80.84V81.84H1066.55V80.84H1065.55ZM1020.48 80.84V79.84H1019.48V80.84H1020.48ZM1020.48 93.512H1019.48V94.512H1020.48V93.512ZM1066.56 93.512H1067.56V92.512H1066.56V93.512ZM1066.56 119V120H1067.56V119H1066.56ZM991.682 119H992.682V18.2H991.682H990.682V119H991.682ZM991.682 18.2V19.2H1066.56V18.2V17.2H991.682V18.2ZM1066.56 18.2H1065.56V43.688H1066.56H1067.56V18.2H1066.56ZM1066.56 43.688V42.688H1020.48V43.688V44.688H1066.56V43.688ZM1020.48 43.688H1019.48V56.072H1020.48H1021.48V43.688H1020.48ZM1020.48 56.072V57.072H1065.55V56.072V55.072H1020.48V56.072ZM1065.55 56.072H1064.55V80.84H1065.55H1066.55V56.072H1065.55ZM1065.55 80.84V79.84H1020.48V80.84V81.84H1065.55V80.84ZM1020.48 80.84H1019.48V93.512H1020.48H1021.48V80.84H1020.48ZM1020.48 93.512V94.512H1066.56V93.512V92.512H1020.48V93.512ZM1066.56 93.512H1065.56V119H1066.56H1067.56V93.512H1066.56ZM1066.56 119V118H991.682V119V120H1066.56V119ZM1075.83 119L1075.01 118.425L1073.91 120H1075.83V119ZM1101.32 82.712L1102.14 83.2868L1102.55 82.7014L1102.13 82.1232L1101.32 82.712ZM1075.83 47.72V46.72H1073.87L1075.02 48.3088L1075.83 47.72ZM1108.38 47.72L1109.24 47.2207L1108.95 46.72H1108.38V47.72ZM1118.17 64.712L1117.3 65.2113L1118.17 66.726L1119.04 65.2058L1118.17 64.712ZM1127.82 47.72V46.72H1127.23L1126.95 47.2262L1127.82 47.72ZM1160.36 47.72L1161.17 48.3044L1162.31 46.72H1160.36V47.72ZM1135.16 82.712L1134.35 82.1276L1133.94 82.7015L1134.34 83.2824L1135.16 82.712ZM1160.36 119V120H1162.27L1161.18 118.43L1160.36 119ZM1127.96 119L1127.08 119.466L1127.36 120H1127.96V119ZM1118.17 100.424L1119.05 99.9577L1118.17 98.2917L1117.29 99.9523L1118.17 100.424ZM1108.23 119V120H1108.83L1109.11 119.472L1108.23 119ZM1075.83 119L1076.65 119.575L1102.14 83.2868L1101.32 82.712L1100.5 82.1372L1075.01 118.425L1075.83 119ZM1101.32 82.712L1102.13 82.1232L1076.64 47.1312L1075.83 47.72L1075.02 48.3088L1100.51 83.3008L1101.32 82.712ZM1075.83 47.72V48.72H1108.38V47.72V46.72H1075.83V47.72ZM1108.38 47.72L1107.51 48.2193L1117.3 65.2113L1118.17 64.712L1119.03 64.2127L1109.24 47.2207L1108.38 47.72ZM1118.17 64.712L1119.04 65.2058L1128.69 48.2138L1127.82 47.72L1126.95 47.2262L1117.3 64.2182L1118.17 64.712ZM1127.82 47.72V48.72H1160.36V47.72V46.72H1127.82V47.72ZM1160.36 47.72L1159.55 47.1356L1134.35 82.1276L1135.16 82.712L1135.97 83.2964L1161.17 48.3044L1160.36 47.72ZM1135.16 82.712L1134.34 83.2824L1159.54 119.57L1160.36 119L1161.18 118.43L1135.98 82.1416L1135.16 82.712ZM1160.36 119V118H1127.96V119V120H1160.36V119ZM1127.96 119L1128.84 118.534L1119.05 99.9577L1118.17 100.424L1117.28 100.89L1127.08 119.466L1127.96 119ZM1118.17 100.424L1117.29 99.9523L1107.35 118.528L1108.23 119L1109.11 119.472L1119.05 100.896L1118.17 100.424ZM1108.23 119V118H1075.83V119V120H1108.23V119ZM1237.98 91.064V92.064H1238.87L1238.97 91.1808L1237.98 91.064ZM1190.03 91.064V90.064H1188.57L1189.1 91.4264L1190.03 91.064ZM1216.38 92.648L1217.02 91.8831L1216.25 91.2281L1215.6 92.0167L1216.38 92.648ZM1232.8 106.472L1233.61 107.05L1234.14 106.3L1233.44 105.707L1232.8 106.472ZM1219.55 117.272L1219.96 118.185L1219.96 118.182L1219.97 118.179L1219.55 117.272ZM1175.2 110.216L1174.48 110.918L1174.49 110.928L1175.2 110.216ZM1175.2 56.072L1175.91 56.7744V56.7744L1175.2 56.072ZM1228.48 55.352L1227.75 56.0437L1227.76 56.0488L1228.48 55.352ZM1190.6 73.784L1189.69 73.3715L1189.05 74.784H1190.6V73.784ZM1213.36 73.784V74.784H1214.78L1214.3 73.4465L1213.36 73.784ZM1237.98 91.064V90.064H1190.03V91.064V92.064H1237.98V91.064ZM1190.03 91.064L1189.1 91.4264C1190.17 94.1893 1191.83 96.3169 1194.1 97.7429C1196.37 99.1634 1199.16 99.84 1202.41 99.84V98.84V97.84C1199.43 97.84 1197.03 97.2206 1195.17 96.0491C1193.31 94.8831 1191.9 93.1227 1190.96 90.7016L1190.03 91.064ZM1202.41 98.84V99.84C1208.62 99.84 1213.58 97.6701 1217.16 93.2793L1216.38 92.648L1215.6 92.0167C1212.46 95.8819 1208.1 97.84 1202.41 97.84V98.84ZM1216.38 92.648L1215.74 93.4129L1232.15 107.237L1232.8 106.472L1233.44 105.707L1217.02 91.8831L1216.38 92.648ZM1232.8 106.472L1231.98 105.894C1228.83 110.348 1224.55 113.84 1219.13 116.365L1219.55 117.272L1219.97 118.179C1225.68 115.52 1230.24 111.812 1233.61 107.05L1232.8 106.472ZM1219.55 117.272L1219.14 116.359C1213.69 118.801 1208.17 120.016 1202.56 120.016V121.016V122.016C1208.47 122.016 1214.27 120.735 1219.96 118.185L1219.55 117.272ZM1202.56 121.016V120.016C1191.86 120.016 1182.99 116.506 1175.9 109.504L1175.2 110.216L1174.49 110.928C1181.99 118.326 1191.37 122.016 1202.56 122.016V121.016ZM1175.2 110.216L1175.91 109.514C1168.9 102.411 1165.4 93.7379 1165.4 83.432H1164.4H1163.4C1163.4 94.2461 1167.09 103.429 1174.48 110.918L1175.2 110.216ZM1164.4 83.432H1165.4C1165.4 72.7312 1168.91 63.8697 1175.91 56.7744L1175.2 56.072L1174.48 55.3696C1167.09 62.8663 1163.4 72.2447 1163.4 83.432H1164.4ZM1175.2 56.072L1175.91 56.7744C1182.91 49.6827 1191.72 46.128 1202.41 46.128V45.128V44.128C1191.22 44.128 1181.89 47.8693 1174.48 55.3696L1175.2 56.072ZM1202.41 45.128V46.128C1213.03 46.128 1221.44 49.4546 1227.75 56.0437L1228.48 55.352L1229.2 54.6603C1222.45 47.6174 1213.49 44.128 1202.41 44.128V45.128ZM1228.48 55.352L1227.76 56.0488C1234.05 62.5268 1237.27 71.8433 1237.27 84.152H1238.27H1239.27C1239.27 71.5007 1235.96 61.6171 1229.19 54.6552L1228.48 55.352ZM1238.27 84.152H1237.27C1237.27 87.1148 1237.17 89.3731 1236.99 90.9472L1237.98 91.064L1238.97 91.1808C1239.17 89.4909 1239.27 87.1412 1239.27 84.152H1238.27ZM1202.56 66.152V65.152C1199.57 65.152 1196.96 65.8237 1194.78 67.2172C1192.6 68.6112 1190.91 70.6836 1189.69 73.3715L1190.6 73.784L1191.52 74.1965C1192.6 71.7964 1194.06 70.0528 1195.86 68.9028C1197.66 67.7523 1199.88 67.152 1202.56 67.152V66.152ZM1190.6 73.784V74.784H1213.36V73.784V72.784H1190.6V73.784ZM1213.36 73.784L1214.3 73.4465C1213.33 70.7535 1211.87 68.6584 1209.87 67.2433C1207.86 65.8279 1205.4 65.152 1202.56 65.152V66.152V67.152C1205.08 67.152 1207.11 67.7481 1208.71 68.8767C1210.31 70.0056 1211.56 71.7265 1212.42 74.1215L1213.36 73.784ZM1257.82 110.072L1257.13 110.788L1257.13 110.793L1257.82 110.072ZM1257.82 56.36L1257.12 55.6484V55.6484L1257.82 56.36ZM1302.75 49.448L1302.29 50.3329L1302.29 50.3362L1302.75 49.448ZM1316.43 61.112L1317.03 61.9106L1317.82 61.3197L1317.24 60.5248L1316.43 61.112ZM1295.98 76.52L1295.12 77.0203L1295.68 77.9986L1296.59 77.3186L1295.98 76.52ZM1276.54 73.928L1277.27 74.6211L1277.27 74.6143L1277.28 74.6074L1276.54 73.928ZM1276.4 92.648L1275.67 93.3263L1275.67 93.3338L1275.68 93.3411L1276.4 92.648ZM1296.13 90.056L1296.73 89.2587L1295.75 88.5184L1295.23 89.6253L1296.13 90.056ZM1316.29 105.32L1317.09 105.915L1317.68 105.12L1316.89 104.523L1316.29 105.32ZM1302.75 116.84L1303.21 117.731L1303.22 117.725L1302.75 116.84ZM1285.04 121.016V120.016C1274.74 120.016 1265.91 116.467 1258.52 109.351L1257.82 110.072L1257.13 110.793C1264.9 118.269 1274.22 122.016 1285.04 122.016V121.016ZM1257.82 110.072L1258.52 109.356C1251.13 102.15 1247.45 93.4787 1247.45 83.288H1246.45H1245.45C1245.45 94.0253 1249.35 103.21 1257.13 110.788L1257.82 110.072ZM1246.45 83.288H1247.45C1247.45 73.0969 1251.13 64.3756 1258.53 57.0716L1257.82 56.36L1257.12 55.6484C1249.35 63.3204 1245.45 72.5511 1245.45 83.288H1246.45ZM1257.82 56.36L1258.53 57.0716C1265.93 49.7665 1274.75 46.128 1285.04 46.128V45.128V44.128C1274.21 44.128 1264.89 47.9775 1257.12 55.6484L1257.82 56.36ZM1285.04 45.128V46.128C1291.22 46.128 1296.96 47.5304 1302.29 50.3329L1302.75 49.448L1303.22 48.5631C1297.6 45.6056 1291.53 44.128 1285.04 44.128V45.128ZM1302.75 49.448L1302.29 50.3362C1307.73 53.1472 1312.17 56.9341 1315.62 61.6992L1316.43 61.112L1317.24 60.5248C1313.59 55.4979 1308.91 51.5088 1303.21 48.5598L1302.75 49.448ZM1316.43 61.112L1315.83 60.3134L1295.38 75.7213L1295.98 76.52L1296.59 77.3186L1317.03 61.9106L1316.43 61.112ZM1295.98 76.52L1296.85 76.0197C1294.18 71.4055 1290.21 69.04 1285.04 69.04V70.04V71.04C1289.47 71.04 1292.79 72.9945 1295.12 77.0203L1295.98 76.52ZM1285.04 70.04V69.04C1281.47 69.04 1278.38 70.471 1275.81 73.2486L1276.54 73.928L1277.28 74.6074C1279.51 72.201 1282.08 71.04 1285.04 71.04V70.04ZM1276.54 73.928L1275.82 73.2349C1273.22 75.9382 1271.94 79.3643 1271.94 83.432H1272.94H1273.94C1273.94 79.8197 1275.06 76.9098 1277.27 74.6211L1276.54 73.928ZM1272.94 83.432H1271.94C1271.94 87.3111 1273.18 90.6312 1275.67 93.3263L1276.4 92.648L1277.14 91.9697C1275.01 89.6728 1273.94 86.8489 1273.94 83.432H1272.94ZM1276.4 92.648L1275.68 93.3411C1278.26 96.0199 1281.34 97.392 1284.9 97.392V96.392V95.392C1281.92 95.392 1279.35 94.2681 1277.12 91.9549L1276.4 92.648ZM1284.9 96.392V97.392C1287.76 97.392 1290.24 96.8396 1292.3 95.679C1294.37 94.5129 1295.94 92.7669 1297.03 90.4867L1296.13 90.056L1295.23 89.6253C1294.3 91.5691 1292.99 92.9911 1291.32 93.937C1289.63 94.8884 1287.51 95.392 1284.9 95.392V96.392ZM1296.13 90.056L1295.52 90.8533L1315.68 106.117L1316.29 105.32L1316.89 104.523L1296.73 89.2587L1296.13 90.056ZM1316.29 105.32L1315.48 104.725C1312.03 109.4 1307.63 113.143 1302.29 115.955L1302.75 116.84L1303.22 117.725C1308.82 114.777 1313.45 110.84 1317.09 105.915L1316.29 105.32ZM1302.75 116.84L1302.3 115.949C1296.97 118.659 1291.22 120.016 1285.04 120.016V121.016V122.016C1291.53 122.016 1297.59 120.589 1303.21 117.731L1302.75 116.84ZM1333.95 110.36L1334.7 109.701V109.701L1333.95 110.36ZM1325.74 47.72V46.72H1324.74V47.72H1325.74ZM1353.1 47.72H1354.1V46.72H1353.1V47.72ZM1355.84 92.648L1355 93.196L1355.02 93.2129L1355.03 93.2292L1355.84 92.648ZM1375.57 47.72V46.72H1374.57V47.72H1375.57ZM1402.93 47.72H1403.93V46.72H1402.93V47.72ZM1402.93 119V120H1403.93V119H1402.93ZM1376.15 119H1375.15V120H1376.15V119ZM1376.15 111.08H1377.15V110.08H1376.15V111.08ZM1375.86 111.08V110.08H1375.38L1375.08 110.447L1375.86 111.08ZM1355.98 119.72V118.72C1347.02 118.72 1339.96 115.699 1334.7 109.701L1333.95 110.36L1333.2 111.019C1338.89 117.501 1346.52 120.72 1355.98 120.72V119.72ZM1333.95 110.36L1334.7 109.701C1329.43 103.69 1326.74 95.5001 1326.74 85.016H1325.74H1324.74C1324.74 95.8439 1327.53 104.55 1333.2 111.019L1333.95 110.36ZM1325.74 85.016H1326.74V47.72H1325.74H1324.74V85.016H1325.74ZM1325.74 47.72V48.72H1353.1V47.72V46.72H1325.74V47.72ZM1353.1 47.72H1352.1V81.704H1353.1H1354.1V47.72H1353.1ZM1353.1 81.704H1352.1C1352.1 86.3434 1353.04 90.2007 1355 93.196L1355.84 92.648L1356.68 92.1C1354.99 89.5273 1354.1 86.0887 1354.1 81.704H1353.1ZM1355.84 92.648L1355.03 93.2292C1357.16 96.2104 1360.26 97.68 1364.19 97.68V96.68V95.68C1360.83 95.68 1358.37 94.4616 1356.65 92.0668L1355.84 92.648ZM1364.19 96.68V97.68C1368.22 97.68 1371.4 96.3389 1373.52 93.5409C1375.61 90.7948 1376.57 86.7942 1376.57 81.704H1375.57H1374.57C1374.57 86.5978 1373.63 90.0852 1371.93 92.3311C1370.26 94.5251 1367.75 95.68 1364.19 95.68V96.68ZM1375.57 81.704H1376.57V47.72H1375.57H1374.57V81.704H1375.57ZM1375.57 47.72V48.72H1402.93V47.72V46.72H1375.57V47.72ZM1402.93 47.72H1401.93V119H1402.93H1403.93V47.72H1402.93ZM1402.93 119V118H1376.15V119V120H1402.93V119ZM1376.15 119H1377.15V111.08H1376.15H1375.15V119H1376.15ZM1376.15 111.08V110.08H1375.86V111.08V112.08H1376.15V111.08ZM1375.86 111.08L1375.08 110.447C1370.6 115.939 1364.28 118.72 1355.98 118.72V119.72V120.72C1364.78 120.72 1371.71 117.741 1376.63 111.713L1375.86 111.08ZM1435.52 111.08L1436.2 110.344V110.344L1435.52 111.08ZM1426.59 71.48H1427.59V70.48H1426.59V71.48ZM1413.06 71.48H1412.06V72.48H1413.06V71.48ZM1413.06 47.72V46.72H1412.06V47.72H1413.06ZM1426.59 47.72V48.72H1427.59V47.72H1426.59ZM1426.59 26.984V25.984H1425.59V26.984H1426.59ZM1453.52 26.984H1454.52V25.984H1453.52V26.984ZM1453.52 47.72H1452.52V48.72H1453.52V47.72ZM1472.96 47.72H1473.96V46.72H1472.96V47.72ZM1472.96 71.48V72.48H1473.96V71.48H1472.96ZM1453.52 71.48V70.48H1452.52V71.48H1453.52ZM1471.66 93.224L1472.66 93.1082L1472.51 91.8322L1471.31 92.2895L1471.66 93.224ZM1474.4 116.696L1474.7 117.651L1475.49 117.405L1475.39 116.58L1474.4 116.696ZM1458.7 119.288V118.288C1449.4 118.288 1441.93 115.617 1436.2 110.344L1435.52 111.08L1434.84 111.816C1441.01 117.487 1449 120.288 1458.7 120.288V119.288ZM1435.52 111.08L1436.2 110.344C1430.46 105.073 1427.59 98.3381 1427.59 90.056H1426.59H1425.59C1425.59 98.8619 1428.67 106.143 1434.84 111.816L1435.52 111.08ZM1426.59 90.056H1427.59V71.48H1426.59H1425.59V90.056H1426.59ZM1426.59 71.48V70.48H1413.06V71.48V72.48H1426.59V71.48ZM1413.06 71.48H1414.06V47.72H1413.06H1412.06V71.48H1413.06ZM1413.06 47.72V48.72H1426.59V47.72V46.72H1413.06V47.72ZM1426.59 47.72H1427.59V26.984H1426.59H1425.59V47.72H1426.59ZM1426.59 26.984V27.984H1453.52V26.984V25.984H1426.59V26.984ZM1453.52 26.984H1452.52V47.72H1453.52H1454.52V26.984H1453.52ZM1453.52 47.72V48.72H1472.96V47.72V46.72H1453.52V47.72ZM1472.96 47.72H1471.96V71.48H1472.96H1473.96V47.72H1472.96ZM1472.96 71.48V70.48H1453.52V71.48V72.48H1472.96V71.48ZM1453.52 71.48H1452.52V83.72H1453.52H1454.52V71.48H1453.52ZM1453.52 83.72H1452.52C1452.52 87.447 1453.53 90.4203 1455.72 92.4461C1457.9 94.4583 1461.06 95.376 1465.04 95.376V94.376V93.376C1461.34 93.376 1458.74 92.5177 1457.08 90.9779C1455.43 89.4517 1454.52 87.097 1454.52 83.72H1453.52ZM1465.04 94.376V95.376C1467.55 95.376 1469.88 94.9744 1472.02 94.1585L1471.66 93.224L1471.31 92.2895C1469.42 93.0096 1467.33 93.376 1465.04 93.376V94.376ZM1471.66 93.224L1470.67 93.3398L1473.41 116.812L1474.4 116.696L1475.39 116.58L1472.66 93.1082L1471.66 93.224ZM1474.4 116.696L1474.1 115.741C1468.61 117.445 1463.48 118.288 1458.7 118.288V119.288V120.288C1463.72 120.288 1469.05 119.403 1474.7 117.651L1474.4 116.696ZM1490.21 35.192L1489.5 35.8874L1489.51 35.8992L1489.52 35.9106L1490.21 35.192ZM1490.21 14.456L1490.91 15.175L1490.91 15.1746L1490.21 14.456ZM1511.24 14.456L1510.53 15.1631L1510.54 15.1749L1510.56 15.1863L1511.24 14.456ZM1511.24 35.192L1511.95 35.8991V35.8991L1511.24 35.192ZM1487.48 119H1486.48V120H1487.48V119ZM1487.48 47.72V46.72H1486.48V47.72H1487.48ZM1514.26 47.72H1515.26V46.72H1514.26V47.72ZM1514.26 119V120H1515.26V119H1514.26ZM1500.87 39.512V38.512C1497 38.512 1493.7 37.1736 1490.91 34.4734L1490.21 35.192L1489.52 35.9106C1492.68 38.9704 1496.48 40.512 1500.87 40.512V39.512ZM1490.21 35.192L1490.93 34.4966C1488.23 31.7064 1486.89 28.4035 1486.89 24.536H1485.89H1484.89C1484.89 28.9245 1486.44 32.7256 1489.5 35.8874L1490.21 35.192ZM1485.89 24.536H1486.89C1486.89 20.8764 1488.22 17.7743 1490.91 15.175L1490.21 14.456L1489.52 13.737C1486.45 16.7057 1484.89 20.3235 1484.89 24.536H1485.89ZM1490.21 14.456L1490.91 15.1746C1493.7 12.4744 1497 11.136 1500.87 11.136V10.136V9.13599C1496.48 9.13599 1492.68 10.6776 1489.52 13.7374L1490.21 14.456ZM1500.87 10.136V11.136C1504.63 11.136 1507.84 12.4685 1510.53 15.1631L1511.24 14.456L1511.95 13.7489C1508.88 10.6835 1505.17 9.13599 1500.87 9.13599V10.136ZM1511.24 14.456L1510.56 15.1863C1513.34 17.7887 1514.7 20.8876 1514.7 24.536H1515.7H1516.7C1516.7 20.3124 1515.09 16.6913 1511.92 13.7257L1511.24 14.456ZM1515.7 24.536H1514.7C1514.7 28.393 1513.32 31.6923 1510.53 34.4849L1511.24 35.192L1511.95 35.8991C1515.1 32.7397 1516.7 28.935 1516.7 24.536H1515.7ZM1511.24 35.192L1510.53 34.4849C1507.84 37.1795 1504.63 38.512 1500.87 38.512V39.512V40.512C1505.17 40.512 1508.88 38.9645 1511.95 35.8991L1511.24 35.192ZM1487.48 119H1488.48V47.72H1487.48H1486.48V119H1487.48ZM1487.48 47.72V48.72H1514.26V47.72V46.72H1487.48V47.72ZM1514.26 47.72H1513.26V119H1514.26H1515.26V47.72H1514.26ZM1514.26 119V118H1487.48V119V120H1514.26V119ZM1591.24 110.072L1591.94 110.793L1591.94 110.788L1591.24 110.072ZM1536.81 110.072L1536.11 110.788L1536.12 110.793L1536.81 110.072ZM1536.81 56.36L1536.11 55.6484V55.6484L1536.81 56.36ZM1591.24 56.36L1591.95 55.6484V55.6484L1591.24 56.36ZM1555.1 93.08L1554.37 93.7605L1554.37 93.7671L1554.38 93.7736L1555.1 93.08ZM1572.96 93.08L1573.68 93.7736L1573.68 93.7671L1573.69 93.7605L1572.96 93.08ZM1572.96 73.784L1572.22 74.4644L1572.23 74.4711L1572.24 74.4776L1572.96 73.784ZM1555.1 73.784L1555.82 74.4776L1555.83 74.4711L1555.83 74.4644L1555.1 73.784ZM1591.24 110.072L1590.55 109.351C1583.15 116.467 1574.33 120.016 1564.03 120.016V121.016V122.016C1574.85 122.016 1584.17 118.269 1591.94 110.793L1591.24 110.072ZM1564.03 121.016V120.016C1553.73 120.016 1544.9 116.467 1537.51 109.351L1536.81 110.072L1536.12 110.793C1543.89 118.269 1553.21 122.016 1564.03 122.016V121.016ZM1536.81 110.072L1537.51 109.356C1530.12 102.15 1526.44 93.4787 1526.44 83.288H1525.44H1524.44C1524.44 94.0253 1528.34 103.21 1536.11 110.788L1536.81 110.072ZM1525.44 83.288H1526.44C1526.44 73.0969 1530.12 64.3756 1537.52 57.0716L1536.81 56.36L1536.11 55.6484C1528.34 63.3204 1524.44 72.5511 1524.44 83.288H1525.44ZM1536.81 56.36L1537.52 57.0716C1544.91 49.7665 1553.73 46.128 1564.03 46.128V45.128V44.128C1553.2 44.128 1543.88 47.9775 1536.11 55.6484L1536.81 56.36ZM1564.03 45.128V46.128C1574.32 46.128 1583.14 49.7665 1590.54 57.0716L1591.24 56.36L1591.95 55.6484C1584.18 47.9775 1574.85 44.128 1564.03 44.128V45.128ZM1591.24 56.36L1590.54 57.0716C1597.94 64.3756 1601.62 73.0969 1601.62 83.288H1602.62H1603.62C1603.62 72.5511 1599.72 63.3204 1591.95 55.6484L1591.24 56.36ZM1602.62 83.288H1601.62C1601.62 93.4787 1597.94 102.15 1590.55 109.356L1591.24 110.072L1591.94 110.788C1599.72 103.21 1603.62 94.0253 1603.62 83.288H1602.62ZM1555.1 93.08L1554.38 93.7736C1557.06 96.5523 1560.29 97.968 1564.03 97.968V96.968V95.968C1560.86 95.968 1558.14 94.7917 1555.82 92.3864L1555.1 93.08ZM1564.03 96.968V97.968C1567.77 97.968 1571 96.5523 1573.68 93.7736L1572.96 93.08L1572.24 92.3864C1569.92 94.7917 1567.2 95.968 1564.03 95.968V96.968ZM1572.96 93.08L1573.69 93.7605C1576.36 90.8833 1577.7 87.4226 1577.7 83.432H1576.7H1575.7C1575.7 86.9294 1574.54 89.9007 1572.22 92.3996L1572.96 93.08ZM1576.7 83.432H1577.7C1577.7 79.3524 1576.37 75.882 1573.68 73.0904L1572.96 73.784L1572.24 74.4776C1574.54 76.87 1575.7 79.8316 1575.7 83.432H1576.7ZM1572.96 73.784L1573.69 73.1035C1571.02 70.2258 1567.78 68.752 1564.03 68.752V69.752V70.752C1567.19 70.752 1569.9 71.9662 1572.22 74.4644L1572.96 73.784ZM1564.03 69.752V68.752C1560.28 68.752 1557.04 70.2258 1554.37 73.1035L1555.1 73.784L1555.83 74.4644C1558.15 71.9662 1560.87 70.752 1564.03 70.752V69.752ZM1555.1 73.784L1554.38 73.0904C1551.69 75.882 1550.36 79.3524 1550.36 83.432H1551.36H1552.36C1552.36 79.8316 1553.52 76.87 1555.82 74.4776L1555.1 73.784ZM1551.36 83.432H1550.36C1550.36 87.4226 1551.7 90.8833 1554.37 93.7605L1555.1 93.08L1555.83 92.3996C1553.51 89.9007 1552.36 86.9294 1552.36 83.432H1551.36ZM1613.89 119H1612.89V120H1613.89V119ZM1613.89 47.72V46.72H1612.89V47.72H1613.89ZM1641.25 47.72H1642.25V46.72H1641.25V47.72ZM1641.25 55.208H1640.25V57.8422L1642 55.8716L1641.25 55.208ZM1682.87 55.928L1682.11 56.576L1682.11 56.5816L1682.87 55.928ZM1691.08 119V120H1692.08V119H1691.08ZM1663.72 119H1662.72V120H1663.72V119ZM1660.84 73.352L1660.01 73.9135L1660.01 73.9234L1660.02 73.9332L1660.84 73.352ZM1644.13 73.496L1644.94 74.0772L1644.95 74.0705L1644.95 74.0637L1644.13 73.496ZM1641.25 119V120H1642.25V119H1641.25ZM1613.89 119H1614.89V47.72H1613.89H1612.89V119H1613.89ZM1613.89 47.72V48.72H1641.25V47.72V46.72H1613.89V47.72ZM1641.25 47.72H1640.25V55.208H1641.25H1642.25V47.72H1641.25ZM1641.25 55.208L1642 55.8716C1647.09 50.1279 1653.35 47.28 1660.84 47.28V46.28V45.28C1652.77 45.28 1645.97 48.3841 1640.5 54.5444L1641.25 55.208ZM1660.84 46.28V47.28C1669.79 47.28 1676.84 50.3894 1682.11 56.576L1682.87 55.928L1683.63 55.28C1677.95 48.6026 1670.31 45.28 1660.84 45.28V46.28ZM1682.87 55.928L1682.11 56.5816C1687.38 62.6878 1690.08 71.0235 1690.08 81.704H1691.08H1692.08C1692.08 70.6885 1689.29 61.8402 1683.62 55.2744L1682.87 55.928ZM1691.08 81.704H1690.08V119H1691.08H1692.08V81.704H1691.08ZM1691.08 119V118H1663.72V119V120H1691.08V119ZM1663.72 119H1664.72V84.296H1663.72H1662.72V119H1663.72ZM1663.72 84.296H1664.72C1664.72 79.5596 1663.73 75.6835 1661.65 72.7708L1660.84 73.352L1660.02 73.9332C1661.78 76.3965 1662.72 79.8164 1662.72 84.296H1663.72ZM1660.84 73.352L1661.66 72.7905C1659.63 69.791 1656.56 68.32 1652.63 68.32V69.32V70.32C1655.99 70.32 1658.4 71.537 1660.01 73.9135L1660.84 73.352ZM1652.63 69.32V68.32C1648.6 68.32 1645.44 69.8414 1643.31 72.9283L1644.13 73.496L1644.95 74.0637C1646.67 71.5826 1649.17 70.32 1652.63 70.32V69.32ZM1644.13 73.496L1643.32 72.9148C1641.24 75.8244 1640.25 79.6502 1640.25 84.296H1641.25H1642.25C1642.25 79.9178 1643.18 76.5436 1644.94 74.0772L1644.13 73.496ZM1641.25 84.296H1640.25V119H1641.25H1642.25V84.296H1641.25ZM1641.25 119V118H1613.89V119V120H1641.25V119Z" fill="#E9E9E9"/>
</svg>
