<svg width="2051" height="128" viewBox="0 0 2051 128" fill="none" xmlns="http://www.w3.org/2000/svg">
<path fill-rule="evenodd" clip-rule="evenodd" d="M68.3746 0H104.99L69.8073 74.7081C64.1403 86.726 57.2303 95.1979 48.9532 99.7963C40.7964 104.328 30.5951 106.528 18.4619 106.528H16.2675L19.087 76.176H20.9099C29.072 76.176 34.683 74.3892 38.1788 71.1982L0 0H37.143L54.1543 35.3516L68.3746 0ZM54.3179 40.304L35.8859 2H3.34186L40.6379 71.552C36.7019 75.968 30.1259 78.176 20.9099 78.176L18.4619 104.528C19.1387 104.528 19.8089 104.521 20.4724 104.507C31.4782 104.275 40.648 102.122 47.9819 98.048C55.7579 93.728 62.4299 85.664 67.9979 73.856L101.838 2H69.7259L54.3179 40.304ZM154.008 29.52H184.936V104.8H154.008V80.608H134.392V104.8H103.464V29.52H134.392V53.712H154.008V29.52ZM156.008 55.712H132.392V31.52H105.464V102.8H132.392V78.608H156.008V102.8H182.936V31.52H156.008V55.712ZM247.921 29.52H276.543V104.8H246.911V74.7361L223.981 104.8H195.359V29.52H224.991V59.5839L247.921 29.52ZM222.991 65.504V31.52H197.359V102.8H222.991L248.911 68.816V102.8H274.543V31.52H248.911L222.991 65.504ZM286.974 104.8V29.52H318.334V52.56H321.463L337.015 29.52H376.837L347.243 65.9784L376.663 104.8H337.554L321.57 79.6H318.334V104.8H286.974ZM316.334 77.6H322.67L338.654 102.8H372.638L344.702 65.936L372.638 31.52H338.078L322.526 54.56H316.334V31.52H288.974V102.8H316.334V77.6ZM383.572 95.0356L383.563 95.0245C377.164 87.5077 374.014 78.1475 374.014 67.088C374.014 56.0292 377.163 46.7108 383.572 39.2853L383.577 39.2794L383.582 39.2735C390.105 31.8328 398.381 28.08 408.27 28.08C415.103 28.08 420.907 29.9955 425.566 33.8619V29.52H456.926V104.8H425.566V100.458C420.907 104.324 415.103 106.24 408.27 106.24C398.381 106.24 390.105 102.487 383.582 95.0465L383.572 95.0356ZM425.566 97.7757C426.264 97.103 426.931 96.3778 427.566 95.6V102.8H454.926V31.52H427.566V38.72C426.931 37.9423 426.264 37.217 425.566 36.5443C421.093 32.2348 415.328 30.08 408.27 30.08C398.958 30.08 391.23 33.584 385.086 40.592C379.038 47.6 376.014 56.432 376.014 67.088C376.014 77.744 379.038 86.624 385.086 93.728C391.23 100.736 398.958 104.24 408.27 104.24C415.328 104.24 421.093 102.085 425.566 97.7757ZM422.51 75.3645L422.524 75.3498C424.516 73.278 425.566 70.5836 425.566 67.088C425.566 63.5924 424.516 60.898 422.524 58.8262L422.51 58.8115L422.496 58.7966C420.578 56.7188 418.235 55.696 415.326 55.696C412.422 55.696 410.018 56.7169 407.997 58.8119C406.097 60.8782 405.086 63.5782 405.086 67.088C405.086 70.5979 406.097 73.2979 407.997 75.3643C410.018 77.4592 412.422 78.48 415.326 78.48C418.235 78.48 420.578 77.4572 422.496 75.3794L422.51 75.3645ZM463.632 104.671V78.336H467.792C467.978 78.336 468.603 78.2975 469.786 78.1989C470.324 78.1541 470.709 78.102 470.964 78.0508C470.999 78.0438 471.03 78.0373 471.056 78.0312C471.584 77.618 472.262 77.2691 472.937 76.9654C473.186 76.8198 473.331 76.695 473.41 76.6086C473.487 76.5243 473.5 76.4806 473.501 76.4749L473.524 76.3971L473.552 76.3218C473.867 75.4821 474.275 74.5646 474.77 73.5738C475.121 72.7879 475.362 71.7951 475.445 70.555L475.449 70.4973L475.456 70.4399C475.636 69.003 475.728 67.3599 475.728 65.504V29.52H550.576V104.8H519.648V56.416H506.656V69.104C506.656 81.3621 503.77 90.7032 497.537 96.6186C491.477 102.366 482.845 105.088 471.968 105.088C470.554 105.088 468.386 104.988 465.499 104.796L463.632 104.671ZM504.656 54.416H521.648V102.8H548.576V31.52H477.728V65.504C477.728 67.424 477.632 69.152 477.44 70.688C477.344 72.128 477.056 73.376 476.576 74.432C476.096 75.392 475.712 76.256 475.424 77.024C475.232 77.696 474.704 78.272 473.84 78.752C472.976 79.136 472.4 79.472 472.112 79.76C471.824 79.952 471.104 80.096 469.952 80.192C468.8 80.288 468.08 80.336 467.792 80.336H465.632V102.8C468.512 102.992 470.624 103.088 471.968 103.088C482.528 103.088 490.592 100.448 496.16 95.168C501.824 89.792 504.656 81.104 504.656 69.104V54.416ZM560.973 104.8V29.52H592.189V51.264H604.301C612.956 51.264 620.069 53.7416 625.415 58.8778C630.723 63.978 633.373 70.412 633.373 78.032C633.373 85.6521 630.723 92.086 625.415 97.1862C620.069 102.322 612.956 104.8 604.301 104.8H560.973ZM590.189 53.264V31.52H562.973V102.8H604.301C612.557 102.8 619.133 100.448 624.029 95.744C628.925 91.04 631.373 85.136 631.373 78.032C631.373 70.928 628.925 65.024 624.029 60.32C619.133 55.616 612.557 53.264 604.301 53.264H590.189ZM592.189 82.08H597.821C600.209 82.08 601.632 81.6063 602.425 80.9893C603.123 80.4466 603.597 79.5867 603.597 78.032C603.597 76.4773 603.123 75.6174 602.425 75.0747C601.632 74.4577 600.209 73.984 597.821 73.984H592.189V82.08ZM597.821 84.08C603.005 84.08 605.597 82.064 605.597 78.032C605.597 74 603.005 71.984 597.821 71.984H590.189V84.08H597.821ZM691.178 29.52H722.106V104.8H691.178V80.608H671.562V104.8H640.634V29.52H671.562V53.712H691.178V29.52ZM693.178 55.712H669.562V31.52H642.634V102.8H669.562V78.608H693.178V102.8H720.106V31.52H693.178V55.712ZM798.566 95.3042L798.557 95.3134C790.599 102.969 781.029 106.816 769.954 106.816C758.879 106.816 749.309 102.969 741.351 95.3133L741.342 95.3043C733.377 87.5409 729.362 78.0986 729.362 67.088C729.362 56.0781 733.376 46.5928 741.333 38.7368C749.287 30.8831 758.862 26.928 769.954 26.928C781.045 26.928 790.621 30.8831 798.575 38.7368C806.532 46.5928 810.546 56.0781 810.546 67.088C810.546 78.0986 806.531 87.5409 798.566 95.3042ZM777.429 58.9582L777.416 58.9449C775.273 56.6363 772.817 55.552 769.954 55.552C767.091 55.552 764.635 56.6363 762.492 58.9449L762.479 58.9582L762.467 58.9713C760.355 61.1639 759.282 63.8711 759.282 67.232C759.282 70.4761 760.342 73.1982 762.478 75.5048C764.612 77.7152 767.071 78.768 769.954 78.768C772.836 78.768 775.295 77.7157 777.428 75.5064C779.565 73.1994 780.626 70.4768 780.626 67.232C780.626 63.8711 779.553 61.1639 777.441 58.9713L777.429 58.9582ZM778.882 76.88C776.386 79.472 773.41 80.768 769.954 80.768C766.498 80.768 763.522 79.472 761.026 76.88C758.53 74.192 757.282 70.976 757.282 67.232C757.282 63.392 758.53 60.176 761.026 57.584C763.522 54.896 766.498 53.552 769.954 53.552C773.41 53.552 776.386 54.896 778.882 57.584C781.378 60.176 782.626 63.392 782.626 67.232C782.626 70.976 781.378 74.192 778.882 76.88ZM797.17 93.872C789.586 101.168 780.514 104.816 769.954 104.816C759.394 104.816 750.322 101.168 742.738 93.872C735.154 86.48 731.362 77.552 731.362 67.088C731.362 56.624 735.154 47.648 742.738 40.16C750.322 32.672 759.394 28.928 769.954 28.928C780.514 28.928 789.586 32.672 797.17 40.16C804.754 47.648 808.546 56.624 808.546 67.088C808.546 77.552 804.754 86.48 797.17 93.872ZM886.256 90.6973C882.911 94.7684 878.809 98.0827 873.95 100.64C868.478 103.424 862.574 104.816 856.238 104.816C845.294 104.816 836.03 101.216 828.446 94.016C820.862 86.816 817.07 77.84 817.07 67.088C817.07 56.336 820.862 47.312 828.446 40.016C836.03 32.624 845.294 28.928 856.238 28.928C862.574 28.928 868.478 30.368 873.95 33.248C878.902 35.8094 883.057 39.1681 886.414 43.324C886.539 43.4787 886.663 43.6344 886.786 43.7912C887.073 44.1584 887.354 44.5316 887.629 44.9109C887.63 44.9113 887.63 44.9116 887.63 44.912L867.182 60.32C866.836 59.7212 866.468 59.1638 866.078 58.648C863.653 55.4427 860.373 53.84 856.238 53.84C852.59 53.84 849.518 55.136 847.022 57.728C844.526 60.224 843.278 63.392 843.278 67.232C843.278 70.976 844.478 74.096 846.878 76.592C849.374 78.992 852.446 80.192 856.094 80.192C860.754 80.192 864.16 78.6607 866.314 75.5981C866.689 75.0639 867.027 74.4833 867.326 73.856L887.486 89.12C887.313 89.3542 887.137 89.5861 886.959 89.8157C886.729 90.1134 886.494 90.4073 886.256 90.6973ZM848.293 75.1779C850.39 77.1807 852.947 78.192 856.094 78.192C858.578 78.192 860.522 77.7127 862.023 76.866C863.505 76.0301 864.674 74.7701 865.521 72.9946L866.578 70.7808L890.27 88.7196L889.094 90.3097C885.356 95.3602 880.61 99.3949 874.882 102.41L874.869 102.416L874.857 102.423C869.095 105.354 862.879 106.816 856.238 106.816C844.808 106.816 835.043 103.037 827.069 95.4665C819.075 87.877 815.07 78.371 815.07 67.088C815.07 55.8082 819.072 46.2616 827.054 38.5804C835.024 30.8132 844.794 26.928 856.238 26.928C862.888 26.928 869.11 28.4419 874.875 31.4745C880.707 34.4921 885.508 38.5813 889.249 43.7376L890.402 45.3273L866.581 63.2772L865.45 61.3206C863.294 57.589 860.29 55.84 856.238 55.84C853.125 55.84 850.576 56.9209 848.463 59.1153L848.45 59.1289L848.436 59.1422C846.35 61.2283 845.278 63.8711 845.278 67.232C845.278 70.4907 846.3 73.0911 848.293 75.1779ZM969.861 29.52V56.704H947.253V104.8H916.469V56.704H893.861V29.52H969.861ZM918.469 54.704V102.8H945.253V54.704H967.861V31.52H895.861V54.704H918.469ZM977.279 104.8V29.52H1008.5V51.264H1020.61C1029.26 51.264 1036.38 53.7416 1041.72 58.8778C1047.03 63.978 1049.68 70.412 1049.68 78.032C1049.68 85.6521 1047.03 92.086 1041.72 97.1862C1036.38 102.322 1029.26 104.8 1020.61 104.8H977.279ZM1006.5 53.264V31.52H979.279V102.8H1020.61C1028.86 102.8 1035.44 100.448 1040.34 95.744C1045.23 91.04 1047.68 85.136 1047.68 78.032C1047.68 70.928 1045.23 65.024 1040.34 60.32C1035.44 55.616 1028.86 53.264 1020.61 53.264H1006.5ZM1008.5 82.08H1014.13C1016.52 82.08 1017.94 81.6063 1018.73 80.9893C1019.43 80.4466 1019.9 79.5867 1019.9 78.032C1019.9 76.4773 1019.43 75.6174 1018.73 75.0747C1017.94 74.4577 1016.52 73.984 1014.13 73.984H1008.5V82.08ZM1014.13 84.08C1019.31 84.08 1021.9 82.064 1021.9 78.032C1021.9 74 1019.31 71.984 1014.13 71.984H1006.5V84.08H1014.13ZM1154.43 29.52H1183.05V104.8H1153.42V74.7361L1130.49 104.8H1101.87V29.52H1131.5V59.584L1154.43 29.52ZM1129.5 65.504V31.52H1103.87V102.8H1129.5L1155.42 68.816V102.8H1181.05V31.52H1155.42L1129.5 65.504ZM1290.97 29.52H1319.59V104.8H1289.96V74.7361L1267.03 104.8H1238.41V29.52H1268.04V59.584L1290.97 29.52ZM1266.04 65.504V31.52H1240.41V102.8H1266.04L1291.96 68.816V102.8H1317.59V31.52H1291.96L1266.04 65.504ZM1380.57 29.52H1411.5V104.8H1380.57V80.608H1360.95V104.8H1330.02V29.52H1360.95V53.712H1380.57V29.52ZM1382.57 55.712H1358.95V31.52H1332.02V102.8H1358.95V78.608H1382.57V102.8H1409.5V31.52H1382.57V55.712ZM1472.46 29.52H1503.39V104.8H1472.46V80.608H1452.85V104.8H1421.92V29.52H1452.85V53.712H1472.46V29.52ZM1474.46 55.712H1450.85V31.52H1423.92V102.8H1450.85V78.608H1474.46V102.8H1501.39V31.52H1474.46V55.712ZM1579.85 95.3042L1579.84 95.3134C1571.88 102.969 1562.31 106.816 1551.24 106.816C1540.16 106.816 1530.59 102.969 1522.64 95.3133L1522.63 95.3043C1514.66 87.5409 1510.65 78.0986 1510.65 67.088C1510.65 56.0781 1514.66 46.5928 1522.62 38.7368C1530.57 30.8831 1540.15 26.928 1551.24 26.928C1562.33 26.928 1571.91 30.8831 1579.86 38.7368C1587.82 46.5928 1591.83 56.0781 1591.83 67.088C1591.83 78.0986 1587.82 87.5409 1579.85 95.3042ZM1558.71 58.9582L1558.7 58.9449C1556.56 56.6363 1554.1 55.552 1551.24 55.552C1548.38 55.552 1545.92 56.6363 1543.78 58.9449L1543.76 58.9582L1543.75 58.9713C1541.64 61.1639 1540.57 63.8711 1540.57 67.232C1540.57 70.4761 1541.63 73.1982 1543.76 75.5049C1545.9 77.7152 1548.36 78.768 1551.24 78.768C1554.12 78.768 1556.58 77.7161 1558.71 75.5079C1560.85 73.2007 1561.91 70.4775 1561.91 67.232C1561.91 63.8711 1560.84 61.1639 1558.73 58.9713L1558.71 58.9582ZM1560.17 76.88C1557.67 79.472 1554.69 80.768 1551.24 80.768C1547.78 80.768 1544.81 79.472 1542.31 76.88C1539.81 74.192 1538.57 70.976 1538.57 67.232C1538.57 63.392 1539.81 60.176 1542.31 57.584C1544.81 54.896 1547.78 53.552 1551.24 53.552C1554.69 53.552 1557.67 54.896 1560.17 57.584C1562.66 60.176 1563.91 63.392 1563.91 67.232C1563.91 70.976 1562.66 74.192 1560.17 76.88ZM1578.45 93.872C1570.87 101.168 1561.8 104.816 1551.24 104.816C1540.68 104.816 1531.61 101.168 1524.02 93.872C1516.44 86.48 1512.65 77.552 1512.65 67.088C1512.65 56.624 1516.44 47.648 1524.02 40.16C1531.61 32.672 1540.68 28.928 1551.24 28.928C1561.8 28.928 1570.87 32.672 1578.45 40.16C1586.04 47.648 1589.83 56.624 1589.83 67.088C1589.83 77.552 1586.04 86.48 1578.45 93.872ZM1599.8 104.8V29.52H1644.43C1653.69 29.52 1661.08 31.4852 1666.28 35.725C1671.57 39.9638 1674.22 45.6846 1674.22 52.688C1674.22 56.1967 1673.56 59.304 1672.14 61.9218C1671.25 63.5696 1670.07 64.9799 1668.64 66.1521C1670.38 67.4535 1671.86 69.1009 1673.06 71.0751C1674.91 74.023 1675.8 77.422 1675.8 81.2C1675.8 88.3011 1673.11 94.1136 1667.72 98.4451C1662.43 102.785 1654.9 104.8 1645.44 104.8H1599.8ZM1666.46 96.896C1671.36 92.96 1673.8 87.728 1673.8 81.2C1673.8 77.744 1672.99 74.72 1671.36 72.128C1670.16 70.1565 1668.68 68.5724 1666.91 67.3755C1666.27 66.9405 1665.59 66.5567 1664.88 66.224C1665.59 65.8587 1666.26 65.4502 1666.87 64.9986C1670.44 62.3642 1672.22 58.2606 1672.22 52.688C1672.22 46.256 1669.82 41.12 1665.02 37.28C1660.32 33.44 1653.45 31.52 1644.43 31.52H1601.8V102.8H1645.44C1654.65 102.8 1661.66 100.832 1666.46 96.896ZM1630.73 57.456H1638.38C1640.82 57.456 1642.3 57.0491 1643.12 56.5177C1643.79 56.0833 1644.16 55.4889 1644.16 54.416C1644.16 53.3431 1643.79 52.7487 1643.12 52.3143C1642.3 51.783 1640.82 51.376 1638.38 51.376H1630.73V57.456ZM1638.38 59.456C1643.56 59.456 1646.16 57.776 1646.16 54.416C1646.16 51.056 1643.56 49.376 1638.38 49.376H1628.73V59.456H1638.38ZM1630.73 82.944H1639.24C1641.71 82.944 1643.2 82.4962 1644.03 81.9085C1644.73 81.4104 1645.16 80.6685 1645.16 79.328C1645.16 78.0566 1644.75 77.3524 1644.05 76.8695C1643.21 76.2941 1641.72 75.856 1639.24 75.856H1630.73V82.944ZM1639.24 84.944C1644.52 84.944 1647.16 83.072 1647.16 79.328C1647.16 75.68 1644.52 73.856 1639.24 73.856H1628.73V84.944H1639.24ZM1689.23 39.2794L1689.24 39.2735C1695.76 31.8328 1704.04 28.08 1713.93 28.08C1720.76 28.08 1726.56 29.9955 1731.22 33.8619V29.52H1762.58V104.8H1731.22V100.458C1726.56 104.324 1720.76 106.24 1713.93 106.24C1704.04 106.24 1695.76 102.487 1689.24 95.0465L1689.23 95.0356L1689.22 95.0245C1682.82 87.5077 1679.67 78.1475 1679.67 67.088C1679.67 56.0292 1682.82 46.7108 1689.23 39.2853L1689.23 39.2794ZM1731.22 97.7757C1731.92 97.103 1732.59 96.3778 1733.22 95.6V102.8H1760.58V31.52H1733.22V38.72C1732.59 37.9422 1731.92 37.217 1731.22 36.5443C1726.75 32.2348 1720.99 30.08 1713.93 30.08C1704.62 30.08 1696.89 33.584 1690.74 40.592C1684.7 47.6 1681.67 56.432 1681.67 67.088C1681.67 77.744 1684.7 86.624 1690.74 93.728C1696.89 100.736 1704.62 104.24 1713.93 104.24C1720.99 104.24 1726.75 102.085 1731.22 97.7757ZM1713.66 75.3649C1715.68 77.4594 1718.08 78.48 1720.98 78.48C1723.89 78.48 1726.24 77.4572 1728.15 75.3794L1728.17 75.3645L1728.18 75.3498C1730.17 73.278 1731.22 70.5836 1731.22 67.088C1731.22 63.5924 1730.17 60.898 1728.18 58.8262L1728.17 58.8115L1728.15 58.7966C1726.24 56.7188 1723.89 55.696 1720.98 55.696C1718.08 55.696 1715.68 56.7167 1713.66 58.8112C1711.76 60.8777 1710.74 63.5779 1710.74 67.088C1710.74 70.5982 1711.76 73.2985 1713.66 75.3649ZM1712.2 76.736C1714.6 79.232 1717.53 80.48 1720.98 80.48C1724.44 80.48 1727.32 79.232 1729.62 76.736C1732.02 74.24 1733.22 71.024 1733.22 67.088C1733.22 63.152 1732.02 59.936 1729.62 57.44C1727.32 54.944 1724.44 53.696 1720.98 53.696C1717.53 53.696 1714.6 54.944 1712.2 57.44C1709.9 59.936 1708.74 63.152 1708.74 67.088C1708.74 71.024 1709.9 74.24 1712.2 76.736ZM1839.86 127.696V104.8H1773.05V29.52H1803.98V78.192H1823.02V29.52H1853.94V78.192H1869.06V127.696H1839.86ZM1851.94 80.192V31.52H1825.02V80.192H1801.98V31.52H1775.05V102.8H1841.86V125.696H1867.06V80.192H1851.94ZM1929.88 29.52H1958.5V104.8H1928.87V74.7361L1905.94 104.8H1877.32V29.52H1906.95V59.584L1929.88 29.52ZM1904.95 65.504V31.52H1879.32V102.8H1904.95L1930.87 68.816V102.8H1956.5V31.52H1930.87L1904.95 65.504ZM2021.5 29.52H2050.12V104.8H2020.49V74.7361L1997.56 104.8H1968.93V29.52H1998.57V59.584L2021.5 29.52ZM1996.57 65.504V31.52H1970.93V102.8H1996.57L2022.49 68.816V102.8H2048.12V31.52H2022.49L1996.57 65.504ZM415.326 80.48C411.87 80.48 408.942 79.232 406.542 76.736C404.238 74.24 403.086 71.024 403.086 67.088C403.086 63.152 404.238 59.936 406.542 57.44C408.942 54.944 411.87 53.696 415.326 53.696C418.782 53.696 421.662 54.944 423.966 57.44C426.366 59.936 427.566 63.152 427.566 67.088C427.566 71.024 426.366 74.24 423.966 76.736C421.662 79.232 418.782 80.48 415.326 80.48Z" fill="#E9E9E9"/>
</svg>
